<svg width="27" height="27" viewBox="0 0 27 27" fill="none" xmlns="http://www.w3.org/2000/svg">
<path d="M22.3537 9.67499C22.2699 9.4823 22.1338 9.31693 21.9608 9.19763C21.7878 9.07833 21.5849 9.00986 21.375 8.99999H16.2225L17.6512 3.66749C17.6967 3.50062 17.7032 3.32551 17.67 3.15576C17.6368 2.98602 17.565 2.8262 17.46 2.68874C17.3552 2.5526 17.2206 2.44227 17.0665 2.36621C16.9125 2.29016 16.743 2.2504 16.5712 2.24999H8.69623C8.44225 2.24129 8.1928 2.31884 7.98852 2.47001C7.78424 2.62118 7.63716 2.83706 7.57123 3.08249L4.55623 14.3325C4.51073 14.4994 4.50431 14.6745 4.53748 14.8442C4.57065 15.014 4.64251 15.1738 4.74748 15.3112C4.85344 15.4489 4.98984 15.5601 5.14598 15.6363C5.30213 15.7124 5.47378 15.7513 5.64748 15.75H10.0012L7.96498 23.3325C7.89827 23.577 7.91607 23.8369 8.0155 24.07C8.11493 24.3031 8.29017 24.4958 8.51281 24.6169C8.73546 24.738 8.99247 24.7804 9.2422 24.7371C9.49193 24.6939 9.71975 24.5676 9.88873 24.3787L22.1512 10.8787C22.2972 10.7189 22.394 10.5202 22.4299 10.3067C22.4659 10.0932 22.4394 9.87384 22.3537 9.67499ZM11.34 19.44L12.5437 14.94C12.5892 14.7731 12.5957 14.598 12.5625 14.4283C12.5293 14.2585 12.4575 14.0987 12.3525 13.9612C12.2477 13.8251 12.1131 13.7148 11.959 13.6387C11.805 13.5627 11.6355 13.5229 11.4637 13.5225H7.14373L9.55123 4.49999H15.0975L13.6687 9.83249C13.6229 10.0024 13.6175 10.1808 13.6531 10.3531C13.6887 10.5255 13.7642 10.6872 13.8737 10.825C13.9831 10.9629 14.1233 11.0732 14.2831 11.147C14.4429 11.2208 14.6178 11.2561 14.7937 11.25H18.81L11.34 19.44Z" fill="#00E398"/>
</svg>
