<svg width="543" height="531" viewBox="0 0 543 531" fill="none" xmlns="http://www.w3.org/2000/svg">
<g filter="url(#filter0_d_13_11867)">
<rect x="50" y="50" width="428" height="428" rx="28" fill="white"/>
</g>
<g opacity="0.73">
<mask id="mask0_13_11867" style="mask-type:alpha" maskUnits="userSpaceOnUse" x="50" y="50" width="428" height="428">
<rect x="50" y="50" width="428" height="428" rx="28" fill="#00E398"/>
</mask>
<g mask="url(#mask0_13_11867)">
<g style="mix-blend-mode:multiply">
<path d="M683.476 323.839C683.476 323.839 683.376 58.8389 541.376 -67.7611C416.176 -179.461 243.676 -202.161 127.876 -72.9611C86.5758 -26.9611 36.6758 21.0389 -15.1242 53.2389C-73.2242 89.3389 -141.224 105.739 -180.724 225.139C-220.324 344.539 -159.024 519.639 -69.2242 581.639C20.5758 643.639 161.376 620.639 282.376 594.639C403.376 568.639 672.976 652.639 683.476 323.839Z" fill="white"/>
<path opacity="0.7" d="M683.476 323.839C683.476 323.839 683.376 58.8389 541.376 -67.7611C416.176 -179.461 243.676 -202.161 127.876 -72.9611C86.5758 -26.9611 36.6758 21.0389 -15.1242 53.2389C-73.2242 89.3389 -141.224 105.739 -180.724 225.139C-220.324 344.539 -159.024 519.639 -69.2242 581.639C20.5758 643.639 161.376 620.639 282.376 594.639C403.376 568.639 672.976 652.639 683.476 323.839Z" fill="white"/>
<path opacity="0.07" d="M541.476 -67.6611C521.276 -85.6611 499.876 -101.361 477.676 -114.461L289.876 167.539L544.976 -64.4611C543.776 -65.5611 542.676 -66.6611 541.476 -67.6611ZM373.476 -155.361C343.776 -161.361 313.776 -162.661 284.476 -158.761L289.876 167.439L373.476 -155.361ZM176.776 -116.461C159.676 -104.461 143.276 -90.0611 127.876 -72.8611C122.776 -67.1611 117.576 -61.4611 112.176 -55.7611L289.976 167.539L176.776 -116.461ZM22.7759 26.8389C10.2759 36.4389 -2.3241 45.3389 -15.1241 53.2389C-43.3241 70.7389 -73.7241 83.5389 -102.124 105.739L289.976 167.539L22.7759 26.8389ZM-192.324 286.539C-195.724 337.439 -186.124 392.539 -167.424 442.339L289.976 167.539L-192.324 286.539ZM289.876 167.539L-36.6241 599.739C10.8759 620.339 67.9759 624.139 127.176 619.639L289.876 167.539ZM289.876 167.539L305.376 591.139C338.876 587.539 379.876 588.639 422.376 586.839L289.876 167.539ZM656.476 461.039L289.876 167.539L575.276 552.239C608.576 533.639 637.076 505.139 656.476 461.039ZM671.976 207.939L289.876 167.539L683.076 309.939C682.376 290.739 679.876 253.239 671.976 207.939ZM610.076 20.4389L289.876 167.539L643.676 96.6389C634.676 70.8389 623.676 45.0389 610.076 20.4389Z" fill="black"/>
</g>
</g>
</g>
<path fill-rule="evenodd" clip-rule="evenodd" d="M178.735 478C182.611 454.261 188.101 430.3 188.101 430.3L187.801 423.3L306.701 424.7C306.701 424.7 308.401 461.4 307.901 474.6C307.869 475.427 307.855 476.573 307.857 478H178.735Z" fill="#263238"/>
<path d="M188.101 430.3L188.466 430.384L188.477 430.334L188.475 430.284L188.101 430.3ZM178.735 478L178.365 477.939L178.294 478.375H178.735V478ZM187.801 423.3L187.805 422.925L187.409 422.92L187.426 423.316L187.801 423.3ZM306.701 424.7L307.075 424.682L307.059 424.329L306.705 424.325L306.701 424.7ZM307.901 474.6L308.275 474.614V474.614L307.901 474.6ZM307.857 478V478.375H308.233L308.232 477.999L307.857 478ZM188.101 430.3C187.735 430.216 187.735 430.216 187.735 430.216C187.735 430.217 187.735 430.217 187.735 430.217C187.735 430.218 187.734 430.219 187.734 430.221C187.733 430.223 187.732 430.228 187.731 430.234C187.728 430.245 187.724 430.263 187.719 430.286C187.709 430.332 187.693 430.401 187.672 430.492C187.631 430.673 187.57 430.942 187.491 431.294C187.334 431.996 187.104 433.025 186.816 434.334C186.241 436.953 185.433 440.691 184.504 445.172C182.647 454.132 180.304 466.063 178.365 477.939L179.105 478.06C181.042 466.198 183.382 454.279 185.239 445.324C186.167 440.847 186.974 437.111 187.549 434.495C187.836 433.187 188.065 432.159 188.223 431.458C188.302 431.107 188.363 430.839 188.404 430.658C188.424 430.567 188.44 430.499 188.45 430.453C188.456 430.43 188.46 430.412 188.462 430.401C188.463 430.395 188.464 430.391 188.465 430.388C188.465 430.386 188.466 430.385 188.466 430.385C188.466 430.384 188.466 430.384 188.466 430.384C188.466 430.384 188.466 430.384 188.101 430.3ZM187.426 423.316L187.726 430.316L188.475 430.284L188.175 423.284L187.426 423.316ZM306.705 424.325L187.805 422.925L187.796 423.675L306.696 425.075L306.705 424.325ZM308.275 474.614C308.526 467.998 308.225 455.509 307.863 444.687C307.682 439.273 307.485 434.272 307.333 430.625C307.257 428.801 307.193 427.316 307.147 426.286C307.125 425.771 307.107 425.37 307.094 425.098C307.088 424.962 307.083 424.858 307.08 424.788C307.078 424.753 307.077 424.727 307.076 424.709C307.076 424.7 307.076 424.694 307.076 424.689C307.075 424.687 307.075 424.685 307.075 424.684C307.075 424.684 307.075 424.683 307.075 424.683C307.075 424.683 307.075 424.682 306.701 424.7C306.326 424.717 306.326 424.717 306.326 424.718C306.326 424.718 306.326 424.718 306.326 424.719C306.326 424.72 306.326 424.722 306.326 424.724C306.327 424.728 306.327 424.735 306.327 424.744C306.328 424.761 306.329 424.788 306.331 424.823C306.334 424.892 306.339 424.996 306.345 425.132C306.357 425.404 306.375 425.805 306.398 426.319C306.444 427.348 306.508 428.833 306.584 430.656C306.735 434.302 306.932 439.301 307.113 444.712C307.476 455.54 307.775 468.002 307.526 474.586L308.275 474.614ZM308.232 477.999C308.23 476.574 308.244 475.434 308.275 474.614L307.526 474.586C307.494 475.42 307.48 476.572 307.482 478L308.232 477.999ZM178.735 478.375H307.857V477.625H178.735V478.375Z" fill="#263238"/>
<path d="M234.801 233.6C234.801 233.6 216.701 244.3 203.801 250.7C190.901 257.1 175.301 260.7 173.701 264.4C172.101 268 144.301 327 139.101 335C133.901 343 121.401 358.7 123.801 367.6C126.201 376.4 136.301 388.5 142.701 387.7C149.101 386.9 162.001 383.3 167.201 374C172.401 364.8 184.901 335 184.901 335C184.901 335 186.901 362.7 186.501 376.4C186.101 390.1 186.101 401.3 185.301 408.1C184.501 414.9 180.901 423.4 182.501 425.8C184.101 428.2 186.101 430.6 188.101 430.2C190.101 429.8 220.201 429.4 229.501 429.8C238.701 430.2 280.501 429.8 289.401 430.2C298.201 430.6 305.901 426.2 306.701 424.6C307.501 423 309.101 420.6 308.301 411.7C307.501 402.9 309.101 375.9 311.501 365.5C313.901 355.1 328.401 314.9 328.401 314.9C328.401 314.9 366.601 345 374.601 347.4C382.601 349.8 404.301 346.2 411.601 337.4C418.801 328.6 421.201 321.7 416.801 315.7C412.401 309.7 396.301 304 379.401 286C362.501 267.9 356.101 259.5 344.401 253.9C332.701 248.3 309.001 240.6 303.401 238.2C297.801 235.8 296.201 234.6 292.601 233C289.001 231.4 280.501 228.2 264.901 227.8C249.201 227.4 234.801 233.6 234.801 233.6Z" fill="#70E8E8" stroke="#263238" stroke-width="0.75" stroke-miterlimit="10"/>
<path d="M176.801 306.6C177.401 308.5 184.901 335.1 184.901 335.1L173.801 313" fill="#70E8E8"/>
<path d="M176.801 306.6C177.401 308.5 184.901 335.1 184.901 335.1L173.801 313" stroke="#263238" stroke-width="0.75" stroke-miterlimit="10"/>
<path d="M328.301 315C326.601 314.9 310.801 306.1 310.801 306.1L328.301 315Z" fill="#70E8E8"/>
<path d="M328.301 315C326.601 314.9 310.801 306.1 310.801 306.1" stroke="#263238" stroke-width="0.75" stroke-miterlimit="10"/>
<path d="M302.801 304.9C302.801 304.9 309.201 313.2 314.701 314.9L302.801 304.9Z" fill="#70E8E8"/>
<path d="M302.801 304.9C302.801 304.9 309.201 313.2 314.701 314.9" stroke="#263238" stroke-width="0.75" stroke-miterlimit="10"/>
<path d="M232.5 258.2L237.5 277.2C237.5 277.2 221.5 357 219 370.5C216.5 383.9 215.9 395.1 215.9 395.1L229.9 422.8L247.5 392.8C247.5 392.8 245.8 355 245.3 324.7C244.7 294.5 245.9 279.9 245.6 279C245.3 278.2 263.2 265 263.2 265C263.2 265 273.6 253.5 274.1 251.6C274.7 249.6 266.8 252.2 265.1 253.8C263.4 255.5 258.4 258.6 251.1 257.2C243.8 255.8 234.3 247.7 232.9 251.6C231.7 255.7 232.5 258.2 232.5 258.2Z" fill="#263238" stroke="#263238" stroke-width="0.75" stroke-miterlimit="10"/>
<path d="M244.6 225.7C243.8 226.3 237 227.9 234.8 233.5C232.6 239.1 221.1 264.9 217.7 269.1C214.3 273.3 219.7 271.6 224.1 268.8C228.6 266 232.5 255.1 235 259.8C237.5 264.6 244.8 266.5 244.8 266.5C244.8 266.5 259.9 263.7 263.3 261.5C266.7 259.3 269.7 256.2 269.7 256.2C269.7 256.2 282.6 275.5 286.2 277.2C289.8 278.9 290.4 276.1 290.7 273C291 269.9 293.5 251.7 297.1 239.7C300.7 227.7 293.7 223.7 289.3 218.7C284.8 213.7 279.8 217 274.7 217.6C269.8 218.1 244.6 225.7 244.6 225.7Z" fill="#70E8E8" stroke="#263238" stroke-width="0.75" stroke-miterlimit="10"/>
<path d="M236.901 139.5C236.901 139.5 228.101 152.8 229.801 156C231.401 159.2 231.401 163.5 229.801 165.7C228.201 168 226.201 170.9 226.901 176.4C227.501 181.9 224.301 209.8 229.201 213C234.101 216.2 239.201 217.9 239.201 217.9C239.201 217.9 244.701 264.6 246.701 263.3C248.601 262 276.501 233.5 279.801 227.3C283.001 221.1 286.901 212.4 286.901 212.4C286.901 212.4 297.901 191.3 304.401 182.6C310.901 173.9 318.301 157.6 316.101 149.2C313.801 140.8 302.201 134.6 296.701 130.1C291.201 125.6 294.801 115.2 287.001 110C279.201 104.8 269.801 103.5 263.701 105.8C257.301 108 257.001 112.9 249.501 108C242.001 103.1 234.901 98.2999 223.601 103.8C212.301 109.3 210.001 128.8 216.801 134C223.601 139.1 236.901 139.5 236.901 139.5Z" fill="white" stroke="#263238" stroke-width="0.75" stroke-miterlimit="10"/>
<path d="M296.501 130.1C291.001 125.6 294.601 115.2 286.801 110C279.001 104.8 269.601 103.5 263.501 105.8C257.301 108 257.001 112.9 249.501 108C242.001 103.1 234.901 98.2999 223.601 103.8C212.301 109.3 210.001 128.8 216.801 134C223.601 139.2 236.901 139.5 236.901 139.5C236.901 139.5 246.601 135 253.101 131.4C259.601 127.8 274.201 133.7 276.801 135.9C279.401 138.2 275.501 136.5 274.901 140.8C274.301 145 282.401 151.8 285.901 155.1C289.501 158.3 285.301 160.6 284.301 164.8C283.301 169 287.201 170.6 289.501 169C291.801 167.4 298.901 158.3 301.501 163.5C304.101 168.7 308.001 176.5 300.901 182C293.801 187.5 288.601 186.2 288.601 186.2C288.601 186.2 286.301 200.2 293.001 201.3C296.601 194.8 301.101 187.1 304.501 182.6C311.001 173.8 318.401 157.6 316.201 149.2C313.701 140.8 302.001 134.6 296.501 130.1Z" fill="#263238" stroke="#263238" stroke-width="0.75" stroke-miterlimit="10"/>
<path d="M254.4 156.6C254.4 156.6 257.6 155.3 260.9 155.6" stroke="#263238" stroke-width="0.5" stroke-miterlimit="10"/>
<path d="M237.8 159.8C237.8 159.8 235 160.4 233.2 161.5" stroke="#263238" stroke-width="0.5" stroke-miterlimit="10"/>
<path d="M237.901 151C237.901 151 239.901 154.7 238.801 158.2C237.701 161.7 227.701 169.6 227.801 171.2C227.901 172.7 233.701 175.9 233.601 177.2C233.501 178.5 233.101 180.6 233.101 180.6" stroke="#263238" stroke-width="0.75" stroke-miterlimit="10"/>
<path d="M259.901 161.1C261.061 161.1 262.001 159.936 262.001 158.5C262.001 157.064 261.061 155.9 259.901 155.9C258.741 155.9 257.801 157.064 257.801 158.5C257.801 159.936 258.741 161.1 259.901 161.1Z" fill="#263238" stroke="#263238" stroke-width="0.5" stroke-miterlimit="10"/>
<path d="M255.7 162.8C256.1 162.7 261.2 160.6 264.7 160.8" stroke="#263238" stroke-width="0.75" stroke-miterlimit="10"/>
<path d="M248.2 147.2C248.2 147.2 255.2 140.8 260.5 142.1C265.9 143.4 267.9 148.6 267.1 148.6C266.2 148.6 263.5 144.6 260.6 144.3C257.6 144 255.6 145.4 253 146.7C250.5 147.9 248.9 148.8 248.2 147.2Z" fill="#263238" stroke="#263238" stroke-width="0.5" stroke-miterlimit="10"/>
<path d="M238.401 152.3C238.401 151.8 237.601 149.4 234.401 149.8C231.201 150.3 228.801 156 229.801 156C230.801 155.9 231.801 152.3 234.301 151.9C236.801 151.6 238.401 155.5 238.401 152.3Z" fill="#263238" stroke="#263238" stroke-width="0.5" stroke-miterlimit="10"/>
<path d="M233.001 187.9C233.001 187.9 238.101 187.3 244.701 186.5C251.301 185.7 260.601 184.4 262.101 179.7C263.601 175 263.301 172.5 263.301 172.5" stroke="#263238" stroke-width="0.75" stroke-miterlimit="10"/>
<path d="M259.7 172.1C260.2 172 263.9 172 265.5 172.5" stroke="#263238" stroke-width="0.75" stroke-miterlimit="10"/>
<path d="M286.901 195.4C286.901 195.4 285.601 202.4 279.801 206.1C273.901 209.9 230.701 214.1 232.101 214.7C233.501 215.2 239.201 217.9 239.201 217.9L240.901 233.2C240.901 233.2 249.101 225.3 263.401 218C277.701 210.7 286.601 208.2 286.901 195.4Z" fill="#263238" stroke="#263238" stroke-width="0.5" stroke-miterlimit="10"/>
<path d="M311.001 404.9C311.001 404.9 303.001 404.5 301.001 404.1C299.001 403.7 292.601 397.7 289.801 398.1C287.001 398.5 281.801 404.1 279.801 408.9C277.801 413.7 277.001 416.1 277.001 416.1C277.001 416.1 269.801 422.5 273.401 426.9C277.001 431.3 281.001 429.7 281.001 429.7C281.001 429.7 283.401 433.7 286.601 434.1C289.801 434.5 293.801 434.5 293.801 434.5C293.801 434.5 297.801 435.7 300.201 435.3C302.601 434.9 305.001 433.3 305.001 433.3C305.001 433.3 307.801 433.7 309.801 432.1C311.301 430.9 318.401 423.6 322.101 419.9C323.401 418.5 324.301 417.7 324.301 417.7L311.001 404.9Z" fill="white" stroke="#263238" stroke-width="0.75" stroke-miterlimit="10"/>
<path d="M378.101 322.2C378.101 322.2 363.201 338.7 358.401 346.7C353.601 354.7 338.701 375.6 333.101 382.1C327.501 388.5 307.801 404.2 307.801 404.2C307.801 404.2 313.801 417.1 318.201 419.1C322.601 421.1 326.201 421.9 326.201 421.9L342.301 409.8C342.301 409.8 372.801 386.5 388.901 373.2C405.001 359.9 427.501 342.3 429.101 334.6C430.701 327 429.501 322.9 421.501 316.9C413.501 310.9 405.001 308.5 405.001 308.5" fill="#70E8E8"/>
<path d="M378.101 322.2C378.101 322.2 363.201 338.7 358.401 346.7C353.601 354.7 338.701 375.6 333.101 382.1C327.501 388.5 307.801 404.2 307.801 404.2C307.801 404.2 313.801 417.1 318.201 419.1C322.601 421.1 326.201 421.9 326.201 421.9L342.301 409.8C342.301 409.8 372.801 386.5 388.901 373.2C405.001 359.9 427.501 342.3 429.101 334.6C430.701 327 429.501 322.9 421.501 316.9C413.501 310.9 405.001 308.5 405.001 308.5" stroke="#263238" stroke-width="0.75" stroke-miterlimit="10"/>
<path d="M320.301 394.1C320.301 394.1 323.901 411.8 336.401 411.8" stroke="#263238" stroke-width="0.75" stroke-miterlimit="10"/>
<path d="M145.2 263.9C145.2 263.9 146.9 278 147.7 284.4C148.5 290.8 150.5 293.5 150.5 293.5C150.5 293.5 137.5 322.6 136.9 323.4C136.3 324.2 122.8 349.7 120.6 352.8C118.4 355.8 113.1 365.5 116.4 371.6C119.7 377.7 125 390.2 131.9 390.4C138.8 390.7 148.5 386.5 155.2 382.6C161.9 378.7 164.1 376.2 164.6 365.2C165.2 354.1 164.9 334.2 166.8 323.7C168.7 313.2 170.1 302.1 171.5 297.9C172.9 293.7 180.9 295.1 183.7 293.5C186.5 291.8 189 288.2 193.9 286C198.9 283.8 205.8 284.3 207.5 284.9C209.2 285.5 212.2 283 211.4 279.9C210.6 276.9 205 275.2 199.5 275.7C194 276.3 189 277.9 187.6 277.1C186.2 276.3 184.8 261.6 184.8 261.6C184.8 261.6 165.1 263.3 158.2 263.5C151.3 263.9 145.2 263.9 145.2 263.9Z" fill="white" stroke="#263238" stroke-width="0.75" stroke-miterlimit="10"/>
<path d="M175.701 253.1C175.701 253.1 176.001 271.4 176.001 273C176.001 274.7 177.701 276 179.001 275.8C180.401 275.5 184.001 276.9 184.801 272.8C185.601 268.6 187.301 257 186.501 254.2C185.701 251.5 178.201 250.4 175.701 253.1Z" fill="white" stroke="#263238" stroke-width="0.75" stroke-miterlimit="10"/>
<path d="M175.701 253.1C175.701 253.1 166.801 250.9 164.301 252.3C161.801 253.7 165.701 273.3 166.001 275C166.301 276.7 170.201 277.5 171.801 276.9C173.501 276.3 176.001 275.2 176.001 273C176.001 270.8 175.701 253.1 175.701 253.1Z" fill="white" stroke="#263238" stroke-width="0.75" stroke-miterlimit="10"/>
<path d="M162.401 252.9C162.401 252.9 156.601 251.8 154.901 253.7C153.201 255.6 152.701 258.4 153.201 263.4C153.801 268.4 156.501 275.9 157.601 277.5C158.701 279.2 162.301 279.4 164.501 278.6C166.701 277.8 165.901 275 165.901 275C165.901 275 164.801 273.9 164.501 265.3C164.201 256.7 164.201 252.3 164.201 252.3L162.401 252.9Z" fill="white" stroke="#263238" stroke-width="0.75" stroke-miterlimit="10"/>
<path d="M152.701 256.2C151.601 256.5 144.701 256.8 144.401 259.5C144.101 262.3 146.601 275.3 147.701 276.7C148.801 278.1 151.901 277.5 153.001 277C154.101 276.4 156.001 275.6 155.801 274C155.501 272.2 152.701 256.2 152.701 256.2Z" fill="white" stroke="#263238" stroke-width="0.75" stroke-miterlimit="10"/>
<path d="M154.9 311C150 310.5 147.3 306.7 145.9 303.8C142.1 312.3 137.3 323 136.9 323.5C136.3 324.3 122.8 349.8 120.6 352.9C118.4 355.9 113.1 365.6 116.4 371.7C119.7 377.8 125 390.3 131.9 390.5C138.8 390.8 148.5 386.6 155.2 382.7C161.9 378.8 164.1 376.3 164.6 365.3C165.2 354.2 164.9 334.3 166.8 323.8C167.8 318.6 168.6 313.3 169.3 308.8C165.1 310.1 159.3 311.5 154.9 311Z" fill="#70E8E8" stroke="#263238" stroke-width="0.75" stroke-miterlimit="10"/>
<path d="M167.7 280.6C167.7 280.6 163 284.8 162.4 288.4C161.8 292 163.8 295 163.8 295" fill="white"/>
<path d="M167.7 280.6C167.7 280.6 163 284.8 162.4 288.4C161.8 292 163.8 295 163.8 295" stroke="#263238" stroke-width="0.75" stroke-miterlimit="10"/>
<rect x="418" y="401" width="125" height="130" rx="29" fill="#01E297"/>
<path d="M494.598 495.062H465.484V503.392H494.598V495.062Z" fill="white"/>
<path fill-rule="evenodd" clip-rule="evenodd" d="M480 483.021C485.691 479.392 488.66 476.917 491.546 470.484L491.794 469.99C494.103 464.629 495.01 458.361 495.01 452.588V429H465.072V452.505C465.072 458.361 465.979 464.546 468.289 469.907L468.536 470.402C471.34 476.917 474.309 479.392 480 483.021ZM479.423 472.299C474.722 467.35 473.402 459.103 473.402 452.505V437.33H486.598V452.505C486.598 459.103 485.278 467.268 480.577 472.299L480 472.959L479.423 472.299Z" fill="white"/>
<path fill-rule="evenodd" clip-rule="evenodd" d="M460.701 448.629V440.299H448V464.299C448 471.227 450.062 478.237 455.093 483.186C460.041 487.969 466.474 489.784 473.155 489.948V481.536C468.701 481.454 464.165 480.381 460.866 477.165C457.485 473.784 456.247 468.835 456.247 464.217V448.546H460.701V448.629Z" fill="white"/>
<path fill-rule="evenodd" clip-rule="evenodd" d="M498.556 440.299V448.629H503.67V464.299C503.67 468.918 502.433 473.949 499.051 477.247C495.835 480.464 491.216 481.536 486.763 481.619V489.948C493.443 489.784 499.959 487.969 504.825 483.186C509.855 478.237 512 471.227 512 464.299V440.299H498.556Z" fill="white"/>
<g clip-path="url(#clip0_13_11867)">
<path d="M455.8 265.6C455.8 265.6 445 261.9 441.8 259.7C438.6 257.5 430.4 249.2 428.5 242.9C426.6 236.6 425.6 229.9 425.2 225C424.7 220.1 422.7 218.8 419.6 222.6C416.6 226.4 415.6 232.6 416.4 236.6C417.2 240.6 419.7 245.2 419.4 246C419.1 246.8 418.6 248.4 418.6 248.4C418.6 248.4 408.9 247.3 403.5 246C398.1 244.7 393.8 244.3 393.5 246.8C393.2 249.3 394.3 253.3 394.6 256C394.9 258.7 399 270.6 401.1 273.3C403.2 276 404.9 278.1 406.2 279C407.5 280 407.5 280.7 410.5 281.1C413.5 281.4 417 281.9 418.1 282.2C419.2 282.5 420.3 283.6 425.6 283.5C430.8 283.3 435.4 282.5 435.4 282.5L451.1 288.4L455.8 265.6Z" fill="white" stroke="#263238" stroke-width="0.75" stroke-miterlimit="10"/>
<path d="M450.699 262.6L444.199 290.8L454.899 295.1L460.199 265.8L450.699 262.6Z" fill="white" stroke="#263238" stroke-width="0.75" stroke-miterlimit="10"/>
<path d="M477.5 268L456.8 262.9L449.1 296.6L477.4 309.7L477.5 307.2V268Z" fill="#263238" stroke="#263238" stroke-width="0.75" stroke-miterlimit="10"/>
<path d="M418 249.7C418 249.7 416.6 258.3 416.6 260.3C416.6 262.4 421 267.9 422.6 268.2" stroke="#263238" stroke-width="0.75" stroke-miterlimit="10"/>
<path d="M414.9 271.3C414.9 271.3 417.1 272.1 416.5 274C415.9 275.9 411.1 278.6 408.9 279.9C406.7 281.2 405.9 281 403.3 279.6C400.8 278.2 400.1 275.8 400.1 275.8C400.1 275.8 404.1 275.6 404.9 275.3C405.7 275 414.9 271.3 414.9 271.3Z" fill="white" stroke="#263238" stroke-width="0.75" stroke-miterlimit="10"/>
<path d="M396.599 267.2C396.599 267.2 396.599 274.5 398.299 275.1C399.999 275.7 402.399 276.2 403.499 276.1C404.599 275.9 412.099 273.4 413.499 272.4C414.899 271.4 416.399 269.4 415.599 267.5C414.799 265.6 414.799 265.6 414.799 265.6C414.799 265.6 411.499 266.2 407.499 266.2C403.499 266.2 396.899 264.9 396.399 265.4C395.999 265.9 396.599 267.2 396.599 267.2Z" fill="white" stroke="#263238" stroke-width="0.75" stroke-miterlimit="10"/>
<path d="M394.2 257.4C394.2 257.4 393.2 257.9 393.2 259.3C393.2 260.7 391.3 265 393.5 266.4C395.7 267.8 402.7 268.9 404.1 268.9C405.5 268.9 413.9 265.9 414.7 265.6C415.5 265.3 415.5 262.4 415.2 261.3C414.9 260.2 412 259.9 412 259.9C412 259.9 399.9 259.6 394.2 257.4Z" fill="white" stroke="#263238" stroke-width="0.75" stroke-miterlimit="10"/>
<path d="M398.4 247.7C398.4 247.7 403.5 251.5 404.4 251.8C405.4 252.1 412.2 254.5 412.2 254.5C412.2 254.5 413.2 255 413.2 256.9C413.2 258.8 411.8 259.9 410.2 260.2C408.6 260.5 402.9 261.5 400.8 260.7C398.7 259.9 394.1 256.9 392.7 255.9C391.3 254.9 391.1 253.7 391.9 251.9C392.7 250.2 393.6 246.7 393.6 246.7" fill="white"/>
<path d="M398.4 247.7C398.4 247.7 403.5 251.5 404.4 251.8C405.4 252.1 412.2 254.5 412.2 254.5C412.2 254.5 413.2 255 413.2 256.9C413.2 258.8 411.8 259.9 410.2 260.2C408.6 260.5 402.9 261.5 400.8 260.7C398.7 259.9 394.1 256.9 392.7 255.9C391.3 254.9 391.1 253.7 391.9 251.9C392.7 250.2 393.6 246.7 393.6 246.7" stroke="#263238" stroke-width="0.75" stroke-miterlimit="10"/>
</g>
<path d="M93.9004 113.2C93.9004 113.2 104.8 116.5 108.7 116.6C112.6 116.7 124.1 114.7 129.3 110.7C134.5 106.6 139.2 101.8 142.4 98.1C145.6 94.4 148.1 94.5 148.3 99.4C148.5 104.3 145.7 109.8 142.8 112.6C139.8 115.4 135.1 117.6 134.9 118.5C134.7 119.3 134.2 120.9 134.2 120.9C134.2 120.9 142.7 125.6 147.8 127.7C152.9 129.8 156.7 131.9 155.5 134.2C154.3 136.4 151.1 139 149.2 141C147.4 143 137.1 150.3 133.8 151.3C130.6 152.3 127.9 153 126.3 153C124.7 153 124.3 153.7 121.6 152.2C119 150.7 115.8 149.1 114.8 148.7C113.7 148.3 112.2 148.6 108 145.4C103.8 142.2 100.6 138.9 100.6 138.9L84.4004 134.5L93.9004 113.2Z" fill="white" stroke="#263238" stroke-width="0.75" stroke-miterlimit="10"/>
<path d="M99.7 113.7L88.6 140.4L77.5 137.7L90.2 110.7L99.7 113.7Z" fill="white" stroke="#263238" stroke-width="0.75" stroke-miterlimit="10"/>
<path d="M50 93L94.7001 110.4L81.3001 142.2L50 136.5V133.5V93Z" fill="#263238" stroke="#263238" stroke-width="0.75" stroke-miterlimit="10"/>
<path d="M133.8 122.3C133.8 122.3 130 130.1 128.8 131.8C127.6 133.5 120.8 135.4 119.3 134.7" stroke="#263238" stroke-width="0.75" stroke-miterlimit="10"/>
<path d="M123.8 141.7C123.8 141.7 121.5 141.1 120.9 143C120.3 144.9 122.6 149.9 123.7 152.2C124.8 154.5 125.5 154.9 128.4 155.2C131.3 155.5 133.2 153.9 133.2 153.9C133.2 153.9 130.1 151.5 129.6 150.7C129.2 150 123.8 141.7 123.8 141.7Z" fill="white" stroke="#263238" stroke-width="0.75" stroke-miterlimit="10"/>
<path d="M141.1 148.9C141.1 148.9 136.9 154.8 135.1 154.3C133.3 153.8 131.1 152.8 130.3 152C129.5 151.2 124.9 144.8 124.3 143.2C123.7 141.6 123.7 139.1 125.5 138C127.3 136.9 127.3 136.9 127.3 136.9C127.3 136.9 129.6 139.4 132.9 141.7C136.1 144 142.3 146.9 142.4 147.5C142.3 148.3 141.1 148.9 141.1 148.9Z" fill="white" stroke="#263238" stroke-width="0.75" stroke-miterlimit="10"/>
<path d="M148.7 142.3C148.7 142.3 149.2 143.2 148.4 144.4C147.6 145.6 146.6 150.2 144 150C141.4 149.8 135 146.7 133.9 145.9C132.7 145.1 127.7 137.7 127.2 137C126.7 136.3 128.4 134 129.3 133.2C130.2 132.5 132.7 133.9 132.7 133.9C132.7 133.9 142.8 140.8 148.7 142.3Z" fill="white" stroke="#263238" stroke-width="0.75" stroke-miterlimit="10"/>
<path d="M151 132C151 132 144.7 132.1 143.7 131.8C142.7 131.5 135.8 129.5 135.8 129.5C135.8 129.5 134.7 129.3 133.6 130.9C132.5 132.4 133 134.2 134.1 135.4C135.2 136.6 139.3 140.7 141.4 141.2C143.5 141.8 149 142 150.8 142C152.5 142.1 153.4 141.1 153.8 139.2C154.2 137.3 155.4 133.9 155.4 133.9" fill="white"/>
<path d="M151 132C151 132 144.7 132.1 143.7 131.8C142.7 131.5 135.8 129.5 135.8 129.5C135.8 129.5 134.7 129.3 133.6 130.9C132.5 132.4 133 134.2 134.1 135.4C135.2 136.6 139.3 140.7 141.4 141.2C143.5 141.8 149 142 150.8 142C152.5 142.1 153.4 141.1 153.8 139.2C154.2 137.3 155.4 133.9 155.4 133.9" stroke="#263238" stroke-width="0.75" stroke-miterlimit="10"/>
<g clip-path="url(#clip1_13_11867)">
<path d="M52.5569 319.694C52.5569 319.694 62.2834 313.717 64.9234 310.869C67.5634 308.021 73.7449 298.126 74.2179 291.562C74.6909 284.999 74.1981 278.243 73.5144 273.374C72.9283 268.484 74.5948 266.777 78.4523 269.805C82.2122 272.855 84.5467 278.685 84.6429 282.763C84.739 286.842 83.308 291.878 83.7761 292.592C84.2441 293.307 85.0826 294.759 85.0826 294.759C85.0826 294.759 94.3057 291.559 99.2895 289.108C104.273 286.656 108.381 285.323 109.222 287.696C110.062 290.07 109.866 294.214 110.165 296.914C110.464 299.614 109.072 312.123 107.615 315.218C106.157 318.312 104.959 320.734 103.888 321.897C102.839 323.158 102.992 323.841 100.153 324.888C97.2914 325.839 93.986 327.094 92.9785 327.627C91.971 328.161 91.1389 329.475 85.9458 330.54C80.8284 331.484 76.1649 331.712 76.1649 331.712L62.1398 340.909L52.5569 319.694Z" fill="white" stroke="#263238" stroke-width="0.75" stroke-miterlimit="10"/>
<path d="M56.8755 315.649L69.3981 341.739L59.9983 348.257L49.5 320L56.8755 315.649Z" fill="white" stroke="#263238" stroke-width="0.75" stroke-miterlimit="10"/>
<path d="M49.5001 317.279L50.9896 317.279L65.8885 348.472L49.5 359L49.5 348.472L49.5001 317.279Z" fill="#263238" stroke="#263238" stroke-width="0.75" stroke-miterlimit="10"/>
<path d="M85.953 295.896C85.953 295.896 89.2039 303.98 89.6422 305.931C90.1025 307.98 87.0149 314.311 85.5196 314.954" stroke="#263238" stroke-width="0.75" stroke-miterlimit="10"/>
<path d="M93.7121 316.291C93.7121 316.291 91.7409 317.554 92.7427 319.276C93.7446 320.998 99.0196 322.581 101.451 323.367C103.883 324.153 104.619 323.783 106.849 321.847C108.982 319.933 109.138 317.438 109.138 317.438C109.138 317.438 105.192 318.119 104.346 318.002C103.499 317.885 93.7121 316.291 93.7121 316.291Z" fill="white" stroke="#263238" stroke-width="0.75" stroke-miterlimit="10"/>
<path d="M110.669 308.28C110.669 308.28 112.269 315.402 110.742 316.36C109.214 317.318 106.982 318.332 105.887 318.476C104.77 318.522 96.9045 317.726 95.3194 317.057C93.7343 316.389 91.8324 314.766 92.1965 312.737C92.5606 310.708 92.5606 310.708 92.5606 310.708C92.5606 310.708 95.9119 310.57 99.8147 309.693C103.717 308.816 109.872 306.101 110.469 306.48C110.969 306.88 110.669 308.28 110.669 308.28Z" fill="white" stroke="#263238" stroke-width="0.75" stroke-miterlimit="10"/>
<path d="M110.862 298.192C110.862 298.192 111.947 298.461 112.254 299.827C112.561 301.193 115.357 304.972 113.517 306.82C111.678 308.668 105.089 311.275 103.723 311.582C102.357 311.889 93.5039 310.803 92.6576 310.686C91.8113 310.568 91.1757 307.739 91.2273 306.6C91.2789 305.461 94.0426 304.532 94.0426 304.532C94.0426 304.532 105.783 301.588 110.862 298.192Z" fill="white" stroke="#263238" stroke-width="0.75" stroke-miterlimit="10"/>
<path d="M104.638 289.648C104.638 289.648 100.495 294.474 99.6823 294.964C98.7724 295.476 92.6638 299.308 92.6638 299.308C92.6638 299.308 91.7977 300.015 92.2141 301.869C92.6305 303.722 94.2376 304.489 95.8644 304.431C97.4913 304.373 103.272 304.099 105.145 302.858C107.019 301.618 110.85 297.682 111.996 296.4C113.143 295.117 113.075 293.903 111.9 292.322C110.747 290.838 109.102 287.621 109.102 287.621" fill="white"/>
<path d="M104.638 289.648C104.638 289.648 100.495 294.474 99.6823 294.964C98.7724 295.476 92.6638 299.308 92.6638 299.308C92.6638 299.308 91.7977 300.015 92.2141 301.869C92.6305 303.722 94.2376 304.489 95.8644 304.431C97.4913 304.373 103.272 304.099 105.145 302.858C107.019 301.618 110.85 297.682 111.996 296.4C113.143 295.117 113.075 293.903 111.9 292.322C110.747 290.838 109.102 287.621 109.102 287.621" stroke="#263238" stroke-width="0.75" stroke-miterlimit="10"/>
</g>
<path d="M434.923 97.8368C434.923 97.8368 424.023 101.137 420.123 101.237C416.223 101.237 404.723 99.3368 399.523 95.3368C394.323 91.3368 389.623 86.3368 386.323 82.6368C383.123 78.8368 380.723 79.0368 380.423 83.9368C380.223 88.8368 383.023 94.3368 385.923 97.1368C388.823 99.9368 393.623 102.137 393.823 103.037C394.023 103.837 394.523 105.437 394.523 105.437C394.523 105.437 386.023 110.137 380.923 112.237C375.823 114.337 372.023 116.437 373.223 118.737C374.423 120.937 377.623 123.537 379.523 125.537C381.323 127.537 391.623 134.837 394.923 135.837C398.123 136.837 400.823 137.537 402.423 137.537C404.023 137.537 404.423 138.237 407.123 136.737C409.723 135.237 412.923 133.637 413.923 133.237C415.023 132.837 416.523 133.137 420.723 129.937C424.923 126.737 428.123 123.437 428.123 123.437L444.323 119.037L434.923 97.8368Z" fill="white" stroke="#263238" stroke-width="0.75" stroke-miterlimit="10"/>
<path d="M429.022 98.3368L440.122 125.037L451.322 122.337L438.622 95.3368L429.022 98.3368Z" fill="white" stroke="#263238" stroke-width="0.75" stroke-miterlimit="10"/>
<path d="M478.123 78L434.123 95.0368L447.523 126.837L478.123 121.137V117.5V78Z" fill="#263238" stroke="#263238" stroke-width="0.75" stroke-miterlimit="10"/>
<path d="M394.923 106.937C394.923 106.937 398.723 114.737 399.923 116.437C401.123 118.137 407.923 120.037 409.423 119.337" stroke="#263238" stroke-width="0.75" stroke-miterlimit="10"/>
<path d="M404.922 126.337C404.922 126.337 407.222 125.737 407.822 127.637C408.422 129.537 406.122 134.537 405.022 136.837C403.922 139.137 403.222 139.537 400.322 139.837C397.422 140.137 395.522 138.537 395.522 138.537C395.522 138.537 398.622 136.137 399.122 135.337C399.622 134.637 404.922 126.337 404.922 126.337Z" fill="white" stroke="#263238" stroke-width="0.75" stroke-miterlimit="10"/>
<path d="M387.723 133.537C387.723 133.537 391.923 139.437 393.723 138.937C395.523 138.437 397.723 137.437 398.523 136.637C399.323 135.837 403.923 129.437 404.523 127.837C405.123 126.237 405.123 123.737 403.323 122.637C401.623 121.637 401.623 121.637 401.623 121.637C401.623 121.637 399.323 124.137 396.023 126.437C392.823 128.737 386.623 131.637 386.523 132.237C386.423 132.937 387.723 133.537 387.723 133.537Z" fill="white" stroke="#263238" stroke-width="0.75" stroke-miterlimit="10"/>
<path d="M380.022 126.937C380.022 126.937 379.522 127.837 380.322 129.037C381.122 130.237 382.122 134.837 384.722 134.637C387.322 134.537 393.722 131.337 394.822 130.537C396.022 129.737 401.022 122.337 401.522 121.637C402.022 120.937 400.322 118.637 399.422 117.837C398.522 117.137 396.022 118.537 396.022 118.537C396.022 118.537 385.922 125.437 380.022 126.937Z" fill="white" stroke="#263238" stroke-width="0.75" stroke-miterlimit="10"/>
<path d="M377.723 116.637C377.723 116.637 384.023 116.737 385.023 116.437C386.023 116.137 392.923 114.137 392.923 114.137C392.923 114.137 394.023 113.937 395.123 115.537C396.223 117.037 395.723 118.837 394.623 120.037C393.523 121.237 389.423 125.337 387.323 125.837C385.223 126.437 379.723 126.637 377.923 126.637C376.223 126.737 375.323 125.737 374.923 123.837C374.623 122.037 373.323 118.637 373.323 118.637" fill="white"/>
<path d="M377.723 116.637C377.723 116.637 384.023 116.737 385.023 116.437C386.023 116.137 392.923 114.137 392.923 114.137C392.923 114.137 394.023 113.937 395.123 115.537C396.223 117.037 395.723 118.837 394.623 120.037C393.523 121.237 389.423 125.337 387.323 125.837C385.223 126.437 379.723 126.637 377.923 126.637C376.223 126.737 375.323 125.737 374.923 123.837C374.623 122.037 373.323 118.637 373.323 118.637" stroke="#263238" stroke-width="0.75" stroke-miterlimit="10"/>
<defs>
<filter id="filter0_d_13_11867" x="0" y="0" width="528" height="528" filterUnits="userSpaceOnUse" color-interpolation-filters="sRGB">
<feFlood flood-opacity="0" result="BackgroundImageFix"/>
<feColorMatrix in="SourceAlpha" type="matrix" values="0 0 0 0 0 0 0 0 0 0 0 0 0 0 0 0 0 0 127 0" result="hardAlpha"/>
<feOffset/>
<feGaussianBlur stdDeviation="25"/>
<feComposite in2="hardAlpha" operator="out"/>
<feColorMatrix type="matrix" values="0 0 0 0 0 0 0 0 0 0 0 0 0 0 0 0 0 0 0.15 0"/>
<feBlend mode="normal" in2="BackgroundImageFix" result="effect1_dropShadow_13_11867"/>
<feBlend mode="normal" in="SourceGraphic" in2="effect1_dropShadow_13_11867" result="shape"/>
</filter>
<clipPath id="clip0_13_11867">
<rect width="86.9" height="90.3" fill="white" transform="translate(391 220)"/>
</clipPath>
<clipPath id="clip1_13_11867">
<rect width="86.9" height="90.3" fill="white" transform="translate(21 280.046) rotate(-12.6605)"/>
</clipPath>
</defs>
</svg>
