<svg width="26" height="26" viewBox="0 0 26 26" fill="none" xmlns="http://www.w3.org/2000/svg">
<path d="M9.17345 9.09405L9.17101 9.09603L9.1687 9.09829L9.17345 9.09405ZM19.9571 8.89198C19.8817 8.81934 19.7981 8.75578 19.7079 8.7026C19.5803 8.62748 19.4386 8.57934 19.2916 8.56116C19.1446 8.54298 18.9955 8.55513 18.8534 8.59688C18.7113 8.63862 18.5793 8.70907 18.4655 8.80387C18.3517 8.89866 18.2586 9.01579 18.1919 9.148C17.8187 9.88325 17.304 10.5376 16.6774 11.0735C16.7732 10.5335 16.8215 9.98624 16.8218 9.43787C16.8238 7.76964 16.3837 6.13068 15.5463 4.68785C14.7089 3.24501 13.5042 2.04985 12.0547 1.22404C11.895 1.13352 11.715 1.08505 11.5314 1.08319C11.3479 1.08132 11.1669 1.12611 11.0054 1.21336C10.8439 1.3006 10.7072 1.42744 10.6082 1.58198C10.5092 1.73652 10.451 1.91368 10.4392 2.09684C10.3786 3.12403 10.1101 4.12822 9.64989 5.04857C9.18972 5.96891 8.54749 6.78625 7.76212 7.45107L7.51244 7.65419C6.69118 8.20679 5.96424 8.888 5.35953 9.67168C4.41954 10.8559 3.76838 12.2428 3.45769 13.7225C3.14701 15.2021 3.18534 16.7338 3.56964 18.1961C3.95395 19.6583 4.67367 21.011 5.67171 22.1467C6.66976 23.2824 7.91869 24.1699 9.31945 24.7389C9.48392 24.8061 9.6624 24.8318 9.83915 24.8137C10.0159 24.7957 10.1855 24.7344 10.3329 24.6353C10.4804 24.5362 10.6012 24.4023 10.6847 24.2455C10.7682 24.0886 10.8118 23.9137 10.8117 23.736C10.8109 23.6211 10.7927 23.5069 10.7577 23.3974C10.5154 22.4864 10.4456 21.538 10.552 20.6013C11.5771 22.5347 13.2225 24.0673 15.2238 24.9526C15.4681 25.0619 15.7443 25.0766 15.9988 24.9939C17.58 24.4835 19.0044 23.5773 20.1367 22.3614C21.2691 21.1455 22.0717 19.6603 22.4683 18.0468C22.865 16.4333 22.8424 14.7452 22.4029 13.1429C21.9634 11.5406 21.1214 10.0773 19.9571 8.89198V8.89198ZM15.7269 22.7923C14.7826 22.3137 13.9495 21.6417 13.282 20.8201C12.6144 19.9984 12.1272 19.0454 11.8522 18.0231C11.7682 17.6789 11.7032 17.3303 11.6575 16.9789C11.6266 16.7551 11.5265 16.5466 11.3712 16.3826C11.2159 16.2185 11.0133 16.107 10.7916 16.0638C10.7233 16.0503 10.6538 16.0436 10.5842 16.0437C10.3938 16.0436 10.2067 16.0937 10.0419 16.189C9.87705 16.2843 9.74024 16.4214 9.64528 16.5864C8.7464 18.1368 8.29436 19.9058 8.33924 21.6973C7.54867 21.0827 6.88795 20.3172 6.39539 19.4453C5.90283 18.5734 5.58821 17.6124 5.46978 16.618C5.35135 15.6236 5.43146 14.6156 5.70546 13.6524C5.97947 12.6892 6.44192 11.79 7.06601 11.0068C7.53988 10.3913 8.11152 9.85774 8.75818 9.42734C8.78618 9.40927 8.81303 9.38948 8.83858 9.36809C8.83858 9.36809 9.16 9.10215 9.17098 9.09607C10.7144 7.79061 11.8122 6.03621 12.3113 4.07732C13.4916 5.16849 14.2787 6.61885 14.5503 8.2032C14.8218 9.78756 14.5627 11.4172 13.813 12.8392C13.714 13.0289 13.6734 13.2438 13.6963 13.4566C13.7192 13.6694 13.8046 13.8706 13.9418 14.035C14.0789 14.1993 14.2617 14.3193 14.4669 14.3799C14.6722 14.4405 14.8909 14.4389 15.0953 14.3754C16.7547 13.8552 18.2149 12.8391 19.2794 11.4639C19.9192 12.4089 20.3375 13.4861 20.503 14.6152C20.6686 15.7443 20.5773 16.8962 20.2358 17.9851C19.8943 19.074 19.3115 20.0718 18.5308 20.9041C17.7501 21.7365 16.7917 22.3819 15.7268 22.7923L15.7269 22.7923Z" fill="#00E398"/>
</svg>
