<svg width="50" height="50" viewBox="0 0 50 50" fill="none" xmlns="http://www.w3.org/2000/svg">
<path d="M30.8955 23.5208L22.0622 14.6875C21.8685 14.4922 21.6381 14.3372 21.3842 14.2315C21.1304 14.1257 20.8581 14.0712 20.583 14.0712C20.308 14.0712 20.0357 14.1257 19.7818 14.2315C19.528 14.3372 19.2975 14.4922 19.1039 14.6875C18.7158 15.0778 18.498 15.6058 18.498 16.1562C18.498 16.7066 18.7158 17.2346 19.1039 17.625L26.4789 25L19.1039 32.375C18.7158 32.7653 18.498 33.2933 18.498 33.8437C18.498 34.3941 18.7158 34.9221 19.1039 35.3125C19.2985 35.5056 19.5294 35.6583 19.7832 35.762C20.0371 35.8657 20.3089 35.9182 20.583 35.9166C20.8572 35.9182 21.129 35.8657 21.3828 35.762C21.6367 35.6583 21.8675 35.5056 22.0622 35.3125L30.8955 26.4791C31.0908 26.2855 31.2458 26.055 31.3516 25.8012C31.4573 25.5473 31.5118 25.275 31.5118 25C31.5118 24.7249 31.4573 24.4526 31.3516 24.1988C31.2458 23.9449 31.0908 23.7145 30.8955 23.5208Z" fill="white"/>
</svg>
