<svg width="102" height="102" viewBox="0 0 102 102" fill="none" xmlns="http://www.w3.org/2000/svg">
<g clip-path="url(#clip0_50_2448)">
<path d="M73.5414 55.3424C81.8036 47.037 84.9568 36.9748 82.542 25.515C78.9897 8.60485 63.3234 -2.09627 46.2004 0.339431C27.8799 2.93485 15.4267 20.983 19.4581 39.0312C20.9349 45.6395 24.128 51.2496 28.9975 55.9213C30.7936 57.6383 32.2305 59.6148 33.3281 61.8309C35.0843 65.3447 35.8627 69.0582 35.6232 72.9713C30.6339 73.5902 29.2968 78.4416 31.8314 81.616C31.7116 81.7757 31.5919 81.9354 31.4921 82.0952C29.4565 85.1498 31.0131 89.1028 34.5854 89.9213C35.264 90.0811 35.9625 90.0611 36.6609 90.0411C37.2597 90.0212 37.5191 90.2009 37.6388 90.8198C38.4172 94.9724 40.6523 98.1868 44.3643 100.183C45.9609 101.042 47.8169 101.401 49.5731 102C50.5111 102 51.4291 102 52.3671 102C52.5467 101.94 52.7263 101.84 52.9059 101.82C58.3142 101.042 62.7247 97.1087 64.1018 91.818C64.5408 90.121 64.5408 90.121 66.3569 90.0611C69.2107 89.9812 71.4459 87.7452 71.2863 84.9102C71.2064 83.7522 70.6676 82.6142 70.2884 81.3165C72.5835 78.5215 71.3062 73.5902 66.1773 72.9713C66.317 71.3142 66.3369 69.6172 66.6163 67.9601C67.4944 62.9689 69.9891 58.9161 73.5414 55.3424ZM50.072 14.6542C50.9302 14.195 51.01 13.3764 51.01 12.5179C50.99 9.50326 51.01 6.48858 51.01 3.49386C66.4367 2.97478 80.227 16.5708 79.7879 32.2631C77.5727 32.2631 75.3575 32.2631 73.1423 32.2631C72.2043 32.2631 71.2663 32.1433 70.3682 32.303C69.7496 32.4029 69.0511 32.7423 68.6519 33.2214C68.153 33.8004 68.4125 34.5391 68.8715 35.138C69.5899 36.0963 69.9292 37.1145 69.55 38.3124C69.1309 39.67 68.1929 40.4886 66.796 40.7082C65.4189 40.9278 64.3013 40.4087 63.523 39.2907C62.7247 38.1527 62.7247 36.9349 63.3634 35.717C63.4631 35.5174 63.7026 35.3377 63.7425 35.138C63.8623 34.4992 64.1616 33.7006 63.9221 33.2214C63.6627 32.7423 62.8445 32.343 62.2458 32.303C60.1303 32.2032 57.9949 32.2631 55.8795 32.2631C54.3029 32.2631 52.7063 32.2631 51.03 32.2631C51.03 30.2267 51.03 28.2701 51.03 26.3136C51.03 24.6565 51.01 22.9994 51.03 21.3424C51.03 20.5038 50.9302 19.7452 50.1119 19.286C49.2737 18.8268 48.5952 19.2261 47.9167 19.6853C46.2203 20.8432 44.0849 20.424 43.0472 18.7469C42.0294 17.1298 42.5682 14.9337 44.2446 13.9953C45.5019 13.2966 46.7392 13.3964 47.8967 14.2149C48.5553 14.6941 49.2538 15.0734 50.072 14.6542ZM47.5375 3.61365C47.5375 5.82974 47.5375 8.02587 47.5375 10.3218C44.9431 9.8227 42.648 10.4017 40.812 12.3383C39.415 13.8157 38.8562 15.6125 39.0358 17.6489C39.2953 20.8432 42.3088 24.5367 47.5574 23.5784C47.5574 26.4733 47.5574 29.3283 47.5574 32.2232C44.6637 32.2232 41.8298 32.2232 38.9161 32.2232C39.3751 29.7875 38.936 27.5913 37.2197 25.7745C35.8627 24.3571 34.2062 23.6583 32.2305 23.6782C27.8998 23.7182 25.2855 27.0723 25.6447 32.2232C24.5271 32.2232 23.3896 32.2232 22.272 32.2232C21.4937 20.3441 31.3324 5.35059 47.5375 3.61365ZM31.5121 53.6653C27.4209 49.6923 24.4473 45.0805 23.0303 39.5303C22.8507 38.7916 22.6911 38.0529 22.5314 37.2942C22.4316 36.8151 22.3917 36.3159 22.3119 35.6571C23.6889 35.6571 25.046 35.6571 26.3831 35.6571C27.0217 35.6571 27.6803 35.7769 28.2591 35.6172C28.8777 35.4575 29.6561 35.138 29.9355 34.6589C30.1749 34.2196 30.0153 33.3412 29.7159 32.8421C29.0973 31.7839 28.6582 30.7857 29.0573 29.5679C29.4964 28.2103 30.4344 27.3917 31.8513 27.212C33.2284 27.0323 34.3459 27.5514 35.1043 28.6894C35.8826 29.8474 35.8826 31.0652 35.2041 32.2631C33.8071 34.7387 34.3459 35.6571 37.1998 35.6571C40.6124 35.6571 44.0251 35.6571 47.5974 35.6571C47.5974 36.0764 47.5974 36.4158 47.5974 36.7751C47.5974 40.7681 47.5974 44.7411 47.5974 48.734C47.5974 49.5726 47.7171 50.3312 48.5353 50.7704C49.3336 51.1897 49.9922 50.8303 50.6508 50.3911C52.2274 49.313 54.0834 49.5127 55.2409 50.8303C56.3585 52.1081 56.3585 54.0247 55.2608 55.3024C54.1033 56.6401 52.2274 56.8397 50.6907 55.7816C50.0321 55.3224 49.3935 54.963 48.5752 55.3823C47.7371 55.8016 47.5974 56.5602 47.5974 57.3987C47.6173 62.2502 47.5974 67.1016 47.5974 71.9331C47.5974 72.2925 47.5974 72.6518 47.5974 73.111C45.003 73.111 42.5283 73.111 40.0536 73.111C39.7543 73.111 39.4749 73.0711 39.1556 73.0511C39.0558 71.5538 39.0358 70.0963 38.8562 68.6589C38.1777 62.7892 35.7429 57.7581 31.5121 53.6653ZM51.01 98.5861C46.1006 98.5861 41.1912 94.4334 41.0714 90.121C47.6971 90.121 54.3029 90.121 60.9286 90.121C60.8288 94.4134 55.9194 98.5861 51.01 98.5861ZM66.3569 86.6471C65.1395 86.6871 63.9022 86.6671 62.6649 86.6671C58.7533 86.6671 54.8218 86.6671 50.9102 86.6671C45.9609 86.6671 41.0116 86.6671 36.0622 86.6671C34.8449 86.6671 34.1464 86.168 34.0266 85.2097C33.9069 84.2314 34.5056 83.4328 35.4835 83.293C35.7429 83.2531 36.0223 83.2731 36.2818 83.2731C46.0806 83.2731 55.8595 83.2731 65.6584 83.2731C65.8979 83.2731 66.1174 83.2531 66.3569 83.293C67.3348 83.3929 67.9535 84.0717 67.9535 84.9901C67.9734 85.9084 67.3348 86.6072 66.3569 86.6471ZM67.9335 77.7628C68.2129 78.9607 67.3747 79.8791 65.9777 79.8791C60.9885 79.899 56.0192 79.8791 51.03 79.8791C46.0407 79.8791 41.0714 79.8791 36.0822 79.8791C34.765 79.8791 34.0466 79.2801 34.0067 78.242C33.9867 77.3435 34.5655 76.6248 35.4436 76.505C35.6631 76.4651 35.9026 76.4851 36.1421 76.4851C46.0407 76.4851 55.9194 76.4851 65.8181 76.4851C67.0753 76.4851 67.7339 76.8844 67.9335 77.7628ZM63.2835 67.5408C62.9842 69.3177 62.9443 71.1545 62.8046 73.0312C58.9329 73.0312 55.0413 73.0312 51.0699 73.0312C51.0699 68.599 51.0699 64.2067 51.0699 59.6947C53.7042 60.1539 56.0591 59.6148 57.8952 57.5585C59.1524 56.1609 59.6713 54.4839 59.5715 52.6072C59.372 48.5344 56.1988 46.1985 51.0499 46.3982C51.0499 42.8644 51.0499 39.3306 51.0499 35.737C53.9237 35.737 56.7576 35.737 59.6713 35.737C59.2323 38.1926 59.6514 40.4287 61.4475 42.2455C62.7846 43.6031 64.441 44.2819 66.3569 44.2619C70.6876 44.222 73.1622 41.0276 72.9427 35.717C75.1579 35.717 77.3731 35.717 79.6482 35.717C79.3289 38.7516 78.4907 41.5866 77.2534 44.3218C75.7367 47.6559 73.6412 50.5708 71.0069 53.1063C66.8558 57.0593 64.2015 61.8509 63.2835 67.5408Z" fill="#00E398"/>
<path d="M13.5109 33.9402C14.2692 33.9402 14.848 33.6207 15.1473 32.882C15.6463 31.6442 14.7881 30.5661 13.2115 30.5661C9.59929 30.5461 5.98709 30.5661 2.35492 30.5461C1.33712 30.5461 0.538838 30.8057 0 31.6642C0 32.0635 0 32.4628 0 32.8621C0.578752 33.2214 1.17746 33.9002 1.75621 33.9202C5.68773 34 9.59929 33.9601 13.5109 33.9402Z" fill="#00E398"/>
<path d="M100.284 30.5861C96.3323 30.5461 92.4008 30.5461 88.4493 30.606C87.9304 30.606 87.2319 31.0652 86.9326 31.5044C86.2141 32.6025 87.0922 33.9002 88.5291 33.9401C90.4849 34 92.4407 33.9601 94.3965 33.9601C96.3523 33.9601 98.308 34 100.264 33.9401C101.322 33.9202 102 33.2014 102 32.2631C102 31.3248 101.342 30.5861 100.284 30.5861Z" fill="#00E398"/>
<path d="M7.60349 9.14384C10.8964 11.0605 14.1893 12.9571 17.4822 14.8538C18.5599 15.4727 19.5577 15.273 20.0766 14.3946C20.5955 13.4962 20.2961 12.5578 19.1985 11.9189C15.9255 10.0223 12.6526 8.1456 9.37966 6.26891C9.04039 6.06926 8.66121 5.9894 8.4816 5.90955C7.42388 5.92951 6.88504 6.3887 6.66552 7.16733C6.42603 8.06574 6.84513 8.70461 7.60349 9.14384Z" fill="#00E398"/>
<path d="M17.7417 49.5326C14.3091 51.4691 10.8965 53.4457 7.48382 55.4421C6.58576 55.9812 6.34628 56.9195 6.82524 57.758C7.28425 58.5766 8.26215 58.8761 9.16021 58.377C12.5928 56.4204 16.0054 54.4639 19.3981 52.4474C19.8571 52.1679 20.0966 51.569 20.2962 51.3294C20.3161 49.6723 18.9391 48.8538 17.7417 49.5326Z" fill="#00E398"/>
<path d="M94.4563 55.4222C91.1035 53.4258 87.6909 51.4892 84.3182 49.5326C83.5798 49.1134 82.8413 49.1533 82.2227 49.7523C81.3246 50.5908 81.5841 51.8486 82.7815 52.5473C85.0765 53.885 87.3716 55.2026 89.6666 56.5203C90.7243 57.1392 91.7821 57.7781 92.8597 58.3371C94.0771 58.956 95.4342 58.1375 95.3943 56.5203C95.1947 56.3007 94.9153 55.7018 94.4563 55.4222Z" fill="#00E398"/>
<path d="M83.5597 15.2531C83.8192 15.1532 84.1983 15.0334 84.5376 14.8338C87.7906 12.9771 91.0236 11.1004 94.2566 9.2237C95.3343 8.58482 95.6736 7.62651 95.1348 6.74806C94.6159 5.84965 93.638 5.66997 92.5404 6.30884C90.9238 7.22722 89.3273 8.16556 87.7108 9.08394C85.9945 10.0822 84.2582 11.0605 82.5619 12.0787C81.8235 12.5179 81.5241 13.1967 81.7835 14.0352C82.023 14.8338 82.6217 15.1932 83.5597 15.2531Z" fill="#00E398"/>
</g>
<defs>
<clipPath id="clip0_50_2448">
<rect width="102" height="102" fill="white"/>
</clipPath>
</defs>
</svg>
