<svg width="68" height="52" viewBox="0 0 68 52" fill="none" xmlns="http://www.w3.org/2000/svg">
<path d="M65.729 18.6931L62.5206 16.9285L33.6456 0.886836H33.2927C33.096 0.803672 32.8919 0.739221 32.6831 0.694336H32.0735H31.496C31.2768 0.73925 31.0621 0.803673 30.8544 0.886836H30.5015L1.62646 16.9285C1.1327 17.2083 0.72201 17.6141 0.436278 18.1045C0.150545 18.5948 0 19.1522 0 19.7198C0 20.2873 0.150545 20.8447 0.436278 21.335C0.72201 21.8254 1.1327 22.2312 1.62646 22.511L9.61521 26.9385V42.146C9.61521 44.6987 10.6293 47.1469 12.4343 48.9519C14.2393 50.7569 16.6875 51.771 19.2402 51.771H44.9069C47.4596 51.771 49.9077 50.7569 51.7128 48.9519C53.5178 47.1469 54.5319 44.6987 54.5319 42.146V26.9385L60.9485 23.3452V32.521C60.9485 33.3719 61.2866 34.188 61.8882 34.7896C62.4899 35.3913 63.306 35.7293 64.1569 35.7293C65.0078 35.7293 65.8238 35.3913 66.4255 34.7896C67.0272 34.188 67.3652 33.3719 67.3652 32.521V21.4843C67.3642 20.9158 67.2122 20.3578 66.9247 19.8673C66.6372 19.3769 66.2245 18.9717 65.729 18.6931ZM48.1152 42.146C48.1152 42.9969 47.7772 43.813 47.1755 44.4146C46.5738 45.0163 45.7578 45.3543 44.9069 45.3543H19.2402C18.3893 45.3543 17.5733 45.0163 16.9716 44.4146C16.3699 43.813 16.0319 42.9969 16.0319 42.146V30.4998L30.5015 38.5206L30.9827 38.7131H31.2715C31.5378 38.7466 31.8072 38.7466 32.0735 38.7131C32.3399 38.7466 32.6093 38.7466 32.8756 38.7131H33.1644C33.3347 38.6772 33.4975 38.6121 33.6456 38.5206L48.1152 30.4998V42.146ZM32.0735 32.0718L9.80771 19.6877L32.0735 7.3035L54.3394 19.6877L32.0735 32.0718Z" fill="white"/>
</svg>
