<svg width="27" height="27" viewBox="0 0 27 27" fill="none" xmlns="http://www.w3.org/2000/svg">
<path d="M14 3.98795C16.9157 3.98795 17.3133 3.98795 18.506 3.98795C19.5663 3.98795 20.0964 4.25301 20.494 4.38554C21.0241 4.6506 21.4217 4.78313 21.8193 5.18072C22.2169 5.57831 22.4819 5.9759 22.6145 6.50603C22.747 6.90362 22.8795 7.43374 23.012 8.49398C23.012 9.68675 23.012 9.95181 23.012 13C23.012 16.0482 23.012 16.3133 23.012 17.506C23.012 18.5663 22.747 19.0964 22.6145 19.494C22.3494 20.0241 22.2169 20.4217 21.8193 20.8193C21.4217 21.2169 21.0241 21.4819 20.494 21.6145C20.0964 21.747 19.5663 21.8795 18.506 22.012C17.3133 22.012 17.0482 22.012 14 22.012C10.9518 22.012 10.6867 22.012 9.49398 22.012C8.43374 22.012 7.90362 21.747 7.50603 21.6145C6.9759 21.3494 6.57831 21.2169 6.18072 20.8193C5.78313 20.4217 5.51807 20.0241 5.38554 19.494C5.25301 19.0964 5.12048 18.5663 4.98795 17.506C4.98795 16.3133 4.98795 16.0482 4.98795 13C4.98795 9.95181 4.98795 9.68675 4.98795 8.49398C4.98795 7.43374 5.25301 6.90362 5.38554 6.50603C5.6506 5.9759 5.78313 5.57831 6.18072 5.18072C6.57831 4.78313 6.9759 4.51807 7.50603 4.38554C7.90362 4.25301 8.43374 4.12048 9.49398 3.98795C10.6867 3.98795 11.0843 3.98795 14 3.98795ZM14 2C10.9518 2 10.6867 2 9.49398 2C8.30121 2 7.50603 2.26506 6.84337 2.53012C6.18072 2.79518 5.51807 3.19277 4.85542 3.85542C4.19277 4.51807 3.92771 5.04819 3.53012 5.84337C3.26506 6.50603 3.13253 7.30121 3 8.49398C3 9.68675 3 10.0843 3 13C3 16.0482 3 16.3133 3 17.506C3 18.6988 3.26506 19.494 3.53012 20.1566C3.79518 20.8193 4.19277 21.4819 4.85542 22.1446C5.51807 22.8072 6.04819 23.0723 6.84337 23.4699C7.50603 23.7349 8.30121 23.8675 9.49398 24C10.6867 24 11.0843 24 14 24C16.9157 24 17.3133 24 18.506 24C19.6988 24 20.494 23.7349 21.1566 23.4699C21.8193 23.2048 22.4819 22.8072 23.1446 22.1446C23.8072 21.4819 24.0723 20.9518 24.4699 20.1566C24.7349 19.494 24.8675 18.6988 25 17.506C25 16.3133 25 15.9157 25 13C25 10.0843 25 9.68675 25 8.49398C25 7.30121 24.7349 6.50603 24.4699 5.84337C24.2048 5.18072 23.8072 4.51807 23.1446 3.85542C22.4819 3.19277 21.9518 2.92771 21.1566 2.53012C20.494 2.26506 19.6988 2.13253 18.506 2C17.3133 2 17.0482 2 14 2Z" fill="white"/>
<path d="M14 7.30121C10.8193 7.30121 8.30121 9.81928 8.30121 13C8.30121 16.1807 10.8193 18.6988 14 18.6988C17.1807 18.6988 19.6988 16.1807 19.6988 13C19.6988 9.81928 17.1807 7.30121 14 7.30121ZM14 16.7108C12.012 16.7108 10.2892 15.1205 10.2892 13C10.2892 11.012 11.8795 9.28916 14 9.28916C15.988 9.28916 17.7108 10.8795 17.7108 13C17.7108 14.988 15.988 16.7108 14 16.7108Z" fill="white"/>
<path d="M19.8313 8.49398C20.5633 8.49398 21.1566 7.90062 21.1566 7.16868C21.1566 6.43673 20.5633 5.84337 19.8313 5.84337C19.0994 5.84337 18.506 6.43673 18.506 7.16868C18.506 7.90062 19.0994 8.49398 19.8313 8.49398Z" fill="white"/>
</svg>
