<svg width="350" height="350" viewBox="0 0 350 350" fill="none" xmlns="http://www.w3.org/2000/svg">
<rect width="350" height="350" fill="#F2F2F2"/>
<path d="M200 225H150V239H200V225Z" fill="#D8D8D8"/>
<path fill-rule="evenodd" clip-rule="evenodd" d="M175 204C184.483 197.947 189.547 193.656 194.289 182.651L194.612 181.77C198.384 172.526 200 161.962 200 152.057V112H150V152.057C150 162.072 151.509 172.526 155.388 181.77L155.711 182.651C160.453 193.545 165.517 197.947 175 204ZM174.03 185.842C166.272 177.368 164.009 163.392 164.009 152.167V126.196H186.099V152.057C186.099 163.282 183.836 177.368 176.078 185.732L175.108 186.722L174.03 185.842Z" fill="#D8D8D8"/>
<path fill-rule="evenodd" clip-rule="evenodd" d="M142.169 145.091V131H120V171.525C120 183.322 123.714 195.12 132.491 203.531C141.043 211.723 152.297 214.782 164 215V200.8C156.348 200.581 148.246 198.834 142.619 193.372C136.655 187.692 134.517 179.281 134.517 171.416V145.091H142.169Z" fill="#D8D8D8"/>
<path fill-rule="evenodd" clip-rule="evenodd" d="M206.646 131V145.091H215.559V171.525C215.559 179.39 213.415 187.801 207.436 193.481C201.795 198.834 193.785 200.691 186 200.909V215C197.733 214.782 209.015 211.723 217.59 203.531C226.39 195.12 230 183.322 230 171.525V131H206.646Z" fill="#D8D8D8"/>
</svg>
