<svg width="138" height="137" viewBox="0 0 138 137" fill="none" xmlns="http://www.w3.org/2000/svg">
<g clip-path="url(#clip0_50_2361)">
<path d="M136.677 6.70065C134.516 2.50265 130.978 0.29601 126.225 -2.78656e-06C125.766 -0.026913 125.334 -2.78656e-06 124.875 -2.78656e-06C87.526 -2.78656e-06 50.1499 -2.78656e-06 12.7738 -2.78656e-06C6.64344 -2.78656e-06 1.86341 3.47142 0.432094 9.01493C0.135029 10.2259 0.0270059 11.4907 0.0270059 12.7285C0 49.9454 0 87.1353 0 124.352C0 130.838 3.6728 135.385 10.0192 136.812C10.1812 136.839 10.3432 136.946 10.5053 137.027C49.5018 137.027 88.4982 137.027 127.495 137.027C128.305 136.785 129.142 136.623 129.925 136.3C134.057 134.74 136.623 131.806 137.703 127.555C137.784 127.205 137.892 126.882 138 126.532C138 87.835 138 49.165 138 10.4681C137.568 9.23021 137.298 7.8847 136.677 6.70065ZM129.925 41.9531C129.925 69.2669 129.925 96.5539 129.925 123.868C129.925 127.528 128.494 128.954 124.794 128.954C87.6071 128.954 50.42 128.954 13.2329 128.954C9.53307 128.954 8.10176 127.554 8.10176 123.868C8.10176 96.6077 8.10176 69.3477 8.10176 42.0876C8.10176 41.5494 8.10176 41.0112 8.10176 40.3923C48.7186 40.3923 89.2274 40.3923 129.925 40.3923C129.925 40.9843 129.925 41.4687 129.925 41.9531ZM129.925 32.1846C89.2814 32.1846 48.7726 32.1846 8.15577 32.1846C8.12877 31.7541 8.10176 31.3235 8.10176 30.8929C8.10176 24.8112 8.10176 18.7295 8.10176 12.6209C8.10176 9.66077 9.72211 8.04616 12.6658 8.04616C50.2039 8.04616 87.7421 8.04616 125.307 8.04616C128.359 8.04616 129.925 9.63386 129.925 12.7016C129.925 19.1601 129.925 25.5916 129.925 32.1846Z" fill="#00E398"/>
<path d="M117.071 16.1193C113.182 16.1193 109.266 16.1193 105.377 16.1193C101.515 16.1193 97.6534 16.1193 93.8185 16.1193C91.0909 16.1193 89.2545 17.7339 89.2275 20.1289C89.2275 22.5239 91.0639 24.1654 93.7645 24.1654C101.515 24.1654 109.293 24.1654 117.044 24.1654C119.744 24.1654 121.581 22.497 121.554 20.102C121.527 17.7608 119.717 16.1193 117.071 16.1193Z" fill="#00E398"/>
<path d="M20.5513 16.1192C18.3639 16.0923 16.5005 17.8684 16.4465 20.0481C16.3924 22.2816 18.2559 24.1654 20.4973 24.1654C22.6848 24.1654 24.5212 22.3624 24.5482 20.1826C24.5482 18.0029 22.7388 16.173 20.5513 16.1192Z" fill="#00E398"/>
<path d="M36.6742 16.1193C34.4867 16.1193 32.6503 17.9222 32.6233 20.102C32.5963 22.3355 34.4867 24.2192 36.7012 24.1654C38.8887 24.1385 40.6981 22.3086 40.6981 20.1289C40.6981 17.9492 38.8617 16.1462 36.6742 16.1193Z" fill="#00E398"/>
<path d="M52.8505 16.1193C50.663 16.1193 48.8266 17.9222 48.7996 20.102C48.7726 22.3355 50.663 24.2192 52.8775 24.1923C55.065 24.1654 56.8744 22.3355 56.8744 20.1558C56.8474 17.9492 55.038 16.1462 52.8505 16.1193Z" fill="#00E398"/>
<path d="M40.725 87.5659C40.752 89.8533 41.1841 92.033 42.0213 94.1589C42.9395 96.4463 44.3438 98.4107 46.1532 100.106C48.4487 102.259 51.0953 103.739 54.1469 104.573C56.7665 105.3 59.4671 105.246 62.1137 105.004C66.8127 104.573 70.8906 102.636 74.4013 99.5141C76.4538 97.6842 78.1552 95.5852 79.5325 93.1901C79.5865 93.0825 79.6135 92.948 79.7485 92.921C79.8835 93.0018 79.8835 93.1363 79.9376 93.2709C80.3696 94.4011 80.8557 95.4775 81.5039 96.5001C82.5571 98.1685 83.8804 99.6217 85.3927 100.886C87.9313 102.985 90.8479 104.304 94.1156 104.923C95.79 105.246 97.4914 105.219 99.1927 105.165C100.138 105.138 101.11 105.138 102.055 104.977C104.621 104.546 107.078 103.712 109.401 102.528C111.886 101.263 114.046 99.5948 115.963 97.5765C117.341 96.1503 118.529 94.6164 119.474 92.8672C120.608 90.7951 121.5 88.6423 121.635 86.2204C121.662 85.7629 121.662 85.2785 121.77 84.8211C121.77 84.552 121.77 84.2829 121.77 83.9869C121.77 83.7985 121.77 83.6101 121.77 83.4487C121.77 83.045 121.77 82.6683 121.77 82.2646C121.77 81.8609 121.77 81.4842 121.77 81.0805C121.689 80.7845 121.689 80.4616 121.689 80.1387C121.635 77.2862 120.608 74.7566 119.015 72.4424C117.638 70.4241 115.855 68.8095 113.803 67.464C110.049 65.0151 105.89 64.2617 101.488 64.5846C99.8679 64.6922 98.2475 64.9882 96.6542 65.365C94.2237 65.957 91.9012 66.8719 89.7677 68.1636C87.8503 69.3477 86.1759 70.8547 84.6906 72.5231C82.7462 74.7297 81.1798 77.1786 80.1266 79.9503C79.8025 80.7845 79.8025 80.7845 78.9113 80.7845C73.5912 80.7845 68.271 80.7845 62.9509 80.7845C62.1677 80.7845 61.6006 81.0805 61.2225 81.7533C60.3043 83.3948 59.5751 85.144 58.792 86.8662C58.5759 87.3237 58.3329 87.8081 58.3599 88.3463C58.3599 89.0191 58.7109 89.3958 59.3861 89.4227C59.6021 89.4496 59.8452 89.4227 60.0612 89.4227C62.9779 89.4227 65.8675 89.4227 68.7841 89.4227C68.9462 89.4227 69.0812 89.4227 69.2432 89.4227C69.4593 89.4496 69.5133 89.5573 69.4053 89.7456C69.2972 89.9609 69.1352 90.1493 68.9732 90.3377C67.7849 91.9254 66.3266 93.1902 64.4632 93.9436C63.0319 94.5088 61.5736 94.6971 60.0072 94.5626C56.6045 94.2935 53.6608 91.8985 52.7967 88.6154C52.4726 87.3775 52.3916 86.1397 52.5266 84.8749C52.7156 83.341 53.1207 81.8609 53.8769 80.5154C54.8221 78.8739 56.1184 77.5553 57.7117 76.5327C59.7102 75.241 61.8706 74.4068 64.3282 74.7566C66.0565 74.9988 67.5959 75.5909 68.9192 76.748C69.3242 77.0978 69.6213 77.5015 69.9724 77.8782C70.4045 78.3357 70.8636 78.4164 71.4577 78.2819C73.7262 77.6629 76.0217 77.0978 78.2902 76.4789C79.1004 76.2636 79.9105 76.1022 80.6937 75.833C81.3148 75.6178 81.5039 75.241 81.2608 74.6759C80.3967 72.7115 79.2354 70.8816 77.7231 69.3477C76.1837 67.76 74.3743 66.5221 72.3489 65.6072C71.0526 65.0151 69.7293 64.5308 68.298 64.3962C67.6499 64.3424 67.0017 64.3424 66.3806 64.2347C66.1376 64.2347 65.8945 64.2347 65.6514 64.2347C65.1383 64.2347 64.6252 64.2347 64.0851 64.2347C63.788 64.2347 63.464 64.2347 63.1669 64.2347C63.0859 64.3155 62.9509 64.2617 62.8698 64.2886C62.0057 64.3424 61.1415 64.3424 60.3043 64.5038C57.2256 65.069 54.363 66.1992 51.7434 67.8945C49.3939 69.4015 47.3955 71.2852 45.6671 73.465C43.6417 76.0483 42.1023 78.8739 41.2921 82.0762C40.806 83.8254 40.698 85.6822 40.725 87.5659ZM90.6049 83.637C92.0902 77.8513 96.2761 75.1872 101.083 74.5144C101.407 74.4606 101.758 74.4875 102.082 74.4606C106.889 74.4875 110.778 78.1204 110.913 82.9104C111.048 87.2699 109.131 90.6068 105.512 93.0018C103.649 94.2397 101.623 94.9931 99.3278 94.9662C93.2514 94.8855 89.0925 89.5034 90.6049 83.637Z" fill="#00E398"/>
<path d="M12.0718 81.4842C12.2068 81.4842 12.3419 81.4842 12.4769 81.4842C16.5278 81.4842 20.5787 81.4842 24.6295 81.4842C24.6295 81.4572 24.6295 81.4303 24.6295 81.4034C28.5454 81.4034 32.4613 81.4034 36.3501 81.4034C37.8354 81.4034 37.5654 81.5918 38.0245 80.1925C38.2405 79.5197 38.2405 79.4928 37.4843 79.4928C32.4613 79.4928 27.4652 79.4928 22.4421 79.4928C19.5254 79.4928 16.6088 79.4928 13.6922 79.4928C13.2601 79.4928 12.936 79.6274 12.6659 79.9772C12.3959 80.3539 12.0988 80.7038 11.8288 81.0536C11.7477 81.1343 11.6397 81.242 11.6937 81.3765C11.8018 81.5111 11.9368 81.4842 12.0718 81.4842Z" fill="#00E398"/>
<path d="M20.2813 76.5865C23.387 76.5865 26.5197 76.5865 29.6253 76.5865C29.6253 76.6134 29.6253 76.6134 29.6253 76.6403C32.4339 76.6403 35.2426 76.6403 38.0512 76.6403C39.9686 76.6403 39.5365 76.8825 40.6167 75.2679C40.7247 75.1065 40.9408 74.945 40.8328 74.7566C40.7247 74.5413 40.4547 74.649 40.2386 74.649C34.4864 74.649 28.7341 74.6221 23.0089 74.649C20.7404 74.649 21.4426 74.353 20.0112 76.129C19.9302 76.2367 19.7412 76.3712 19.7952 76.5058C19.9032 76.6672 20.1193 76.5865 20.2813 76.5865Z" fill="#00E398"/>
<path d="M36.4311 84.4174C33.3794 84.4174 30.3277 84.4174 27.2761 84.4174C25.3857 84.4174 25.8448 84.1483 24.8725 85.8436C24.6025 86.328 24.6295 86.4087 25.1966 86.4087C27.06 86.4087 28.9234 86.4087 30.7868 86.4087C30.7868 86.4356 30.7868 86.4356 30.7868 86.4625C32.5962 86.4625 34.4056 86.4625 36.188 86.4625C36.8632 86.4625 36.8902 86.4356 36.9442 85.7898C36.9712 85.5476 36.9982 85.3054 36.9982 85.0632C37.0522 84.4712 36.9982 84.4174 36.4311 84.4174Z" fill="#00E398"/>
</g>
<defs>
<clipPath id="clip0_50_2361">
<rect width="138" height="137" fill="white"/>
</clipPath>
</defs>
</svg>
