<?xml version="1.0" encoding="utf-8"?>
<!-- Generator: Adobe Illustrator 25.0.0, SVG Export Plug-In . SVG Version: 6.00 Build 0)  -->
<svg version="1.1" id="Layer_1" xmlns="http://www.w3.org/2000/svg" xmlns:xlink="http://www.w3.org/1999/xlink" x="0px" y="0px"
	 viewBox="0 0 124.6 70.7" style="enable-background:new 0 0 124.6 70.7;" xml:space="preserve">
<style type="text/css">
	.st0{opacity:0.35;}
	.st1{fill-rule:evenodd;clip-rule:evenodd;fill:#00E398;}
	.st2{fill:#51B466;}
	.st3{fill:#186031;}
	.st4{fill:#DF3D43;}
	.st5{fill:#B4DBB6;}
	.st6{fill:#5B6572;}
	.st7{fill:#51A962;}
	.st8{fill:#FFD77B;}
</style>
<g class="st0">
	<rect x="17.7" y="59.1" class="st1" width="24.7" height="7.1"/>
	<path class="st1" d="M20.3,38.2c2.4,5.5,4.9,7.6,9.7,10.7c4.8-3.1,7.3-5.2,9.8-10.6l0.2-0.4c2-4.5,2.7-9.8,2.7-14.7v-20H17.4V23
		c0,5,0.8,10.2,2.7,14.7L20.3,38.2z M24.5,10.2h11.2V23c0,5.6-1.1,12.5-5.1,16.8L30,40.3l-0.5-0.6c-4-4.2-5.1-11.2-5.1-16.8V10.2z"
		/>
	<path class="st1" d="M24.2,47.6c-3.8-0.1-7.6-1-10.4-3.7c-2.9-2.9-3.9-7.1-3.9-11V19.7h3.8v-7H2.9V33c0,5.9,1.7,11.8,6,16
		c4.2,4.1,9.6,5.6,15.3,5.7V47.6z"/>
	<path class="st1" d="M45.8,12.7v7.1h4.3V33c0,3.9-1,8.2-3.9,11c-2.7,2.7-6.6,3.6-10.4,3.7v7.1c5.7-0.1,11.2-1.7,15.3-5.7
		c4.3-4.2,6.1-10.1,6.1-16V12.7H45.8z"/>
</g>
<g>
	<path class="st2" d="M121.7,66.1c-14.4,0-28.9,0-43.3,0c-0.2,0-0.3,0-0.5,0c-0.5-0.3-0.7-0.8-0.9-1.3c-1.7-3.1-3.4-6.2-5-9.4
		c-2.2-4-4.4-8.1-6.5-12.1c-1.7-3.1-3.4-6.3-5.1-9.4c-0.9-1.6-1.6-3.2-2.5-4.7c-0.2-0.3-0.5-0.6-0.1-0.9c0.5-0.1,0.9,0,1.3,0.3
		c1.8,0.7,3.7,0.9,5.5,1.3c5.5,1,11,1.5,16.6,1.4c6.5-0.2,12.8-1,19.1-2.6c0.9-0.2,1.3-0.1,1.7,0.7c6.4,11.9,12.8,23.8,19.2,35.7
		c0.2,0.4,0.3,0.8,0.6,1C121.7,66,121.7,66.1,121.7,66.1z"/>
	<path class="st3" d="M57.6,28.3c5.6,10.4,11.2,20.8,16.8,31.2c1.2,2.2,2.4,4.4,3.6,6.6c-3.4,0-6.8,0-10.2,0
		c-0.9-0.7-1.2-1.8-1.7-2.8c-2.8-5.1-5.5-10.2-8.2-15.3c-0.1-0.1-0.2-0.3-0.2-0.4c0,0,0-0.1,0-0.1c-0.1,0.1-0.1,0.2-0.1,0.3
		c-1.8,3.6-3.8,7.1-5.7,10.6c-1.2,2.3-2.5,4.7-3.8,7c-0.2,0.3-0.3,0.6-0.6,0.7c-3.4,0-6.8,0-10.2,0c0.2-0.3,0.3-0.5,0.4-0.8
		c6-11.2,12-22.3,18-33.5c0.2-0.4,0.4-0.8,0.6-1.3c0.2-0.7,0.6-1.3,0.9-1.9C57.1,28.5,57.2,28.2,57.6,28.3z"/>
	<path class="st4" d="M59,7.8c7,0,14,0,21,0c0.8,0,0.9,0.2,0.9,1c0,3.3,0,6.6,0,9.9c0,0.7-0.2,0.9-0.9,0.9c-7,0-14,0-21,0
		c-0.2-0.1-0.3-0.2-0.3-0.4c-0.1-1.4-0.3-2.7,0.1-4c0.3-0.3,0.8-0.2,1.2-0.2c1.9,0,3.7,0,5.6,0c1.2,0,1.8-0.4,1.7-1.2
		c0-0.7-0.6-1.2-1.7-1.3c-1.8-0.1-3.6,0-5.5,0c-0.4,0-0.8,0-1.2-0.2c-0.2-0.2-0.3-0.4-0.3-0.7c-0.1-1,0-2.1,0-3.1
		C58.7,8.1,58.7,7.9,59,7.8z"/>
	<path class="st5" d="M57.6,47.4c2.2,4.1,4.5,8.3,6.7,12.4c1.1,2.1,2.2,4.2,3.3,6.2c-3.4,0-6.7,0-10.1,0c-0.3-0.3-0.2-0.7-0.2-1
		c0-5.5,0-11,0-16.6C57.3,48.1,57.3,47.7,57.6,47.4z"/>
	<path class="st2" d="M47.3,66.1c3.3-6.2,6.6-12.3,10-18.5c0.3,0,0.2,0.3,0.2,0.4c0,5.9,0,11.8,0,17.7c0,0.1,0,0.2-0.1,0.3
		C54,66.1,50.7,66.1,47.3,66.1z"/>
	<path class="st6" d="M59,7.8c0,1.5-0.1,2.9,0,4.4c0.2,1,0.2,2,0,2.9c-0.1,1.5-0.1,2.9,0,4.4c-0.2,1.7,0,3.4-0.1,5.1
		c0,1.3,0,2.6,0,3.9c-0.5-0.1-0.9-0.1-1.4-0.2c-0.7,0.6-0.8,1.7-1.5,2.3c0-0.3,0-0.6,0-0.9c0-8,0-16.1,0-24.1c0-0.2,0-0.5,0-0.7
		c0.1-0.8,0.6-1.4,1.4-1.4c0.8,0,1.4,0.5,1.4,1.4C59,5.8,58.9,6.8,59,7.8z"/>
	<path class="st7" d="M57.4,66.1c0-5.9,0-11.7,0-17.6c0-0.3,0.1-0.6-0.1-0.9c0.1-0.1,0.1-0.4,0.3-0.2c0,3.4,0,6.8,0,10.2
		c0,2.8,0,5.7,0,8.5C57.5,66.1,57.5,66.1,57.4,66.1L57.4,66.1z"/>
	<path class="st5" d="M107.2,58.8c1.3,0,2.7,0,4,0c1,0,1.7,0.6,1.7,1.4c0,0.8-0.6,1.5-1.7,1.6c-1,0-1.9,0-2.9,0c-1.7,0-3.5,0-5.2,0
		c-1,0-1.6-0.4-1.8-1.1c-0.3-1,0.4-1.8,1.4-1.8C104.2,58.8,105.7,58.8,107.2,58.8C107.2,58.8,107.2,58.8,107.2,58.8z"/>
	<path class="st5" d="M83,58.9c0.3,0,0.6-0.1,0.9,0c0.7,0.2,1.2,0.6,1.2,1.3c0,0.8-0.4,1.3-1.1,1.5c-0.7,0.2-1.4,0.2-2,0
		c-0.8-0.2-1.2-0.8-1.1-1.5c0.1-0.7,0.6-1.3,1.4-1.3C82.5,58.8,82.8,58.8,83,58.9C83,58.9,83,58.9,83,58.9z"/>
	<path class="st5" d="M96.2,58.8c0.1,0,0.1,0,0.2,0c1.3,0,2,0.5,2,1.5c0,0.9-0.7,1.5-2,1.5c-0.4,0-0.8,0-1.1-0.1
		c-0.7-0.2-1.3-0.8-1.2-1.4c0.1-0.8,0.6-1.3,1.5-1.4C95.7,58.8,96,58.8,96.2,58.8C96.2,58.8,96.2,58.8,96.2,58.8z"/>
	<path class="st8" d="M59,15c-0.1-1-0.1-2,0-2.9c2.3,0,4.5,0,6.8,0c0.5,0,1.1,0.1,1.5,0.5c0.4,0.4,0.5,1,0.3,1.5
		c-0.2,0.7-0.8,1-1.5,1C63.7,15,61.3,15,59,15z"/>
	<path class="st8" d="M72.8,15C72.7,15,72.7,15,72.8,15c-1.4,0-2.2-0.5-2.1-1.5c0-1,0.7-1.5,2.1-1.5c0.4,0,0.7,0,1.1,0.1
		c0.8,0.2,1.2,0.7,1.2,1.5c-0.1,0.7-0.6,1.2-1.3,1.3C73.3,15.1,73,15,72.8,15C72.8,15,72.8,15,72.8,15z"/>
</g>
</svg>
