<svg width="94" height="104" viewBox="0 0 94 104" fill="none" xmlns="http://www.w3.org/2000/svg">
<path d="M93.9797 42.1495C93.9797 33.3573 93.9594 24.5448 94 15.7526C94 14.6536 93.6752 13.8192 92.8836 13.0661C88.9661 9.19922 85.0892 5.27123 81.192 1.38395C80.7048 0.895499 80.1365 0.468102 79.5884 0.0203523C59.2092 0 38.8301 0 18.4306 0C17.3345 0.590215 16.9894 1.50607 16.9894 2.76791C17.0097 23.8935 17.0097 45.0192 17.0097 66.1448C17.0097 66.5722 17.0097 66.9996 17.0097 67.4474C14.7566 67.4474 12.6659 67.4474 10.5753 67.4474C4.34377 67.4474 0 71.8027 0 78.0509C0 83.0982 0 88.1456 0 93.193C0 99.726 4.28288 104 10.8594 104C21.5362 104 32.1926 104 42.8694 104C59.0672 104 75.2853 104 91.4831 104C93.2084 104 94 103.288 94 101.68C94 88.2677 94 74.8759 94 61.4638C94 60.0798 93.1881 59.1436 92.0108 59.1436C90.8335 59.1233 90.0013 60.0595 89.9607 61.4231C89.9607 61.6877 89.9607 61.9726 89.9607 62.2372C89.9607 74.3875 89.9607 86.5378 89.9607 98.6881C89.9607 99.0748 89.9607 99.4818 89.9607 99.8481C83.851 99.8481 77.8834 99.8481 71.8752 99.8481C73.5802 96.7342 73.7629 96.0016 73.7629 92.4399C73.7629 87.7386 73.6411 83.0168 73.7832 78.3155C73.9862 72.1487 69.1959 67.3049 62.8426 67.3863C49.3444 67.5288 35.8463 67.427 22.3278 67.427C21.9421 67.427 21.5362 67.427 21.1505 67.427C21.1505 46.2403 21.1505 25.1757 21.1505 4.11115C39.7841 4.11115 58.3364 4.11115 76.9903 4.11115C76.9903 4.49785 76.9903 4.82348 76.9903 5.14912C76.9903 8.30372 76.9903 11.438 76.9903 14.5926C76.9903 16.3225 77.7413 17.0552 79.4666 17.0552C81.9024 17.0552 84.3179 17.0552 86.7536 17.0552C87.7888 17.0552 88.824 17.0552 89.9404 17.0552C89.9404 17.5233 89.9404 17.8896 89.9404 18.256C89.9404 26.173 89.9404 34.09 89.9404 42.0274C89.9404 42.3327 89.9201 42.638 89.9607 42.9432C90.0622 44.1033 90.9147 44.9174 92.0108 44.8971C93.0866 44.8767 93.8985 44.083 93.9797 42.984C94 42.699 93.9797 42.4344 93.9797 42.1495ZM63.2079 71.4975C67.1255 71.4975 69.6627 74.0618 69.683 77.9695C69.683 83.1389 69.683 88.3288 69.683 93.4982C69.683 97.3448 67.1052 99.9295 63.2688 99.9295C54.4189 99.9295 45.5893 99.9295 36.7394 99.9295C28.0721 99.9295 19.4049 99.9295 10.7173 99.9295C6.53595 99.9295 4.0596 97.4466 4.0596 93.254C4.0596 88.1456 4.0596 83.0372 4.0596 77.9288C4.0596 74.0822 6.63744 71.5178 10.4738 71.5178C28.0518 71.4975 45.6299 71.4975 63.2079 71.4975ZM81.0702 12.9237C81.0702 10.9699 81.0702 9.09746 81.0702 7.34716C82.9173 9.19922 84.805 11.092 86.6318 12.9237C84.9268 12.9237 83.0391 12.9237 81.0702 12.9237Z" fill="#00E398"/>
<path d="M55.5353 22.3468C47.6394 22.3468 39.7434 22.3468 31.8475 22.3468C29.838 22.3468 29.1885 22.9981 29.1885 25.0129C29.1885 36.4916 29.1885 47.9703 29.1885 59.449C29.1885 61.4842 29.838 62.1558 31.8272 62.1558C47.6191 62.1558 63.4312 62.1558 79.223 62.1558C81.1513 62.1558 81.8415 61.4638 81.8415 59.5304C81.8415 48.011 81.8415 36.512 81.8415 24.9926C81.8415 23.0184 81.1716 22.3468 79.2433 22.3468C71.3271 22.3468 63.4312 22.3468 55.5353 22.3468ZM49.5068 26.4783C58.8844 26.4783 68.2824 26.4783 77.7413 26.4783C77.7413 29.0834 77.7413 31.6274 77.7413 34.2122C68.323 34.2122 58.9656 34.2122 49.5068 34.2122C49.5068 31.6478 49.5068 29.0834 49.5068 26.4783ZM45.3254 58.0243C41.3267 58.0243 37.3483 58.0243 33.309 58.0243C33.309 55.4803 33.309 52.8955 33.309 50.2701C37.3077 50.2701 41.2861 50.2701 45.3254 50.2701C45.3254 52.8752 45.3254 55.4192 45.3254 58.0243ZM33.2684 46.0775C33.2684 43.4724 33.2684 40.9488 33.2684 38.3844C37.2874 38.3844 41.2455 38.3844 45.2848 38.3844C45.2848 40.9284 45.2848 43.4724 45.2848 46.0775C41.3267 46.0775 37.328 46.0775 33.2684 46.0775ZM45.3254 34.1715C41.3064 34.1715 37.2874 34.1715 33.2684 34.1715C33.2684 31.5257 33.2684 29.0223 33.2684 26.458C37.3077 26.458 41.2861 26.458 45.3254 26.458C45.3254 29.0223 45.3254 31.5664 45.3254 34.1715ZM49.4865 38.4047C58.8844 38.4047 68.2621 38.4047 77.7413 38.4047C77.7413 40.9895 77.7413 43.5131 77.7413 46.0979C68.3027 46.0979 58.925 46.0979 49.4865 46.0979C49.4865 43.5335 49.4865 41.0098 49.4865 38.4047ZM77.7413 58.0039C68.3433 58.0039 58.9453 58.0039 49.4865 58.0039C49.4865 55.4599 49.4865 52.9159 49.4865 50.2701C58.8641 50.2701 68.2418 50.2701 77.7413 50.2701C77.7413 52.8752 77.7413 55.4192 77.7413 58.0039Z" fill="#00E398"/>
<path d="M91.9295 49.9851C90.8537 50.0055 89.9403 50.9213 89.9403 51.9796C89.92 53.0583 90.7928 53.9741 91.8889 54.0149C93.0256 54.0556 93.9593 53.1601 93.9796 52.0203C93.9999 50.9417 93.0459 49.9851 91.9295 49.9851Z" fill="#00E398"/>
<path d="M13.4982 80.5135C14.8784 82.2434 16.2587 83.9937 17.6592 85.7236C15.8933 87.942 14.1883 90.079 12.4833 92.216C11.5089 93.4371 11.5292 94.6379 12.5238 95.4317C13.4982 96.205 14.6348 95.9812 15.5888 94.8007C16.1369 94.1291 16.6849 93.4371 17.233 92.7452C18.2073 91.524 19.2019 90.2825 20.2371 89.0003C20.5416 89.3667 20.7648 89.6109 20.9678 89.8755C22.3481 91.5851 23.6877 93.315 25.0883 95.0246C25.9002 96.0219 27.0369 96.1643 27.9503 95.452C28.884 94.7397 29.0058 93.5592 28.2345 92.4806C28.0924 92.2974 27.9503 92.1142 27.7879 91.9311C26.1438 89.8755 24.52 87.8199 22.8555 85.7236C23.4645 84.9706 24.0328 84.2583 24.5809 83.5459C25.819 81.9788 27.0978 80.4524 28.2954 78.8649C29.0261 77.9084 28.8637 76.7483 28.0112 76.0563C27.1181 75.3236 25.9611 75.4457 25.1289 76.3819C24.7838 76.7686 24.4997 77.1757 24.1749 77.5624C22.8961 79.1702 21.6174 80.778 20.2574 82.4673C19.892 82.0399 19.6687 81.7549 19.4252 81.4497C18.0855 79.7808 16.7864 78.1119 15.4265 76.4634C14.5942 75.4457 13.3967 75.2829 12.4833 76.036C11.5698 76.7686 11.4684 77.9491 12.2803 79.0074C12.6862 79.5162 13.1125 80.0047 13.4982 80.5135Z" fill="#00E398"/>
<path d="M55.251 87.7589C56.9967 87.7793 57.9507 88.5119 57.9304 89.8145C57.9101 91.117 56.9561 91.809 55.2104 91.8294C54.4391 91.8294 53.6475 91.7887 52.8762 91.8497C51.7598 91.9108 50.9885 92.7656 50.9885 93.8442C50.9682 94.9229 51.7395 95.7777 52.8356 95.8795C53.4445 95.9405 54.0535 95.8795 54.6624 95.8795C55.2104 95.8795 55.7382 95.8998 56.2862 95.8795C59.2497 95.7166 61.7058 93.3354 61.99 90.3844C62.2741 87.3722 60.2849 84.5636 57.3214 83.892C56.7734 83.7699 56.1847 83.7292 55.6164 83.7088C54.0332 83.6681 53.1197 82.9558 53.0994 81.6939C53.0792 80.4118 54.0332 79.6587 55.6773 79.6384C56.2456 79.6384 56.8343 79.6587 57.4026 79.6384C58.6408 79.5773 59.473 78.7429 59.4527 77.5828C59.4324 76.4634 58.6408 75.6493 57.4432 75.5883C56.5298 75.5476 55.6164 75.5476 54.703 75.5883C51.638 75.7511 49.1413 78.3562 49.0399 81.4294C48.9181 84.9503 51.6177 87.6979 55.251 87.7589Z" fill="#00E398"/>
<path d="M35.1966 95.8795C37.6527 95.8999 40.1088 95.8795 42.5851 95.8795C44.0466 95.8795 44.96 95.0654 44.96 93.8239C44.96 92.6028 44.0263 91.8091 42.5445 91.8091C40.6974 91.8091 38.8503 91.8091 36.8611 91.8091C36.8611 91.3206 36.8611 90.9543 36.8611 90.5879C36.8611 86.3954 36.8611 82.2028 36.8611 78.0102C36.8611 76.5042 36.1101 75.5883 34.8922 75.568C33.6337 75.5476 32.8218 76.4838 32.8218 78.0102C32.8218 83.139 32.8218 88.2881 32.8218 93.4169C32.8218 95.1061 33.5525 95.8591 35.1966 95.8795Z" fill="#00E398"/>
</svg>
