<svg width="105" height="97" viewBox="0 0 105 97" fill="none" xmlns="http://www.w3.org/2000/svg">
<g clip-path="url(#clip0_50_2067)">
<path d="M105 9.41446C105 4.82103 102.534 1.51045 98.2808 0.351749C97.726 0.206911 97.1507 0.124147 96.5959 0.0206911C67.1918 0 37.8082 0 8.40411 0C7.27397 0.310367 6.08219 0.475896 5.03425 0.972483C2.30137 2.25533 0.678082 4.46928 0.143836 7.4695C0.123288 7.59364 0.0410959 7.71779 0 7.84194C0 34.968 0 62.0734 0 89.1994C0.452055 91.2065 1.17123 93.0687 2.71233 94.5171C4.5411 96.2551 6.76027 97 9.24658 97C38.0753 97 66.9247 97.0207 95.7534 97C101.301 97 105 93.2135 105 87.6476C105 61.5561 105 35.4853 105 9.41446ZM100.644 87.2338C100.644 87.8545 100.603 88.4753 100.5 89.0753C100.171 90.8961 98.589 92.3238 96.7603 92.4893C96.2466 92.5307 95.7329 92.5307 95.2192 92.5307C80.9589 92.5307 66.7192 92.5307 52.4589 92.5307C38.1986 92.5307 23.9589 92.5307 9.69863 92.5307C9.06164 92.5307 8.38356 92.5514 7.76712 92.4066C6.0411 92.0341 4.74658 90.6271 4.5 88.8477C4.41781 88.2683 4.39726 87.689 4.39726 87.1096C4.39726 61.3699 4.39726 35.6301 4.39726 9.89036C4.39726 9.24893 4.41781 8.58682 4.5411 7.94539C4.86986 6.12457 6.45205 4.69689 8.28082 4.51067C8.71233 4.46928 9.16438 4.46928 9.61644 4.46928C38.2192 4.46928 66.8425 4.46928 95.4452 4.46928C96.1849 4.46928 96.9658 4.51067 97.6644 4.71758C99.3082 5.23485 100.274 6.41425 100.562 8.13161C100.644 8.66958 100.664 9.22824 100.664 9.76621C100.644 35.6094 100.644 61.432 100.644 87.2338Z" fill="#00E398"/>
<path d="M94.4177 17.7736C94.0068 17.7115 93.5958 17.7115 93.1848 17.7115C66.0616 17.7115 38.9177 17.7115 11.7944 17.7115C11.3835 17.7115 10.9725 17.7115 10.5616 17.7736C9.5958 17.9185 8.89717 18.684 8.79443 19.6358C8.69169 20.6704 9.20539 21.6015 10.1711 21.8912C10.6848 22.0567 11.2396 22.0774 11.7944 22.0774C25.3561 22.0774 38.9177 22.0774 52.4999 22.0774C66.0821 22.0774 79.6232 22.0774 93.2054 22.0774C93.7191 22.0774 94.2328 22.0567 94.7259 21.9118C95.7122 21.6222 96.267 20.7531 96.2054 19.7186C96.1438 18.7254 95.4246 17.9185 94.4177 17.7736Z" fill="#00E398"/>
<path d="M35.1782 41.9202C30.9453 41.7754 26.7124 45.086 26.4864 49.3276C26.1782 54.9556 26.3015 60.6043 26.3015 66.2323C26.3015 67.4324 27.3494 68.3014 28.459 68.3014C29.6097 68.3014 30.5549 67.391 30.596 66.1082C30.6576 64.2873 30.6165 62.4665 30.6165 60.6457C30.6165 60.2939 30.6576 59.9215 30.6782 59.5491C33.6371 59.5491 36.4521 59.5491 39.3905 59.5491C39.3905 59.9836 39.3905 60.3353 39.3905 60.7078C39.3905 62.4872 39.3494 64.2873 39.411 66.0668C39.4521 67.4117 40.4384 68.3221 41.6302 68.2807C42.8015 68.2393 43.7056 67.3496 43.7261 66.0461C43.7467 60.6457 43.8289 55.2453 43.6439 49.8449C43.5001 45.5619 39.6371 42.0858 35.1782 41.9202ZM39.3699 55.1005C36.411 55.1005 33.596 55.1005 30.5138 55.1005C30.6371 53.1762 30.5549 51.2312 30.9042 49.3897C31.2741 47.4241 33.3905 46.1619 35.3425 46.3688C37.5412 46.5964 39.1439 48.2103 39.3494 50.3622C39.3699 50.6726 39.3699 50.9829 39.3699 51.2933C39.3699 52.5141 39.3699 53.7555 39.3699 55.1005Z" fill="#00E398"/>
<path d="M56.7328 41.9202C54.8629 41.8995 52.9725 41.9202 51.1027 41.9202C48.8629 41.9202 48.1643 42.6237 48.1643 44.879C48.1643 51.7278 48.1643 58.5559 48.1643 65.4046C48.1643 65.7564 48.1643 66.0874 48.2054 66.4392C48.3287 67.3496 48.8424 67.929 49.7054 68.1979C51.1849 68.6738 52.4794 67.6186 52.4999 65.8598C52.541 63.7907 52.4999 61.7423 52.4999 59.4663C54.226 59.4663 55.8287 59.5284 57.4314 59.4456C60.3698 59.3007 62.6301 57.5006 63.1438 54.6039C63.4931 52.5554 63.452 50.4243 63.3903 48.3551C63.2465 44.4445 60.6369 41.9616 56.7328 41.9202ZM59.0547 52.783C59.0136 54.4176 58.315 55.1211 56.7328 55.1418C55.4794 55.1625 54.2054 55.1418 52.952 55.1418C52.8492 55.1418 52.7465 55.1211 52.5821 55.1005C52.5821 52.2244 52.5821 49.369 52.5821 46.3895C54.1232 46.3895 55.6232 46.3067 57.1232 46.4102C58.4999 46.5136 59.0547 47.1964 59.0753 48.5827C59.0753 49.9484 59.0753 51.3761 59.0547 52.783Z" fill="#00E398"/>
<path d="M76.5205 63.977C75.8425 63.9356 75.1644 63.977 74.4452 63.977C74.4452 58.0387 74.4452 52.2451 74.4452 46.3068C75.1644 46.3068 75.8425 46.3482 76.5205 46.3068C77.8151 46.224 78.6986 45.355 78.7397 44.1963C78.7808 43.0376 77.8973 42.003 76.6233 41.9823C73.6438 41.9203 70.6849 41.9203 67.7055 41.9823C66.4931 42.003 65.6301 43.0169 65.6301 44.1342C65.6301 45.2929 66.5342 46.224 67.7877 46.3068C68.4657 46.3482 69.1438 46.3068 69.8836 46.3068C69.8836 52.2865 69.8836 58.08 69.8836 63.977C69.1644 63.977 68.5274 63.9563 67.8904 63.977C66.5548 64.0391 65.6301 64.9495 65.6301 66.1496C65.6301 67.3497 66.5548 68.3221 67.8904 68.3428C70.7671 68.3842 73.6233 68.3842 76.5 68.3428C77.8356 68.3221 78.7603 67.3083 78.7192 66.1082C78.6986 64.9081 77.8151 64.0391 76.5205 63.977Z" fill="#00E398"/>
<path d="M12.8631 13.2216C13.2946 13.2837 13.7466 13.263 14.1987 13.2837C14.1987 13.263 14.1987 13.2423 14.1987 13.2216C14.6507 13.2216 15.0822 13.263 15.5343 13.2216C16.6233 13.0975 17.3836 12.3319 17.4658 11.2974C17.5685 10.1801 16.9521 9.18688 15.8425 9.02135C14.774 8.87651 13.6644 8.87651 12.5959 9.02135C11.548 9.16619 10.911 10.1801 10.9932 11.2146C11.0548 12.2905 11.7946 13.0768 12.8631 13.2216Z" fill="#00E398"/>
<path d="M23.7535 13.2009C24.185 13.263 24.637 13.263 25.0891 13.2837C25.0891 13.263 25.0891 13.2423 25.0891 13.2216C25.5617 13.2216 26.0548 13.263 26.5274 13.2216C27.5959 13.0975 28.3357 12.3112 28.4178 11.2353C28.5 10.2421 27.9247 9.20755 26.9384 9.06271C25.7672 8.89719 24.5548 8.89719 23.4041 9.08341C22.4178 9.22824 21.8836 10.2421 21.9658 11.2974C22.0069 12.2905 22.7261 13.0561 23.7535 13.2009Z" fill="#00E398"/>
<path d="M89.3631 13.201C89.7946 13.263 90.2466 13.263 90.6987 13.2837C91.2124 13.263 91.7261 13.263 92.2398 13.201C93.2466 13.0561 93.9453 12.2699 94.0275 11.2353C94.1097 10.2421 93.5343 9.20758 92.548 9.06275C91.3973 8.89722 90.1644 8.89722 89.0138 9.06275C88.0275 9.20758 87.4932 10.2214 87.5754 11.256C87.6371 12.2906 88.3357 13.0561 89.3631 13.201Z" fill="#00E398"/>
</g>
<defs>
<clipPath id="clip0_50_2067">
<rect width="105" height="97" fill="white"/>
</clipPath>
</defs>
</svg>
