<svg width="88" height="101" viewBox="0 0 88 101" fill="none" xmlns="http://www.w3.org/2000/svg">
<path d="M8.23303 0C25.6332 0 43.055 0 60.4552 0C60.6941 0.217204 60.9114 0.434409 61.1503 0.651613C67.4935 6.88538 73.8149 13.0974 80.1363 19.3746C80.549 19.7873 80.8748 20.4824 80.8748 21.0688C80.9183 33.7101 80.8966 46.3514 80.8748 58.9927C80.8748 59.4054 80.8748 59.8181 80.8748 60.2959C82.0696 60.2959 83.0689 60.2959 84.0899 60.2959C86.5228 60.3176 87.9783 61.7946 88 64.2273C88 71.6774 88 79.1058 88 86.5559C88 89.0538 86.5446 90.4873 84.0247 90.5308C83.0254 90.5525 82.0262 90.5308 80.8966 90.5308C80.8966 91.0086 80.8966 91.3561 80.8966 91.7037C80.8966 94.006 80.8966 96.3301 80.8966 98.6325C80.8966 100.479 80.3752 101 78.507 101C69.0358 101 59.5863 101 50.115 101C36.5816 101 23.0264 101 9.49296 101C7.68995 101 7.14688 100.479 7.14688 98.6976C7.14688 96.6776 7.14688 94.6576 7.14688 92.6376C7.14688 91.9643 7.14688 91.291 7.14688 90.5308C5.97383 90.5308 4.97457 90.5525 3.97531 90.5308C1.43372 90.4656 0 89.032 0 86.4908C0 79.0841 0 71.6774 0 64.2708C0 61.7077 1.45544 60.2742 4.04048 60.2742C5.03974 60.2742 6.039 60.2742 7.10343 60.2742C7.10343 59.6443 7.10343 59.1664 7.10343 58.7103C7.10343 39.9656 7.10343 21.2209 7.08171 2.47613C7.10343 1.43355 7.29894 0.564731 8.23303 0ZM10.6226 60.209C32.9321 60.209 55.1331 60.209 77.3123 60.209C77.3123 47.6329 77.3123 35.1219 77.3123 22.5675C76.8344 22.5675 76.4433 22.5675 76.0523 22.5675C70.8171 22.5675 65.5818 22.5675 60.3466 22.5675C58.5436 22.5675 58.0222 22.0462 58.0222 20.2434C58.0222 15.074 58.0222 9.90452 58.0222 4.75677C58.0222 4.36581 58.0222 3.97484 58.0222 3.56215C42.1427 3.56215 26.3935 3.56215 10.6226 3.56215C10.6226 22.4589 10.6226 41.3123 10.6226 60.209ZM84.4591 86.9686C84.4591 79.2144 84.4591 71.5471 84.4591 63.8146C57.4574 63.8146 30.4991 63.8146 3.54085 63.8146C3.54085 71.5688 3.54085 79.2361 3.54085 86.9686C30.5426 86.9686 57.5009 86.9686 84.4591 86.9686ZM77.3557 90.5959C55.0462 90.5959 32.8669 90.5959 10.6443 90.5959C10.6443 92.92 10.6443 95.1789 10.6443 97.4379C32.9321 97.4379 55.1548 97.4379 77.3557 97.4379C77.3557 95.1355 77.3557 92.8983 77.3557 90.5959ZM61.8889 5.97312C61.7803 6.03828 61.6934 6.12516 61.5848 6.19032C61.5848 10.4692 61.5848 14.7265 61.5848 18.9837C65.9946 18.9837 70.3392 18.9837 74.271 18.9837C70.2306 14.7699 66.0597 10.3606 61.8889 5.97312Z" fill="#00E398"/>
<path d="M62.1712 41.4208C60.5202 39.6832 58.9127 37.989 57.3052 36.2948C57.0228 36.0124 56.7404 35.7301 56.5015 35.426C55.8932 34.6658 55.9367 33.6884 56.5667 33.0802C57.2618 32.3851 58.2393 32.3417 58.9779 33.0802C60.0641 34.1445 61.085 35.2522 62.1278 36.36C63.2791 37.5546 64.4304 38.7492 65.56 39.9656C66.5592 41.0516 66.581 41.8335 65.6034 42.8761C63.4963 45.1133 61.3892 47.3288 59.2603 49.5225C58.3697 50.4565 57.3704 50.5434 56.6101 49.8049C55.8498 49.0881 55.8932 48.0456 56.7622 47.1333C58.5217 45.2436 60.3247 43.3757 62.1712 41.4208Z" fill="#00E398"/>
<path d="M25.872 41.4644C27.6533 43.3323 29.4129 45.1786 31.1725 47.0465C31.4549 47.3506 31.759 47.7198 31.8676 48.1108C32.1066 48.9145 31.8459 49.6312 31.0856 50.0439C30.2818 50.5001 29.5432 50.3263 28.935 49.6747C27.5882 48.2846 26.2413 46.8727 24.8945 45.4609C24.0473 44.5704 23.2001 43.7016 22.3529 42.7893C21.4623 41.8119 21.4405 41.0082 22.3529 40.0308C24.4818 37.7719 26.6323 35.5347 28.7829 33.2975C29.6953 32.3635 30.6728 32.2766 31.4331 33.0368C32.1717 33.7536 32.1066 34.7962 31.2376 35.7084C29.6084 37.4461 27.9575 39.162 26.3065 40.8779C26.1762 41.0734 26.0458 41.2471 25.872 41.4644Z" fill="#00E398"/>
<path d="M46.8999 31.0167C48.225 31.0167 49.0071 32.1679 48.5726 33.4711C47.3996 36.9464 46.1831 40.4217 44.9883 43.8969C44.2497 46.0473 43.5111 48.1976 42.7508 50.3262C42.3164 51.5425 41.4692 52.0638 40.4699 51.738C39.4489 51.4122 39.0579 50.4131 39.4924 49.1533C41.404 43.5929 43.3374 38.0541 45.249 32.4937C45.5531 31.6466 46.0527 31.0819 46.8999 31.0167Z" fill="#00E398"/>
<path d="M35.3433 80.2352C32.6497 80.2352 32.6279 80.2352 31.6939 82.7548C31.6504 82.8634 31.6287 82.972 31.5852 83.0589C31.0639 84.4272 30.2167 84.992 29.1957 84.601C28.1313 84.21 27.8272 83.2761 28.3268 81.9077C29.0654 79.8877 29.804 77.846 30.5643 75.826C31.5852 73.0457 32.6062 70.2872 33.6055 67.507C33.9096 66.6599 34.4092 66.0735 35.4085 66.0735C36.4078 66.0735 36.8857 66.6817 37.1898 67.5288C38.9493 72.329 40.7306 77.1292 42.4902 81.9294C42.5988 82.19 42.6857 82.4724 42.7292 82.7548C42.8378 83.7105 42.4033 84.3838 41.4909 84.6445C40.6003 84.9051 39.9052 84.5358 39.5141 83.7322C39.1231 82.9285 38.819 82.0597 38.5801 81.2126C38.3628 80.409 37.9066 80.1266 37.1029 80.2135C36.5164 80.2786 35.9298 80.2352 35.3433 80.2352ZM35.4085 72.7417C34.8654 74.2186 34.431 75.4133 33.9748 76.6731C34.9958 76.6731 35.8864 76.6731 36.8639 76.6731C36.386 75.3915 35.9298 74.1752 35.4085 72.7417Z" fill="#00E398"/>
<path d="M74.7272 83.211C74.2275 83.6888 73.7931 84.3622 73.1848 84.6228C72.3593 84.9703 71.599 84.5359 71.2298 83.7323C70.817 82.8417 70.5129 81.9295 70.2088 80.9955C70.035 80.4308 69.7526 80.1918 69.1226 80.2136C67.7975 80.257 66.4507 80.257 65.1256 80.2136C64.5608 80.1918 64.2784 80.4091 64.1263 80.9303C63.8656 81.7992 63.5398 82.6245 63.1922 83.4716C62.7578 84.5142 61.8671 84.9486 60.9548 84.6011C59.9989 84.2536 59.5645 83.3413 59.9555 82.2987C61.7802 77.2596 63.6267 72.1987 65.5383 67.203C65.7338 66.7035 66.4941 66.2691 67.0807 66.117C67.841 65.9215 68.4927 66.3777 68.7751 67.1379C70.665 72.2422 72.5331 77.3465 74.4013 82.4508C74.4665 82.6245 74.4882 82.7983 74.5317 82.9721C74.5968 83.0589 74.662 83.1458 74.7272 83.211ZM67.1458 72.7417C66.6027 74.2405 66.1683 75.4351 65.7121 76.7166C66.7114 76.7166 67.5803 76.7166 68.6013 76.7166C68.1234 75.4134 67.6889 74.2187 67.1458 72.7417Z" fill="#00E398"/>
<path d="M21.81 69.5488C20.1156 69.5488 18.595 69.5705 17.0961 69.527C16.2271 69.5053 15.5755 69.0492 15.4017 68.1586C15.2496 67.3333 15.532 66.6599 16.314 66.269C16.5964 66.1386 16.944 66.0952 17.2481 66.0952C19.3118 66.0735 21.3538 66.0735 23.4175 66.0735C24.6122 66.0735 25.3291 66.7685 25.3291 67.9414C25.3291 71.5036 25.3291 75.0875 25.2639 78.6496C25.2205 81.7774 23.3523 83.9928 20.4631 84.601C17.0526 85.2961 13.5987 82.581 13.49 79.084C13.4683 77.998 14.0983 77.1943 15.0758 77.1292C16.0968 77.0423 16.7485 77.6505 16.944 78.8017C17.2047 80.3655 18.1388 81.2995 19.4639 81.2561C20.8542 81.2126 21.7882 80.17 21.81 78.541C21.8317 75.587 21.81 72.6331 21.81 69.5488Z" fill="#00E398"/>
<path d="M50.8536 78.1501C52.309 74.8921 53.6993 71.8078 55.0896 68.7235C55.2851 68.289 55.4588 67.8546 55.7195 67.4637C56.2409 66.6817 57.0012 66.508 57.8049 66.8338C58.6304 67.1813 58.978 67.8764 58.7825 68.7669C58.7173 69.071 58.587 69.3751 58.4566 69.6791C56.5233 73.9798 54.5899 78.3022 52.6566 82.6028C52.309 83.4065 51.8745 84.0798 50.8753 84.1015C49.876 84.1232 49.4198 83.4716 49.0506 82.668C47.0955 78.2804 45.1187 73.9146 43.1636 69.5488C43.1202 69.4402 43.0767 69.3533 43.0333 69.2447C42.6205 68.1804 42.9247 67.2465 43.8153 66.8338C44.7494 66.3994 45.7052 66.7903 46.2048 67.8546C47.5951 70.8738 48.9419 73.8929 50.2888 76.9338C50.4408 77.2813 50.5929 77.6071 50.8536 78.1501Z" fill="#00E398"/>
</svg>
