<svg width="99" height="99" viewBox="0 0 99 99" fill="none" xmlns="http://www.w3.org/2000/svg">
<g clip-path="url(#clip0_50_2372)">
<path d="M94.4747 34.2263C90.9619 32.4489 87.2011 31.4775 83.3576 30.9814C78.9356 30.4027 74.4722 30.1134 70.0295 29.7413C69.3889 29.6793 68.955 29.6173 68.583 28.9353C67.7565 27.3232 66.31 26.5171 64.4916 26.4138C63.9544 26.3931 63.3964 26.4138 62.7765 26.4138C62.7765 25.3184 62.7765 24.285 62.7765 23.1069C63.3344 23.1069 63.913 23.1276 64.471 23.1069C67.1159 23.0035 69.2443 20.9367 69.2856 18.2706C69.3269 13.8063 69.3476 9.34196 69.2856 4.85699C69.2649 2.68685 68.1078 1.17808 66.1241 0.330689C65.8761 0.227349 65.6488 0.10334 65.4008 0C44.9024 0 24.4246 0 3.92619 0C2.04579 0.702714 0.578663 1.83946 0.144724 3.9476C0.0414055 4.42296 0.0207417 4.89833 0.0207417 5.3737C0.0207417 9.42463 0.0207417 13.4756 0.0207417 17.5472C0.0207417 21.1228 2.00446 23.0862 5.55862 23.1069C5.86858 23.1069 6.17854 23.1069 6.55048 23.1069C6.55048 24.2023 6.55048 25.2564 6.55048 26.4138C5.99256 26.4138 5.45531 26.3931 4.91805 26.4138C2.2111 26.4758 0.0620692 28.5633 0.0207417 31.2708C-0.0205858 35.7351 -0.0205858 40.1994 0.0207417 44.6843C0.0414055 47.3299 2.16977 49.4173 4.81473 49.5207C5.35199 49.5413 5.90991 49.5207 6.52982 49.5207C6.52982 50.6161 6.52982 51.6701 6.52982 52.8276C6.11655 52.8276 5.72393 52.8276 5.33132 52.8276C2.06645 52.8482 0.0207417 54.8944 0.0207417 58.2013C0.0207417 62.3349 0.0207417 66.4478 0.0207417 70.5814C0.0207417 73.8676 2.06645 75.9344 5.35199 75.9344C15.2086 75.9344 25.0859 75.9344 34.9425 75.9344C35.3557 75.9344 35.769 75.9344 36.3269 75.9344C36.3269 76.3478 36.3269 76.6992 36.3269 77.0712C36.3269 80.8534 36.3889 84.6357 36.3063 88.418C36.2649 90.4434 37.0915 91.9109 38.6206 93.1096C40.8936 94.8664 43.5386 95.8378 46.2662 96.5612C54.6763 98.7933 63.2725 99.2893 71.9099 98.9587C77.4478 98.752 82.9443 98.2146 88.3169 96.7472C90.5899 96.1271 92.801 95.2384 94.95 94.267C96.8304 93.4196 98.2975 92.0142 99.0207 89.9887C99.0207 72.9376 99.0207 55.8864 99.0207 38.8353C98.2149 36.5411 96.4791 35.239 94.4747 34.2263ZM66.434 32.9656C75.1748 33.0896 82.6344 33.5649 89.8254 35.9211C91.4991 36.4791 93.1109 37.2852 94.64 38.1946C96.0658 39.042 96.0658 40.1374 94.6607 40.9848C93.1522 41.8942 91.5198 42.7002 89.846 43.2789C84.8661 44.9737 79.7001 45.6351 74.4722 45.9658C67.4672 46.4205 60.4622 46.2551 53.5192 45.1597C49.5104 44.5397 45.543 43.6923 41.9062 41.8115C41.3689 41.5221 40.8316 41.1914 40.3564 40.7987C39.3645 39.972 39.3025 39.1453 40.3564 38.4426C41.5755 37.6159 42.8773 36.8718 44.2412 36.3551C48.7872 34.5983 53.5812 33.8543 58.4165 33.4409C61.4747 33.1722 64.5743 33.0689 66.434 32.9656ZM39.6125 44.3537C46.5348 47.9292 53.9118 48.7973 61.3507 49.2933C68.707 49.7894 76.0427 49.4793 83.3163 48.2599C87.449 47.5572 91.5198 46.6065 95.2393 44.5397C95.3426 44.4777 95.4872 44.457 95.6939 44.3743C95.6939 48.3219 95.7352 52.2075 95.6525 56.0724C95.6319 56.5891 95.074 57.3125 94.5574 57.5605C92.5737 58.5319 90.5693 59.586 88.4616 60.2061C81.6839 62.2109 74.6995 62.7069 67.6738 62.7069C60.8961 62.7069 54.1391 62.2522 47.5887 60.4127C45.295 59.772 43.1253 58.6973 40.9556 57.7259C39.9844 57.2919 39.5712 56.4445 39.5918 55.2871C39.6538 51.6701 39.6125 48.0532 39.6125 44.3537ZM39.6125 60.9708C41.4515 61.6942 43.2286 62.5209 45.0677 63.0996C50.1923 64.753 55.5029 65.4144 60.8548 65.7658C67.9011 66.2411 74.9268 66.0138 81.9112 64.9597C86.6432 64.257 91.2925 63.2236 95.6939 60.7848C95.6939 64.7944 95.7352 68.6386 95.6525 72.4622C95.6319 73.0203 95.074 73.785 94.5574 74.0536C92.5737 75.0457 90.5693 76.0585 88.4616 76.6992C81.6839 78.704 74.6995 79.1793 67.6738 79.1793C60.8961 79.1793 54.1391 78.7246 47.5887 76.8852C45.295 76.2445 43.1253 75.1697 40.9556 74.1983C39.9844 73.7643 39.5918 72.8962 39.6125 71.7595C39.6538 68.1633 39.6125 64.5463 39.6125 60.9708ZM5.68261 19.8C3.78154 19.8 3.30628 19.3246 3.30628 17.4232C3.30628 13.4342 3.30628 9.4453 3.30628 5.45637C3.30628 3.84426 3.84353 3.28622 5.47597 3.28622C24.9206 3.28622 44.3858 3.28622 63.8304 3.28622C65.4422 3.28622 66.0001 3.82359 66.0001 5.45637C66.0001 9.50731 66.0001 13.5582 66.0001 17.6299C66.0001 19.242 65.4422 19.8 63.8304 19.8C54.0771 19.8 44.3031 19.8 34.5499 19.8C24.9412 19.8 15.3119 19.8 5.68261 19.8ZM59.3257 23.1482C59.3257 24.161 59.3257 25.215 59.3257 26.3311C57.218 26.3311 55.069 26.3311 52.8579 26.3311C52.8579 25.2357 52.8579 24.223 52.8579 23.1482C55.007 23.1482 57.1147 23.1482 59.3257 23.1482ZM49.4278 23.1689C49.4278 24.2023 49.4278 25.2357 49.4278 26.3104C39.5505 26.3104 29.6939 26.3104 19.8373 26.3104C19.8373 25.2357 19.8373 24.2436 19.8373 23.1689C29.6939 23.1689 39.5298 23.1689 49.4278 23.1689ZM16.4278 23.1482C16.4278 24.161 16.4278 25.215 16.4278 26.3518C14.2787 26.3518 12.1504 26.3518 9.98067 26.3518C9.98067 25.277 9.98067 24.2436 9.98067 23.1482C12.109 23.1482 14.2374 23.1482 16.4278 23.1482ZM36.2649 72.6069C35.8723 72.6069 35.5004 72.6069 35.1491 72.6069C25.3338 72.6069 15.4979 72.6069 5.68261 72.6069C3.80221 72.6069 3.32694 72.1315 3.30628 70.2301C3.30628 66.1791 3.30628 62.1282 3.30628 58.0772C3.30628 56.7338 3.90553 56.1138 5.24867 56.1138C15.4152 56.1138 25.5818 56.1138 35.7484 56.1138C35.8723 56.1138 36.017 56.1344 36.2649 56.1551C36.2649 61.6322 36.2649 67.0472 36.2649 72.6069ZM9.98067 52.7242C9.98067 51.7115 9.98067 50.6781 9.98067 49.5413C12.171 49.5413 14.2787 49.5413 16.4484 49.5413C16.4484 50.5954 16.4484 51.6081 16.4484 52.7242C14.3407 52.7242 12.1917 52.7242 9.98067 52.7242ZM19.8993 52.7242C19.8993 51.6495 19.8993 50.5954 19.8993 49.5207C25.3752 49.5207 30.7684 49.5207 36.2236 49.5207C36.2236 50.5747 36.2236 51.6288 36.2236 52.7242C30.8097 52.7242 25.3752 52.7242 19.8993 52.7242ZM37.8147 36.3758C36.7609 37.2852 36.2856 38.5253 36.3063 39.9514C36.3476 41.9768 36.3063 44.0023 36.3063 46.1931C35.8517 46.1931 35.5211 46.1931 35.1904 46.1931C25.3545 46.1931 15.5392 46.1931 5.70327 46.1931C3.78154 46.1931 3.30628 45.7177 3.30628 43.837C3.30628 39.8894 3.30628 35.9418 3.30628 31.9735C3.30628 30.1754 3.80221 29.6793 5.64128 29.6793C23.9494 29.6793 42.2574 29.6793 60.5862 29.6793C61.3301 29.6793 62.0946 29.6793 62.8385 29.6793C57.7966 30.0307 52.7753 30.5061 47.878 31.7875C45.4603 32.4282 43.1046 33.2962 40.811 34.2676C39.7158 34.743 38.7239 35.5697 37.8147 36.3758ZM94.5987 90.5468C93.0282 91.3528 91.4371 92.2209 89.7634 92.7996C84.8247 94.4944 79.6795 95.1351 74.4929 95.4658C67.4465 95.9411 60.4209 95.7551 53.4365 94.639C49.4071 93.9983 45.419 93.1509 41.7408 91.2288C40.2324 90.4434 39.4472 89.4307 39.5505 87.5706C39.7158 84.5324 39.5918 81.4528 39.5918 78.3939C39.5918 78.0633 39.5918 77.7326 39.5918 77.2572C43.2906 79.3447 47.1961 80.3574 51.1842 81.0808C58.1065 82.3415 65.0909 82.6722 72.1165 82.3829C77.7577 82.1349 83.3576 81.5975 88.7922 80.0061C91.1065 79.324 93.3589 78.3939 95.6939 77.5466C95.6939 77.7119 95.6939 78.0012 95.6939 78.2906C95.6939 81.6595 95.6732 85.0284 95.7145 88.3973C95.7352 89.3894 95.4252 90.1334 94.5987 90.5468Z" fill="#00E398"/>
<path d="M69.2443 72.6276C68.1698 72.6276 67.1573 72.6276 66.0828 72.6276C66.0828 73.785 66.0828 74.8184 66.0828 75.8311C67.1779 75.8311 68.1905 75.8311 69.2443 75.8311C69.2443 74.7564 69.2443 73.7023 69.2443 72.6276Z" fill="#00E398"/>
<path d="M66.062 90.7121C67.1365 90.7121 68.149 90.7121 69.2442 90.7121C69.2442 89.5754 69.2442 88.5626 69.2442 87.5085C68.149 87.5085 67.1159 87.5085 66.062 87.5085C66.062 88.604 66.062 89.6374 66.062 90.7121Z" fill="#00E398"/>
<path d="M69.2442 54.5223C68.1284 54.5223 67.0952 54.5223 66.062 54.5223C66.062 55.6177 66.062 56.6305 66.062 57.6846C67.1985 57.6846 68.211 57.6846 69.2442 57.6846C69.2442 56.5891 69.2442 55.5557 69.2442 54.5223Z" fill="#00E398"/>
<path d="M27.8549 6.6138C26.8217 6.59313 25.7885 6.6138 24.7553 6.6138C23.6808 6.6138 22.6269 6.59313 21.5524 6.6138C20.4573 6.63447 19.8167 7.25451 19.796 8.34992C19.7754 10.4787 19.7754 12.6075 19.796 14.7363C19.8167 15.8318 20.4366 16.4725 21.5318 16.4931C23.6601 16.5138 25.7885 16.5138 27.9169 16.4931C29.012 16.4725 29.6526 15.8524 29.6733 14.757C29.6939 12.6282 29.6939 10.4994 29.6733 8.37058C29.6939 7.23384 29.0327 6.63447 27.8549 6.6138ZM26.3464 13.1449C25.2926 13.1449 24.2594 13.1449 23.1642 13.1449C23.1642 12.0908 23.1642 11.0781 23.1642 9.98269C24.1974 9.98269 25.2306 9.98269 26.3464 9.98269C26.3464 10.9954 26.3464 12.0288 26.3464 13.1449Z" fill="#00E398"/>
<path d="M14.7334 6.61377C12.6463 6.5931 10.5386 6.5931 8.45158 6.61377C7.29441 6.63444 6.65384 7.23381 6.63317 8.39122C6.61251 10.4787 6.61251 12.5868 6.63317 14.6743C6.65384 15.8731 7.27375 16.4724 8.51357 16.4931C9.50543 16.5138 10.4973 16.4931 11.5098 16.4931C12.5843 16.4931 13.6382 16.5138 14.7127 16.4931C15.8699 16.4724 16.5104 15.8524 16.5311 14.7156C16.5311 12.6075 16.5311 10.52 16.5104 8.43256C16.4898 7.25448 15.8699 6.61377 14.7334 6.61377ZM13.1423 13.1449C12.1091 13.1449 11.0552 13.1449 9.93937 13.1449C9.93937 12.0495 9.93937 11.0574 9.93937 9.98266C10.9932 9.98266 12.0264 9.98266 13.1423 9.98266C13.1423 10.9954 13.1423 12.0288 13.1423 13.1449Z" fill="#00E398"/>
<path d="M56.0609 13.2689C48.3534 13.2689 40.7078 13.2689 33.1035 13.2689C33.1035 14.385 33.1035 15.4184 33.1035 16.4518C40.7904 16.4518 48.4153 16.4518 56.0609 16.4518C56.0609 15.3771 56.0609 14.3643 56.0609 13.2689Z" fill="#00E398"/>
<path d="M56.0194 6.65515C48.3325 6.65515 40.7076 6.65515 33.062 6.65515C33.062 7.72989 33.062 8.74262 33.062 9.83803C40.7903 9.83803 48.4152 9.83803 56.0194 9.83803C56.0194 8.70129 56.0194 7.66789 56.0194 6.65515Z" fill="#00E398"/>
<path d="M59.4497 16.4311C60.5449 16.4311 61.5781 16.4311 62.6113 16.4311C62.6113 15.3356 62.6113 14.2816 62.6113 13.2482C61.5161 13.2482 60.5036 13.2482 59.4497 13.2482C59.4497 14.3849 59.4497 15.3976 59.4497 16.4311Z" fill="#00E398"/>
<path d="M62.6319 6.67578C61.5161 6.67578 60.4829 6.67578 59.4497 6.67578C59.4497 7.77119 59.4497 8.78392 59.4497 9.83799C60.5449 9.83799 61.5781 9.83799 62.6319 9.83799C62.6319 8.74259 62.6319 7.70918 62.6319 6.67578Z" fill="#00E398"/>
<path d="M27.9167 33.0068C25.8297 32.9862 23.722 32.9862 21.6349 33.0068C20.4778 33.0275 19.8372 33.6269 19.8165 34.7843C19.7959 36.8718 19.7959 38.9799 19.8165 41.0674C19.8372 42.2661 20.4571 42.8655 21.6969 42.8862C22.6888 42.9068 23.6806 42.8862 24.6932 42.8862C25.7677 42.8862 26.8215 42.9068 27.896 42.8862C29.0532 42.8655 29.6938 42.2455 29.7145 41.1087C29.7351 39.0212 29.7351 36.9131 29.7145 34.8256C29.6938 33.6682 29.0739 33.0275 27.9167 33.0068ZM26.3669 39.5379C25.3131 39.5379 24.2799 39.5379 23.164 39.5379C23.164 38.4839 23.164 37.4505 23.164 36.3551C24.2179 36.3551 25.2304 36.3551 26.3669 36.3551C26.3669 37.4298 26.3669 38.4425 26.3669 39.5379Z" fill="#00E398"/>
<path d="M14.7541 33.0068C12.6257 32.9862 10.4973 32.9862 8.36896 33.0068C7.27378 33.0275 6.65387 33.6475 6.63321 34.743C6.61254 35.7764 6.63321 36.8098 6.63321 37.8432C6.63321 38.9386 6.61254 40.034 6.63321 41.1501C6.65387 42.2455 7.27378 42.8862 8.36896 42.8862C10.4973 42.9068 12.6257 42.9068 14.7541 42.8862C15.8492 42.8655 16.4898 42.2455 16.4898 41.1501C16.5105 39.0212 16.5105 36.8924 16.4898 34.7636C16.4898 33.6475 15.8492 33.0275 14.7541 33.0068ZM13.1423 39.5379C12.1298 39.5379 11.0759 39.5379 9.98073 39.5379C9.98073 38.4425 9.98073 37.4298 9.98073 36.3551C11.0346 36.3551 12.0678 36.3551 13.1423 36.3551C13.1423 37.3885 13.1423 38.4219 13.1423 39.5379Z" fill="#00E398"/>
<path d="M16.5104 61.2188C16.4898 60.0614 15.8699 59.4207 14.7334 59.4C12.6463 59.3794 10.5386 59.3794 8.45158 59.4C7.29441 59.4207 6.65384 60.0407 6.63317 61.1775C6.61251 63.265 6.61251 65.3731 6.63317 67.4606C6.65384 68.618 7.27375 69.2587 8.41026 69.2794C10.4973 69.3 12.605 69.3 14.692 69.2794C15.8905 69.2587 16.4898 68.618 16.5104 67.3986C16.5311 66.4065 16.5104 65.4144 16.5104 64.4017C16.5104 63.3476 16.5311 62.2936 16.5104 61.2188ZM13.1836 65.9311C12.1297 65.9311 11.0759 65.9311 9.9807 65.9311C9.9807 64.9184 9.9807 63.8643 9.9807 62.7896C11.0552 62.7896 12.1091 62.7896 13.1836 62.7896C13.1836 63.8643 13.1836 64.8564 13.1836 65.9311Z" fill="#00E398"/>
<path d="M27.9581 59.4207C25.8298 59.4 23.7014 59.4 21.573 59.4207C20.4779 59.4413 19.8373 60.0614 19.8373 61.1568C19.8166 63.2856 19.8166 65.4144 19.8373 67.5432C19.8579 68.6386 20.4779 69.2587 21.573 69.2793C22.6062 69.3 23.6394 69.2793 24.6726 69.2793C25.7678 69.2793 26.8629 69.3 27.9788 69.2793C29.074 69.238 29.7145 68.6179 29.7145 67.5225C29.7352 65.3937 29.7352 63.2649 29.7145 61.1361C29.6939 60.0614 29.0533 59.4207 27.9581 59.4207ZM26.3464 65.9724C25.2512 65.9724 24.2593 65.9724 23.1848 65.9724C23.1848 64.9184 23.1848 63.885 23.1848 62.7689C24.1973 62.7689 25.2305 62.7689 26.3464 62.7689C26.3464 63.8023 26.3464 64.8564 26.3464 65.9724Z" fill="#00E398"/>
</g>
<defs>
<clipPath id="clip0_50_2372">
<rect width="99" height="99" fill="white"/>
</clipPath>
</defs>
</svg>
