<svg width="101" height="100" viewBox="0 0 101 100" fill="none" xmlns="http://www.w3.org/2000/svg">
<path d="M93.463 85.991C96.75 85.7171 98.9022 83.917 99.8022 80.7278C99.8414 80.5713 99.9196 80.4344 99.9783 80.2974C99.9783 56.3295 99.9783 32.3811 99.9783 8.41323C99.4305 6.65232 98.8827 4.89141 97.6109 3.46312C95.7913 1.3696 93.5021 0.254353 90.7433 0.0195656C90.4107 0 90.0977 0 89.7651 0C63.2536 0 36.7226 0 10.2112 0C6.02412 0 2.83492 1.80004 1.03488 5.61534C0.389211 6.98493 0.0565948 8.60888 0.0565948 10.1154C-0.0412334 18.7439 0.0174635 27.3723 0.0174635 36.0008C0.0174635 50.2641 0.0174635 64.5079 0.0174635 78.7713C0.0174635 82.3714 1.97403 85.0323 5.28062 85.8149C6.43499 86.0888 7.66763 86.0301 8.9394 86.128C8.9394 89.3954 8.9394 92.702 8.9394 96.0869C6.84587 96.0869 4.77191 96.0869 2.69796 96.0869C2.30664 96.0869 1.91533 96.0869 1.54358 96.1847C0.741392 96.3608 0.252251 96.9086 0.0957261 97.7108C-0.060799 98.4934 0.252251 99.1 0.878352 99.5891C1.05444 99.7261 1.23053 99.863 1.40662 99.9804C34.2769 99.9804 67.1472 99.9804 100.017 99.9804C100.017 99.1391 100.017 98.2782 100.017 97.4369C99.4109 96.3412 98.4718 96.0086 97.2587 96.0477C95.2239 96.1064 93.1695 96.0673 91.0955 96.0673C91.0955 92.702 91.0955 89.4345 91.0955 85.9714C91.8782 85.991 92.6803 86.0497 93.463 85.991ZM4.16538 8.3154C4.61539 5.86969 6.76761 4.18705 9.29158 3.95226C9.74159 3.91313 10.1916 3.91313 10.6612 3.91313C36.8791 3.91313 63.1167 3.91313 89.3346 3.91313C93.7565 3.91313 96.0848 6.22187 96.0848 10.6241C96.0848 11.7198 96.0848 12.8351 96.0848 14.0286C65.3276 14.0286 34.6878 14.0286 3.83276 14.0286C3.93059 12.1111 3.83276 10.1741 4.16538 8.3154ZM21.4223 96.0477C18.5657 96.0477 15.7874 96.0477 12.9504 96.0477C12.9504 90.2367 12.9504 84.4453 12.9504 78.5952C15.7287 78.5952 18.5461 78.5952 21.4223 78.5952C21.4223 84.3671 21.4223 90.178 21.4223 96.0477ZM43.3162 96.0282C40.4988 96.0282 37.7009 96.0282 34.8247 96.0282C34.8247 83.0366 34.8247 70.045 34.8247 56.9752C37.6422 56.9752 40.4596 56.9752 43.3162 56.9752C43.3162 70.0059 43.3162 82.9779 43.3162 96.0282ZM65.1711 96.0282C62.3927 96.0282 59.5753 96.0282 56.6991 96.0282C56.6991 88.5737 56.6991 81.08 56.6991 73.4886C59.5557 73.4886 62.334 73.4886 65.1711 73.4886C65.1711 81.0018 65.1711 88.4758 65.1711 96.0282ZM91.0173 82.1366C91.0173 81.667 91.0173 81.2952 91.0173 80.9039C91.0173 71.532 91.0173 62.16 91.0173 52.7685C91.0173 50.7337 90.3912 50.088 88.3172 50.088C84.6389 50.088 80.9605 50.088 77.2822 50.088C75.2474 50.088 74.6017 50.7337 74.6017 52.7881C74.6017 55.6838 74.6017 58.5795 74.6017 61.4752C74.6017 62.3753 74.8365 63.1579 75.6778 63.6079C76.9887 64.3123 78.4561 63.3535 78.4953 61.7492C78.5344 59.5774 78.5148 57.386 78.5148 55.2142C78.5148 54.8621 78.5148 54.5099 78.5148 54.0794C81.391 54.0794 84.2084 54.0794 87.065 54.0794C87.065 68.0689 87.065 82.0192 87.065 96.0282C84.2476 96.0282 81.4301 96.0282 78.5148 96.0282C78.5148 95.6564 78.5148 95.3042 78.5148 94.9521C78.5148 88.4758 78.5148 81.9996 78.5148 75.5234C78.5148 73.8016 77.4778 72.8429 76.0691 73.1951C75.13 73.4494 74.6213 74.1538 74.6017 75.3473C74.5821 77.1278 74.6017 78.9278 74.6017 80.7278C74.6017 85.7953 74.6017 90.8824 74.6017 96.0673C72.743 96.0673 71.0016 96.0673 69.1429 96.0673C69.1429 95.6956 69.1429 95.3434 69.1429 94.9912C69.1429 87.3997 69.1429 79.8278 69.1429 72.2364C69.1429 70.182 68.5168 69.5363 66.4819 69.5363C62.7645 69.5363 59.0666 69.5363 55.3491 69.5363C53.4317 69.5363 52.7469 70.2015 52.7469 72.119C52.7469 79.6713 52.7469 87.2236 52.7469 94.776C52.7469 95.1673 52.7469 95.5586 52.7469 96.0282C50.9468 96.0282 49.1859 96.0282 47.2881 96.0282C47.2881 95.676 47.2881 95.3042 47.2881 94.9325C47.2881 81.9018 47.2881 68.8906 47.2881 55.8599C47.2881 53.6099 46.7011 53.0229 44.451 53.0229C40.8314 53.0229 37.2313 53.0229 33.6117 53.0229C31.5181 53.0229 30.8725 53.6686 30.8725 55.7621C30.8725 68.7928 30.8725 81.804 30.8725 94.8347C30.8725 95.226 30.8725 95.5977 30.8725 96.0477C29.0529 96.0477 27.2724 96.0477 25.4137 96.0477C25.4137 95.676 25.4137 95.3238 25.4137 94.9912C25.4137 89.1019 25.4137 83.2127 25.4137 77.3234C25.4137 75.269 24.768 74.6429 22.7136 74.6429C18.9961 74.6429 15.2982 74.6429 11.5808 74.6429C9.66333 74.6429 9.01766 75.3082 8.99809 77.2452C8.99809 78.7713 8.99809 80.2974 8.97853 81.8431C8.97853 81.9018 8.9394 81.9605 8.86113 82.1953C7.96111 82.1561 6.98283 82.1953 6.04368 82.0387C4.88931 81.8431 4.04799 80.7278 3.93059 79.5148C3.89146 79.2017 3.91103 78.8691 3.91103 78.5365C3.91103 58.7361 3.91103 38.9552 3.91103 19.1548C3.91103 18.8026 3.91103 18.4504 3.91103 18.0591C34.6487 18.0591 65.2884 18.0591 96.0848 18.0591C96.0848 18.4308 96.0848 18.8026 96.0848 19.1743C96.0848 38.9356 96.0848 58.6969 96.0848 78.4582C96.0848 81.1583 95.0674 82.1757 92.3869 82.1757C91.9564 82.1366 91.5455 82.1366 91.0173 82.1366Z" fill="#00E398"/>
<path d="M84.6388 26.8245C81.6649 25.9636 78.2604 27.3528 76.7539 30.0529C75.3256 32.616 75.4821 35.1595 77.0865 37.703C72.8603 41.9488 68.6733 46.1358 64.4667 50.3033C64.3101 50.4598 63.8601 50.4989 63.6449 50.4011C61.884 49.6576 60.1035 49.5989 58.323 50.2837C57.8143 50.4794 57.5013 50.3816 57.1295 50.0098C52.9621 45.8032 48.775 41.6161 44.5684 37.4487C44.2162 37.0965 44.1771 36.8226 44.3727 36.353C45.1358 34.6312 45.1358 32.8899 44.5293 31.129C43.5119 28.1941 40.3618 26.2375 37.2117 26.5897C33.9638 26.9615 31.3616 29.5637 31.0094 32.6551C30.8138 34.2986 31.1855 35.8051 31.929 37.253C31.6746 37.5269 31.4594 37.7617 31.2246 37.9965C27.8593 41.3618 24.494 44.7075 21.1679 48.0924C20.6787 48.6011 20.307 48.7185 19.6026 48.4446C16.9417 47.4467 14.4764 47.8772 12.3438 49.7946C10.3481 51.5946 9.64373 53.9229 10.2111 56.5252C11.0916 60.5361 15.2591 62.8644 19.1722 61.6318C23.0658 60.3992 25.081 56.0752 23.4962 52.2794C23.281 51.7512 23.3005 51.4381 23.7114 51.0272C27.2528 47.525 30.7746 44.0032 34.2769 40.4618C34.7073 40.0313 35.0595 39.9531 35.6465 40.1683C37.29 40.7748 38.9726 40.7944 40.577 40.0509C41.2031 39.7574 41.5553 39.9139 41.9857 40.3639C46.0163 44.4336 50.0663 48.4837 54.136 52.5142C54.5469 52.9251 54.6838 53.2381 54.3904 53.8251C52.9621 56.7991 53.7642 60.1839 56.3273 62.2775C58.7144 64.234 62.2949 64.3514 64.7601 62.5514C67.4406 60.5948 68.4385 57.1904 67.1667 54.1382C66.9319 53.5903 66.9906 53.2773 67.4015 52.886C71.4907 48.8163 75.5604 44.7466 79.6105 40.6574C80.0018 40.2661 80.354 40.2074 80.9018 40.2857C81.9388 40.4422 83.054 40.5792 84.0714 40.4226C87.2019 39.9531 89.5694 37.1552 89.765 33.8877C90.0194 30.7181 87.8476 27.7441 84.6388 26.8245ZM17.1374 58.0709C15.3765 58.11 13.9482 56.7013 13.9482 54.9795C13.9482 53.2968 15.3569 51.8881 17.0395 51.8685C18.7613 51.849 20.1309 53.2186 20.1505 54.9403C20.1896 56.6621 18.8591 58.0317 17.1374 58.0709ZM38.0335 36.7052C36.3117 36.7443 34.8443 35.2964 34.8443 33.5747C34.8443 31.8725 36.253 30.4833 37.9552 30.4637C39.6574 30.4637 41.0466 31.8138 41.0661 33.5355C41.0857 35.2573 39.7357 36.666 38.0335 36.7052ZM60.7492 59.9492C59.0665 59.9492 57.6382 58.5404 57.6382 56.8578C57.6187 55.136 59.0861 53.6882 60.8079 53.7273C62.5101 53.7468 63.8797 55.1751 63.8601 56.8774C63.8601 58.56 62.4514 59.9492 60.7492 59.9492ZM82.8388 36.7052C81.117 36.7247 79.6692 35.2769 79.6887 33.5551C79.7083 31.8529 81.117 30.4637 82.8192 30.4833C84.5214 30.4833 85.9106 31.892 85.9302 33.5747C85.9302 35.2573 84.541 36.6856 82.8388 36.7052Z" fill="#00E398"/>
<path d="M11.3069 28.5267C12.7352 28.5462 14.1635 28.5267 15.6114 28.5267C17.0788 28.5267 18.5462 28.5462 20.0136 28.5267C21.3637 28.5071 22.2637 27.7441 22.2833 26.6092C22.3028 25.4549 21.4028 24.6331 19.9941 24.6136C17.0984 24.594 14.2027 24.594 11.3069 24.6136C9.95691 24.6136 9.05689 25.3962 9.03732 26.531C8.97863 27.7049 9.89821 28.5071 11.3069 28.5267Z" fill="#00E398"/>
<path d="M19.9352 37.8986C21.344 37.8986 22.2636 37.116 22.2636 35.9421C22.2636 34.7877 21.344 34.0051 19.9352 33.9855C18.5069 33.9659 17.0787 33.9855 15.6308 33.9855C14.2025 33.9855 12.7742 33.9659 11.3264 33.9855C9.89807 34.0051 8.99805 34.7681 8.99805 35.9421C8.99805 37.0964 9.91763 37.8791 11.3264 37.8791C14.2025 37.8986 17.0591 37.8986 19.9352 37.8986Z" fill="#00E398"/>
<path d="M27.5854 28.5072C28.6224 28.5072 29.5029 27.6267 29.5029 26.5702C29.5029 25.5136 28.642 24.6332 27.5854 24.6332C26.568 24.6332 25.6484 25.5528 25.6484 26.5702C25.6484 27.5876 26.568 28.5072 27.5854 28.5072Z" fill="#00E398"/>
<path d="M76.5386 70.8081C77.5755 70.8277 78.4951 69.9472 78.4951 68.9102C78.5147 67.8733 77.6342 66.9928 76.5777 66.9732C75.5211 66.9537 74.6211 67.8146 74.6016 68.8515C74.6016 69.8689 75.482 70.7885 76.5386 70.8081Z" fill="#00E398"/>
<path d="M87.6912 7.06326C87.339 7.00456 86.9868 7.02413 86.6151 7.02413C79.591 7.02413 72.5669 7.02413 65.5233 7.02413C58.3623 7.02413 51.2012 7.02413 44.0598 7.02413C42.3967 7.02413 41.438 7.74806 41.438 8.98069C41.438 10.2133 42.3967 10.9177 44.0598 10.9373C44.0989 10.9373 44.1185 10.9373 44.1576 10.9373C58.3427 10.9373 72.5278 10.9373 86.7129 10.9373C87.0455 10.9373 87.3586 10.9568 87.6912 10.8981C88.7086 10.7416 89.4325 9.93941 89.4325 8.98069C89.4325 8.02197 88.7086 7.21978 87.6912 7.06326Z" fill="#00E398"/>
<path d="M12.4807 7.04364C11.4633 7.06321 10.5437 8.00236 10.5633 9.00021C10.5829 10.0176 11.522 10.9372 12.5199 10.9176C13.5373 10.8981 14.4569 9.95892 14.4373 8.96107C14.4177 7.94366 13.4981 7.02408 12.4807 7.04364Z" fill="#00E398"/>
<path d="M20.2873 7.04365C19.2699 7.06321 18.3699 8.00236 18.3895 9.01978C18.409 10.0372 19.3482 10.9372 20.3656 10.9176C21.383 10.8981 22.283 9.95893 22.2635 8.94152C22.2243 7.9241 21.3048 7.02408 20.2873 7.04365Z" fill="#00E398"/>
<path d="M28.1138 7.04358C27.0964 7.06314 26.1768 7.98273 26.1964 9.00014C26.2159 10.0176 27.1355 10.9371 28.1529 10.9176C29.1703 10.898 30.0899 9.97843 30.0703 8.96101C30.0508 7.9436 29.1116 7.04358 28.1138 7.04358Z" fill="#00E398"/>
</svg>
