<svg width="61" height="66" viewBox="0 0 61 66" fill="none" xmlns="http://www.w3.org/2000/svg">
<path d="M59.5799 50.5L50.5466 34.9C52.3951 31.505 53.3581 27.6989 53.3466 23.8333C53.3466 17.6449 50.8883 11.71 46.5124 7.33417C42.1366 2.95833 36.2016 0.5 30.0133 0.5C23.8249 0.5 17.89 2.95833 13.5141 7.33417C9.13826 11.71 6.67993 17.6449 6.67993 23.8333C6.66845 27.6989 7.63144 31.505 9.47993 34.9L0.446598 50.5C0.153468 51.0077 -0.000577551 51.5837 1.62717e-06 52.17C0.000580805 52.7562 0.155764 53.332 0.449896 53.8391C0.744028 54.3462 1.1667 54.7668 1.67528 55.0584C2.18386 55.35 2.76035 55.5023 3.3466 55.5H12.9133L17.7799 63.7C17.944 63.9718 18.146 64.2187 18.3799 64.4333C18.9979 65.0289 19.8217 65.3632 20.6799 65.3667H21.1466C21.6498 65.2978 22.1307 65.1148 22.5524 64.8318C22.9741 64.5487 23.3256 64.173 23.5799 63.7333L30.0133 52.6667L36.4466 63.8333C36.7047 64.2668 37.0578 64.636 37.4793 64.9131C37.9008 65.1903 38.3797 65.3681 38.8799 65.4333H39.3466C40.2164 65.4386 41.0537 65.1036 41.6799 64.5C41.9041 64.2976 42.0953 64.0614 42.2466 63.8L47.1133 55.6H56.6799C57.2673 55.6023 57.8448 55.4494 58.3541 55.1567C58.8634 54.8641 59.2862 54.442 59.5799 53.9333C59.8914 53.4149 60.056 52.8215 60.056 52.2167C60.056 51.6119 59.8914 51.0184 59.5799 50.5ZM20.6466 55.6L17.6799 50.6333C17.3878 50.1406 16.9736 49.7314 16.4773 49.4453C15.9811 49.1592 15.4194 49.0058 14.8466 49H9.07993L13.8466 40.7333C17.129 43.8963 21.266 46.0285 25.7466 46.8667L20.6466 55.6ZM30.0133 40.5C26.7169 40.5 23.4946 39.5225 20.7538 37.6912C18.0129 35.8598 15.8767 33.2568 14.6153 30.2114C13.3538 27.166 13.0238 23.8148 13.6668 20.5818C14.3099 17.3488 15.8973 14.3791 18.2281 12.0482C20.559 9.71735 23.5287 8.13 26.7618 7.48691C29.9948 6.84382 33.3459 7.17388 36.3913 8.43534C39.4368 9.6968 42.0397 11.833 43.8711 14.5738C45.7024 17.3146 46.6799 20.537 46.6799 23.8333C46.6799 28.2536 44.924 32.4928 41.7984 35.6184C38.6728 38.7441 34.4335 40.5 30.0133 40.5ZM45.1799 49C44.6071 49.0058 44.0455 49.1592 43.5492 49.4453C43.0529 49.7314 42.6387 50.1406 42.3466 50.6333L39.3799 55.6L34.3133 46.7667C38.7782 45.9113 42.8998 43.7811 46.1799 40.6333L50.9466 48.9L45.1799 49Z" fill="#FFFEFE"/>
</svg>
