<svg width="120" height="120" viewBox="0 0 120 120" fill="none" xmlns="http://www.w3.org/2000/svg">
<rect width="120" height="120" fill="#F2F2F2"/>
<path d="M59.9995 32.8572C54.7351 32.8672 49.5872 34.4079 45.1828 37.2916C40.7785 40.1753 37.3078 44.2776 35.1935 49.0988C33.0792 53.92 32.4125 59.252 33.2747 64.4454C34.1369 69.6387 36.4907 74.4693 40.0495 78.3486V78.3486C42.5912 81.1037 45.6761 83.3025 49.1096 84.8065C52.5432 86.3104 56.251 87.0868 59.9995 87.0868C63.748 87.0868 67.4558 86.3104 70.8894 84.8065C74.3229 83.3025 77.4078 81.1037 79.9495 78.3486V78.3486C83.5083 74.4693 85.8621 69.6387 86.7243 64.4454C87.5865 59.252 86.9198 53.92 84.8055 49.0988C82.6912 44.2776 79.2205 40.1753 74.8162 37.2916C70.4118 34.4079 65.2639 32.8672 59.9995 32.8572V32.8572ZM59.9995 81.7143C54.3768 81.7058 48.9766 79.5165 44.9352 75.6072C46.1622 72.6202 48.2495 70.0654 50.9318 68.2674C53.6141 66.4695 56.7703 65.5095 59.9995 65.5095C63.2287 65.5095 66.3849 66.4695 69.0672 68.2674C71.7496 70.0654 73.8368 72.6202 75.0638 75.6072C71.0224 79.5165 65.6222 81.7058 59.9995 81.7143ZM54.5709 54.5715C54.5709 53.4978 54.8893 52.4482 55.4858 51.5555C56.0823 50.6628 56.9301 49.967 57.9221 49.5561C58.914 49.1452 60.0055 49.0377 61.0586 49.2472C62.1116 49.4567 63.0789 49.9737 63.8381 50.7329C64.5973 51.4921 65.1143 52.4594 65.3238 53.5124C65.5332 54.5654 65.4257 55.6569 65.0149 56.6489C64.604 57.6408 63.9082 58.4887 63.0155 59.0852C62.1227 59.6817 61.0732 60 59.9995 60C58.5598 60 57.179 59.4281 56.1609 58.41C55.1429 57.392 54.5709 56.0112 54.5709 54.5715ZM78.7552 70.8572C76.3301 66.7091 72.5976 63.4825 68.1424 61.6829C69.5244 60.1158 70.4249 58.1832 70.7358 56.1171C71.0467 54.0509 70.7548 51.9389 69.8951 50.0345C69.0354 48.1301 67.6445 46.5143 65.8893 45.3808C64.134 44.2473 62.0889 43.6444 59.9995 43.6444C57.9101 43.6444 55.865 44.2473 54.1098 45.3808C52.3545 46.5143 50.9636 48.1301 50.1039 50.0345C49.2442 51.9389 48.9523 54.0509 49.2632 56.1171C49.5741 58.1832 50.4746 60.1158 51.8566 61.6829C47.4014 63.4825 43.6689 66.7091 41.2438 70.8572C39.3111 67.565 38.2899 63.8176 38.2852 60C38.2852 54.241 40.573 48.7179 44.6452 44.6457C48.7174 40.5735 54.2405 38.2857 59.9995 38.2857C65.7585 38.2857 71.2816 40.5735 75.3538 44.6457C79.426 48.7179 81.7138 54.241 81.7138 60C81.7091 63.8176 80.6879 67.565 78.7552 70.8572V70.8572Z" fill="#D5D5D5"/>
</svg>
