<svg width="27" height="27" viewBox="0 0 27 27" fill="none" xmlns="http://www.w3.org/2000/svg">
<path d="M23.45 7.42857C23.175 6.42857 22.4875 5.71429 21.525 5.42857C19.875 5 12.8625 5 12.8625 5C12.8625 5 5.98751 5 4.20001 5.42857C3.23751 5.71429 2.55 6.42857 2.275 7.42857C2 9.28572 2 13 2 13C2 13 2 16.7143 2.4125 18.5714C2.6875 19.5714 3.375 20.2857 4.3375 20.5714C5.9875 21 13 21 13 21C13 21 19.875 21 21.6625 20.5714C22.625 20.2857 23.3125 19.5714 23.5875 18.5714C24 16.7143 24 13 24 13C24 13 24 9.28572 23.45 7.42857ZM10.8 16.4286V9.57143L16.575 13L10.8 16.4286Z" fill="white"/>
</svg>
