<svg width="132" height="132" viewBox="0 0 132 132" fill="none" xmlns="http://www.w3.org/2000/svg">
<path d="M127.144 0.878165C126.395 0.516568 125.569 0.284112 124.768 0C85.5864 0 46.4047 0 7.22308 0C4.5111 0.749023 2.13489 2.01461 0.972616 4.70077C0.43022 5.99218 0.0427939 7.43857 0.0427939 8.78165C-0.0088629 39.7499 -0.0088629 70.7439 0.0169655 101.712C0.0169655 106.826 3.55545 110.287 8.82444 110.468C10.9682 110.545 13.112 110.494 15.2557 110.468C16.7796 110.442 17.6578 109.719 17.6578 108.531C17.6578 107.369 16.7796 106.645 15.2557 106.62C13.1894 106.594 11.1232 106.62 9.08273 106.594C5.64755 106.542 3.86539 104.734 3.86539 101.299C3.86539 99.1293 3.86539 96.9339 3.86539 94.6869C27.3434 94.6869 50.6923 94.6869 74.1444 94.6869C74.1444 95.72 74.1444 96.7531 74.1444 97.9154C73.8603 97.9412 73.5762 97.9412 73.2921 97.9671C70.3218 98.0187 68.9271 99.4651 68.9013 102.461C68.9013 103.778 68.9013 105.122 68.9013 106.62C68.2556 106.62 67.7132 106.62 67.1708 106.62C54.3599 106.62 41.5748 106.62 28.764 106.62C28.1957 106.62 27.5242 106.49 27.1368 106.749C26.5427 107.162 25.8453 107.808 25.7162 108.453C25.5096 109.332 26.1036 110.106 27.0851 110.339C27.6275 110.442 28.1957 110.468 28.7381 110.468C33.9813 110.468 39.2244 110.468 44.4676 110.468C44.9842 110.468 45.4749 110.468 46.069 110.468C46.069 112.818 46.069 115.014 46.069 117.364C44.416 117.364 42.8404 117.364 41.2649 117.364C36.0992 117.39 33.2839 120.179 33.2581 125.293C33.2581 126.378 33.2323 127.437 33.2581 128.522C33.3098 130.485 34.5753 131.699 36.5125 131.699C56.142 131.699 75.7716 131.699 95.4012 131.699C97.08 131.699 98.4489 130.743 98.5522 129.116C98.6814 126.946 98.7589 124.699 98.3456 122.582C97.6999 119.327 94.833 117.416 91.1395 117.338C89.4348 117.313 87.7043 117.338 85.8963 117.338C85.8963 116.538 85.8963 115.84 85.8963 114.91C86.3613 114.91 86.852 114.91 87.3427 114.91C98.3456 114.91 109.323 114.91 120.326 114.91C123.735 114.91 124.716 114.058 125.31 110.726C125.362 110.442 125.698 110.106 125.982 109.977C129.96 108.324 131.768 105.664 131.845 101.351C131.897 98.3028 131.948 95.2551 132 92.2332C132 63.8736 132 35.514 132 7.15446C131.225 4.44248 129.856 2.14376 127.144 0.878165ZM72.8013 89.9086C72.7755 89.6503 72.7497 89.4437 72.7497 89.2371C72.7497 86.4993 72.7497 83.7356 72.7497 80.8945C88.9441 80.8945 105.087 80.8945 121.307 80.8945C121.307 83.8648 121.307 86.835 121.307 89.9344C105.216 89.9086 89.0732 89.9086 72.8013 89.9086ZM78.1737 76.8136C78.1737 75.5222 78.1737 74.3083 78.1737 72.9652C90.7521 72.9652 103.305 72.9652 115.986 72.9652C115.986 74.2824 115.986 75.4964 115.986 76.8136C103.356 76.8136 90.8037 76.8136 78.1737 76.8136ZM115.986 93.9895C115.986 95.3067 115.986 96.5465 115.986 97.8637C103.408 97.8637 90.8296 97.8637 78.1737 97.8637C78.1737 96.624 78.1737 95.3584 78.1737 93.9895C90.7263 93.9895 103.279 93.9895 115.986 93.9895ZM50.0465 110.545C56.297 110.545 62.4958 110.545 68.7721 110.545C68.8238 110.855 68.8496 111.14 68.9013 111.424C69.2629 113.671 70.6576 114.91 72.9305 114.936C75.8491 114.962 78.7677 114.936 81.8155 114.936C81.8155 115.763 81.8155 116.434 81.8155 117.235C71.2258 117.235 60.662 117.235 50.0207 117.235C50.0465 115.04 50.0465 112.844 50.0465 110.545ZM90.2613 121.238C93.7223 121.238 94.7813 122.297 94.7813 125.758C94.7813 126.43 94.7813 127.101 94.7813 127.876C75.5133 127.876 56.3745 127.876 37.1065 127.876C37.1065 126.533 37.0549 125.293 37.1324 124.08C37.2098 122.762 38.3205 121.626 39.6635 121.368C40.2576 121.264 40.8516 121.264 41.4457 121.264C57.7176 121.238 73.9895 121.238 90.2613 121.238ZM121.359 110.985C105.19 110.985 89.0732 110.985 72.8272 110.985C72.8272 108.014 72.8272 104.992 72.8272 101.893C88.9699 101.893 105.087 101.893 121.359 101.893C121.359 104.992 121.359 107.937 121.359 110.985ZM127.738 103.159C127.661 104.424 126.705 105.457 125.259 106.077C125.259 104.786 125.259 103.649 125.259 102.513C125.259 99.4651 123.864 98.0704 120.79 97.9671C120.532 97.9671 120.3 97.9412 119.938 97.9154C119.938 96.8048 119.938 95.8233 119.938 94.7385C122.573 94.7385 125.155 94.7385 127.79 94.7385C127.79 97.528 127.919 100.369 127.738 103.159ZM127.893 90.6576C127.067 90.6576 126.24 90.6576 125.259 90.6576C125.259 88.8238 125.259 86.99 125.259 85.1562C125.259 83.8648 125.285 82.5733 125.285 81.2819C125.285 78.4666 123.89 77.0202 121.049 76.8653C120.713 76.8394 120.377 76.8136 119.99 76.7878C119.99 75.4964 119.99 74.2566 119.99 72.9394C120.687 72.8619 121.359 72.836 122.03 72.7327C123.864 72.4228 125.207 71.0797 125.259 69.2459C125.336 65.9915 125.336 62.7113 125.259 59.4569C125.207 57.3648 123.606 55.8926 121.462 55.8668C117.949 55.8151 114.411 55.841 110.898 55.8668C109.529 55.8668 108.729 56.5642 108.677 57.6748C108.625 58.8112 109.478 59.6636 110.872 59.6894C113.843 59.7411 116.813 59.7152 119.757 59.7152C120.274 59.7152 120.765 59.7152 121.359 59.7152C121.359 62.8146 121.359 65.8107 121.359 68.8843C105.216 68.8843 89.0991 68.8843 72.8788 68.8843C72.8788 65.8624 72.8788 62.8921 72.8788 59.7152C73.3954 59.7152 73.8861 59.7152 74.3769 59.7152C81.9704 59.7152 89.5898 59.7152 97.1833 59.7152C97.5191 59.7152 97.8807 59.741 98.2165 59.7152C99.637 59.6377 100.489 58.8887 100.464 57.7523C100.464 56.59 99.6112 55.8668 98.1648 55.8668C91.3461 55.841 84.5016 55.8668 77.6829 55.8668C76.0816 55.8668 74.506 55.841 72.9047 55.8668C70.6059 55.9184 69.0304 57.2874 68.9529 59.5603C68.8496 62.7371 68.8496 65.914 68.9529 69.0909C69.0046 71.2089 70.4251 72.5519 72.5431 72.7844C73.0596 72.836 73.5762 72.836 74.1703 72.8619C74.1703 74.1275 74.1703 75.3931 74.1703 76.762C73.7312 76.7878 73.2663 76.8136 72.8272 76.8394C70.3993 77.0202 68.9529 78.4666 68.9271 80.9203C68.9013 83.6581 68.9788 86.4218 69.0046 89.1596C69.0046 89.6245 69.0046 90.0894 69.0046 90.606C47.2829 90.606 25.6904 90.606 3.99454 90.606C3.99454 69.1942 3.99454 47.7825 3.99454 26.2933C45.2683 26.2933 86.5679 26.2933 127.919 26.2933C127.893 47.8083 127.893 69.1684 127.893 90.6576ZM127.945 21.1534C127.945 21.5409 127.893 21.9025 127.867 22.3416C86.5937 22.3416 45.3716 22.3416 4.07202 22.3416C4.04619 21.9025 3.99454 21.5409 3.99454 21.1534C3.99454 17.15 3.96871 13.1725 3.99454 9.16908C4.02036 5.63059 5.80252 3.84843 9.31518 3.84843C47.0763 3.84843 84.8374 3.84843 122.598 3.84843C126.137 3.84843 127.919 5.60476 127.919 9.14325C127.971 13.1466 127.945 17.15 127.945 21.1534Z" fill="#00E398"/>
<path d="M58.6473 42.2036C59.0347 42.2552 59.4221 42.2294 59.8096 42.2294C66.215 42.2294 72.5946 42.2294 79.0001 42.2294C85.4313 42.2294 91.8626 42.2294 98.3197 42.2294C98.8621 42.2294 99.4561 42.2036 99.9727 42.0744C100.928 41.8162 101.393 41.093 101.29 40.1373C101.212 39.1817 100.618 38.5618 99.6628 38.4326C99.1978 38.381 98.7329 38.381 98.2422 38.381C85.4571 38.381 72.6721 38.381 59.887 38.381C59.5513 38.381 59.1897 38.381 58.8539 38.381C57.6141 38.4585 56.8393 39.1817 56.8135 40.2664C56.7618 41.2479 57.5367 42.0486 58.6473 42.2036Z" fill="#00E398"/>
<path d="M55.2383 59.7927C56.3231 59.4311 56.8913 58.0622 56.194 57.1841C55.7549 56.6417 54.8767 56.2026 54.1793 56.1768C50.4859 56.0734 46.7924 56.1251 43.099 56.1251C39.4055 56.1251 35.712 56.0993 32.0186 56.1251C30.6239 56.1251 29.849 56.7966 29.7973 57.9331C29.7457 59.1212 30.5205 59.8702 31.9411 59.9735C32.1219 59.9735 32.2769 59.9735 32.4577 59.9735C39.5863 59.9735 46.7149 59.9735 53.8177 59.9735C54.3343 59.9994 54.825 59.9477 55.2383 59.7927Z" fill="#00E398"/>
<path d="M14.8166 47.705C15.953 48.8156 16.9862 48.9448 17.8643 48.1183C18.7941 47.2659 18.6908 46.1295 17.5286 44.993C16.1338 43.5983 14.7133 42.2552 13.1377 40.7055C14.7133 39.1558 16.1338 37.7869 17.5286 36.3922C18.6908 35.2299 18.7941 34.1193 17.8643 33.2411C17.0378 32.4404 15.9014 32.5696 14.8166 33.6285C13.0344 35.3849 11.2781 37.1412 9.54758 38.8975C8.28199 40.1889 8.28199 41.1446 9.54758 42.4102C11.2781 44.1923 13.0344 45.9487 14.8166 47.705Z" fill="#00E398"/>
<path d="M63.6321 72.3711C60.9718 72.3453 58.3115 72.3711 55.6512 72.3711C52.9392 72.3711 50.253 72.2936 47.5411 72.4227C46.8437 72.4486 45.888 72.836 45.5006 73.3784C44.5708 74.6698 45.6556 76.2195 47.5152 76.2195C52.9134 76.2453 58.3115 76.2453 63.7355 76.2195C65.1818 76.2195 65.9825 75.4705 66.0084 74.3082C66.0084 73.0943 65.1818 72.3969 63.6321 72.3711Z" fill="#00E398"/>
<path d="M29.978 45.0706C28.9449 46.1037 28.8674 47.1885 29.6422 48.015C30.4687 48.8932 31.6052 48.8415 32.69 47.7826C34.5238 45.9746 36.3576 44.1666 38.1398 42.3328C39.2762 41.1705 39.2762 40.189 38.1139 39.0009C36.3318 37.1929 34.5496 35.4108 32.7416 33.6286C31.6569 32.5438 30.5462 32.4405 29.6939 33.267C28.8416 34.1193 28.919 35.23 29.978 36.3148C31.3727 37.7095 32.7675 39.1042 34.3688 40.6798C32.8708 42.152 31.3986 43.5984 29.978 45.0706Z" fill="#00E398"/>
<path d="M32.1477 68.1095C34.7563 68.1095 37.3908 68.1095 39.9995 68.1095C41.5492 68.1095 42.4015 67.4121 42.4015 66.1981C42.4015 65.01 41.5492 64.261 40.0253 64.2352C34.8338 64.2094 29.6423 64.2094 24.425 64.2352C22.9011 64.2352 22.0229 64.9842 22.0229 66.1723C22.0229 67.3604 22.8753 68.0836 24.425 68.0836C26.982 68.1353 29.5648 68.1095 32.1477 68.1095Z" fill="#00E398"/>
<path d="M92.9475 46.8785C92.7409 46.8785 92.5084 46.8785 92.3018 46.8785C87.4202 46.8785 82.5129 46.8785 77.6313 46.8785C77.2439 46.8785 76.8564 46.8785 76.469 46.9302C75.4875 47.0593 74.9193 47.705 74.8418 48.6349C74.7643 49.5905 75.2292 50.3137 76.1849 50.572C76.624 50.7011 77.1147 50.727 77.5796 50.727C80.0333 50.7528 82.4612 50.727 84.9149 50.727C87.6269 50.727 90.313 50.7528 93.025 50.7011C94.3423 50.6753 95.1429 49.8488 95.1171 48.7382C95.0913 47.6276 94.2906 46.9302 92.9475 46.8785Z" fill="#00E398"/>
<path d="M58.2598 46.8785C53.7399 46.8527 49.2457 46.8527 44.7257 46.8785C43.5893 46.8785 42.8144 47.3951 42.6853 48.5832C42.582 49.668 43.1244 50.3912 44.2092 50.6236C44.5708 50.7011 44.984 50.7269 45.3456 50.7269C47.3602 50.7269 49.3749 50.7269 51.3895 50.7269C53.6624 50.7269 55.9353 50.7786 58.2082 50.7011C59.5512 50.6753 60.3003 49.8488 60.2744 48.7123C60.3003 47.6275 59.5254 46.9043 58.2598 46.8785Z" fill="#00E398"/>
<path d="M103.744 66.2756C105.758 66.2756 107.773 66.2756 109.788 66.2756C111.802 66.2756 113.817 66.2756 115.832 66.2756C117.355 66.2756 118.234 65.5524 118.259 64.3902C118.285 63.2279 117.355 62.4272 115.883 62.4272C111.802 62.4014 107.747 62.4014 103.666 62.4272C102.168 62.4272 101.29 63.2279 101.316 64.416C101.342 65.5524 102.246 66.2498 103.744 66.2756Z" fill="#00E398"/>
<path d="M22.1517 48.6349C22.4874 48.2474 23.2364 47.7051 23.5464 46.9819C24.7603 44.1407 25.8451 41.248 26.9816 38.381C27.3948 37.3479 27.8081 36.3147 28.1438 35.2558C28.4796 34.171 28.0147 33.1378 27.059 32.8279C26.0259 32.4921 25.1994 32.8279 24.657 33.7836C24.5279 34.016 24.4245 34.2485 24.3471 34.4809C22.9265 38.1227 21.4801 41.7387 20.0854 45.3805C19.9304 45.7679 19.7754 46.207 19.7496 46.6203C19.6721 47.7051 20.6019 48.6349 22.1517 48.6349Z" fill="#00E398"/>
<path d="M26.5168 58.0364C26.5168 56.8999 25.6387 56.1767 24.2181 56.1509C22.2035 56.1251 20.1889 56.1509 18.1743 56.1509C16.108 56.1509 14.0676 56.1251 12.0013 56.1509C10.5291 56.1767 9.75422 56.8224 9.72839 58.0105C9.70256 59.1986 10.5032 59.9735 11.9238 59.9735C16.0305 59.9993 20.1631 59.9993 24.2698 59.9735C25.6645 59.9735 26.5427 59.1728 26.5168 58.0364Z" fill="#00E398"/>
<path d="M40.1284 72.3711C38.1138 72.3453 36.0992 72.3711 34.0846 72.3711C32.0183 72.3711 29.9779 72.3453 27.9116 72.3711C26.4652 72.3969 25.6387 73.1201 25.6129 74.2566C25.587 75.3672 26.4652 76.2195 27.8599 76.2195C31.9666 76.2454 36.0992 76.2454 40.2059 76.2195C41.6006 76.2195 42.453 75.3672 42.4271 74.2307C42.4013 73.0943 41.5748 72.3969 40.1284 72.3711Z" fill="#00E398"/>
<path d="M21.2996 72.3711C19.7241 72.3453 18.1227 72.3711 16.5472 72.3711C14.9975 72.3711 13.4478 72.3453 11.9239 72.3711C10.5292 72.3969 9.78016 73.0426 9.7285 74.1791C9.67684 75.3672 10.4517 76.1679 11.8723 76.1937C15.0491 76.2454 18.226 76.2454 21.4029 76.1937C22.746 76.1679 23.495 75.3672 23.4692 74.2307C23.4434 73.0943 22.6943 72.3969 21.2996 72.3711Z" fill="#00E398"/>
<path d="M86.9811 62.4272C83.985 62.3755 80.9631 62.3755 77.967 62.4272C76.6756 62.453 75.8491 63.3312 75.9007 64.4418C75.9524 65.5266 76.7272 66.2498 77.9928 66.2756C79.4392 66.3014 80.9114 66.2756 82.3837 66.2756C83.8817 66.2756 85.3797 66.3014 86.9036 66.2756C88.195 66.2498 88.9441 65.5782 88.9957 64.4934C89.0215 63.3312 88.2725 62.453 86.9811 62.4272Z" fill="#00E398"/>
<path d="M44.7003 42.2036C45.7593 42.2553 46.8441 42.2036 47.903 42.2036C48.962 42.2036 50.0468 42.2553 51.1058 42.1778C52.423 42.1003 53.172 41.2996 53.1204 40.1632C53.0687 39.0784 52.3197 38.381 51.0541 38.3552C48.962 38.3294 46.8699 38.3294 44.7778 38.3552C43.5122 38.381 42.7632 39.0784 42.7115 40.1632C42.634 41.3255 43.3831 42.1261 44.7003 42.2036Z" fill="#00E398"/>
<path d="M55.1605 66.3273C55.238 67.4379 55.9096 68.032 56.9944 68.0836C58.0533 68.1353 59.1381 68.0836 60.2229 68.0836C61.3077 68.0836 62.3667 68.1353 63.4515 68.0836C64.4846 68.032 65.1303 67.4379 65.2336 66.4048C65.3369 65.32 64.7945 64.4418 63.7097 64.3902C61.411 64.261 59.0865 64.261 56.7877 64.3643C55.6771 64.416 55.0831 65.2167 55.1605 66.3273Z" fill="#00E398"/>
<path d="M70.3478 46.8785C68.5914 46.8527 66.8351 46.8527 65.0788 46.8785C63.8132 46.9043 63.0383 47.6275 62.9867 48.6865C62.935 49.7713 63.7615 50.6236 65.0529 50.7011C65.9569 50.7528 66.8609 50.7011 67.7391 50.7011C68.6431 50.7011 69.5471 50.7528 70.4252 50.6753C71.7425 50.572 72.4915 49.7713 72.4399 48.6348C72.3882 47.6017 71.6133 46.9043 70.3478 46.8785Z" fill="#00E398"/>
<path d="M11.3298 64.3643C10.245 64.416 9.65094 65.2167 9.72842 66.3273C9.80591 67.4379 10.4774 68.032 11.5622 68.0836C12.4921 68.1353 13.4477 68.0836 14.3775 68.0836C15.2815 68.0836 16.1855 68.1094 17.0637 68.0836C18.2001 68.032 19.0266 67.2829 19.0008 66.2756C19.0008 65.1908 18.4068 64.3902 17.322 64.3385C15.359 64.261 13.3444 64.2352 11.3298 64.3643Z" fill="#00E398"/>
<path d="M46.9214 64.4676C45.9658 64.5709 45.5267 65.4491 45.63 66.4048C45.7333 67.3604 46.3016 67.9803 47.283 68.0836C47.8771 68.1353 48.4711 68.0836 49.0652 68.0836C49.7367 68.0836 50.4341 68.1353 51.1056 68.0836C52.0871 68.0061 52.6553 67.3346 52.7587 66.4048C52.862 65.4491 52.4229 64.5709 51.4672 64.4676C49.9692 64.2868 48.4195 64.2868 46.9214 64.4676Z" fill="#00E398"/>
<path d="M97.0798 62.5564C95.7884 62.4014 94.4453 62.4272 93.1539 62.5822C92.2241 62.7114 91.7075 63.4862 91.785 64.4677C91.8366 65.5008 92.4565 66.1207 93.4896 66.2498C94.032 66.3273 94.6003 66.2498 95.1427 66.2498C95.6851 66.2498 96.2533 66.3015 96.7957 66.2498C97.803 66.1465 98.4487 65.5525 98.5262 64.5193C98.6037 63.4604 98.0871 62.6597 97.0798 62.5564Z" fill="#00E398"/>
<path d="M28.7381 7.43855C25.6387 7.41272 23.0558 9.91808 23.0042 13.0175C22.9525 16.0652 25.5354 18.6997 28.6089 18.7514C31.6567 18.803 34.2912 16.246 34.317 13.1466C34.3428 10.0214 31.8633 7.46438 28.7381 7.43855ZM28.7123 14.8513C27.7824 14.9546 26.9043 14.0248 26.8784 13.095C26.8784 12.1393 27.7049 11.3128 28.6864 11.3128C29.6937 11.3128 30.4686 12.1135 30.4169 13.1208C30.3653 14.2056 29.6937 14.748 28.7123 14.8513Z" fill="#00E398"/>
<path d="M14.2484 7.4386C11.149 7.4386 8.56616 9.96978 8.56616 13.0692C8.56616 16.1428 11.1748 18.7514 14.2226 18.7514C17.2962 18.7514 19.8532 16.1944 19.8532 13.095C19.879 9.94395 17.3736 7.4386 14.2484 7.4386ZM14.2226 14.8513C13.1894 14.7739 12.5696 14.1798 12.4662 13.1467C12.3629 12.191 13.2153 11.3387 14.1967 11.3129C15.2041 11.287 16.0047 12.0619 16.0047 13.0434C16.0047 14.0507 15.1782 14.9288 14.2226 14.8513Z" fill="#00E398"/>
<path d="M43.0987 7.4386C39.9993 7.4386 37.4165 9.99561 37.4165 13.0692C37.4165 16.1428 40.0252 18.7514 43.0987 18.7514C46.1723 18.7514 48.7293 16.1944 48.7293 13.0692C48.7293 9.94395 46.2498 7.4386 43.0987 7.4386ZM43.1246 14.8772C42.1689 14.903 41.2908 14.0248 41.3166 13.095C41.3166 12.191 42.0914 11.3903 43.0213 11.3387C44.0286 11.287 44.8551 12.0361 44.8809 13.0434C44.9067 13.999 44.1061 14.8513 43.1246 14.8772Z" fill="#00E398"/>
<path d="M103.589 108.376C107.696 108.402 111.828 108.402 115.935 108.376C117.381 108.376 118.234 107.653 118.285 106.516C118.337 105.354 117.433 104.553 115.935 104.527C113.92 104.502 111.906 104.527 109.891 104.527C107.799 104.527 105.681 104.502 103.589 104.527C102.168 104.553 101.316 105.328 101.316 106.439C101.316 107.601 102.168 108.35 103.589 108.376Z" fill="#00E398"/>
<path d="M78.0188 108.35C79.4651 108.402 80.9374 108.35 82.3838 108.376C83.8301 108.376 85.3024 108.402 86.7488 108.376C88.1951 108.324 88.97 107.601 88.9442 106.413C88.9183 105.276 88.1693 104.579 86.7746 104.553C83.856 104.502 80.9374 104.502 78.0188 104.553C76.6757 104.579 75.875 105.328 75.875 106.439C75.9008 107.549 76.6757 108.324 78.0188 108.35Z" fill="#00E398"/>
<path d="M93.2055 108.221C93.6962 108.531 94.4452 108.376 95.1168 108.427C95.7883 108.376 96.4599 108.402 97.1314 108.273C98.0354 108.092 98.5003 107.446 98.5261 106.516C98.552 105.561 98.0871 104.76 97.1314 104.657C95.8142 104.527 94.4969 104.527 93.1797 104.657C92.224 104.76 91.6041 105.586 91.8108 106.49C91.9916 107.162 92.6114 107.859 93.2055 108.221Z" fill="#00E398"/>
<path d="M115.935 83.5032C113.92 83.4774 111.906 83.5032 109.891 83.5032C107.799 83.5032 105.681 83.4774 103.589 83.5032C102.194 83.529 101.316 84.278 101.316 85.4145C101.316 86.5509 102.168 87.3516 103.589 87.3516C107.696 87.3774 111.828 87.3774 115.935 87.3516C117.407 87.3516 118.311 86.5251 118.285 85.3628C118.234 84.2005 117.355 83.5032 115.935 83.5032Z" fill="#00E398"/>
<path d="M86.852 83.5032C85.4056 83.4774 83.9334 83.5032 82.487 83.5032C81.0148 83.5032 79.5684 83.4774 78.122 83.5032C76.7789 83.529 75.9524 84.2264 75.9266 85.337C75.8749 86.4476 76.7015 87.3 77.9929 87.3258C80.989 87.3774 84.0109 87.3774 87.007 87.3258C88.3242 87.3 89.0733 86.4218 88.9958 85.2853C88.9183 84.2006 88.1434 83.529 86.852 83.5032Z" fill="#00E398"/>
<path d="M96.667 83.529C95.6339 83.4773 94.6266 83.4773 93.5934 83.529C92.5603 83.5806 91.9146 84.1747 91.7854 85.2078C91.6563 86.241 92.147 86.9642 93.1543 87.2224C93.8001 87.3774 94.4974 87.3774 95.169 87.4291C95.169 87.4032 95.169 87.3516 95.169 87.3258C95.7113 87.3258 96.2796 87.4032 96.822 87.2999C97.9584 87.1191 98.6041 86.3184 98.5008 85.2595C98.4233 84.1489 97.7518 83.5548 96.667 83.529Z" fill="#00E398"/>
</svg>
