<svg width="110" height="97" viewBox="0 0 110 97" fill="none" xmlns="http://www.w3.org/2000/svg">
<g clip-path="url(#clip0_50_2107)">
<path d="M57.512 57.9318C59.9147 57.9318 62.2956 57.9534 64.6983 57.9318C65.8122 57.9101 66.4457 57.2828 66.4238 56.331C66.402 55.4224 65.7904 54.7734 64.7419 54.7734C59.9584 54.7518 55.1748 54.7518 50.3913 54.7734C49.5612 54.7734 48.9496 55.1628 48.7531 56.0281C48.5128 57.0881 49.2118 57.9318 50.435 57.9318C51.0247 57.9318 51.6145 57.9534 52.2042 57.9534C53.9735 57.9318 55.7427 57.9318 57.512 57.9318Z" fill="#00E398"/>
<path d="M110 82.6577C110 81.403 109.41 80.6675 108.427 80.6459C107.401 80.6242 106.789 81.3814 106.767 82.6793C106.767 85.5781 106.767 88.4984 106.767 91.3972C106.767 93.2143 106.178 93.7984 104.321 93.7984C71.4476 93.7984 38.5743 93.7984 5.70095 93.7984C3.77879 93.7984 3.21088 93.236 3.21088 91.3323C3.21088 67.2554 3.21088 43.2 3.21088 19.1231C3.21088 18.7554 3.21088 18.366 3.21088 17.9117C3.73511 17.9117 4.12828 17.9117 4.52145 17.9117C7.31732 17.9117 10.1132 17.9117 12.9091 17.9117C14.5036 17.9117 15.6394 17.1762 16.3165 15.7701C16.7752 14.8399 17.2558 13.9313 17.6052 12.9795C17.911 12.1358 18.4353 11.9195 19.309 11.9195C23.7867 11.9628 28.2645 12.1358 32.7423 11.8762C35.4289 11.7248 37.0016 12.3954 37.7442 15.0562C38.3558 17.2194 39.9722 17.9766 42.2657 17.9766C63.2784 17.9333 84.2911 17.955 105.326 17.955C105.784 17.955 106.243 17.955 106.811 17.955C106.811 18.4741 106.811 18.8851 106.811 19.3178C106.811 37.965 106.811 56.6122 106.811 75.2377C106.811 76.9034 107.292 77.6389 108.384 77.6606C109.519 77.6822 110.044 76.9034 110.044 75.2161C110.044 52.0694 110.044 28.9226 110.044 5.77587C110 1.94692 108.056 0 104.212 0C74.8332 0 45.4766 0 16.1199 0C14.3725 0 13.5862 0.497547 13.5643 1.57917C13.5643 2.68243 14.3507 3.17997 16.0763 3.17997C44.0349 3.17997 72.0155 3.17997 99.9742 3.17997C101.503 3.17997 103.054 3.17997 104.583 3.17997C106.09 3.20161 106.745 3.82895 106.767 5.32159C106.789 7.98238 106.767 10.6432 106.767 13.304C106.767 13.7583 106.767 14.1909 106.767 14.7317C106.243 14.7317 105.85 14.7317 105.457 14.7317C84.4003 14.7317 63.3439 14.7317 42.2875 14.7317C42.1128 14.7317 41.8944 14.7966 41.7633 14.7101C41.4138 14.537 40.977 14.3856 40.8022 14.0827C40.2562 13.0876 39.7975 12.0493 39.3388 11.0109C38.6398 9.49666 37.4384 8.73952 35.7784 8.73952C30.0119 8.71789 24.2454 8.71789 18.479 8.73952C16.8189 8.73952 15.6176 9.51829 14.9404 11.0326C14.4817 12.0277 14.0449 13.0444 13.5207 14.0178C13.3678 14.2991 12.9964 14.6884 12.7125 14.6884C9.6108 14.7533 6.46545 14.7317 3.27641 14.7317C3.25457 14.364 3.23272 14.0827 3.23272 13.8015C3.23272 11.0109 3.23272 8.19871 3.23272 5.40812C3.23272 3.85058 3.88801 3.22324 5.43884 3.20161C6.61835 3.20161 7.79786 3.22324 8.97736 3.17997C9.87291 3.13671 10.4627 2.63916 10.5282 1.7306C10.5937 0.822034 10.0913 0.129795 9.21763 0.0865299C7.47021 0 5.70095 -0.043265 3.97538 0.194692C1.7911 0.475914 0.655282 2.07672 0 4.04527C0 33.6818 0 63.3182 0 92.9547C0.611597 95.0315 2.00953 96.3727 4.08459 97C38.0282 97 71.9718 97 105.915 97C109.214 95.6372 110 94.4257 110 90.8564C110 88.1091 110 85.3834 110 82.6577Z" fill="#00E398"/>
<path d="M39.8194 44.7576C40.1688 43.9355 40.4091 43.0919 40.8241 42.2915C40.9989 41.967 41.4576 41.6209 41.807 41.6209C44.1224 41.556 46.4595 41.556 48.7749 41.6209C49.1244 41.6209 49.6049 41.9886 49.7578 42.2915C50.1947 43.1351 50.4349 44.087 50.8281 44.9523C51.1557 45.6661 51.8329 46.0988 52.5755 45.8176C53.1434 45.5796 53.5803 44.9955 54.0827 44.5629C54.0171 44.4763 53.9734 44.4114 53.9079 44.3249C53.8424 44.0437 53.7987 43.7625 53.6895 43.5029C51.5489 37.8784 49.4083 32.254 47.2677 26.6296C46.9401 25.7426 46.3066 25.2018 45.3456 25.1802C44.4282 25.1585 43.751 25.6128 43.4234 26.4565C41.2173 32.1675 39.0112 37.8784 36.8269 43.611C36.4337 44.6278 36.8487 45.4498 37.7661 45.7743C38.618 46.0988 39.4043 45.731 39.8194 44.7576ZM45.3019 30.5667C46.3503 33.2924 47.2896 35.7585 48.2506 38.3327C46.2193 38.3327 44.3408 38.3327 42.3094 38.3327C43.2923 35.7585 44.2534 33.314 45.3019 30.5667Z" fill="#00E398"/>
<path d="M69.7658 25.31C68.7829 24.9855 68.0184 25.4615 67.6034 26.6512C66.817 28.9227 66.0744 31.2157 65.288 33.4871C64.5672 35.6287 63.8464 37.7487 63.0601 40.085C62.8417 39.5009 62.6669 39.1116 62.5359 38.7005C61.1379 34.6985 59.74 30.6749 58.3202 26.6729C57.8834 25.3966 57.0752 24.9207 56.0923 25.2884C55.153 25.6345 54.8254 26.4998 55.2404 27.668C57.1625 33.1843 59.1065 38.7005 61.0287 44.2168C61.3564 45.1686 61.9461 45.8609 63.0164 45.8825C64.1304 45.9041 64.742 45.2119 65.0915 44.1952C66.9262 38.6789 68.7829 33.1843 70.6395 27.668C71.0545 26.4998 70.705 25.6129 69.7658 25.31Z" fill="#00E398"/>
<path d="M25.7088 42.616C25.0536 42.616 24.3546 42.2915 23.7648 41.9454C22.7601 41.3397 21.8864 41.3397 21.2966 42.1185C20.7505 42.8323 20.9034 43.7409 21.7335 44.4548C23.3717 45.8392 25.2502 46.4017 27.3034 45.5148C29.3784 44.6278 30.3614 42.9189 30.405 40.7123C30.4487 38.4409 30.4269 36.1695 30.4269 33.9198C30.4269 31.8214 30.4269 29.7447 30.4269 27.6463C30.4269 26.0239 29.9245 25.2451 28.8324 25.2019C27.7184 25.1802 27.1942 25.9374 27.1942 27.668C27.1942 31.9079 27.1942 36.1695 27.1942 40.4095C27.216 41.7074 26.6699 42.616 25.7088 42.616Z" fill="#00E398"/>
<path d="M15.9889 52.7832C17.0155 52.6102 17.5615 51.9612 17.4742 51.0526C17.3868 50.1657 16.666 49.6032 15.6612 49.6249C12.9527 49.6898 10.3097 51.8314 9.96026 54.5138C9.80736 55.5738 9.34866 56.2444 8.58417 56.8717C6.81491 58.3428 6.81491 59.0134 8.54048 60.4844C9.32682 61.155 9.80736 61.8472 9.96026 62.9288C10.3534 65.5896 12.8872 67.6447 15.6175 67.7313C16.666 67.7745 17.3649 67.2553 17.4742 66.3684C17.5834 65.4166 17.0591 64.7892 15.9452 64.5729C15.7267 64.5296 15.5302 64.508 15.3117 64.4647C14.1322 64.2052 13.2367 63.3399 13.1056 62.1501C12.9746 60.7872 12.6032 59.5758 11.6858 58.9485C12.1882 57.737 12.778 56.7852 12.9746 55.7685C13.3677 53.8216 13.9356 53.1293 15.9889 52.7832Z" fill="#00E398"/>
<path d="M96.9598 79.5426C96.785 81.2948 95.9332 82.0952 94.1639 82.3332C93.0718 82.4846 92.4602 83.112 92.5476 84.0638C92.6131 84.994 93.312 85.5348 94.426 85.5132C97.0908 85.4699 99.6683 83.3715 100.061 80.7108C100.214 79.6075 100.629 78.872 101.481 78.2663C101.743 78.0716 101.984 77.8553 102.202 77.6173C102.923 76.8602 102.901 76.0165 102.18 75.2594C101.874 74.9565 101.569 74.6537 101.219 74.4157C100.498 73.9182 100.214 73.2692 100.105 72.3823C99.7556 69.57 96.9598 67.2986 94.1858 67.4068C93.2684 67.4501 92.7004 67.8827 92.5694 68.7913C92.4383 69.6566 92.9844 70.3488 93.9018 70.5651C94.0765 70.6084 94.2513 70.6084 94.426 70.63C95.8458 70.8247 96.8069 71.7116 96.9379 73.0961C97.069 74.4373 97.4622 75.5839 98.7072 76.4492C97.5714 77.2928 97.0908 78.3096 96.9598 79.5426Z" fill="#00E398"/>
<path d="M11.6859 81.6843C12.0572 81.7708 12.4723 81.7708 12.8654 81.7708C16.12 81.7708 19.3746 81.7708 22.6291 81.7708C24.2455 81.7708 25.84 81.7708 27.4564 81.7708C29.0727 81.7708 30.6673 81.7708 32.2836 81.7708C32.7205 81.7708 33.2447 81.8573 33.5286 81.641C33.9873 81.2949 34.4679 80.7757 34.6208 80.2565C34.8174 79.5427 34.3587 78.9369 33.6379 78.7206C33.2447 78.5908 32.786 78.5908 32.371 78.5908C25.8618 78.5908 19.3527 78.5908 12.8654 78.5908C12.4723 78.5908 12.0791 78.5908 11.6859 78.6774C10.8777 78.872 10.5064 79.4345 10.5283 80.2565C10.5283 81.0137 10.9433 81.5112 11.6859 81.6843Z" fill="#00E398"/>
<path d="M87.8515 70.6949C83.2427 70.6733 78.6339 70.6733 74.0251 70.6949C72.78 70.6949 72.0592 71.3439 72.081 72.3174C72.1029 73.2908 72.8019 73.8533 74.0906 73.8749C76.3841 73.8965 78.6557 73.8749 80.9492 73.8749C83.2645 73.8749 85.6017 73.8749 87.917 73.8749C88.7471 73.8749 89.4023 73.637 89.7081 72.8366C90.1668 71.7117 89.315 70.6949 87.8515 70.6949Z" fill="#00E398"/>
<path d="M12.5159 73.8749C14.7657 73.8965 17.0155 73.8749 19.2653 73.8749C21.5806 73.8749 23.9178 73.8749 26.2331 73.8749C27.5218 73.8749 28.1989 73.3125 28.1989 72.2957C28.1989 71.279 27.5218 70.7166 26.2331 70.6949C21.668 70.6733 17.081 70.6733 12.5159 70.6949C11.2053 70.6949 10.5282 71.2574 10.5063 72.2525C10.4626 73.2908 11.1616 73.8749 12.5159 73.8749Z" fill="#00E398"/>
<path d="M51.8766 62.6476C51.3087 62.6476 50.7408 62.6476 50.1728 62.6476C48.4691 62.6476 46.7435 62.6476 45.0398 62.6476C42.6808 62.6476 40.3218 62.6476 37.9628 62.6476C37.1546 62.6476 36.4556 62.8639 36.1498 63.6859C35.7348 64.7676 36.4774 65.8059 37.7662 65.8276C39.8631 65.8708 41.9818 65.8492 44.0787 65.8492C46.678 65.8492 49.2991 65.8708 51.8984 65.8276C53.1216 65.8059 53.7551 65.2218 53.7551 64.2268C53.7332 63.2317 53.0998 62.6476 51.8766 62.6476Z" fill="#00E398"/>
<path d="M87.9171 78.5908C83.9854 78.5692 80.0537 78.5692 76.122 78.5908C74.9206 78.5908 74.2435 79.1965 74.2217 80.1483C74.1998 81.1434 74.9206 81.7492 76.1657 81.7708C76.6462 81.7708 77.1486 81.7708 77.6291 81.7708C79.0926 81.7708 80.5779 81.7708 82.0414 81.7708C83.483 81.7708 84.9246 81.7708 86.3881 81.7708C86.8686 81.7708 87.3492 81.7708 87.8297 81.7708C89.1184 81.7492 89.7955 81.1651 89.7737 80.17C89.7955 79.1965 89.1403 78.5908 87.9171 78.5908Z" fill="#00E398"/>
<path d="M41.6103 73.8749C43.6198 73.8749 45.6075 73.8965 47.617 73.8749C48.8402 73.8533 49.4737 73.2908 49.4737 72.2957C49.4737 71.3223 48.7966 70.7165 47.5952 70.7165C43.6635 70.6949 39.7318 70.6949 35.822 70.7165C34.6206 70.7165 33.9435 71.3006 33.9217 72.2741C33.8998 73.2908 34.5769 73.8749 35.8438 73.8965C37.7441 73.8965 39.6663 73.8749 41.6103 73.8749Z" fill="#00E398"/>
<path d="M93.5962 57.9318C95.2126 57.9318 96.8071 57.9534 98.4234 57.9318C99.6248 57.9101 100.324 57.3477 100.324 56.3959C100.346 55.4008 99.6248 54.7734 98.3797 54.7734C95.1907 54.7518 92.0235 54.7518 88.8345 54.7734C87.5894 54.7734 86.8468 55.4224 86.8686 56.3959C86.8905 57.3693 87.6113 57.9534 88.8782 57.9534C90.4508 57.9318 92.0235 57.9318 93.5962 57.9318Z" fill="#00E398"/>
<path d="M76.1657 62.626C74.9206 62.626 74.1998 63.2533 74.2217 64.2484C74.2435 65.2002 74.9206 65.7843 76.122 65.806C76.5152 65.806 76.9302 65.8059 77.3233 65.8276C78.5247 65.8276 79.726 65.8276 80.9492 65.8276C82.1287 65.8276 83.3083 65.8276 84.4878 65.8276C84.8809 65.8276 85.2741 65.8276 85.6673 65.8276C86.9778 65.8059 87.655 65.2435 87.655 64.2484C87.655 63.2317 86.9778 62.6476 85.6891 62.6476C82.5219 62.626 79.3547 62.626 76.1657 62.626Z" fill="#00E398"/>
<path d="M31.3881 54.7518C30.2522 54.7518 29.6188 55.3792 29.597 56.3094C29.5751 57.3044 30.2304 57.9102 31.4099 57.9318C31.8031 57.9318 32.2181 57.9318 32.6113 57.9534C33.8126 57.9534 35.014 57.9534 36.2153 57.9534C37.4385 57.9534 38.6835 57.9534 39.9067 57.9534C40.3217 57.9534 40.7368 57.9534 41.1299 57.9318C42.3313 57.9102 42.9866 57.3261 42.9647 56.331C42.9647 55.3792 42.3094 54.7735 41.1955 54.7518C37.9409 54.7302 34.6645 54.7302 31.3881 54.7518Z" fill="#00E398"/>
<path d="M42.1565 81.7491C45.4111 81.7707 48.6438 81.7707 51.8984 81.7491C53.1216 81.7491 53.755 81.1434 53.755 80.1483C53.755 79.1532 53.0997 78.5907 51.8765 78.5691C51.4834 78.5691 51.0902 78.5691 50.697 78.5475C49.5175 78.5475 48.338 78.5475 47.1585 78.5475C45.4766 78.5475 43.7947 78.5258 42.1347 78.5475C40.9988 78.5691 40.3654 79.1532 40.3436 80.0834C40.3217 81.1217 40.9552 81.7491 42.1565 81.7491Z" fill="#00E398"/>
<path d="M56.9441 73.8749C57.2717 73.8749 57.5775 73.8749 57.9052 73.8965C58.8662 73.8965 59.8273 73.8965 60.7884 73.8965C62.0334 73.8965 63.2785 73.9182 64.5453 73.8965C65.7467 73.8749 66.402 73.3124 66.402 72.3173C66.402 71.3439 65.7467 70.7382 64.5453 70.7165C62.0116 70.6949 59.4778 70.6949 56.9441 70.7165C55.7864 70.7382 55.1093 71.3871 55.1311 72.3606C55.1748 73.2908 55.8083 73.8533 56.9441 73.8749Z" fill="#00E398"/>
<path d="M20.8816 65.806C23.4154 65.8276 25.9491 65.8276 28.4829 65.806C29.7061 65.7843 30.3395 65.2219 30.3395 64.2268C30.3395 63.2317 29.6842 62.6692 28.4829 62.626C28.1771 62.626 27.8494 62.626 27.5436 62.6043C26.6044 62.6043 25.6652 62.6043 24.7259 62.6043C23.7648 62.6043 22.8038 62.5827 21.8427 62.6043C21.515 62.6043 21.2092 62.6043 20.8816 62.626C19.7458 62.6476 19.1123 63.2101 19.0687 64.1619C19.0468 65.1786 19.6803 65.7843 20.8816 65.806Z" fill="#00E398"/>
<path d="M73.7629 57.9102C74.724 57.9534 75.6851 57.9102 76.6462 57.9102C77.5417 57.9102 78.4373 57.9102 79.311 57.9102C79.3765 57.9102 79.4639 57.9102 79.5294 57.9102C80.556 57.8453 81.1895 57.2612 81.2113 56.3526C81.2332 55.444 80.6216 54.7734 79.595 54.7518C77.6291 54.7085 75.6633 54.7085 73.7193 54.7518C72.7145 54.7734 72.0811 55.4657 72.0811 56.3526C72.1029 57.2612 72.7363 57.8669 73.7629 57.9102Z" fill="#00E398"/>
<path d="M61.1814 62.6477C60.0675 62.6693 59.434 63.2967 59.4559 64.2485C59.4559 65.2003 60.0893 65.7844 61.2251 65.806C62.1425 65.8493 63.0818 65.806 63.9992 65.806C64.9602 65.806 65.9213 65.8493 66.8824 65.806C67.9527 65.7628 68.5424 65.1787 68.5643 64.2701C68.5861 63.3183 67.9527 62.6693 66.8606 62.6477C64.9602 62.6044 63.0599 62.6044 61.1814 62.6477Z" fill="#00E398"/>
<path d="M61.1595 81.7492C63.038 81.7924 64.9383 81.7924 66.8386 81.7492C67.9526 81.7275 68.5861 81.1002 68.5642 80.1484C68.5424 79.1965 67.9308 78.6341 66.7949 78.5908C66.5547 78.5908 66.3363 78.5692 66.096 78.5692C65.397 78.5692 64.6981 78.5692 63.9991 78.5692C63.3001 78.5692 62.6011 78.5476 61.9022 78.5692C61.6619 78.5692 61.4435 78.5692 61.2032 78.5908C60.0674 78.6341 59.434 79.2182 59.4121 80.1484C59.4121 81.1002 60.0455 81.7275 61.1595 81.7492Z" fill="#00E398"/>
<path d="M96.8506 62.6476C96.8506 62.6693 96.8506 62.6693 96.8506 62.6476C96.1298 62.6476 95.409 62.6044 94.7101 62.6693C93.7927 62.7774 93.3121 63.3832 93.334 64.2701C93.3558 65.0921 93.8364 65.6978 94.7319 65.7411C96.108 65.806 97.5059 65.806 98.9039 65.7411C99.8213 65.6978 100.324 65.0921 100.324 64.1836C100.324 63.275 99.7776 62.7342 98.882 62.6476C98.2049 62.6044 97.5278 62.6476 96.8506 62.6476Z" fill="#00E398"/>
<path d="M19.0905 56.3742C19.1123 57.2828 19.6147 57.802 20.5321 57.9101C20.8379 57.9534 21.1656 57.9101 21.4932 57.9101V57.9317C21.7116 57.9317 21.9301 57.9317 22.1266 57.9317C23.2625 57.8668 23.8741 57.326 23.8959 56.3742C23.9177 55.4224 23.2843 54.8167 22.1703 54.7518C21.6024 54.7301 21.0345 54.7085 20.4666 54.795C19.5929 54.9248 19.0687 55.444 19.0905 56.3742Z" fill="#00E398"/>
<path d="M94.7974 10.6216C94.7974 10.5999 94.7974 10.5783 94.7974 10.5783C95.0814 10.5783 95.3654 10.5999 95.6493 10.5783C96.6322 10.4701 97.2657 9.77791 97.1783 8.89098C97.0909 7.93915 96.523 7.4416 95.5401 7.41997C94.9722 7.39834 94.4043 7.39834 93.8364 7.4416C92.9627 7.52813 92.4821 8.11221 92.4384 8.93424C92.3947 9.71301 92.8098 10.2971 93.6179 10.4918C94.0111 10.5783 94.4043 10.5783 94.7974 10.6216Z" fill="#00E398"/>
<path d="M88.4193 10.4053C89.2056 10.2538 89.5333 9.56159 89.424 8.76119C89.3367 8.00405 88.878 7.54977 88.1353 7.41997C87.7858 7.37671 87.4145 7.37671 87.065 7.37671C87.065 7.39834 87.065 7.39834 87.065 7.41997C86.7374 7.41997 86.4316 7.39834 86.1039 7.41997C85.2739 7.5065 84.8152 8.02568 84.7279 8.80445C84.6405 9.58322 85.0118 10.2755 85.7981 10.4053C86.65 10.5783 87.5892 10.5783 88.4193 10.4053Z" fill="#00E398"/>
<path d="M80.7089 10.4052C81.4953 10.2538 81.8229 9.56157 81.7137 8.76117C81.6263 8.00404 81.1676 7.54975 80.4031 7.44159C80.0537 7.39833 79.6823 7.44159 79.3328 7.44159C79.0052 7.44159 78.6776 7.41996 78.3718 7.44159C77.5417 7.52812 77.083 8.06893 76.9957 8.82607C76.9083 9.60484 77.2796 10.2971 78.066 10.4269C78.9178 10.5783 79.8571 10.5783 80.7089 10.4052Z" fill="#00E398"/>
<path d="M87.7424 45.8392C88.5287 45.6661 88.9656 45.1469 89.0092 44.2384C88.9874 44.0869 88.9656 43.8273 88.8782 43.611C86.7158 37.9217 84.5315 32.2323 82.3691 26.543C82.0414 25.6993 81.408 25.2018 80.4906 25.2018C79.595 25.2018 78.9179 25.6344 78.5903 26.4997C76.3841 32.2107 74.178 37.9217 71.9938 43.6543C71.6224 44.6494 72.0374 45.493 72.933 45.8175C73.7849 46.1204 74.5712 45.7526 74.9862 44.7792C75.3138 44.0004 75.6196 43.2 75.9036 42.3996C76.0783 41.8804 76.3405 41.5992 76.9739 41.5992C79.2892 41.6425 81.6264 41.5776 83.9417 41.6425C84.2694 41.6425 84.7499 42.0102 84.9028 42.3347C85.3397 43.1784 85.5799 44.1302 85.9949 44.9955C86.3226 45.6877 86.9342 46.0339 87.7424 45.8392ZM77.4763 38.3327C78.481 35.7152 79.4203 33.2707 80.4687 30.5666C81.4953 33.2491 82.4346 35.7368 83.4393 38.3327C81.408 38.3327 79.5295 38.3327 77.4763 38.3327Z" fill="#00E398"/>
</g>
<defs>
<clipPath id="clip0_50_2107">
<rect width="110" height="97" fill="white"/>
</clipPath>
</defs>
</svg>
