<svg width="104" height="104" viewBox="0 0 104 104" fill="none" xmlns="http://www.w3.org/2000/svg">
<g clip-path="url(#clip0_50_2161)">
<path d="M101.584 57.0214C97.214 57.0634 92.8649 57.0424 88.4948 57.0424C88.1167 57.0424 87.7385 57.0424 87.2342 57.0424C87.2342 56.5592 87.2342 56.16 87.2342 55.7398C87.2342 37.9652 87.2342 20.2117 87.2552 2.43717C87.2552 1.40768 87.0451 0.609293 86.1837 0C62.2742 0 38.3858 0 14.4763 0C13.6148 0.588283 13.4047 1.40768 13.4047 2.43717C13.4258 15.7156 13.4258 28.9939 13.4258 42.2513C13.4258 42.6715 13.4258 43.0707 13.4258 43.617C12.9845 43.617 12.6064 43.617 12.2282 43.617C8.84556 43.617 5.44192 43.617 2.05929 43.617C0.609597 43.617 0.000304619 44.2053 0.000304619 45.6339C0.000304619 62.2949 -0.0207055 78.956 0.000304619 95.617C0.0213147 100.449 3.78212 104 8.76152 104C29.7296 104 50.6767 104 71.6447 104C73.9559 104 76.246 104 78.5571 104C83.5995 103.979 87.2132 100.386 87.2342 95.3438C87.2342 93.8101 87.2342 92.2764 87.2342 90.5745C87.6334 90.5745 88.0116 90.5745 88.3688 90.5745C92.7809 90.5745 97.172 90.5535 101.563 90.5956C102.593 90.6166 103.391 90.3855 104 89.524C104 79.04 104 68.556 104 58.0719C103.412 57.2315 102.593 57.0004 101.584 57.0214ZM13.4258 95.3018C13.4258 98.4113 11.2617 100.68 8.34131 100.659C5.71505 100.638 3.53 98.5584 3.36192 95.9321C3.34091 95.68 3.34091 95.4489 3.34091 95.1968C3.34091 79.4812 3.34091 63.7657 3.34091 48.0501C3.34091 47.7349 3.34091 47.4198 3.34091 46.9996C6.74455 46.9996 10.0011 46.9996 13.3417 46.9996C13.3627 47.3358 13.4047 47.6299 13.4047 47.945C13.4258 63.7236 13.4258 79.5022 13.4258 95.3018ZM83.5785 97.1297C83.2423 99.1046 81.2253 100.47 79.2084 100.617C78.9563 100.638 78.7251 100.638 78.473 100.638C57.673 100.638 36.894 100.638 16.094 100.638C15.8209 100.638 15.5478 100.638 15.0225 100.638C17.0815 98.0752 16.7874 95.2178 16.7874 92.4024C16.7874 63.2194 16.7874 34.0364 16.7874 4.85333C16.7874 4.41212 16.7874 3.9499 16.7874 3.42465C39.1421 3.42465 61.4548 3.42465 83.8306 3.42465C83.8306 21.2622 83.8306 39.0998 83.8306 56.9164C80.6791 57.3576 80.6791 57.3576 80.469 60.383C79.1243 60.383 77.7797 60.404 76.435 60.362C76.2039 60.362 75.9518 60.1309 75.7627 59.9418C74.1449 58.345 72.5272 56.7483 70.9514 55.1095C70.6573 54.7943 70.4892 54.2691 70.4892 53.8279C70.4472 51.1386 70.4682 48.4493 70.4682 45.76C70.4682 44.1842 69.9009 43.596 68.3041 43.638C67.2536 43.659 66.1821 43.659 65.1946 43.9321C62.4003 44.6675 60.4464 47.2937 60.4043 50.2352C60.3623 53.1976 60.4043 56.181 60.3833 59.1434C60.3833 59.5216 60.3833 59.8998 60.3833 60.404C56.5385 60.404 52.8197 60.404 49.1219 60.404C45.6553 60.404 43.5963 62.463 43.5963 65.9507C43.5963 72.3378 43.5963 78.7459 43.5963 85.1329C43.5963 88.4945 45.6763 90.5745 48.9959 90.5956C55.3829 90.5956 61.791 90.6166 68.1781 90.5745C68.8084 90.5745 69.4807 90.3855 70.069 90.1123C71.2245 89.6081 72.4011 89.1248 73.4306 88.4105C75.5946 86.9188 77.9898 87.1919 80.2379 87.2549C80.511 88.2424 80.49 89.398 81.0573 90.0073C81.6035 90.5745 82.7381 90.5535 83.9146 90.8687C83.8516 92.8016 83.9356 95.0077 83.5785 97.1297ZM47.0419 80.5107C47.0419 79.3762 47.0419 78.3046 47.0419 77.1701C51.475 77.1701 55.8662 77.1701 60.3203 77.1701C60.3203 76.0356 60.3203 74.985 60.3203 73.8295C55.9292 73.8295 51.5381 73.8295 47.0629 73.8295C47.0629 72.6949 47.0629 71.6444 47.0629 70.4679C51.454 70.4679 55.8662 70.4679 60.3413 70.4679C60.3413 69.3123 60.3413 68.2828 60.3413 67.1273C55.9502 67.1273 51.5381 67.1273 46.9789 67.1273C46.9789 66.476 46.9579 65.9297 46.9789 65.3834C47.0629 64.2909 47.7353 63.7236 48.9748 63.7236C53.0928 63.7236 57.2318 63.7236 61.3498 63.7236C63.2617 63.7236 63.7449 63.2194 63.7449 61.2865C63.7449 57.6517 63.766 54.017 63.7239 50.3822C63.7029 48.8275 65.0055 46.9366 67.0855 46.9996C67.0855 49.4578 67.1276 51.937 67.0645 54.3951C67.0225 55.5297 67.3797 56.3701 68.1991 57.1685C70.153 59.0174 71.9809 60.9923 73.9559 62.8412C74.4601 63.3034 75.2795 63.6186 75.9728 63.6816C77.4225 63.8077 78.8932 63.7236 80.448 63.7236C80.448 70.4259 80.448 77.0651 80.448 83.8513C79.0403 83.8513 77.6116 83.8093 76.1829 83.8723C75.5106 83.9143 74.7332 83.9774 74.187 84.3345C70.3841 86.8137 66.2451 87.5491 61.749 87.276C57.8201 87.0238 53.8492 87.2129 49.8993 87.2129C47.168 87.2129 46.7478 86.7297 47.0419 83.8723C51.454 83.8723 55.8662 83.8723 60.3203 83.8723C60.3203 82.7168 60.3203 81.6873 60.3203 80.5107C55.8872 80.5107 51.4961 80.5107 47.0419 80.5107ZM100.597 87.1709C95.05 87.1709 89.5453 87.1709 83.9567 87.1709C83.9567 78.3046 83.9567 69.4174 83.9567 60.4671C89.4613 60.4671 94.987 60.4671 100.597 60.4671C100.597 69.3964 100.597 78.2626 100.597 87.1709Z" fill="#00E398"/>
<path d="M28.5738 16.2198C28.5738 16.598 28.5528 16.9972 28.5738 17.3754C28.5948 17.7535 28.6578 18.1317 28.6999 18.5309C29.4562 26.6828 32.4187 33.9733 38.0284 39.9192C41.474 43.5539 45.4869 46.6424 49.2688 49.941C50.0461 50.6344 50.8865 50.3822 51.6429 49.7519C54.0801 47.7139 56.5593 45.718 58.9544 43.638C67.4425 36.2214 71.8126 26.8719 72.1277 15.6105C72.1698 14.0348 71.5815 13.4465 70.0057 13.4465C63.1985 13.4885 57.1055 11.4505 51.6849 7.33253C50.5924 6.49213 50.1302 6.59718 48.9536 7.33253C46.8316 8.65617 44.7096 10.0428 42.4615 11.1143C38.7427 12.8582 34.7508 13.4885 30.6538 13.4675C29.3932 13.4465 28.6999 13.9297 28.5528 14.8962C28.4898 15.3374 28.5318 15.7996 28.5318 16.2618C28.5528 16.2198 28.5738 16.2198 28.5738 16.2198ZM40.5286 15.3584C43.8271 14.518 46.8316 12.9422 49.6259 10.9883C50.0461 10.6941 50.3613 10.5051 50.9075 10.8832C56.097 14.539 61.8748 16.4509 68.1989 16.7661C68.3669 16.7661 68.535 16.8291 68.7451 16.8501C68.409 22.9851 66.5601 28.5737 63.2825 33.7002C60.7193 37.7131 57.2526 40.8226 53.5968 43.764C52.5463 44.6255 51.4958 45.5079 50.3613 46.4323C49.731 45.9281 49.1217 45.4238 48.5124 44.9196C45.4239 42.3144 42.1673 39.8772 39.6041 36.7047C34.9399 30.9269 32.3976 24.3507 31.9564 17.0602C34.8768 16.4929 37.7342 16.0727 40.5286 15.3584Z" fill="#00E398"/>
<path d="M22.2497 67.0852C26.4307 67.0852 30.6327 67.0852 34.8137 67.0852C36.3055 67.0852 36.8937 66.497 36.8937 64.9842C36.8937 61.8747 36.9358 58.7652 36.8727 55.6557C36.8517 54.7523 37.0828 54.08 37.7552 53.4707C39.0158 52.3151 40.1923 51.0755 41.3689 49.899C40.5705 49.0796 39.8352 48.3232 38.9737 47.4408C38.4065 48.0501 37.8392 48.5753 37.356 49.1636C36.6206 50.0671 35.8012 50.4032 34.5406 50.3612C30.4226 50.2141 26.3047 50.2982 22.1867 50.3192C20.737 50.3192 20.1277 50.9075 20.1277 52.3362C20.1277 56.5592 20.1277 60.7822 20.1277 65.0052C20.1487 66.518 20.737 67.0852 22.2497 67.0852ZM23.5523 53.7648C26.5358 53.7648 29.5402 53.7648 32.3346 53.7648C31.116 55.0044 29.7503 56.3491 28.2586 57.8618C27.7754 57.2945 27.1661 56.5592 26.4937 55.7608C25.6113 56.6852 24.918 57.4626 24.0776 58.345C25.1701 59.4166 26.2626 60.5511 27.4182 61.6016C28.2166 62.337 29.057 62.2319 29.9184 61.3705C31.0739 60.2149 32.1665 59.0174 33.5111 57.6307C33.5111 59.8578 33.5111 61.7277 33.5111 63.6606C30.2335 63.6606 26.935 63.6606 23.5733 63.6606C23.5523 60.383 23.5523 57.1265 23.5523 53.7648Z" fill="#00E398"/>
<path d="M36.5366 70.1107C36.3265 70.3208 36.0323 70.5309 35.7802 70.5309C31.242 70.5099 26.7038 70.4679 22.1867 70.4469C20.758 70.4469 20.1487 71.0562 20.1487 72.4849C20.1487 76.7079 20.1487 80.9309 20.1487 85.154C20.1487 86.6037 20.758 87.213 22.1657 87.213C26.3887 87.213 30.6117 87.213 34.8347 87.213C36.3265 87.213 36.8937 86.6037 36.9147 85.0909C36.9147 81.8344 36.8937 78.5988 36.9358 75.3422C36.9358 74.859 37.1879 74.2707 37.524 73.9136C38.7846 72.5899 40.1503 71.3293 41.4949 70.0267C40.6125 69.1443 39.8772 68.4089 38.9947 67.5265C38.1333 68.4509 37.3349 69.3124 36.5366 70.1107ZM33.5111 83.8093C30.1915 83.8093 26.9349 83.8093 23.5733 83.8093C23.5733 80.5317 23.5733 77.2332 23.5733 73.8715C26.5568 73.8715 29.5822 73.8715 32.5026 73.8715C31.179 75.1952 29.8343 76.5398 28.3216 78.0526C27.8384 77.4222 27.2711 76.6449 26.6408 75.7835C25.6743 76.855 24.96 77.6534 24.2667 78.4517C25.2541 79.4812 26.3467 80.6998 27.5442 81.8134C28.2376 82.4647 29.099 82.3176 29.8764 81.5402C31.0529 80.3847 32.1665 79.1871 33.5321 77.8004C33.5111 80.0275 33.5111 81.8764 33.5111 83.8093Z" fill="#00E398"/>
<path d="M49.2688 41.537C50.0462 42.2303 50.8866 41.9992 51.6219 41.3479C53.4918 39.7301 55.4248 38.1544 57.2527 36.4946C61.4547 32.6497 64.123 27.9225 65.3205 22.3758C65.5937 21.1152 64.9213 20.1907 63.6607 20.1487C59.1646 20.0647 55.2147 18.5099 51.706 15.7366C51.3068 15.4215 50.8236 15.2324 50.2983 14.9592C49.7731 15.2744 49.2478 15.4845 48.8276 15.8206C45.3819 18.552 41.4741 20.0437 37.0619 20.1487C35.6543 20.1907 35.024 21.0732 35.3181 22.4808C36.2636 26.8299 38.0284 30.8219 41.0749 34.0574C43.6381 36.7257 46.5165 39.0788 49.2688 41.537ZM50.3193 18.8671C53.7019 21.4093 57.3787 22.88 61.5597 23.3843C59.8999 29.8974 55.3617 34.0784 50.3403 37.9653C45.3609 34.1415 40.8228 29.9394 39.0789 23.4053C43.2389 22.88 46.9787 21.4303 50.3193 18.8671Z" fill="#00E398"/>
</g>
<defs>
<clipPath id="clip0_50_2161">
<rect width="104" height="104" fill="white"/>
</clipPath>
</defs>
</svg>
