<svg width="53" height="54" viewBox="0 0 53 54" fill="none" xmlns="http://www.w3.org/2000/svg">
<path d="M50.3561 1.40745C48.4745 1.08335 46.5691 0.916526 44.6598 0.908703C38.1455 0.903362 31.7671 2.77133 26.2848 6.28995C20.7885 2.81753 14.411 0.995409 7.90983 1.03995C6.00052 1.04778 4.09519 1.2146 2.21358 1.5387C1.59725 1.64496 1.0391 1.96778 0.639664 2.44903C0.240224 2.93029 0.0257369 3.53834 0.0348291 4.1637V35.6637C0.0292072 36.0494 0.10866 36.4316 0.267535 36.7831C0.42641 37.1346 0.660802 37.4468 0.954034 37.6974C1.24727 37.948 1.59213 38.131 1.96409 38.2332C2.33605 38.3354 2.72596 38.3543 3.10608 38.2887C6.86775 37.6374 10.7217 37.7455 14.441 38.6065C18.1603 39.4676 21.6696 41.0643 24.7623 43.3025L25.0773 43.4862H25.3661C25.6572 43.6075 25.9694 43.67 26.2848 43.67C26.6002 43.67 26.9125 43.6075 27.2036 43.4862H27.4923L27.8073 43.3025C30.8785 41.0142 34.3777 39.3658 38.0977 38.455C41.8177 37.5442 45.6827 37.3894 49.4636 38C49.8437 38.0656 50.2336 38.0466 50.6056 37.9444C50.9775 37.8422 51.3224 37.6593 51.6156 37.4087C51.9088 37.158 52.1432 36.8459 52.3021 36.4944C52.461 36.1429 52.5404 35.7607 52.5348 35.375V3.87495C52.5075 3.27686 52.2766 2.70607 51.8803 2.25726C51.484 1.80846 50.9462 1.50861 50.3561 1.40745ZM23.6598 36.2937C18.8033 33.7388 13.3974 32.4053 7.90983 32.4087C7.04358 32.4087 6.17733 32.4087 5.28483 32.4087V6.1587C6.1591 6.10832 7.03555 6.10832 7.90983 6.1587C13.51 6.15251 18.9879 7.79589 23.6598 10.8837V36.2937ZM47.2848 32.5137C46.3923 32.5137 45.5261 32.5137 44.6598 32.5137C39.1722 32.5103 33.7664 33.8438 28.9098 36.3987V10.8837C33.5818 7.79589 39.0597 6.15251 44.6598 6.1587C45.5341 6.10832 46.4105 6.10832 47.2848 6.1587V32.5137ZM50.3561 43.4075C48.4745 43.0834 46.5691 42.9165 44.6598 42.9087C38.1455 42.9034 31.7671 44.7713 26.2848 48.29C20.8026 44.7713 14.4241 42.9034 7.90983 42.9087C6.00052 42.9165 4.09519 43.0834 2.21358 43.4075C1.87188 43.4617 1.54426 43.5829 1.24958 43.7642C0.954897 43.9455 0.698957 44.1832 0.496479 44.4638C0.294001 44.7443 0.148978 45.0621 0.0697515 45.3989C-0.00947537 45.7357 -0.0213436 46.0848 0.0348291 46.4262C0.168228 47.1079 0.566366 47.7089 1.14203 48.0976C1.71769 48.4863 2.42394 48.631 3.10608 48.5C6.86775 47.8487 10.7217 47.9567 14.441 48.8178C18.1603 49.6789 21.6696 51.2755 24.7623 53.5137C25.2069 53.8302 25.7391 54.0003 26.2848 54.0003C26.8306 54.0003 27.3628 53.8302 27.8073 53.5137C30.9 51.2755 34.4094 49.6789 38.1287 48.8178C41.8479 47.9567 45.7019 47.8487 49.4636 48.5C50.1457 48.631 50.852 48.4863 51.4276 48.0976C52.0033 47.7089 52.4014 47.1079 52.5348 46.4262C52.591 46.0848 52.5791 45.7357 52.4999 45.3989C52.4207 45.0621 52.2757 44.7443 52.0732 44.4638C51.8707 44.1832 51.6148 43.9455 51.3201 43.7642C51.0254 43.5829 50.6978 43.4617 50.3561 43.4075Z" fill="white"/>
</svg>
