<svg width="431" height="389" viewBox="0 0 431 389" fill="none" xmlns="http://www.w3.org/2000/svg">
<path d="M196.7 388.8C291.03 388.8 367.5 382.084 367.5 373.8C367.5 365.516 291.03 358.8 196.7 358.8C102.37 358.8 25.9 365.516 25.9 373.8C25.9 382.084 102.37 388.8 196.7 388.8Z" fill="#EDEDED"/>
<path opacity="0.5" d="M196.7 388.8C291.03 388.8 367.5 382.084 367.5 373.8C367.5 365.516 291.03 358.8 196.7 358.8C102.37 358.8 25.9 365.516 25.9 373.8C25.9 382.084 102.37 388.8 196.7 388.8Z" fill="#EDEDED"/>
<path d="M206.075 65.6378C203.528 65.4464 200.918 66.2118 198.434 65C200.981 65 203.528 65 206.075 65C206.457 65.1913 206.457 65.3827 206.075 65.6378Z" fill="#89D07A"/>
<path d="M199.007 370.426C201.172 370.426 203.273 370.426 205.438 370.426C205.884 370.681 205.82 370.872 205.375 371C203.273 371 201.109 371 199.007 371C198.562 370.809 198.562 370.617 199.007 370.426Z" fill="#89D07B"/>
<path d="M354.427 220.615C354.427 218.893 354.427 217.171 354.427 215.449C354.618 215.003 354.873 215.003 355 215.513C355 217.235 355 218.893 355 220.615C354.809 220.998 354.618 220.998 354.427 220.615Z" fill="#8FD381"/>
<path d="M199.007 370.426C199.007 370.617 199.007 370.809 199.071 371C197.607 371 196.079 371 194.614 371C195.951 370.043 197.479 370.49 199.007 370.426Z" fill="#9AD78E"/>
<path d="M206.075 65.6378C206.075 65.4464 206.075 65.2551 206.075 65C207.348 65 208.622 65 209.895 65C208.685 65.8929 207.348 65.574 206.075 65.6378Z" fill="#27CF02"/>
<path d="M355 215.449C354.809 215.449 354.618 215.449 354.427 215.385C354.427 214.11 354.109 212.77 355 211.622C355 212.898 355 214.173 355 215.449Z" fill="#27CF02"/>
<path d="M354.427 220.615C354.618 220.615 354.809 220.615 355 220.551C355 221.827 355 223.102 355 224.378C354.109 223.23 354.427 221.89 354.427 220.615Z" fill="#27CF02"/>
<path d="M205.375 371C205.375 370.809 205.375 370.617 205.438 370.426C206.712 370.49 208.049 370.107 209.195 371C207.921 371 206.648 371 205.375 371Z" fill="#27CF02"/>
<path d="M193.914 65C193.468 65.5102 193.086 65.574 192.64 65C193.086 65 193.532 65 193.914 65Z" fill="#BBE4B2"/>
<path d="M355 209.071C354.491 208.625 354.3 208.242 355 207.796C355 208.242 355 208.625 355 209.071Z" fill="#CDEBC7"/>
<path d="M274.775 165.703C274.521 165.703 274.202 165.703 273.948 165.767C273.566 165.321 273.247 164.874 272.865 164.428C273.948 164.173 274.33 165.065 274.775 165.703Z" fill="#00C90C"/>
<path d="M206.5 366C292.38 366 362 296.38 362 210.5C362 124.62 292.38 55 206.5 55C120.62 55 51 124.62 51 210.5C51 296.38 120.62 366 206.5 366Z" fill="#11B881"/>
<path d="M359.213 239.798L269.893 146.848L140.385 271.43L229.64 364.315C294.913 354.527 346.962 304.228 359.213 239.798Z" fill="#018E60"/>
<path d="M207.148 300.468C256.836 300.468 297.116 260.188 297.116 210.5C297.116 160.812 256.836 120.532 207.148 120.532C157.46 120.532 117.18 160.812 117.18 210.5C117.18 260.188 157.46 300.468 207.148 300.468Z" fill="#E2FFF6"/>
<path d="M195.481 246.993C192.37 247.123 189.777 245.956 187.573 243.882C177.85 234.937 168.063 226.121 158.405 217.112C153.414 212.445 153.089 205.898 157.367 201.296C161.645 196.694 168.192 196.499 173.183 201.101C179.795 207.065 186.406 213.093 192.888 219.251C194.703 220.936 195.675 220.806 197.425 219.121C211.426 205.574 225.492 192.091 239.558 178.609C241.567 176.665 243.576 174.785 246.428 174.202C251.29 173.229 256.021 175.239 258.355 179.387C260.753 183.6 260.235 188.591 256.734 192.286C254.595 194.555 252.262 196.694 249.993 198.897C234.631 213.611 219.269 228.26 203.972 242.974C201.574 245.308 198.916 247.058 195.481 246.993Z" fill="#00E398"/>
<path d="M150.045 289.812C150.045 290.131 150.045 290.386 149.981 290.705C149.281 290.259 148.453 289.876 148.644 288.792C149.154 289.111 149.599 289.43 150.045 289.812Z" fill="#27CF02"/>
<path d="M74.1 251.1L61 368.1C61 368.1 51.4 376.4 52.2 379.8C53 383.2 64.1 377.8 65.6 375C67.1 372.2 67.9 367.7 67.9 367.7L95.4 279.7L116.6 374.1C116.6 374.1 125.7 381.5 130.6 381.2C135.6 380.9 133.8 379 131 375.4C128.1 371.8 121.7 369.7 121.7 369.7L118.5 248.1L74.1 251.1Z" fill="#263238" stroke="#263238" stroke-miterlimit="10" stroke-linecap="round" stroke-linejoin="round"/>
<path d="M117.92 246.086L73.977 248.319L74.2814 254.311L118.224 252.078L117.92 246.086Z" fill="#263238" stroke="#263238" stroke-miterlimit="10" stroke-linecap="round" stroke-linejoin="round"/>
<path d="M101.3 249.9C101.4 251.4 99.5 252.7 97.1 252.8C94.7 252.9 92.7 251.8 92.6 250.3C92.5 248.8 94.4 247.5 96.8 247.4C99.2 247.3 101.2 248.4 101.3 249.9Z" fill="white"/>
<path d="M93.7 188.4L77.2 193.2L79.3 248.4L118 247.5L113.1 190.4L93.7 188.4Z" fill="white" stroke="#263238" stroke-miterlimit="10" stroke-linecap="round" stroke-linejoin="round"/>
<path d="M86.5 189L84.3 283.2L63.2 273L72.5 243.3L66.2 193L86.5 189Z" fill="#00E398" stroke="#263238" stroke-miterlimit="10" stroke-linecap="round" stroke-linejoin="round"/>
<path d="M103.2 188.1L115 281.7L134.9 269.4L122.7 240.7L123.9 190.1L103.2 188.1Z" fill="#00E398" stroke="#263238" stroke-miterlimit="10" stroke-linecap="round" stroke-linejoin="round"/>
<path d="M90.7 199.5L94 204.9L91.4 242.1L97.6 249.4L100.8 240.6L95.8 205L98.9 199.8L94.4 194L90.7 199.5Z" fill="#263238" stroke="#263238" stroke-miterlimit="10" stroke-linecap="round" stroke-linejoin="round"/>
<path d="M94.8 198.8L88.6 203.5L83.6 191.4L86.4 187.1L101.6 186.3L105.1 191.1L102.2 202.1L94.8 198.8Z" fill="white" stroke="#263238" stroke-miterlimit="10" stroke-linecap="round" stroke-linejoin="round"/>
<path d="M87.7 182.4L89.1 190.1L94.8 198.8L100 188.6L99.7 182.1L87.7 182.4Z" fill="white" stroke="#263238" stroke-miterlimit="10" stroke-linecap="round" stroke-linejoin="round"/>
<path d="M66.2 193L38.1 227L56.8 249.1L64.3 244.2L55.1 225.4L68.8 215.4L66.2 193Z" fill="#00E398" stroke="#263238" stroke-miterlimit="10" stroke-linecap="round" stroke-linejoin="round"/>
<path d="M64.3 244.2L65.4 246.6L59.1 250.2L58.2 248.3L64.3 244.2Z" fill="white" stroke="#263238" stroke-miterlimit="10" stroke-linecap="round" stroke-linejoin="round"/>
<path d="M65.4 246.6L71.8 255L69.7 257.6L68.2 256.9L65.1 259.6C65.1 259.6 62.8 259 62.5 258.2C62.2 257.5 59.1 255.6 59.1 254.4C59 253.2 59.1 250.1 59.1 250.1L65.4 246.6Z" fill="white" stroke="#263238" stroke-miterlimit="10" stroke-linecap="round" stroke-linejoin="round"/>
<path d="M139.5 196.7C139.5 196.7 140.2 194.8 139.7 193.6C139.2 192.4 138.2 188.3 138.4 186.9C138.6 185.5 140.7 183.6 140.8 181.8C141 180 140.8 178.4 140.9 177.5C141 176.6 142.2 175.8 143.2 177C144.2 178.2 144.8 179.3 144.3 180.6C143.8 181.8 143.8 184.8 143.8 184.8C143.8 184.8 145.4 187 146.3 188.4C147.2 189.8 147.1 193.6 146.5 195.1C145.9 196.6 144.2 198 144.2 198L144.3 200.6L139.5 196.7Z" fill="white" stroke="#263238" stroke-miterlimit="10" stroke-linecap="round" stroke-linejoin="round"/>
<path d="M142.4 182.7C142.4 182.7 141.7 184.8 142.9 185.2C144.1 185.7 149.2 186.4 149.2 184.7C149.3 183.1 149.3 182.3 148.5 182.3C147.7 182.3 143.9 182.3 143.9 182.3C143.9 182.3 142.3 182.3 142.4 182.7Z" fill="white" stroke="#263238" stroke-miterlimit="10" stroke-linecap="round" stroke-linejoin="round"/>
<path d="M143 192.8C143 192.8 142.5 194.3 143.4 194.7C144.3 195.1 147.9 195.6 147.9 194.4C147.9 193.2 148 192.6 147.4 192.6C146.8 192.6 144.1 192.6 144.1 192.6C144.1 192.6 142.9 192.5 143 192.8Z" fill="white" stroke="#263238" stroke-miterlimit="10" stroke-linecap="round" stroke-linejoin="round"/>
<path d="M142.3 189.5C142.3 189.5 141.7 191.3 142.7 191.7C143.7 192.1 147.9 192.7 148 191.3C148 189.9 148.1 189.2 147.4 189.2C146.7 189.2 143.6 189.2 143.6 189.2C143.6 189.2 142.2 189.2 142.3 189.5Z" fill="white" stroke="#263238" stroke-miterlimit="10" stroke-linecap="round" stroke-linejoin="round"/>
<path d="M141.9 186.4C141.9 186.4 141.2 188.5 142.4 188.9C143.6 189.4 148.7 190.1 148.7 188.4C148.8 186.8 148.8 186 148 186C147.2 186 143.4 186 143.4 186C143.4 186 141.8 186 141.9 186.4Z" fill="white" stroke="#263238" stroke-miterlimit="10" stroke-linecap="round" stroke-linejoin="round"/>
<path d="M138.9 198.8L139.7 195.6L145.1 198.9L144.2 202.3L138.9 198.8Z" fill="white" stroke="#263238" stroke-miterlimit="10" stroke-linecap="round" stroke-linejoin="round"/>
<path d="M123.9 190.1L134.3 212.2L139.4 198L144.4 202.8L139.3 229.1C138.6 232.7 133.9 233.8 131.7 230.8L123.4 219.2L123.9 190.1Z" fill="#00E398" stroke="#263238" stroke-miterlimit="10" stroke-linecap="round" stroke-linejoin="round"/>
<path d="M82.8 173.4C82.8 173.4 80.7 171.2 80.4 172.8C80.1 174.4 81 177.3 82.3 178.3C83.6 179.3 84.8 177.6 84.8 177.6L82.8 173.4Z" fill="white" stroke="#263238" stroke-miterlimit="10" stroke-linecap="round" stroke-linejoin="round"/>
<path d="M102.7 172.4C102.7 172.4 104.6 170 105 171.6C105.4 173.2 104.9 176.1 103.7 177.3C102.5 178.4 101.2 176.9 101.2 176.9L102.7 172.4Z" fill="white" stroke="#263238" stroke-miterlimit="10" stroke-linecap="round" stroke-linejoin="round"/>
<path d="M83.7 175.7L81.7 171.5C81.7 171.5 79.4 168.6 78.4 163.9C77.4 159.3 79 155.4 81.1 154.2C83.2 153 85 153.5 85 153.5C85 153.5 85.4 150.8 91.9 148.5C98.4 146.2 105.7 150.3 105.6 151.8C105.5 153.2 103.7 153.9 103.7 153.9C103.7 153.9 108.8 155.8 107 158.2C105.1 160.6 102.7 161.7 102.7 161.7C102.7 161.7 103.3 163.8 103.6 165.4C103.9 167 102.4 173.9 102.4 173.9L98.8 164.2L87.7 164.8C87.7 164.8 87 169.5 85.9 171.2C84.7 172.9 84.7 175.4 84.7 175.4C84.7 175.4 84.3 177.1 83.7 175.7Z" fill="#263238" stroke="#263238" stroke-miterlimit="10" stroke-linecap="round" stroke-linejoin="round"/>
<path d="M85.7 158.2C85.7 158.2 85.6 164 85.1 166.9C84.5 169.8 82.8 171 82.8 171C82.8 171 84.2 177.6 86 181.1C87.8 184.6 91.5 187.5 95.3 187.1C99.1 186.7 102.1 182.4 102.4 178.8C102.8 175.2 101 161.8 101 161.8C101 161.8 89.2 163.7 85.7 158.2Z" fill="white" stroke="#263238" stroke-miterlimit="10" stroke-linecap="round" stroke-linejoin="round"/>
<path d="M86.7 171.7C86.7 171.7 88.8 170.4 90.7 171.5" stroke="#263238" stroke-miterlimit="10" stroke-linecap="round" stroke-linejoin="round"/>
<path d="M86.5 168.7C86.5 168.7 86.7 166.7 90.1 166.5" stroke="#263238" stroke-miterlimit="10" stroke-linecap="round" stroke-linejoin="round"/>
<path d="M95.4 166.1C95.4 166.1 98 165 99.8 167.2" stroke="#263238" stroke-miterlimit="10" stroke-linecap="round" stroke-linejoin="round"/>
<path d="M94.2 169.3C94.2 169.3 94.7 173.3 94.8 173.8C94.8 174.3 96.5 174.4 96.1 175.4C95.7 176.4 94.2 177.5 93 176.7" stroke="#263238" stroke-miterlimit="10" stroke-linecap="round" stroke-linejoin="round"/>
<path d="M96.1 180.1C96.1 180.1 94.8 181.3 92.3 180.3" stroke="#263238" stroke-miterlimit="10" stroke-linecap="round" stroke-linejoin="round"/>
<path d="M98.6 170.6C98.6 171.3 98.3 172 97.8 172C97.3 172 96.9 171.4 96.9 170.7C96.9 170 97.2 169.3 97.7 169.3C98.2 169.3 98.6 169.8 98.6 170.6Z" fill="#263238"/>
<path d="M159.34 8.61406L157.356 6.89364L154.843 7.55534C154.579 7.68768 154.314 7.29066 154.446 7.02598L155.504 4.64385L154.05 2.39406C153.917 2.12938 154.05 1.8647 154.446 1.8647L157.092 2.12938L158.811 0.144273C158.943 -0.120407 159.34 0.0119335 159.472 0.276614L160.001 2.79108L162.382 3.71747C162.647 3.84981 162.647 4.24683 162.382 4.37917L160.134 5.70257L160.001 8.34938C160.001 8.7464 159.605 8.87874 159.34 8.61406Z" fill="#C8F8E8"/>
<path d="M396.356 284.325C392.785 285.252 388.288 286.575 385.643 289.222C382.336 292.53 381.146 297.559 380.088 302.456C379.956 302.985 379.294 302.985 379.294 302.456C378.501 298.486 377.31 293.721 375.062 290.678C372.152 286.84 367.523 285.384 363.158 284.193C362.762 284.06 362.762 283.399 363.158 283.266C366.994 282.208 371.491 280.884 374.268 277.84C377.178 274.664 378.368 269.635 379.294 265.003C379.427 264.474 380.088 264.474 380.088 265.003C381.014 269.371 382.601 274.267 385.246 277.443C388.156 280.752 392.124 282.208 396.224 283.266C396.753 283.663 396.753 284.325 396.356 284.325Z" fill="#C8F8E8"/>
<path d="M84.7797 72.2417C81.2087 73.1681 76.7118 74.4915 74.0665 77.1383C70.76 80.4468 69.5697 85.4757 68.5116 90.3723C68.3793 90.9017 67.718 90.9017 67.718 90.3723C66.9244 86.4021 65.7341 81.6378 63.4856 78.594C60.5759 74.7561 55.9467 73.3004 51.5821 72.1093C51.1853 71.977 51.1853 71.3153 51.5821 71.183C55.4177 70.1242 59.9146 68.8008 62.6921 65.757C65.6018 62.5808 66.7922 57.5519 67.718 52.92C67.8503 52.3906 68.5116 52.3906 68.5116 52.92C69.4374 57.2872 71.0245 62.1838 73.6698 65.36C76.5795 68.6685 80.5474 70.1242 84.6475 71.183C85.3088 71.4476 85.3088 72.1093 84.7797 72.2417Z" fill="#C8F8E8"/>
<path d="M332.846 52.8907C327.687 54.2142 321.339 56.0669 317.636 59.9048C313.006 64.5367 311.287 71.6831 309.832 78.8295C309.7 79.4912 308.774 79.4912 308.642 78.8295C307.451 73.1388 305.864 66.2571 302.558 62.0222C298.325 56.5963 291.845 54.4788 285.496 52.7584C284.835 52.6261 284.835 51.6997 285.496 51.5673C291.051 50.1116 297.4 48.2588 301.367 43.8916C305.467 39.392 307.187 32.1133 308.642 25.4963C308.774 24.8346 309.7 24.8346 309.832 25.4963C311.155 31.7163 313.403 38.7303 317.239 43.2299C321.339 47.9941 327.158 49.9793 332.978 51.5673C333.507 51.832 333.507 52.7584 332.846 52.8907Z" fill="#C8F8E8"/>
<path d="M48.011 163.424C42.8528 164.748 36.5042 166.6 32.8009 170.438C28.1717 175.07 26.4523 182.217 24.9975 189.363C24.8652 190.025 23.9394 190.025 23.8071 189.363C22.6168 183.672 21.0296 176.791 17.7231 172.556C13.4907 167.13 7.00988 165.012 0.661325 163.292C1.72406e-05 163.16 1.72406e-05 162.233 0.661325 162.101C6.21631 160.645 12.5649 158.792 16.5327 154.425C20.6328 149.925 22.3522 142.647 23.8071 136.03C23.9394 135.368 24.8652 135.368 24.9975 136.03C26.3201 142.25 28.5685 149.264 32.4041 153.763C36.5042 158.528 42.3237 160.513 48.1432 162.101C48.6723 162.365 48.6723 163.16 48.011 163.424Z" fill="#C8F8E8"/>
<path d="M430.48 170.512C425.321 171.836 418.973 173.689 415.269 177.526C410.64 182.158 408.921 189.305 407.466 196.451C407.334 197.113 406.408 197.113 406.276 196.451C405.085 190.761 403.498 183.879 400.192 179.644C395.959 174.218 389.478 172.101 383.13 170.38C382.469 170.248 382.469 169.321 383.13 169.189C388.685 167.733 395.033 165.881 399.001 161.513C403.101 157.014 404.821 149.735 406.276 143.118C406.408 142.456 407.334 142.456 407.466 143.118C408.789 149.338 411.037 156.352 414.873 160.852C418.973 165.616 424.792 167.601 430.612 169.189C431.141 169.454 431.141 170.38 430.48 170.512Z" fill="#C8F8E8"/>
<path d="M387.759 131.869C386.04 132.266 383.923 132.928 382.601 134.251C381.014 135.839 380.485 138.221 379.956 140.736C379.956 141.001 379.559 141.001 379.559 140.736C379.162 138.751 378.633 136.501 377.443 135.045C375.988 133.192 373.872 132.531 371.623 131.869C371.359 131.869 371.359 131.472 371.623 131.472C373.475 130.943 375.723 130.413 377.046 128.825C378.501 127.237 379.03 124.855 379.559 122.605C379.559 122.341 379.956 122.341 379.956 122.605C380.352 124.723 381.146 127.105 382.469 128.561C383.791 130.149 385.775 130.81 387.759 131.34C388.024 131.472 388.024 131.737 387.759 131.869Z" fill="#C8F8E8"/>
<path d="M371.334 91.4623C369.615 91.8594 367.499 92.5211 366.176 93.8445C364.589 95.4326 364.06 97.8147 363.531 100.329C363.531 100.594 363.134 100.594 363.134 100.329C362.737 98.344 362.208 96.0943 361.018 94.6385C359.563 92.7857 357.447 92.124 355.198 91.4623C354.934 91.4623 354.934 91.0653 355.198 91.0653C357.05 90.536 359.299 90.0066 360.621 88.4185C362.076 86.8304 362.605 84.4483 363.134 82.1985C363.134 81.9338 363.531 81.9338 363.531 82.1985C363.928 84.316 364.721 86.6981 366.044 88.1538C367.366 89.7419 369.35 90.4036 371.334 90.933C371.599 91.0653 371.599 91.4623 371.334 91.4623Z" fill="#D1F0F2"/>
<path d="M234.013 14.9138C231.633 17.5606 228.855 20.8691 228.062 24.4423C227.136 28.6772 228.855 33.3091 230.575 37.8087C230.707 38.2057 230.178 38.6028 229.913 38.2057C227.136 35.4266 223.829 32.2504 220.391 31.0593C216.158 29.6036 211.661 30.6623 207.561 32.1181C207.164 32.2504 206.768 31.721 207.164 31.4564C209.81 28.6772 212.587 25.2364 213.248 21.3985C213.91 17.2959 212.19 12.7964 210.603 8.56147C210.471 8.16445 211 7.76743 211.264 8.16445C214.306 11.2083 218.01 14.2521 221.713 15.4432C225.681 16.6342 229.649 15.7079 233.484 14.3845C234.013 14.1198 234.278 14.6491 234.013 14.9138Z" fill="#C8F8E8"/>
</svg>
