<svg width="47" height="53" viewBox="0 0 47 53" fill="none" xmlns="http://www.w3.org/2000/svg">
<path d="M33.3448 46.7488H12.6091V52.638H33.3448V46.7488Z" fill="#00E398"/>
<path fill-rule="evenodd" clip-rule="evenodd" d="M23 38.1659C27.046 35.6549 29.2069 33.8745 31.2299 29.3092L31.3679 28.944C32.9771 25.1091 33.6667 20.7264 33.6667 16.6177V0H12.3334V16.6177C12.3334 20.7721 12.9771 25.1091 14.6322 28.944L14.7702 29.3092C16.7931 33.8288 18.9541 35.6549 23 38.1659ZM22.5862 30.6331C19.2759 27.1178 18.3104 21.3199 18.3104 16.6633V5.88923H27.7357V16.6177C27.7357 21.2743 26.7702 27.1179 23.4598 30.5875L23.046 30.9984L22.5862 30.6331Z" fill="#00E398"/>
<path fill-rule="evenodd" clip-rule="evenodd" d="M9.2529 13.8785V7.98926H0.195435V24.9265C0.195435 29.857 1.71268 34.7875 5.29888 38.3028C8.79313 41.7268 13.3908 43.0051 18.1724 43.0964V37.1615C15.046 37.0702 11.7357 36.3397 9.43681 34.0571C7.00003 31.6831 6.12647 28.1679 6.12647 24.8808V13.8785H9.2529Z" fill="#00E398"/>
<path fill-rule="evenodd" clip-rule="evenodd" d="M37.4138 8V13.8892H41.046V24.9372C41.046 28.2243 40.1724 31.7395 37.7356 34.1135C35.4368 36.3505 32.1724 37.1266 29 37.2179V43.1071C33.7816 43.0158 38.3793 41.7375 41.8736 38.3136C45.4598 34.7983 46.931 29.8678 46.931 24.9372V8H37.4138Z" fill="#00E398"/>
</svg>
