<svg width="104" height="104" viewBox="0 0 104 104" fill="none" xmlns="http://www.w3.org/2000/svg">
<g clip-path="url(#clip0_50_2149)">
<path d="M68.5879 55.6259C68.2188 55.17 67.8497 54.714 67.4589 54.2364C67.8714 53.7153 68.284 53.1942 68.6748 52.6514C69.7387 51.1967 70.6288 49.6769 71.0414 47.9182C71.8664 44.5094 70.1946 41.8823 66.7424 41.0572C64.5495 40.5361 62.3783 40.7098 60.1854 41.1007C59.838 41.1658 59.7078 41.1007 59.5775 40.775C58.8827 38.8209 57.9925 36.932 56.603 35.347C55.6476 34.2614 54.5403 33.3929 53.0856 33.089C51.327 32.7199 49.8288 33.3061 48.5044 34.4568C47.028 35.7378 46.0727 37.3662 45.2911 39.1249C44.9871 39.7762 44.7483 40.471 44.466 41.1441C43.7495 41.0355 43.0547 40.927 42.3382 40.8618C40.4059 40.6447 38.4952 40.6664 36.6497 41.3178C34.6739 42.0126 33.3278 43.337 33.0238 45.4865C32.8067 47.0497 33.241 48.5044 33.8923 49.9157C34.6305 51.4789 35.651 52.8685 36.78 54.2146C36.3892 54.6706 36.0201 55.1265 35.651 55.6042C34.4351 57.1675 33.3929 58.8176 32.8719 60.7499C32.7416 61.1842 32.6764 61.6401 32.5896 62.0961C32.5896 62.4652 32.5896 62.8343 32.5896 63.1817C32.6547 63.4856 32.7199 63.7896 32.8067 64.0718C33.3929 66.0693 34.8476 67.1549 36.7583 67.7194C38.5604 68.2405 40.3842 68.2405 42.2297 68.0017C42.9679 67.9148 43.6844 67.7846 44.4009 67.676C44.8134 68.6748 45.2042 69.6518 45.6602 70.6071C46.2681 71.9098 47.0497 73.104 48.0702 74.1244C49.0472 75.1015 50.1762 75.7528 51.5441 76.0351C51.9349 76.0351 52.3257 76.0351 52.7165 76.0351C55.6911 75.4272 57.2543 73.2343 58.5136 70.7591C58.9478 69.9123 59.2518 69.0004 59.6209 68.132C59.686 67.98 59.7512 67.828 59.7946 67.6977C60.8585 67.828 61.879 68.0017 62.8994 68.0885C64.5061 68.2188 66.1128 68.1537 67.676 67.6543C70.7591 66.6556 72.1704 64.1804 71.4105 61.0322C70.9545 59.013 69.8689 57.276 68.5879 55.6259ZM42.0777 65.5048C40.6013 65.6785 39.1466 65.7437 37.6919 65.3746C37.5399 65.3311 37.3879 65.2877 37.2577 65.2443C35.5207 64.6581 34.8259 63.4639 35.2819 61.6835C35.499 60.8368 35.8898 60.0334 36.2806 59.2518C36.5629 58.6656 36.9754 58.1228 37.3662 57.6017C37.7353 57.1023 38.1478 56.6029 38.5387 56.1036C39.5591 56.972 40.471 57.9057 41.5349 58.6439C42.5119 59.3169 42.9679 60.1203 43.0547 61.3144C43.1416 62.6171 43.489 63.8981 43.7278 65.266C43.1633 65.3311 42.6205 65.4397 42.0777 65.5048ZM40.2973 54.2798C41.0572 53.6067 41.752 52.9988 42.5336 52.3257C42.5336 53.6718 42.5336 54.9311 42.5336 56.299C41.752 55.5825 41.0355 54.9528 40.2973 54.2798ZM43.0982 47.1148C43.0113 47.6142 42.9679 48.1136 42.881 48.613C42.8593 48.7432 42.7942 48.9169 42.7073 49.0038C41.3395 50.1111 39.9716 51.2184 38.5604 52.3474C37.3011 50.8059 36.0635 49.1775 35.6293 47.0931C35.2602 45.3779 35.9332 44.2272 37.5833 43.6627C38.7775 43.2501 40.0368 43.185 41.2744 43.2718C42.0994 43.337 42.9462 43.4455 43.7712 43.5541C43.5324 44.7917 43.2936 45.9641 43.0982 47.1148ZM58.6222 46.9629C58.5136 46.9412 58.4702 46.9412 58.4485 46.9194C57.4063 46.3115 56.3641 45.7036 55.2351 45.0522C56.1904 44.7483 57.0589 44.4443 58.0142 44.1403C58.2314 45.0956 58.405 46.0075 58.6222 46.9629ZM48.0702 39.2117C48.6347 38.0827 49.3078 37.0405 50.3065 36.2372C51.5224 35.2601 52.6948 35.2384 53.9324 36.2155C55.1265 37.1708 55.8648 38.4518 56.4944 39.8196C56.7767 40.4276 57.0155 41.0789 57.2977 41.7086C56.2773 42.056 55.3002 42.3817 54.3232 42.729C53.7153 42.9462 53.1291 43.185 52.5211 43.4455C52.2606 43.5541 52.0435 43.5541 51.7612 43.4672C50.1979 42.8593 48.613 42.2948 46.9629 41.6652C47.332 40.8835 47.6794 40.0368 48.0702 39.2117ZM46.2464 44.1403C47.18 44.4443 48.0702 44.7265 49.0472 45.0522C47.8748 45.7253 46.8109 46.3332 45.6384 47.0063C45.8556 46.0075 46.0293 45.0956 46.2464 44.1403ZM45.5733 61.6184C46.7892 62.3349 47.9182 62.9862 49.1124 63.681C48.1136 64.0284 47.18 64.3324 46.1812 64.6798C45.9641 63.6376 45.7687 62.6823 45.5733 61.6184ZM54.3883 72.4092C54.2364 72.5612 54.0844 72.6915 53.9107 72.8217C52.6948 73.7771 51.5224 73.7771 50.3065 72.8217C49.5466 72.2138 48.9387 71.4539 48.4827 70.5854C47.8965 69.4564 47.3754 68.3057 46.8109 67.1332C48.0702 66.6773 49.1775 66.2865 50.3065 65.8739C50.8276 65.6785 51.327 65.4397 51.8698 65.2443C52 65.2009 52.1954 65.1791 52.3474 65.2226C53.9758 65.8088 55.5825 66.4167 57.1892 67.0029C57.2326 67.0247 57.276 67.0464 57.3629 67.0898C56.6464 69.0439 55.8648 70.9111 54.3883 72.4092ZM58.0794 64.6798C57.0806 64.3541 56.147 64.0284 55.1483 63.681C56.3424 62.9862 57.4497 62.3349 58.6656 61.6184C58.4919 62.6823 58.2965 63.6376 58.0794 64.6798ZM59.0998 57.8839C59.0998 58.1879 58.9696 58.3616 58.7307 58.5353C56.7115 59.9032 54.6272 61.1407 52.4126 62.2046C52.2606 62.2698 52 62.2915 51.8481 62.2046C49.6117 61.1407 47.484 59.9032 45.4648 58.4702C45.3128 58.3616 45.1825 58.1228 45.1608 57.9274C44.9871 55.4739 44.9871 53.0205 45.2042 50.567C45.2259 50.4151 45.3345 50.2196 45.4648 50.1328C47.5057 48.7432 49.6334 47.5057 51.8698 46.4852C52 46.4201 52.2172 46.4418 52.3691 46.5069C54.6055 47.5491 56.7115 48.765 58.7524 50.1545C58.8827 50.2414 59.013 50.4585 59.013 50.6105C59.0998 51.9132 59.165 53.2159 59.2301 54.3449C59.1867 55.6476 59.1433 56.7766 59.0998 57.8839ZM66.395 43.5758C68.4142 44.1403 69.1307 45.443 68.5879 47.4405C68.1537 49.0689 67.2201 50.4368 66.2213 51.7612C66.0693 51.9783 65.8957 52.1737 65.7002 52.4125C65.4614 52.1954 65.2226 51.9566 64.9837 51.7612C63.9416 50.9144 62.8994 50.046 61.8572 49.2209C61.5967 49.0038 61.4447 48.7867 61.4013 48.4393C61.1625 46.8326 60.8585 45.2476 60.5762 43.5975C62.4652 43.2718 64.441 43.033 66.395 43.5758ZM63.985 54.2798C63.2468 54.9528 62.5303 55.5825 61.7487 56.299C61.7487 54.9311 61.7487 53.6718 61.7487 52.3257C62.5086 52.9771 63.2034 53.6067 63.985 54.2798ZM67.6109 65.0055C66.7424 65.4397 65.8088 65.6568 64.8535 65.6134C63.4639 65.57 62.0744 65.3963 60.6848 65.266C60.6414 65.266 60.6197 65.2226 60.5545 65.2009C60.7282 64.3324 60.9019 63.4856 61.0539 62.6171C61.2059 61.727 61.3144 60.8368 61.4447 59.9683C61.4664 59.8163 61.5533 59.6426 61.6618 59.5558C62.9645 58.4267 64.289 57.3194 65.5917 56.2121C65.6134 56.1904 65.6568 56.1687 65.7437 56.1253C67.2418 57.9491 68.7182 59.7729 69.0873 62.2263C69.2827 63.4422 68.7399 64.4409 67.6109 65.0055Z" fill="#00E398"/>
<path d="M52.1086 50.6321C49.9374 50.6321 48.2221 52.3907 48.2439 54.5402C48.2656 56.6897 49.9808 58.4049 52.1303 58.4049C54.3015 58.4049 56.0384 56.668 56.0167 54.4968C56.0167 52.3473 54.2798 50.6321 52.1086 50.6321Z" fill="#00E398"/>
<path d="M101.981 61.1624C101.047 60.815 100.027 60.7065 99.0279 60.4676C98.3766 60.3156 96.7264 56.9286 97.0087 56.3207C97.0955 56.1252 97.2258 55.9515 97.3561 55.7779C97.8989 54.9311 98.4634 54.0843 98.9845 53.2159C99.6793 52.0868 99.6358 51.4355 98.7239 50.5236C97.5081 49.286 96.2922 48.0701 95.0546 46.8543C94.1644 45.9858 93.5131 45.9424 92.4492 46.5937C91.4722 47.2017 90.5168 47.853 89.5181 48.4392C89.2575 48.5912 88.8233 48.6564 88.5628 48.5478C85.2408 47.2451 85.2408 47.2451 84.5244 43.7712C84.5026 43.6192 84.4809 43.4889 84.4375 43.3369C84.1118 42.0125 83.6125 41.6 82.2446 41.5783C81.4196 41.5783 80.6162 41.5783 79.7477 41.5783C79.7477 40.9921 79.7477 40.5795 79.7477 40.1453C79.7477 29.8973 79.7477 19.6275 79.7477 9.37952C79.7477 3.58245 76.1436 -0.0217285 70.3682 -0.0217285C58.1227 -1.6616e-05 45.8989 -1.6616e-05 33.6534 -1.6616e-05C27.878 -1.6616e-05 24.2738 3.60416 24.2738 9.40124C24.2738 20.8434 24.2738 32.2856 24.2738 43.7277C24.2738 44.162 24.2738 44.5745 24.2738 45.0088C20.0617 45.139 16.6747 41.1006 17.4346 37.0188C17.8037 35.0864 18.8242 33.61 20.344 32.3724C20.7999 32.0033 21.1256 31.2 21.0822 30.6355C21.0605 30.1795 20.4308 29.4413 19.9966 29.3762C19.3887 29.2676 18.5419 29.4847 18.0208 29.8756C13.2008 33.3712 12.4626 40.4275 16.3707 44.9219C18.4333 47.2885 21.0605 48.4392 24.2087 48.5912C24.2087 52.0434 24.2087 55.4522 24.2087 58.9261C23.7093 58.9261 23.2534 58.9261 22.754 58.9261C22.4935 57.7753 22.2329 56.6463 22.0158 55.5173C21.8204 54.4751 21.2559 53.9106 20.2571 53.585C18.8893 53.0856 17.5431 52.5428 16.2839 51.8914C15.2851 51.3921 14.4601 51.3486 13.5699 52.0217C13.2008 52.304 12.7882 52.5428 12.3974 52.7816C10.5519 53.9541 10.5736 53.9323 9.03208 52.3474C8.64127 51.9348 8.55442 51.6309 8.90181 51.1532C9.46632 50.3499 9.94398 49.5031 10.4868 48.6998C11.0513 47.8964 11.0296 47.1582 10.5953 46.268C9.92227 44.8785 9.33605 43.4455 8.81497 41.9908C8.48929 41.1223 8.01163 40.6012 7.09973 40.4058C5.90557 40.167 4.73313 39.863 3.53897 39.6025C3.53897 38.582 3.53897 37.605 3.53897 36.6497C4.79826 36.3674 5.97071 36.0634 7.18657 35.8246C8.07676 35.6509 8.511 35.1081 8.81497 34.2831C9.35776 32.8284 9.92227 31.3954 10.5953 30.0058C11.0079 29.1374 11.0513 28.3774 10.5085 27.5741C9.81371 26.5753 9.20578 25.5332 8.44586 24.3607C9.03208 23.8396 9.61831 23.4054 10.096 22.8843C10.5085 22.4501 10.8125 22.4284 11.2901 22.7758C12.1586 23.362 13.0054 24.0351 13.939 24.4259C14.5252 24.6647 15.3502 24.6864 15.9582 24.491C17.5214 23.9699 19.0413 23.3186 20.5394 22.5804C21.0822 22.3198 21.7335 21.777 21.8855 21.2342C22.3849 19.5407 22.7106 17.8037 23.0363 16.0668C23.2534 14.9595 22.6889 14.1344 21.7335 13.9173C20.7999 13.7219 19.9749 14.2864 19.6926 15.3937C19.4104 16.5445 19.1715 17.7169 18.911 18.8676C18.759 19.519 15.3502 21.1474 14.7423 20.8651C14.5469 20.7783 14.3732 20.648 14.1995 20.5177C13.2876 19.9315 12.3757 19.3453 11.4638 18.7808C10.6171 18.238 9.81371 18.3248 9.11893 19.0196C7.81622 20.3223 6.5135 21.625 5.2325 22.9277C4.4943 23.666 4.40745 24.491 4.99367 25.3812C5.62332 26.3582 6.25296 27.3136 6.86089 28.2906C7.33856 29.0505 5.97071 32.5244 5.08052 32.7415C3.88636 33.0238 2.69221 33.2843 1.49806 33.5666C0.564443 33.7837 0.0867816 34.3916 0.0650697 35.347C0.0433578 37.1925 0.0650697 39.038 0.0650697 40.8618C0.0650697 41.8605 0.564443 42.4902 1.54148 42.7073C2.69221 42.9678 3.86465 43.2284 5.01538 43.5106C5.66674 43.6626 7.31684 47.0497 7.0563 47.6576C6.96945 47.853 6.83918 48.0267 6.70891 48.2004C6.12269 49.1123 5.53647 50.0242 4.95025 50.9361C4.38574 51.8263 4.47259 52.6296 5.2325 53.3678C5.99242 54.1278 6.77405 54.8877 7.53396 55.6693C10.3131 58.5136 10.096 58.4701 13.3093 56.2772C14.5035 55.4739 15.5022 55.0831 16.7615 55.995C17.1089 56.2338 17.5431 56.3858 17.9557 56.4726C18.5636 56.6029 18.8459 56.9069 18.9544 57.5582C19.1064 58.557 19.3669 59.534 19.5841 60.5111C19.9097 61.9657 20.4091 62.3783 21.8855 62.3783C22.6672 62.3783 23.4488 62.3783 24.2955 62.3783C24.2955 62.9428 24.2955 63.377 24.2955 63.7895C24.2955 74.233 24.2738 84.6547 24.2955 95.0981C24.2955 98.8543 26.0542 101.568 29.4196 103.197C30.1143 103.544 30.896 103.718 31.6559 103.978C45.2258 103.978 58.8175 103.978 72.3874 103.978C72.9736 103.783 73.5598 103.631 74.1244 103.414C77.5765 102.133 79.7477 98.9411 79.7477 95.0981C79.7694 83.5039 79.7477 71.9315 79.7477 60.3374C79.7477 59.9031 79.7477 59.4689 79.7477 59.0564C82.6571 58.6655 85.7619 61.1624 86.435 64.0718C87.1081 66.9378 86.283 69.3261 84.0467 71.2584C83.9381 71.3453 83.8079 71.4321 83.6993 71.519C82.744 72.3223 82.5486 73.2342 83.1782 74.0593C83.7862 74.8626 84.8066 74.9929 85.7619 74.2981C87.9548 72.7131 89.3878 70.5854 89.9089 67.9148C91.1248 61.6618 86.7607 55.9733 80.3991 55.4522C80.2254 55.4305 80.0517 55.4305 79.7912 55.4088C79.7912 52 79.7912 48.5695 79.7912 45.0956C80.2471 45.0956 80.7031 45.0956 81.2242 45.0956C81.4847 46.268 81.7887 47.4622 82.0058 48.6564C82.1795 49.59 82.7223 50.0676 83.5907 50.3716C85.0454 50.8927 86.4784 51.5006 87.868 52.152C88.693 52.5428 89.4312 52.6079 90.2129 52.0868C91.0162 51.544 91.863 51.0447 92.6663 50.5019C93.144 50.1545 93.4697 50.1328 93.9473 50.5887C95.5106 52.1303 95.554 52.1085 94.3599 53.9541C94.2513 54.1277 94.1427 54.3449 94.0125 54.4969C92.8834 55.7996 92.8834 57.0589 93.8388 58.5136C94.4467 59.4689 94.7941 60.6196 95.0981 61.7052C95.402 62.8342 96.0317 63.4204 97.1607 63.6158C98.268 63.8113 99.3536 64.0718 100.483 64.3106C100.483 65.3094 100.483 66.2864 100.483 67.3069C99.245 67.5891 98.0074 67.8931 96.7916 68.1536C95.9665 68.3273 95.5106 68.8267 95.2283 69.6083C94.6638 71.1282 94.0342 72.6263 93.3611 74.081C92.992 74.8843 92.992 75.5791 93.4914 76.3173C94.1644 77.3378 94.8158 78.3582 95.6191 79.6175C94.9895 80.1603 94.4033 80.7465 93.7302 81.2242C93.5348 81.3762 93.0571 81.3328 92.8183 81.2025C91.9498 80.7031 91.0814 80.1603 90.2563 79.5958C89.4747 79.0747 88.7582 79.0964 87.9114 79.4872C86.5219 80.1386 85.0889 80.7465 83.6342 81.2676C82.7874 81.5933 82.2229 82.0275 82.0275 82.9612C81.7235 84.5895 81.311 86.1962 81.007 87.8246C80.7899 88.9971 81.3327 89.8655 82.3315 90.0392C83.2651 90.2129 84.0684 89.6267 84.3507 88.5194C84.6329 87.3687 84.85 86.1962 85.1323 85.0455C85.3277 84.2422 88.8016 82.7875 89.4964 83.2C90.4734 83.8079 91.4287 84.4593 92.4058 85.0672C93.4697 85.7403 94.1427 85.6751 95.0112 84.8284C96.2705 83.5908 97.5081 82.3098 98.7456 81.0722C99.5273 80.2906 99.6358 79.4655 99.0279 78.5319C98.3983 77.5766 97.7686 76.5996 97.1607 75.6225C96.683 74.8626 98.116 71.4104 99.0062 71.1933C99.9832 70.9545 101.004 70.8459 101.959 70.4985C102.697 70.238 103.327 69.6952 104 69.2609C104 66.9595 104 64.6363 104 62.3348C103.327 61.9875 102.697 61.4447 101.981 61.1624ZM76.2738 94.5553C76.2738 98.5069 74.2546 100.526 70.2596 100.526C58.0576 100.526 45.8555 100.526 33.6534 100.526C29.8104 100.526 27.7477 98.4852 27.7477 94.6639C27.7477 66.2213 27.7477 37.757 27.7477 9.31439C27.7477 5.55823 29.8104 3.45218 33.5448 3.45218C45.8555 3.45218 58.1661 3.45218 70.4768 3.45218C74.2112 3.45218 76.2738 5.53652 76.2738 9.31439C76.2738 23.5357 76.2738 37.757 76.2738 52C76.2738 66.1779 76.2738 80.3774 76.2738 94.5553Z" fill="#00E398"/>
<path d="M88.3456 17.4998C89.2575 17.4998 90.0826 16.653 90.126 15.676C90.1694 14.6989 89.3878 13.8522 88.4108 13.8522C87.4337 13.8522 86.7172 14.6121 86.6738 15.6543C86.6304 16.7616 87.3252 17.4998 88.3456 17.4998Z" fill="#00E398"/>
<path d="M88.3891 24.4476C89.3444 24.4259 90.1694 23.4706 90.126 22.4718C90.0826 21.5382 89.301 20.7783 88.3674 20.8C87.3469 20.8217 86.6521 21.6468 86.6738 22.7541C86.6955 23.7745 87.412 24.4693 88.3891 24.4476Z" fill="#00E398"/>
<path d="M88.3239 31.3737C89.2575 31.3954 90.126 30.4835 90.126 29.4631C90.126 28.5295 89.3661 27.7478 88.4325 27.7261C87.412 27.7044 86.6738 28.5078 86.6738 29.6151C86.6738 30.6572 87.3469 31.352 88.3239 31.3737Z" fill="#00E398"/>
<path d="M17.326 74.1244C17.2825 73.1908 16.4792 72.4309 15.5673 72.4526C14.5686 72.4743 13.8521 73.2994 13.8738 74.4067C13.8955 75.4271 14.5903 76.0785 15.589 76.0568C16.566 76.0351 17.3694 75.1449 17.326 74.1244Z" fill="#00E398"/>
<path d="M15.6977 79.4004C14.6989 79.357 13.8956 80.1386 13.8739 81.2242C13.8521 82.2664 14.4601 82.9612 15.4588 82.9829C16.4359 83.0263 17.2826 82.2012 17.326 81.1591C17.3478 80.2472 16.6096 79.4438 15.6977 79.4004Z" fill="#00E398"/>
<path d="M15.5891 86.3265C14.6121 86.3265 13.8956 87.1082 13.8739 88.1503C13.8521 89.1925 14.4601 89.8873 15.4588 89.9307C16.4359 89.9741 17.3043 89.1491 17.326 88.1286C17.3695 87.1516 16.5661 86.3265 15.5891 86.3265Z" fill="#00E398"/>
<path d="M47.1365 10.3999C50.3933 10.4216 53.6284 10.4216 56.8852 10.3999C58.1662 10.3999 58.9261 9.72687 58.9478 8.66298C58.9478 7.62081 58.1662 6.94774 56.9069 6.92603C55.2785 6.90432 53.6501 6.92603 52.0434 6.92603C50.415 6.92603 48.7866 6.92603 47.18 6.92603C45.899 6.92603 45.139 7.5991 45.139 8.66298C45.0739 9.72687 45.8555 10.3999 47.1365 10.3999Z" fill="#00E398"/>
<path d="M68.5879 55.6259C68.2188 55.17 67.8497 54.714 67.4589 54.2364C67.8714 53.7153 68.284 53.1942 68.6748 52.6514C69.7387 51.1967 70.6288 49.6769 71.0414 47.9182C71.8664 44.5094 70.1946 41.8823 66.7424 41.0572C64.5495 40.5361 62.3783 40.7098 60.1854 41.1007C59.838 41.1658 59.7078 41.1007 59.5775 40.775C58.8827 38.8209 57.9925 36.932 56.603 35.347C55.6476 34.2614 54.5403 33.3929 53.0856 33.089C51.327 32.7199 49.8288 33.3061 48.5044 34.4568C47.028 35.7378 46.0727 37.3662 45.2911 39.1249C44.9871 39.7762 44.7483 40.471 44.466 41.1441C43.7495 41.0355 43.0547 40.927 42.3382 40.8618C40.4059 40.6447 38.4952 40.6664 36.6497 41.3178C34.6739 42.0126 33.3278 43.337 33.0238 45.4865C32.8067 47.0497 33.241 48.5044 33.8923 49.9157C34.6305 51.4789 35.651 52.8685 36.78 54.2146C36.3892 54.6706 36.0201 55.1265 35.651 55.6042C34.4351 57.1675 33.3929 58.8176 32.8719 60.7499C32.7416 61.1842 32.6764 61.6401 32.5896 62.0961C32.5896 62.4652 32.5896 62.8343 32.5896 63.1817C32.6547 63.4856 32.7199 63.7896 32.8067 64.0718C33.3929 66.0693 34.8476 67.1549 36.7583 67.7194C38.5604 68.2405 40.3842 68.2405 42.2297 68.0017C42.9679 67.9148 43.6844 67.7846 44.4009 67.676C44.8134 68.6748 45.2042 69.6518 45.6602 70.6071C46.2681 71.9098 47.0497 73.104 48.0702 74.1244C49.0472 75.1015 50.1762 75.7528 51.5441 76.0351C51.9349 76.0351 52.3257 76.0351 52.7165 76.0351C55.6911 75.4272 57.2543 73.2343 58.5136 70.7591C58.9478 69.9123 59.2518 69.0004 59.6209 68.132C59.686 67.98 59.7512 67.828 59.7946 67.6977C60.8585 67.828 61.879 68.0017 62.8994 68.0885C64.5061 68.2188 66.1128 68.1537 67.676 67.6543C70.7591 66.6556 72.1704 64.1804 71.4105 61.0322C70.9545 59.013 69.8689 57.276 68.5879 55.6259ZM42.0777 65.5048C40.6013 65.6785 39.1466 65.7437 37.6919 65.3746C37.5399 65.3311 37.3879 65.2877 37.2577 65.2443C35.5207 64.6581 34.8259 63.4639 35.2819 61.6835C35.499 60.8368 35.8898 60.0334 36.2806 59.2518C36.5629 58.6656 36.9754 58.1228 37.3662 57.6017C37.7353 57.1023 38.1478 56.6029 38.5387 56.1036C39.5591 56.972 40.471 57.9057 41.5349 58.6439C42.5119 59.3169 42.9679 60.1203 43.0547 61.3144C43.1416 62.6171 43.489 63.8981 43.7278 65.266C43.1633 65.3311 42.6205 65.4397 42.0777 65.5048ZM40.2973 54.2798C41.0572 53.6067 41.752 52.9988 42.5336 52.3257C42.5336 53.6718 42.5336 54.9311 42.5336 56.299C41.752 55.5825 41.0355 54.9528 40.2973 54.2798ZM43.0982 47.1148C43.0113 47.6142 42.9679 48.1136 42.881 48.613C42.8593 48.7432 42.7942 48.9169 42.7073 49.0038C41.3395 50.1111 39.9716 51.2184 38.5604 52.3474C37.3011 50.8059 36.0635 49.1775 35.6293 47.0931C35.2602 45.3779 35.9332 44.2272 37.5833 43.6627C38.7775 43.2501 40.0368 43.185 41.2744 43.2718C42.0994 43.337 42.9462 43.4455 43.7712 43.5541C43.5324 44.7917 43.2936 45.9641 43.0982 47.1148ZM58.6222 46.9629C58.5136 46.9412 58.4702 46.9412 58.4485 46.9194C57.4063 46.3115 56.3641 45.7036 55.2351 45.0522C56.1904 44.7483 57.0589 44.4443 58.0142 44.1403C58.2314 45.0956 58.405 46.0075 58.6222 46.9629ZM48.0702 39.2117C48.6347 38.0827 49.3078 37.0405 50.3065 36.2372C51.5224 35.2601 52.6948 35.2384 53.9324 36.2155C55.1265 37.1708 55.8648 38.4518 56.4944 39.8196C56.7767 40.4276 57.0155 41.0789 57.2977 41.7086C56.2773 42.056 55.3002 42.3817 54.3232 42.729C53.7153 42.9462 53.1291 43.185 52.5211 43.4455C52.2606 43.5541 52.0435 43.5541 51.7612 43.4672C50.1979 42.8593 48.613 42.2948 46.9629 41.6652C47.332 40.8835 47.6794 40.0368 48.0702 39.2117ZM46.2464 44.1403C47.18 44.4443 48.0702 44.7265 49.0472 45.0522C47.8748 45.7253 46.8109 46.3332 45.6384 47.0063C45.8556 46.0075 46.0293 45.0956 46.2464 44.1403ZM45.5733 61.6184C46.7892 62.3349 47.9182 62.9862 49.1124 63.681C48.1136 64.0284 47.18 64.3324 46.1812 64.6798C45.9641 63.6376 45.7687 62.6823 45.5733 61.6184ZM54.3883 72.4092C54.2364 72.5612 54.0844 72.6915 53.9107 72.8217C52.6948 73.7771 51.5224 73.7771 50.3065 72.8217C49.5466 72.2138 48.9387 71.4539 48.4827 70.5854C47.8965 69.4564 47.3754 68.3057 46.8109 67.1332C48.0702 66.6773 49.1775 66.2865 50.3065 65.8739C50.8276 65.6785 51.327 65.4397 51.8698 65.2443C52 65.2009 52.1954 65.1791 52.3474 65.2226C53.9758 65.8088 55.5825 66.4167 57.1892 67.0029C57.2326 67.0247 57.276 67.0464 57.3629 67.0898C56.6464 69.0439 55.8648 70.9111 54.3883 72.4092ZM58.0794 64.6798C57.0806 64.3541 56.147 64.0284 55.1483 63.681C56.3424 62.9862 57.4497 62.3349 58.6656 61.6184C58.4919 62.6823 58.2965 63.6376 58.0794 64.6798ZM59.0998 57.8839C59.0998 58.1879 58.9696 58.3616 58.7307 58.5353C56.7115 59.9032 54.6272 61.1407 52.4126 62.2046C52.2606 62.2698 52 62.2915 51.8481 62.2046C49.6117 61.1407 47.484 59.9032 45.4648 58.4702C45.3128 58.3616 45.1825 58.1228 45.1608 57.9274C44.9871 55.4739 44.9871 53.0205 45.2042 50.567C45.2259 50.4151 45.3345 50.2196 45.4648 50.1328C47.5057 48.7432 49.6334 47.5057 51.8698 46.4852C52 46.4201 52.2172 46.4418 52.3691 46.5069C54.6055 47.5491 56.7115 48.765 58.7524 50.1545C58.8827 50.2414 59.013 50.4585 59.013 50.6105C59.0998 51.9132 59.165 53.2159 59.2301 54.3449C59.1867 55.6476 59.1433 56.7766 59.0998 57.8839ZM66.395 43.5758C68.4142 44.1403 69.1307 45.443 68.5879 47.4405C68.1537 49.0689 67.2201 50.4368 66.2213 51.7612C66.0693 51.9783 65.8957 52.1737 65.7002 52.4125C65.4614 52.1954 65.2226 51.9566 64.9837 51.7612C63.9416 50.9144 62.8994 50.046 61.8572 49.2209C61.5967 49.0038 61.4447 48.7867 61.4013 48.4393C61.1625 46.8326 60.8585 45.2476 60.5762 43.5975C62.4652 43.2718 64.441 43.033 66.395 43.5758ZM63.985 54.2798C63.2468 54.9528 62.5303 55.5825 61.7487 56.299C61.7487 54.9311 61.7487 53.6718 61.7487 52.3257C62.5086 52.9771 63.2034 53.6067 63.985 54.2798ZM67.6109 65.0055C66.7424 65.4397 65.8088 65.6568 64.8535 65.6134C63.4639 65.57 62.0744 65.3963 60.6848 65.266C60.6414 65.266 60.6197 65.2226 60.5545 65.2009C60.7282 64.3324 60.9019 63.4856 61.0539 62.6171C61.2059 61.727 61.3144 60.8368 61.4447 59.9683C61.4664 59.8163 61.5533 59.6426 61.6618 59.5558C62.9645 58.4267 64.289 57.3194 65.5917 56.2121C65.6134 56.1904 65.6568 56.1687 65.7437 56.1253C67.2418 57.9491 68.7182 59.7729 69.0873 62.2263C69.2827 63.4422 68.7399 64.4409 67.6109 65.0055Z" fill="#00E398"/>
</g>
<defs>
<clipPath id="clip0_50_2149">
<rect width="104" height="104" fill="white"/>
</clipPath>
</defs>
</svg>
