<svg width="131" height="131" viewBox="0 0 131 131" fill="none" xmlns="http://www.w3.org/2000/svg">
<g clip-path="url(#clip0_50_2281)">
<path d="M127.085 107.285C123.593 103.61 119.969 100.094 116.371 96.5514C115.022 95.203 113.355 94.5156 111.451 94.78C110.154 94.9915 108.911 95.5467 107.641 95.9433C105.287 93.5903 102.8 91.1051 100.208 88.5142C100.34 88.2763 100.499 87.9855 100.684 87.6682C111.821 68.5007 103.144 43.9927 82.3513 36.2464C80.4201 35.5326 79.7323 34.6073 79.3884 32.6508C75.6584 11.3154 54.3894 -3.30475 33.0411 0.660937C11.3753 4.6795 -2.75112 24.508 0.44981 46.3721C2.96294 63.4246 17.0364 77.3838 34.0992 79.7368C34.9722 79.869 35.3426 80.2127 35.6071 81.0323C41.7973 99.6975 61.7701 109.876 80.4995 103.822C83.3036 102.923 85.9755 101.522 88.4886 100.464C91.0017 102.896 93.5413 105.382 96.0809 107.84C94.0968 110.96 94.1233 113.948 96.3983 116.274C100.023 120.002 103.647 123.73 107.43 127.246C113.038 132.454 121.688 132.19 126.953 126.796C132.27 121.377 132.376 112.837 127.085 107.285ZM4.23273 41.2167C3.62428 21.494 18.8882 5.12895 38.3848 4.30937C58.6485 3.46336 73.2511 18.6916 75.3674 34.3164C69.6005 33.3647 63.9922 33.8141 58.2782 35.4004C59.5744 34.1314 60.8442 32.8623 62.1669 31.6198C63.0134 30.8531 63.3573 29.9542 63.3044 28.8173C63.2515 27.0196 63.278 25.2218 63.278 23.3447C61.8494 23.3447 60.5267 23.3447 59.0453 23.3447C59.0453 24.6402 58.9924 25.9092 59.0718 27.1518C59.1511 28.2357 58.8601 29.0817 57.9872 29.7955C57.2729 30.3772 56.7174 31.1439 55.9502 31.9899C54.654 29.9277 53.0667 28.5794 50.9504 27.8391C50.7388 27.7598 50.6065 27.1782 50.6065 26.8345C50.4478 21.9699 50.0774 20.9917 46.9294 17.2904C48.4373 15.6513 50.3684 14.9374 52.617 14.7788C52.617 13.4305 52.617 12.1086 52.617 10.628C50.0245 10.6016 47.723 11.3947 45.6332 12.8488C44.9454 13.3247 44.3105 13.8799 43.7549 14.488C43.2259 15.0961 42.6703 15.1754 41.9032 15.0696C40.9244 14.911 39.8398 14.6995 38.9139 14.9374C37.5118 15.3076 36.6653 14.8317 35.7129 13.9063C33.4643 11.712 30.6867 10.6545 27.4328 10.628C27.4328 12.0293 27.4328 13.3247 27.4328 14.7524C29.5756 14.9903 31.5861 15.5984 33.1998 17.3697C31.2687 19.1411 29.946 21.2825 29.6021 23.8999C29.4698 24.9045 29.5492 25.9092 29.4433 26.9138C29.3904 27.2839 29.1259 27.8391 28.8085 27.9713C26.8773 28.7116 25.4223 29.9806 24.3377 31.6726C20.7135 29.9277 20.74 26.7287 21.1368 23.3711C19.6289 23.3711 18.2798 23.3711 16.8513 23.3711C16.8513 25.5655 16.7719 27.707 16.9042 29.8484C16.9306 30.4301 17.4333 31.0381 17.8565 31.4876C19.3644 33.0739 20.9781 34.5808 22.486 36.1935C22.8563 36.5901 23.1473 37.2246 23.1473 37.7798C23.2002 41.3754 23.2267 44.9974 23.1473 48.5929C23.1473 49.1746 22.7505 49.9413 22.3008 50.285C20.2903 51.9241 18.2004 53.4575 16.0841 54.9645C15.0788 55.6783 14.682 56.5507 14.7085 57.7669C14.7614 59.5911 14.7349 61.4418 14.7349 63.3189C16.1635 63.3189 17.4597 63.3189 18.9676 63.3189C18.9676 61.8912 18.9147 60.4371 18.994 59.0095C19.0205 58.5336 19.3115 57.9255 19.6554 57.6083C20.7135 56.7094 21.8775 55.9162 23.0415 55.0438C24.4171 61.997 27.2212 64.7201 33.7553 65.5396C33.7553 67.2052 33.7024 68.8444 33.7818 70.51C33.8347 72.1227 34.0199 73.7354 34.1522 75.3481C21.2691 73.8676 4.86762 61.6004 4.23273 41.2167ZM42.2735 31.752C44.6015 31.752 46.903 31.5933 49.1515 31.8048C51.7969 32.0428 53.6223 35.2682 52.7493 37.8327C52.6699 38.0442 52.4583 38.2557 52.2467 38.3614C48.5431 40.45 45.2893 43.1203 42.3 46.5572C42.2735 41.4282 42.2735 36.643 42.2735 31.752ZM33.8347 27.4426C33.4643 24.4815 33.967 21.8642 36.5859 20.1193C38.808 18.6652 41.136 18.6123 43.411 20.0135C46.1622 21.7055 46.6649 24.3758 46.3474 27.4161C42.1148 27.4426 38.0144 27.4426 33.8347 27.4426ZM37.5118 53.7748C36.5859 56.2335 35.6071 58.6658 34.6019 61.2303C30.2634 61.4682 27.4328 58.798 27.4328 54.4357C27.4328 48.4607 27.4328 42.4858 27.4328 36.4843C27.4328 33.4175 29.0994 31.7255 32.1417 31.7255C34.0199 31.7255 35.9246 31.7255 37.988 31.7255C37.988 32.2014 37.988 32.6244 37.988 33.0474C37.988 39.2868 38.0144 45.5261 37.9615 51.7919C37.9615 52.4264 37.7499 53.1403 37.5118 53.7748ZM69.6798 101.363C52.0879 101.337 37.9351 87.113 37.9615 69.5318C37.988 52.1356 52.2731 38.0177 69.7592 38.0442C87.1923 38.0706 101.345 52.2942 101.319 69.7433C101.319 87.1659 87.0865 101.389 69.6798 101.363ZM92.5889 97.8733C94.282 96.1548 96.0544 94.4099 97.6681 92.7707C99.7051 94.8064 102.007 97.133 104.229 99.3538C102.668 100.914 100.922 102.685 99.1495 104.43C96.9274 102.209 94.6523 99.9618 92.5889 97.8733ZM125.789 120.874C124.096 124.681 120.948 126.506 117.112 126.691C114.255 126.611 111.98 125.792 110.128 123.994C106.61 120.557 103.144 117.067 99.6786 113.577C98.594 112.467 98.594 111.33 99.6786 110.246C103.171 106.73 106.689 103.214 110.207 99.7239C111.318 98.6135 112.456 98.6135 113.54 99.6975C117.059 103.187 120.657 106.624 124.043 110.246C126.953 113.339 127.508 117.041 125.789 120.874Z" fill="#00E398"/>
<path d="M109.784 42.2742C121.477 42.2478 130.921 32.7566 130.894 21.0975C130.868 9.43833 121.371 0.0528564 109.652 0.0528564C98.0385 0.0528564 88.6209 9.62339 88.6738 21.3618C88.7267 32.8359 98.2766 42.3007 109.784 42.2742ZM109.758 4.28293C119.149 4.28293 126.715 11.8706 126.688 21.2296C126.662 30.5622 119.043 38.0971 109.652 38.0442C100.393 38.0177 92.88 30.3772 92.9064 21.0446C92.9064 11.8442 100.552 4.25649 109.758 4.28293Z" fill="#00E398"/>
<path d="M69.9442 42.2742C54.7332 42.1685 42.247 54.4093 42.2205 69.426C42.194 84.7336 54.3364 97.0801 69.521 97.133C84.732 97.1858 97.086 84.9451 97.1389 69.7168C97.1654 54.753 84.8907 42.3536 69.9442 42.2742ZM52.4317 53.8276C53.3312 56.7358 51.3471 59.9877 48.4372 60.8072C48.3314 60.7279 48.2255 60.6486 48.1197 60.5693C49.4953 58.3749 50.8974 56.1806 52.4317 53.8276ZM46.7706 66.0684C46.8235 65.7247 47.67 65.4074 48.1726 65.3017C52.5111 64.4292 55.2888 61.8648 56.585 57.6876C56.8231 56.8944 56.9024 56.0484 57.0876 55.0438C58.4103 56.0484 59.7066 56.9737 60.9499 58.0048C61.188 58.1899 61.188 58.7186 61.188 59.0888C61.2144 60.49 61.188 61.8648 61.188 63.3188C62.6165 63.3188 63.9127 63.3188 65.3677 63.3188C65.3677 61.0981 65.4471 58.8773 65.3148 56.6565C65.2883 56.1013 64.627 55.4403 64.0979 55.0438C61.9552 53.3517 59.7595 51.7655 57.4051 49.9941C63.0662 46.6365 68.8596 45.7112 75.0499 47.1388C75.2879 58.1106 58.8865 74.555 47.1145 75.163C46.3209 72.1755 46.1886 69.1087 46.7706 66.0684ZM71.5579 92.8236C59.7859 93.8282 51.1355 85.9233 48.7282 79.3138C56.294 77.5425 62.9075 73.9733 68.4099 68.4742C73.9123 62.9751 77.4836 56.3921 79.256 48.8309C86.7954 50.6022 93.5412 61.8119 92.8534 71.3824C92.0333 82.7772 83.1448 91.8454 71.5579 92.8236Z" fill="#00E398"/>
<path d="M103.779 32.9152C105.022 34.1578 106.08 34.1843 107.324 32.9417C112.086 28.2093 116.847 23.4504 121.582 18.6916C122.799 17.449 122.773 16.418 121.53 15.1489C120.419 14.0121 119.307 12.9017 118.17 11.7913C116.556 10.205 115.657 10.1786 114.07 11.7913C111.265 14.5937 108.488 17.3697 105.684 20.1721C105.472 20.0928 105.419 20.0928 105.393 20.0664C104.678 19.3526 103.938 18.6652 103.223 17.9514C101.821 16.603 100.843 16.5766 99.4934 17.9249C98.303 19.0882 97.1126 20.2779 95.9486 21.4676C94.6788 22.7631 94.6524 23.7941 95.9486 25.0896C98.5411 27.707 101.16 30.2979 103.779 32.9152ZM101.504 21.8377C102.245 22.6837 102.88 23.5298 103.594 24.27C105.049 25.777 106.028 25.777 107.509 24.2965C110.34 21.4676 113.144 18.6387 116.159 15.6248C116.556 16.1536 116.847 16.5237 117.032 16.7617C113.17 20.6216 109.308 24.4815 105.551 28.2357C103.991 26.6759 102.245 24.9045 100.366 23.0274C100.525 22.8953 100.869 22.5251 101.504 21.8377Z" fill="#00E398"/>
</g>
<defs>
<clipPath id="clip0_50_2281">
<rect width="131" height="131" fill="white"/>
</clipPath>
</defs>
</svg>
