<svg width="99" height="101" viewBox="0 0 99 101" fill="none" xmlns="http://www.w3.org/2000/svg">
<g clip-path="url(#clip0_50_2052)">
<path d="M41.2385 94.5734C40.9218 94.5337 40.5854 94.5337 40.2491 94.5337C31.3246 94.4941 22.5189 93.5023 13.9308 91.0428C11.675 90.4081 9.51809 89.3568 7.42055 88.2857C5.58025 87.3336 4.67 85.7667 4.72936 83.5253C4.86788 78.8839 4.76894 74.2227 4.76894 69.5614C4.76894 69.2044 4.76894 68.8672 4.76894 68.3912C5.10534 68.5498 5.30322 68.649 5.5011 68.7284C8.03398 69.7201 10.5273 70.8507 13.1195 71.6639C18.1655 73.2309 23.3896 73.9847 28.6334 74.3814C32.5713 74.6789 36.5289 74.7185 40.4667 74.8177C41.9904 74.8574 43.059 73.7466 43.0194 72.378C42.9798 71.0491 41.931 70.1367 40.4469 70.0771C37.2215 69.9581 33.996 69.9383 30.7903 69.6804C24.4581 69.2044 18.1655 68.292 12.0708 66.4672C10.1711 65.892 8.35059 65.0192 6.56966 64.1068C5.32301 63.4721 4.72936 62.3812 4.76894 60.8539C4.84809 56.1133 4.78873 51.3529 4.78873 46.5925C4.78873 46.2553 4.78873 45.9181 4.78873 45.4817C5.54068 45.8784 6.11453 46.1958 6.70818 46.4735C12.2884 49.0917 18.2447 50.2619 24.2998 51.0355C32.0172 52.0273 39.7741 52.2256 47.5509 51.6702C56.5347 51.0157 65.3998 49.8454 73.7306 45.561C73.7306 47.4057 73.7306 49.1512 73.7306 50.8967C73.7306 53.8719 73.7108 56.8273 73.7504 59.8026C73.7701 61.2704 74.7991 62.3217 76.1249 62.3018C77.4507 62.3018 78.4204 61.2506 78.4599 59.7629C78.4599 59.4654 78.4599 59.1679 78.4599 58.8704C78.4599 44.3908 78.4204 29.9112 78.4995 15.4118C78.5193 12.0795 77.1935 9.6398 74.6606 7.7158C72.0684 5.7323 69.0804 4.50252 65.9934 3.55044C59.3644 1.4876 52.5177 0.555352 45.6116 0.138816C34.8865 -0.456235 24.2998 0.416507 13.9111 3.23308C10.3492 4.205 6.90606 5.51411 3.91805 7.77531C1.28623 9.71914 0 12.2382 0 15.63C0.0593644 38.4601 0.0395763 61.2902 0.0197881 84.1204C0.0197881 86.8576 1.04877 89.0394 3.06716 90.8048C5.97601 93.3635 9.4983 94.7519 13.1195 95.8627C19.1945 97.7074 25.4475 98.6198 31.7599 99.0165C34.8469 99.2148 37.9338 99.2347 41.0406 99.2743C42.406 99.2942 43.3756 98.2627 43.4152 96.9933C43.4349 95.7635 42.5445 94.7519 41.2385 94.5734ZM5.58025 12.8332C6.35199 12.0398 7.24246 11.3059 8.19229 10.7506C12.0905 8.42986 16.4241 7.27943 20.8171 6.42652C30.4539 4.52236 40.1699 4.30417 49.9057 5.25626C55.8025 5.83147 61.64 6.86289 67.1411 9.20343C68.9418 9.95716 70.6832 10.9687 72.2267 12.1588C74.2648 13.706 74.2846 15.4515 72.2465 16.9589C70.4853 18.268 68.4867 19.3986 66.4287 20.2119C60.7693 22.4929 54.7933 23.4648 48.7382 23.9805C45.5523 24.2582 42.3664 24.3376 40.7042 24.4367C30.731 24.3574 22.3606 23.6433 14.2672 21.0053C12.0708 20.2912 9.95343 19.24 7.87567 18.2085C6.98521 17.7722 6.21347 17.0184 5.54068 16.2647C4.49191 15.0944 4.49191 13.9638 5.58025 12.8332ZM4.76894 23.0086C4.76894 22.7111 4.76894 22.4334 4.76894 21.997C12.704 26.5988 21.292 27.9674 30.0384 28.7806C36.3706 29.3558 42.7226 29.336 49.0548 28.7409C56.3368 28.0665 63.5397 26.8963 70.2676 23.8218C71.3956 23.3061 72.4641 22.6714 73.691 22.0367C73.691 22.4532 73.691 22.8103 73.691 23.1475C73.691 28.0864 73.6514 33.0451 73.7306 37.9841C73.7504 39.3527 73.2557 40.3246 72.1673 40.9395C70.5051 41.8519 68.8033 42.7643 67.0422 43.4189C62.3326 45.1842 57.4054 45.9974 52.4385 46.5726C45.1367 47.4057 37.7953 47.5049 30.4737 46.9693C23.6072 46.4735 16.8001 45.5214 10.3492 42.9825C8.78593 42.3676 7.32161 41.4155 5.87707 40.5428C5.08555 40.0469 4.78873 39.2337 4.78873 38.2419C4.78873 33.1642 4.76894 28.0864 4.76894 23.0086Z" fill="#00E398"/>
<path d="M77.3716 79.5582C75.4719 78.4276 72.939 78.6657 71.356 80.2128C69.7729 81.7599 69.4563 84.2591 70.5447 86.203C71.4945 87.9286 74.2055 89.2774 76.4019 88.2857C75.3927 87.2542 74.7002 86.1236 75.7885 84.874C76.9956 83.5054 78.2224 84.16 79.3504 85.1121C80.2408 83.3864 79.1129 80.5897 77.3716 79.5582Z" fill="#00E398"/>
<path d="M98.9603 72.2194C98.9405 68.6292 96.7045 66.4474 93.1426 66.4474C79.7461 66.4474 66.3495 66.4474 52.9529 66.4474C49.3713 66.4474 47.0956 68.7483 47.0956 72.3186C47.0956 79.9154 47.155 87.4924 47.0759 95.0892C47.0363 98.6595 49.8066 101.06 52.9134 101.02C59.6215 100.901 66.3495 100.98 73.0577 100.98C79.7461 100.98 86.4147 100.881 93.103 101.02C95.9921 101.079 99.0395 99.0562 98.9999 95.1884C98.9207 87.532 98.9999 79.8757 98.9603 72.2194ZM58.8894 92.7685C58.5332 92.7883 58.1572 92.7685 57.801 92.7685C55.4067 92.8082 53.3685 91.9751 51.6865 90.2891C50.6971 89.2974 50.6377 88.1072 51.4886 87.2147C52.3197 86.3419 53.3883 86.4014 54.4964 87.175C55.3473 87.7502 56.2971 88.1866 57.247 88.5833C57.6031 88.7221 58.177 88.7221 58.4738 88.5436C59.0279 88.2064 59.4434 87.6709 59.9184 87.2147C59.5226 86.7981 59.206 86.2428 58.7311 86.0246C57.425 85.3898 56.0597 84.9336 54.7339 84.3584C52.4978 83.3865 51.4095 81.641 51.6667 79.3997C51.924 77.198 53.6059 75.3136 55.7628 74.8574C58.2561 74.3219 60.5318 74.8574 62.5897 76.3054C63.7177 77.0988 63.9749 78.2889 63.2823 79.3005C62.5897 80.3121 61.4223 80.5303 60.2548 79.7567C59.2851 79.1021 58.2562 78.7054 57.1084 78.9236C56.6731 79.003 56.3169 79.4393 55.9014 79.717C56.1784 80.0146 56.3961 80.4509 56.7523 80.6096C58.0583 81.2245 59.4236 81.7005 60.7495 82.2956C62.4314 83.089 63.6781 84.3386 64.0145 86.2428C64.6081 89.3569 62.0357 92.5503 58.8894 92.7685ZM83.11 89.0197C84.1192 90.0709 84.1588 91.3007 83.2683 92.1734C82.3977 93.0065 81.25 92.9867 80.2012 91.9949C79.7263 91.5387 79.3701 91.5784 78.816 91.8362C72.7015 94.7917 65.7558 90.7056 65.5778 83.8625C65.4195 78.0906 70.3269 74.2426 75.3333 74.5401C79.9044 74.8178 83.9609 78.884 84.0203 83.803C83.6641 85.0923 83.3475 86.3816 82.8924 87.6312C82.7143 88.2263 82.6549 88.5634 83.11 89.0197ZM93.1426 92.7685C91.6387 92.7883 90.115 92.7883 88.6111 92.7685C86.8698 92.7486 86.1178 91.9751 86.098 90.2098C86.0783 88.0279 86.098 85.8659 86.098 83.684C86.098 81.4427 86.0783 79.2013 86.098 76.96C86.1178 76.0079 86.4147 75.0955 87.4041 74.8376C88.0175 74.6789 88.8288 74.7781 89.4225 75.0558C90.1942 75.4128 90.3525 76.2657 90.3525 77.0988C90.3327 80.5699 90.3921 84.0212 90.3327 87.4924C90.3129 88.4643 90.6295 88.7816 91.5596 88.6626C92.0741 88.6031 92.6083 88.6428 93.1426 88.6626C94.3299 88.7023 95.2402 89.5949 95.2599 90.7056C95.2402 91.8164 94.3101 92.7486 93.1426 92.7685Z" fill="#00E398"/>
</g>
<defs>
<clipPath id="clip0_50_2052">
<rect width="99" height="101" fill="white"/>
</clipPath>
</defs>
</svg>
