<svg width="104" height="105" viewBox="0 0 104 105" fill="none" xmlns="http://www.w3.org/2000/svg">
<path d="M62.345 46.7488H41.6094V52.638H62.345V46.7488Z" fill="#00E398"/>
<path fill-rule="evenodd" clip-rule="evenodd" d="M51.9997 38.1659C56.0457 35.6549 58.2066 33.8745 60.2296 29.3092L60.3675 28.944C61.9767 25.1091 62.6663 20.7264 62.6663 16.6177V0H41.333V16.6177C41.333 20.7721 41.9767 25.1091 43.6319 28.944L43.7698 29.3092C45.7928 33.8288 47.9537 35.6549 51.9997 38.1659ZM51.5859 30.6331C48.2755 27.1178 47.31 21.3199 47.31 16.6633V5.88923H56.7353V16.6177C56.7353 21.2743 55.7698 27.1179 52.4594 30.5875L52.0457 30.9984L51.5859 30.6331Z" fill="#00E398"/>
<path fill-rule="evenodd" clip-rule="evenodd" d="M38.2528 13.8785V7.98926H29.1953V24.9265C29.1953 29.857 30.7126 34.7875 34.2988 38.3028C37.793 41.7268 42.3907 43.0051 47.1723 43.0964V37.1615C44.0459 37.0702 40.7355 36.3397 38.4367 34.0571C35.9999 31.6831 35.1263 28.1679 35.1263 24.8808V13.8785H38.2528Z" fill="#00E398"/>
<path fill-rule="evenodd" clip-rule="evenodd" d="M65.195 7.98926V13.8785H68.8272V24.9265C68.8272 28.2135 67.9537 31.7288 65.5169 34.1027C63.218 36.3397 59.9537 37.1158 56.7812 37.2071V43.0964C61.5629 43.0051 66.1606 41.7268 69.6548 38.3028C73.241 34.7875 74.7123 29.857 74.7123 24.9265V7.98926H65.195Z" fill="#00E398"/>
<path d="M7.58621 77.0621H16.1379L19.908 73.3186V67.7033H23.1264V64.2793H7.58621V67.7033H15.7701V72.0859L14.2069 73.6382H7.58621V77.0621ZM26.3908 77.0621H39.2644L40.7816 75.5556V64.2336H36.6437V73.5925H29.0115V64.2336H24.9195V75.5556L26.3908 77.0621ZM42.069 77.0621H46.069L47.1724 75.0077H55.4943L56.5977 77.0621H60.6437V75.5556L53.7931 64.2336H48.8736L42.023 75.5099V77.0621H42.069ZM49.0115 71.5838L51.3563 67.338L53.6552 71.5838H49.0115ZM61.931 77.0621H66.069V72.2686H67.6322L72.8736 77.0621H77.2874V75.6469L73.1034 72.2686H76.4138L77.931 70.762V65.7402L76.4138 64.2336H61.931V77.0621ZM66.069 67.7033H73.7931V69.2555H66.069V67.7033ZM78.7126 77.0621H82.7126L83.8161 75.0077H92.1839L93.2874 77.0621H97.3333V75.5556L90.4828 64.2793H85.6092L78.7586 75.5556V77.0621H78.7126ZM85.6552 71.5838L88 67.338L90.2989 71.5838H85.6552ZM1.47126 93.0407H15.8161V89.6167H4.09195V83.6818H11.954V85.9188H15.8621V80.2122H1.47126L0 81.7187V91.5341L1.47126 93.0407ZM19.4023 93.0407H32.8736L34.3908 91.5798V81.7187L32.8736 80.2122H19.4023L17.931 81.7187V91.5341L19.4023 93.0407ZM22.023 83.6818H30.2069V89.6167H22.023V83.6818ZM36.4138 93.0407H51.3563L52.8736 91.5798V85.5079L47.5862 80.2578H36.4138V93.0407ZM40.5517 89.6167V83.6818H45.7011L48.7816 86.7405V89.6167H40.5517ZM54.4368 93.0407H68.4598V89.8449H63.4943V83.4535H68.4598V80.2578H54.4368V83.4535H59.4023V89.8449H54.4368V93.0407ZM70.1149 93.0407H74.2529V84.9601L80.5517 93.0407H85.8391V80.2578H81.7011V88.521L75.1724 80.2578H70.1149V93.0407ZM95.3563 85.234V87.8819H100.138V89.8449H92V83.4535H102.575V80.2578H89.3793L87.8621 81.7644V91.5798L89.3793 93.0407H102.483L104 91.5798V85.234H95.3563Z" fill="white"/>
<path d="M8.36827 101.076V101.532H9.42574C9.42574 102.308 8.87401 102.902 8.13838 102.902C7.21884 102.902 6.66712 102.126 6.66712 100.984C6.66712 99.8886 7.26482 99.0669 8.18436 99.0669C8.96597 99.0669 9.33378 99.5234 9.47171 100.163V100.208H10.0234V100.163C9.93148 99.2951 9.33378 98.6103 8.18436 98.6103C6.897 98.6103 6.02344 99.6147 6.02344 100.984C6.02344 102.308 6.75907 103.313 8.0924 103.313C8.59815 103.313 9.01194 103.13 9.28781 102.856L9.47171 102.445V103.221H9.97746V101.076H8.36827ZM12.2763 99.706C12.1384 99.706 11.9545 99.7517 11.8165 99.8886L11.4947 100.345V99.7973H10.943V103.267H11.4947V101.304C11.4947 100.528 11.9545 100.163 12.5522 100.208V99.7973C12.4602 99.706 12.3683 99.706 12.2763 99.706ZM14.4372 99.706C13.2418 99.706 12.7361 100.528 12.7361 101.532C12.7361 102.491 13.2878 103.358 14.4372 103.358C15.6326 103.358 16.1844 102.536 16.1844 101.532C16.1844 100.528 15.6326 99.706 14.4372 99.706ZM14.4372 102.902C13.7476 102.902 13.3338 102.308 13.3338 101.532C13.3338 100.71 13.7476 100.163 14.4372 100.163C15.1729 100.163 15.5407 100.71 15.5407 101.532C15.5407 102.308 15.1269 102.902 14.4372 102.902ZM21.4717 99.7517H20.874L20.0924 102.673L19.3108 99.7517H18.6211L17.8395 102.673L17.0579 99.7517H16.4142L17.5177 103.221H18.2073L18.989 100.3L19.7706 103.221H20.4142L21.4717 99.7517ZM25.6096 98.7473C25.4257 98.7017 25.2418 98.7016 25.0119 98.7016H23.6326V103.176H24.1844V101.35H25.0119C25.2418 101.35 25.4257 101.35 25.6096 101.35C26.2533 101.258 26.805 100.802 26.805 100.026C26.805 99.2951 26.2993 98.8386 25.6096 98.7473ZM25.5637 100.893C25.4257 100.893 25.2418 100.939 25.0579 100.939H24.1384V99.2038H25.0579C25.2418 99.2038 25.4257 99.2038 25.5637 99.2495C25.8855 99.3408 26.1614 99.5691 26.1614 100.071C26.1614 100.573 25.8855 100.802 25.5637 100.893ZM30.2073 101.395C30.2073 100.391 29.6556 99.6604 28.6901 99.6604C27.7246 99.6604 27.0349 100.391 27.0349 101.486C27.0349 102.673 27.7246 103.267 28.6441 103.267C29.3798 103.267 30.0234 102.902 30.1614 102.08H29.5637C29.5177 102.582 29.1039 102.856 28.6441 102.856C28.1384 102.856 27.6786 102.537 27.6326 101.623H30.1614C30.2073 101.532 30.2073 101.441 30.2073 101.395ZM28.7361 100.117C29.3338 100.117 29.6096 100.528 29.6556 101.258H27.7246C27.7706 100.482 28.1844 100.117 28.7361 100.117ZM32.4142 99.706C31.2188 99.706 30.6671 100.528 30.6671 101.532C30.6671 102.491 31.2188 103.358 32.4142 103.358C33.6096 103.358 34.1614 102.536 34.1614 101.532C34.1614 100.528 33.6096 99.706 32.4142 99.706ZM32.4142 102.902C31.7246 102.902 31.3108 102.308 31.3108 101.532C31.3108 100.71 31.7246 100.163 32.4142 100.163C33.1039 100.163 33.5177 100.71 33.5177 101.532C33.5177 102.308 33.1039 102.902 32.4142 102.902ZM36.5522 99.706C36.1844 99.706 35.8165 99.7973 35.6326 99.9799L35.3568 100.345V99.7973H34.805V104.545H35.4028V102.81L35.6326 103.13C35.8165 103.267 36.1844 103.358 36.4602 103.358C37.3798 103.358 38.1614 102.765 38.1614 101.486C38.1614 100.436 37.6096 99.706 36.5522 99.706ZM36.4602 102.902C35.9545 102.902 35.4028 102.537 35.4028 101.669V101.486C35.4028 100.482 35.9085 100.117 36.5062 100.117C37.1959 100.117 37.5637 100.71 37.5637 101.532C37.5177 102.445 37.0579 102.902 36.4602 102.902ZM39.4027 98.4277H38.851V102.263V102.719C38.851 103.176 39.1269 103.267 39.4487 103.267C39.5867 103.267 39.7246 103.267 39.8625 103.221V102.81C39.5407 102.856 39.4487 102.765 39.4487 102.537V102.217V98.4277H39.4027ZM42.6671 102.126C42.6211 102.628 42.2533 102.902 41.7476 102.902C41.2418 102.902 40.7821 102.582 40.7361 101.669H43.2648C43.2648 101.532 43.2648 101.441 43.2648 101.395L42.6671 102.126ZM43.3108 101.395C43.3108 100.391 42.7591 99.6604 41.7936 99.6604C40.828 99.6604 40.1384 100.391 40.1384 101.486C40.1384 102.673 40.7821 103.267 41.7016 103.267C42.4372 103.267 43.0809 102.902 43.2188 102.08H42.6211L43.3108 101.395ZM41.7936 100.117C42.3913 100.117 42.6671 100.528 42.7131 101.258H40.7821C40.874 100.482 41.2878 100.117 41.7936 100.117ZM49.0579 99.2038V98.7473H45.2418V99.2038H46.851V103.221H47.4028V99.2038H49.0579ZM52.3223 100.71C52.2763 100.117 51.8625 99.706 51.0809 99.706C50.7131 99.706 50.4832 99.7517 50.1614 99.9799L49.9315 100.391V98.4277H49.3798V103.267H49.9315V101.76C49.9315 100.573 50.3913 100.208 50.943 100.163C51.4947 100.163 51.7246 100.482 51.7246 100.893C51.7246 101.076 51.7246 101.213 51.7246 101.395V103.313H52.2763V101.395C52.3223 100.984 52.3223 100.893 52.3223 100.71ZM54.6211 99.706C54.4372 99.706 54.2993 99.7517 54.1154 99.8886L53.7936 100.345V99.7973H53.2418V103.267H53.7936V101.304C53.7936 100.528 54.2533 100.163 54.805 100.208V99.7973C54.805 99.706 54.7131 99.706 54.6211 99.706ZM56.7821 99.706C55.5867 99.706 55.0349 100.528 55.0349 101.532C55.0349 102.491 55.5867 103.358 56.7821 103.358C57.9775 103.358 58.5292 102.536 58.5292 101.532C58.5292 100.528 57.9775 99.706 56.7821 99.706ZM56.7821 102.902C56.0924 102.902 55.6786 102.308 55.6786 101.532C55.6786 100.71 56.0924 100.163 56.7821 100.163C57.4717 100.163 57.8855 100.71 57.8855 101.532C57.9315 102.308 57.5177 102.902 56.7821 102.902ZM62.1154 99.7517H61.5637V101.258C61.5637 102.445 61.1499 102.856 60.5982 102.856C60.1384 102.856 59.8165 102.582 59.7706 102.217C59.7706 102.034 59.7706 101.852 59.7706 101.715V99.7517H59.2188V101.852C59.2188 102.126 59.2188 102.263 59.2648 102.445C59.3108 102.947 59.7706 103.313 60.4602 103.313C60.828 103.313 61.0579 103.267 61.3798 103.039L61.6096 102.628V103.221H62.1614V99.7517H62.1154ZM66.1614 99.7517H65.6096V100.208L65.3798 99.843C65.1959 99.706 64.828 99.6147 64.5522 99.6147C63.6326 99.6147 62.851 100.208 62.851 101.486C62.851 102.491 63.4028 103.267 64.4602 103.267C64.828 103.267 65.1959 103.13 65.3798 102.993L65.6556 102.628V102.673C65.6556 102.81 65.6556 102.902 65.6556 103.039C65.6556 103.723 65.2418 104.089 64.5522 104.089C63.9545 104.089 63.5867 103.815 63.5407 103.358V103.313H62.989V103.358C63.0349 104.089 63.5407 104.5 64.5522 104.5C65.5637 104.5 66.1614 103.952 66.2073 102.947C66.2073 102.765 66.2073 102.491 66.2073 102.263V99.7517H66.1614ZM64.5062 102.902C63.8165 102.902 63.4487 102.263 63.4487 101.486C63.4487 100.573 63.9085 100.117 64.5522 100.117C65.0579 100.117 65.6096 100.436 65.6096 101.35V101.532C65.5637 102.536 65.0579 102.902 64.5062 102.902ZM70.0694 100.71C70.0234 100.117 69.5637 99.706 68.828 99.706C68.4602 99.706 68.2303 99.7517 67.9085 99.9799L67.6786 100.391V98.4277H67.1269V103.267H67.6786V101.76C67.6786 100.573 68.1384 100.208 68.6901 100.163C69.2418 100.163 69.4717 100.482 69.4717 100.893C69.4717 101.076 69.4717 101.213 69.4717 101.395V103.313H70.0234V101.395C70.1154 100.984 70.1154 100.893 70.0694 100.71ZM75.6786 102.765H73.1959V98.7016H72.6441V103.176H75.6786V102.765ZM79.0809 101.395C79.0809 100.391 78.5292 99.6604 77.5637 99.6604C76.5982 99.6604 75.9085 100.391 75.9085 101.486C75.9085 102.673 76.5982 103.267 77.4717 103.267C78.2073 103.267 78.851 102.902 78.989 102.08H78.3913C78.2993 102.582 77.9315 102.856 77.4717 102.856C76.966 102.856 76.5062 102.537 76.4602 101.623H78.989C79.0809 101.532 79.0809 101.441 79.0809 101.395ZM77.6096 100.117C78.1614 100.117 78.4832 100.528 78.5292 101.258H76.5522C76.6441 100.482 77.0579 100.117 77.6096 100.117ZM81.8395 103.221H82.3913C82.3453 102.856 82.3453 102.628 82.3453 102.354V101.076C82.3453 100.893 82.3453 100.756 82.3453 100.619C82.2993 100.071 81.9315 99.706 81.1039 99.706C80.3223 99.706 79.8165 100.117 79.7706 100.847H80.3683C80.4142 100.345 80.6441 100.117 81.1039 100.117C81.5637 100.117 81.7476 100.3 81.7476 100.665C81.7476 100.802 81.7476 100.939 81.7476 101.076V101.167H81.5177C80.1384 101.167 79.5407 101.578 79.5407 102.354C79.5407 102.993 80.0464 103.358 80.6901 103.358C81.0119 103.358 81.3338 103.313 81.5637 103.13L81.7476 102.765L81.8395 103.221ZM80.92 102.902C80.5062 102.902 80.2303 102.719 80.2303 102.308C80.2303 101.715 80.828 101.486 81.7935 101.578V101.943C81.7935 102.537 81.4717 102.902 80.92 102.902ZM84.6901 99.706C84.5062 99.706 84.3223 99.7517 84.1844 99.8886L83.8625 100.345V99.7973H83.3108V103.267H83.8625V101.304C83.8625 100.528 84.3223 100.163 84.874 100.208V99.7973C84.874 99.706 84.7821 99.706 84.6901 99.706ZM88.4602 100.71C88.4142 100.117 87.9545 99.706 87.2188 99.706C86.851 99.706 86.6211 99.7517 86.2993 99.9799L86.0694 100.391V99.7973H85.5177V103.267H86.0694V101.76C86.0694 100.573 86.5292 100.163 87.0809 100.163C87.6326 100.163 87.8625 100.482 87.8625 100.893C87.8625 101.076 87.8625 101.213 87.8625 101.395V103.313H88.4142V101.395C88.4602 100.984 88.4602 100.893 88.4602 100.71ZM89.7016 98.6103C89.5177 98.6103 89.3338 98.793 89.3338 98.9756C89.3338 99.1582 89.4717 99.3408 89.7016 99.3408C89.9315 99.3408 90.0694 99.1582 90.0694 98.9756C90.0694 98.793 89.8855 98.6103 89.7016 98.6103ZM89.9775 99.7517H89.4257V103.221H89.9775V99.7517ZM93.8855 100.71C93.8395 100.117 93.4257 99.706 92.6441 99.706C92.2763 99.706 92.0464 99.7517 91.7246 99.9799L91.4947 100.391V99.7973H90.943V103.267H91.4947V101.76C91.4947 100.573 91.9545 100.163 92.5062 100.163C93.0579 100.163 93.2418 100.482 93.2878 100.893C93.2878 101.076 93.2878 101.213 93.2878 101.395V103.313H93.8395V101.395C93.9315 100.984 93.9315 100.893 93.8855 100.71ZM97.9315 99.7517H97.3798V100.208L97.1499 99.843C96.966 99.706 96.5982 99.6147 96.3223 99.6147C95.4027 99.6147 94.6211 100.208 94.6211 101.486C94.6211 102.491 95.1729 103.267 96.1844 103.267C96.5522 103.267 96.92 103.13 97.1039 102.993L97.3338 102.628V102.673V103.039C97.2878 103.723 96.92 104.089 96.2303 104.089C95.6326 104.089 95.3108 103.815 95.2648 103.358V103.313H94.6671V103.358C94.7131 104.089 95.2188 104.5 96.2303 104.5C97.2418 104.5 97.8395 103.952 97.8855 102.947V102.263V99.7517H97.9315ZM96.2303 102.902C95.5407 102.902 95.1729 102.263 95.1729 101.486C95.1729 100.573 95.6326 100.117 96.2763 100.117C96.7821 100.117 97.3338 100.436 97.3338 101.35V101.532C97.3338 102.536 96.828 102.902 96.2303 102.902Z" fill="white"/>
</svg>
