<svg width="131" height="131" viewBox="0 0 131 131" fill="none" xmlns="http://www.w3.org/2000/svg">
<path d="M130.7 63.5817C129.033 56.5964 121.571 52.998 115.089 56.0673C114.824 56.1996 114.56 56.3319 114.083 56.57C114.083 55.9085 114.083 55.4058 114.083 54.903C114.083 39.0275 114.083 23.1254 114.083 7.24985C114.083 2.46071 111.623 0 106.86 0C76.4583 0 46.0566 0 15.6548 0C10.9715 0 8.4579 2.48717 8.4579 7.14401C8.4579 12.7005 8.4579 18.2305 8.4579 23.7869C8.4579 24.2632 8.4579 24.7394 8.4579 25.348C7.66412 25.348 6.97618 25.3216 6.28823 25.348C2.82207 25.4274 0.0438392 28.0998 0.0438392 31.5659C-0.0090794 42.917 -0.0090794 54.268 0.0173799 65.6455C0.0173799 69.0323 2.76915 71.7312 6.15594 71.837C6.84388 71.8635 7.55828 71.837 8.4579 71.837C8.4579 72.4191 8.4579 72.9218 8.4579 73.4246C8.4579 89.9352 8.53727 106.446 8.40498 122.93C8.37852 126.872 9.64857 129.651 13.4587 131C45.3157 131 77.1992 131 109.056 131C111.49 130.1 113.369 128.645 113.898 125.946C114.031 125.258 114.057 124.544 114.057 123.856C114.057 112.161 114.083 100.466 114.031 88.771C114.031 87.8713 114.295 87.2363 114.93 86.6013C118.529 83.0557 122.048 79.4044 125.673 75.9117C128.107 73.5569 130.25 71.0697 130.938 67.63C130.938 66.5716 130.938 65.5132 130.938 64.4549C130.885 64.1638 130.779 63.8728 130.7 63.5817ZM12.6914 6.85296C12.6914 4.97435 13.4322 4.25995 15.3373 4.23349C15.5225 4.23349 15.6813 4.23349 15.8665 4.23349C46.1359 4.23349 76.4054 4.23349 106.675 4.23349C109.294 4.23349 109.876 4.78913 109.876 7.38214C109.876 10.5043 109.876 13.6265 109.876 16.881C77.4373 16.881 45.1569 16.881 12.7972 16.881C12.7708 16.5635 12.7178 16.2725 12.7178 15.9814C12.6649 12.9121 12.6649 9.86932 12.6914 6.85296ZM7.18785 67.6035C4.85943 67.6035 4.22441 66.9685 4.22441 64.6136C4.22441 53.9241 4.22441 43.2345 4.22441 32.5185C4.22441 30.1901 4.85943 29.555 7.21431 29.555C14.7023 29.555 22.1903 29.555 29.6518 29.555C37.0869 29.555 44.5219 29.555 51.957 29.555C54.2854 29.555 54.9204 30.1901 54.9204 32.5449C54.9204 43.2345 54.9204 53.9241 54.9204 64.6401C54.9204 66.9685 54.2854 67.6035 51.9305 67.6035C37.0075 67.6035 22.1109 67.6035 7.18785 67.6035ZM109.85 93.2161C109.85 103.429 109.85 113.643 109.85 123.856C109.85 126.131 109.188 126.793 106.966 126.793C76.4583 126.793 45.9772 126.793 15.4696 126.793C13.4322 126.793 12.6649 126.105 12.6649 124.2C12.6649 107.028 12.6649 89.8822 12.6649 72.7102C12.6649 72.4985 12.6914 72.2868 12.7178 71.8635C13.247 71.8635 13.7498 71.8635 14.2525 71.8635C26.7942 71.8635 39.3359 71.8635 51.8776 71.8635C56.6403 71.8635 59.1539 69.3763 59.1539 64.6665C59.1539 53.9241 59.1539 43.1816 59.1539 32.4391C59.1539 27.941 56.6138 25.3745 52.1422 25.3745C39.5476 25.3745 26.9794 25.3745 14.3848 25.3745C13.8556 25.3745 13.3529 25.3745 12.7443 25.3745C12.7443 23.9721 12.7443 22.6756 12.7443 21.2468C45.0247 21.2468 77.3315 21.2468 109.85 21.2468C109.85 21.6702 109.85 22.1464 109.85 22.5962C109.85 34.794 109.85 46.9917 109.876 59.163C109.876 60.0097 109.691 60.6447 109.056 61.2533C107.971 62.2587 106.966 63.37 105.722 64.6665C105.722 59.8509 105.722 55.3793 105.722 50.8283C93.0218 50.8283 80.4007 50.8283 67.7267 50.8283C67.7267 57.7607 67.7267 64.7459 67.7267 71.8105C77.8606 71.8105 87.9416 71.8105 98.4195 71.8105C97.8639 72.3926 97.5464 72.7631 97.2024 73.107C87.1214 83.188 77.0404 93.2955 66.933 103.35C66.0598 104.223 65.5306 105.123 65.3719 106.393C64.7104 111.552 63.9166 116.659 63.1757 121.819C63.1228 122.11 63.1493 122.427 63.1228 122.956C66.1127 122.533 68.9439 122.163 71.7486 121.766C74.5003 121.369 77.2521 121.025 79.9774 120.522C80.7976 120.363 81.7237 119.914 82.3058 119.331C91.1168 110.6 99.8748 101.815 108.659 93.0309C108.977 92.7134 109.347 92.3959 109.876 91.8931C109.85 92.4488 109.85 92.8192 109.85 93.2161ZM73.8653 108.615C72.9657 107.742 71.8808 106.684 70.9018 105.705C82.491 94.1157 94.1067 82.5001 105.749 70.858C106.701 71.837 107.733 72.8954 108.633 73.8214C97.0701 85.4106 85.4545 97.0263 73.8653 108.615ZM75.5322 116.871C73.0715 117.215 70.6373 117.559 67.9913 117.956C68.3618 115.31 68.7057 112.902 69.0497 110.388C71.2723 112.584 73.3361 114.648 75.5322 116.871ZM101.357 67.5506C91.5401 67.5506 81.8031 67.5506 71.9602 67.5506C71.9602 63.4229 71.9602 59.2688 71.9602 55.0353C81.6972 55.0353 91.4872 55.0353 101.357 55.0353C101.357 59.2424 101.357 63.3436 101.357 67.5506ZM80.0568 114.992C79.2101 114.145 78.1782 113.087 77.2521 112.135C88.8677 100.519 100.483 88.9032 112.125 77.2347C112.972 78.1608 113.951 79.2721 114.824 80.2246C103.367 91.655 91.7518 103.271 80.0568 114.992ZM125.09 70.4082C122.947 72.7366 120.592 74.8534 118.396 77.023C115.195 73.8214 112.046 70.6728 109.03 67.6564C111.252 65.328 113.395 62.735 115.883 60.5389C118.502 58.2369 122.55 58.7926 124.932 61.3856C127.287 63.9257 127.445 67.8416 125.09 70.4082Z" fill="#00E398"/>
<path d="M105.563 25.4539C92.863 25.4539 80.2684 25.4539 67.7002 25.4539C67.7002 32.5185 67.7002 39.4773 67.7002 46.4096C80.3742 46.4096 92.9424 46.4096 105.563 46.4096C105.563 39.3979 105.563 32.4656 105.563 25.4539ZM101.383 42.1497C91.5929 42.1497 81.803 42.1497 71.9337 42.1497C71.9337 38.0485 71.9337 33.8944 71.9337 29.6609C81.6972 29.6609 91.4871 29.6609 101.383 29.6609C101.383 33.8679 101.383 37.9691 101.383 42.1497Z" fill="#00E398"/>
<path d="M17.0044 114.04C31.0807 114.04 45.0513 114.04 59.0747 114.04C59.0747 112.664 59.0747 111.367 59.0747 109.965C44.9719 109.965 30.9749 109.965 17.0044 109.965C17.0044 111.394 17.0044 112.717 17.0044 114.04Z" fill="#00E398"/>
<path d="M21.1581 105.573C22.5869 105.573 23.9363 105.573 25.3916 105.573C25.3916 104.17 25.3916 102.821 25.3916 101.392C26.8469 101.392 28.1434 101.392 29.4928 101.392C29.4928 99.9633 29.4928 98.6139 29.4928 97.1586C28.0904 97.1586 26.741 97.1586 25.3122 97.1586C25.3122 90.0675 25.3122 83.1352 25.3122 76.1499C23.8834 76.1499 22.5605 76.1499 21.1317 76.1499C21.1317 83.1616 21.1317 90.094 21.1317 97.2644C19.597 97.2644 18.274 97.2644 16.9775 97.2644C16.9775 98.7197 16.9775 100.016 16.9775 101.471C18.3799 101.471 19.7293 101.471 21.1581 101.471C21.1581 102.9 21.1581 104.223 21.1581 105.573Z" fill="#00E398"/>
<path d="M38.0658 105.573C39.4682 105.573 40.7647 105.573 42.2993 105.573C42.2993 98.508 42.2993 91.5492 42.2993 84.4846C43.7546 84.4846 45.0511 84.4846 46.4005 84.4846C46.4005 83.0558 46.4005 81.7064 46.4005 80.2511C44.9982 80.2511 43.6487 80.2511 42.2199 80.2511C42.2199 78.7958 42.2199 77.4993 42.2199 76.1499C40.7911 76.1499 39.4417 76.1499 37.9864 76.1499C37.9864 77.5787 37.9864 78.9017 37.9864 80.3305C36.5312 80.3305 35.2347 80.3305 33.8853 80.3305C33.8853 81.7593 33.8853 83.1087 33.8853 84.564C35.3141 84.564 36.637 84.564 38.0658 84.564C38.0658 91.6551 38.0658 98.5874 38.0658 105.573Z" fill="#00E398"/>
<path d="M63.3082 88.6916C61.9059 88.6916 60.5565 88.6916 59.1276 88.6916C59.1276 84.4317 59.1276 80.304 59.1276 76.1499C57.6988 76.1499 56.3759 76.1499 54.8942 76.1499C54.8942 80.3834 54.8942 84.5375 54.8942 88.771C53.4389 88.771 52.1424 88.771 50.793 88.771C50.793 90.1998 50.793 91.5492 50.793 93.0045C52.1953 93.0045 53.5447 93.0045 54.9735 93.0045C54.9735 97.2644 54.9735 101.392 54.9735 105.546C56.4023 105.546 57.7253 105.546 59.207 105.546C59.207 101.313 59.207 97.1586 59.207 92.9251C60.6623 92.9251 61.9588 92.9251 63.3082 92.9251C63.3082 91.4963 63.3082 90.1733 63.3082 88.6916Z" fill="#00E398"/>
<path d="M16.9775 122.48C28.2227 122.48 39.415 122.48 50.6602 122.48C50.6602 121.104 50.6602 119.808 50.6602 118.432C39.3621 118.432 28.1698 118.432 16.9775 118.432C16.9775 119.808 16.9775 121.131 16.9775 122.48Z" fill="#00E398"/>
<path d="M105.563 101.498C104.161 101.498 102.838 101.498 101.515 101.498C101.515 102.927 101.515 104.25 101.515 105.573C102.917 105.573 104.214 105.573 105.563 105.573C105.563 104.117 105.563 102.821 105.563 101.498Z" fill="#00E398"/>
<path d="M101.515 114.013C102.917 114.013 104.214 114.013 105.59 114.013C105.59 112.637 105.59 111.341 105.59 109.965C104.135 109.965 102.812 109.965 101.515 109.965C101.515 111.394 101.515 112.717 101.515 114.013Z" fill="#00E398"/>
<path d="M55.0264 122.454C56.4552 122.454 57.7781 122.454 59.1276 122.454C59.1276 121.078 59.1276 119.808 59.1276 118.432C57.7517 118.432 56.4023 118.432 55.0264 118.432C55.0264 119.808 55.0264 121.131 55.0264 122.454Z" fill="#00E398"/>
<path d="M101.489 122.454C102.891 122.454 104.241 122.454 105.537 122.454C105.537 121.025 105.537 119.702 105.537 118.352C104.161 118.352 102.891 118.352 101.489 118.352C101.489 119.808 101.489 121.131 101.489 122.454Z" fill="#00E398"/>
<path d="M23.3809 60.5918C24.7567 61.0416 26.0268 61.465 27.3762 61.9412C30.2074 53.4478 33.012 45.0867 35.8432 36.5932C34.3879 36.117 33.1708 35.6936 31.8478 35.2703C28.9902 43.7637 26.212 52.1248 23.3809 60.5918Z" fill="#00E398"/>
<path d="M20.3644 41.6734C19.4119 40.668 18.5122 39.7419 17.6655 38.8423C14.3052 42.2026 11.0772 45.4306 7.98145 48.5264C11.1566 51.7015 14.4375 54.9825 17.6655 58.2105C18.5122 57.4167 19.4383 56.5171 20.5761 55.4323C18.2477 53.1038 15.9457 50.8283 13.4585 48.3676C15.8134 46.0921 18.1154 43.8696 20.3644 41.6734Z" fill="#00E398"/>
<path d="M38.5952 41.7527C40.9236 44.0547 43.1991 46.3302 45.6599 48.7909C43.305 51.0929 41.0295 53.3155 38.7011 55.591C39.7065 56.57 40.6326 57.496 41.5057 58.3692C44.8396 55.0353 48.0941 51.7808 51.1898 48.6851C47.9883 45.51 44.7073 42.229 41.4528 39.001C40.6326 39.7418 39.7065 40.6679 38.5952 41.7527Z" fill="#00E398"/>
<path d="M18.962 8.5199C17.5068 8.5199 16.2103 8.5199 14.8608 8.5199C14.8608 9.92224 14.8608 11.2452 14.8608 12.5946C16.2632 12.5946 17.5861 12.5946 18.962 12.5946C18.962 11.2187 18.962 9.89578 18.962 8.5199Z" fill="#00E398"/>
<path d="M27.3765 8.5199C25.9741 8.5199 24.6776 8.5199 23.3018 8.5199C23.3018 9.89578 23.3018 11.1923 23.3018 12.5946C24.7306 12.5946 26.0535 12.5946 27.3765 12.5946C27.3765 11.1658 27.3765 9.84286 27.3765 8.5199Z" fill="#00E398"/>
<path d="M35.8168 8.5199C34.4145 8.5199 33.118 8.5199 31.7686 8.5199C31.7686 9.92224 31.7686 11.2452 31.7686 12.6211C33.1444 12.6211 34.4409 12.6211 35.8168 12.6211C35.8168 11.1658 35.8168 9.84286 35.8168 8.5199Z" fill="#00E398"/>
</svg>
