<svg width="97" height="97" viewBox="0 0 97 97" fill="none" xmlns="http://www.w3.org/2000/svg">
<path d="M96.981 78.8683C96.981 77.2545 96.2788 76.552 94.6846 76.533C93.3181 76.514 91.9706 76.533 90.6042 76.533C88.5924 76.533 86.5807 76.533 84.4741 76.533C84.4741 76.0963 84.4741 75.7736 84.4741 75.4318C84.4741 71.065 84.4741 66.7172 84.4741 62.3504C84.4741 60.5087 83.8098 59.8632 81.9499 59.8632C78.0972 59.8632 74.2446 59.8632 70.3919 59.8632C70.0503 59.8632 69.7276 59.8632 69.3101 59.8632C69.3101 59.4076 69.3101 59.0658 69.3101 58.7241C69.3101 54.3952 69.3101 50.0664 69.3101 45.7376C69.3101 43.801 68.6838 43.1744 66.748 43.1744C54.5637 43.1744 42.3794 43.1744 30.1951 43.1744C28.2592 43.1744 27.6329 43.801 27.6329 45.7376C27.6329 50.1044 27.6329 54.4522 27.6329 58.819C27.6329 59.1607 27.6329 59.4835 27.6329 59.8632C23.3248 59.8632 19.1685 59.8632 15.0121 59.8632C13.1332 59.8632 12.488 60.5087 12.488 62.3504C12.488 66.7172 12.488 71.065 12.488 75.4318C12.488 75.7736 12.488 76.1153 12.488 76.533C12.0894 76.533 11.7858 76.533 11.4821 76.533C8.5404 76.533 5.61769 76.571 2.67599 76.514C1.49932 76.495 0.588339 76.7988 0 77.862C0 84.2414 0 90.6207 0 97C31.8842 97 63.7683 97 95.6525 97C96.6204 96.4494 97 95.633 97 94.5129C96.962 89.2917 96.981 84.0895 96.981 78.8683ZM31.4856 47.0286C42.8159 47.0286 54.0892 47.0286 65.4574 47.0286C65.4574 51.2435 65.4574 55.4964 65.4574 59.7873C54.1841 59.7873 42.8728 59.7873 31.4856 59.7873C31.4856 55.5154 31.4856 51.2815 31.4856 47.0286ZM93.1473 93.1459C63.4077 93.1459 33.6492 93.1459 3.83369 93.1459C3.83369 88.855 3.83369 84.6401 3.83369 80.3302C4.25122 80.3302 4.61182 80.3302 4.99139 80.3302C22.7554 80.3302 40.5384 80.3302 58.3025 80.3302C58.6441 80.3302 59.0047 80.3492 59.3463 80.3113C60.3901 80.1973 61.1493 79.4379 61.1683 78.4696C61.1872 77.4633 60.4091 76.6659 59.3084 76.552C59.0047 76.514 58.6821 76.533 58.3594 76.533C44.7517 76.533 31.144 76.533 17.5363 76.533C17.1567 76.533 16.7771 76.533 16.3406 76.533C16.3406 75.0141 16.3406 73.5522 16.3406 71.9764C16.6823 71.9764 17.0239 71.9764 17.3655 71.9764C22.1291 71.9764 26.8928 71.9764 31.6754 71.9764C32.1119 71.9764 32.5674 71.9574 32.9849 71.8435C33.839 71.5776 34.2755 70.9131 34.2565 70.0588C34.2375 69.2424 33.801 68.5968 32.9849 68.35C32.5674 68.2171 32.1119 68.1981 31.6754 68.1981C26.5891 68.1981 21.5218 68.1981 16.3596 68.1981C16.3596 66.6982 16.3596 65.2363 16.3596 63.7174C37.7676 63.7174 59.1755 63.7174 80.6404 63.7174C80.6404 67.9513 80.6404 72.1852 80.6404 76.533C79.5966 76.533 78.5337 76.533 77.4899 76.533C76.5789 76.533 75.649 76.495 74.738 76.552C73.5993 76.609 72.8591 77.3684 72.8212 78.3937C72.8022 79.4379 73.5803 80.2543 74.757 80.3113C75.611 80.3492 76.4651 80.3302 77.3191 80.3302C82.2346 80.3302 87.169 80.3302 92.0845 80.3302C92.4261 80.3302 92.7678 80.3302 93.1473 80.3302C93.1473 84.6211 93.1473 88.855 93.1473 93.1459Z" fill="#00E398"/>
<path d="M29.3789 18.5305C31.049 20.1063 32.5673 21.891 34.3703 23.315C36.1353 24.701 36.458 26.1819 35.9455 28.2704C35.3192 30.7955 35.0346 33.4156 34.5601 36.1306C34.674 36.5673 34.7499 37.1559 34.9776 37.6495C35.7937 39.2823 37.6726 39.8139 39.4376 38.9216C42.2085 37.4976 44.9794 36.0357 47.7123 34.5548C48.2817 34.251 48.7182 34.27 49.2876 34.5738C51.9446 36.0167 54.6206 37.4407 57.3345 38.7887C58.0557 39.1494 58.9857 39.3962 59.7638 39.2823C61.7186 39.0165 62.6675 37.3647 62.2879 35.1433C61.7945 32.1625 61.3011 29.1627 60.7317 26.2009C60.5988 25.5364 60.7886 25.1566 61.2441 24.739C63.4267 22.6315 65.6282 20.543 67.7348 18.3786C68.2852 17.828 68.7787 17.0496 68.9305 16.3091C69.329 14.2776 68.0005 12.8537 65.5902 12.5119C62.7245 12.1132 59.8397 11.6765 56.9739 11.2968C56.2337 11.2019 55.8352 10.8981 55.5126 10.2336C54.241 7.55653 52.8935 4.91746 51.6029 2.2594C50.9577 0.930376 50.0277 0.019043 48.4904 0.019043C46.9532 0.019043 46.0232 0.930376 45.3779 2.2594C44.0684 4.9934 42.683 7.68943 41.3734 10.4044C41.1267 10.9171 40.861 11.1639 40.2727 11.2398C37.312 11.6385 34.3513 12.0942 31.3717 12.5119C29.8724 12.7207 28.6008 13.2713 28.1074 14.8282C27.6519 16.3281 28.2782 17.5052 29.3789 18.5305ZM38.3938 15.3218C39.4186 15.17 40.4435 15.0181 41.4873 14.8852C42.8917 14.6953 43.8407 13.9548 44.467 12.6828C45.6436 10.2336 46.8583 7.82233 48.0539 5.39211C48.1678 5.16428 48.2817 4.95543 48.4715 4.61368C48.6613 4.91746 48.7941 5.14529 48.927 5.37312C50.1036 7.74639 51.3183 10.1007 52.438 12.4929C53.1402 13.9928 54.26 14.7333 55.8731 14.9231C58.6251 15.2649 61.358 15.7016 64.1099 16.1003C64.1858 16.1193 64.2617 16.1762 64.4325 16.2522C64.1858 16.518 63.996 16.7458 63.7873 16.9546C61.9273 18.7583 60.1054 20.6 58.2265 22.3657C57.0119 23.4859 56.6323 24.7579 56.9549 26.3718C57.5053 29.1817 57.9228 32.0106 58.4543 35.0484C58.0177 34.8396 57.7331 34.7067 57.4484 34.5548C55.095 33.3207 52.7417 32.1245 50.4263 30.8525C49.1547 30.15 47.9401 30.15 46.6495 30.8525C44.0494 32.2574 41.4114 33.6055 38.6026 35.0864C39.058 32.3714 39.4946 29.9032 39.9121 27.416C39.988 26.9793 40.0639 26.5426 40.1398 26.1059C40.4055 24.7389 40.0639 23.5618 39.0201 22.5745C37.0843 20.7329 35.1674 18.8343 33.2506 16.9546C33.0418 16.7458 32.833 16.518 32.5104 16.1572C34.5601 15.8914 36.4769 15.6066 38.3938 15.3218Z" fill="#00E398"/>
<path d="M12.2791 21.5683C13.1901 21.6063 14.1011 21.5683 15.0121 21.5683C15.923 21.5683 16.834 21.5873 17.745 21.5683C18.9786 21.5303 19.8137 20.7519 19.8137 19.6887C19.8326 18.6255 18.9786 17.8091 17.764 17.7901C15.942 17.7521 14.1201 17.7521 12.2791 17.7901C11.0265 17.8091 10.2294 18.5875 10.2104 19.6697C10.2294 20.7519 11.0455 21.5303 12.2791 21.5683Z" fill="#00E398"/>
<path d="M79.2169 17.79C77.9833 17.809 77.1482 18.5874 77.1292 19.6506C77.1102 20.7138 77.9643 21.5113 79.1789 21.5492C80.0899 21.5872 81.0009 21.5492 81.9118 21.5492C82.7659 21.5492 83.6199 21.5492 84.455 21.5492C84.5119 21.5492 84.5878 21.5492 84.6448 21.5492C85.8784 21.4923 86.7134 20.7328 86.7134 19.6696C86.7324 18.6064 85.8974 17.79 84.6638 17.771C82.8608 17.771 81.0388 17.771 79.2169 17.79Z" fill="#00E398"/>
<path d="M79.1411 32.5613C79.6915 33.0739 80.4696 33.1119 81.077 32.6372C81.5514 32.2575 81.8551 31.6689 82.1967 31.2322C81.9879 30.6816 81.95 30.2829 81.7222 30.0741C80.185 28.4982 78.6667 26.9034 77.0535 25.4035C76.4082 24.7959 75.3454 25.0048 74.7381 25.6313C74.1308 26.2389 73.941 27.3211 74.5483 27.9666C76.0097 29.5235 77.5659 31.0614 79.1411 32.5613Z" fill="#00E398"/>
<path d="M19.4532 25.7073C18.2955 26.8274 17.1757 27.9666 16.037 29.1248C15.7333 29.4285 15.4107 29.7513 15.183 30.131C14.4618 31.3461 15.3727 32.922 17.0618 32.922C17.3275 32.7701 17.8779 32.5612 18.2765 32.2005C19.586 30.9664 20.8576 29.6943 22.0912 28.4033C22.9452 27.5109 22.9832 26.3718 22.243 25.6123C21.4839 24.8339 20.3641 24.8529 19.4532 25.7073Z" fill="#00E398"/>
<path d="M15.5246 9.7209C16.8531 11.0689 18.1626 12.4169 19.5481 13.727C20.3452 14.4864 21.351 14.4864 22.1102 13.8409C22.8314 13.2333 23.0591 12.0942 22.4138 11.3917C20.9335 9.79685 19.4152 8.25897 17.7831 6.81603C17.4035 6.49326 16.4735 6.49326 15.9611 6.7211C15.4487 6.94893 15.145 7.63243 14.7844 8.05012C14.9742 8.61971 15.0691 8.94247 15.202 9.26523C15.2779 9.43611 15.4107 9.588 15.5246 9.7209Z" fill="#00E398"/>
<path d="M77.5657 13.5941C78.8373 12.36 80.0899 11.1259 81.3045 9.83486C81.6651 9.43615 81.8739 8.90454 82.2914 8.22104C81.798 7.65146 81.4563 7.00593 80.906 6.6452C80.1658 6.17054 79.3687 6.47432 78.7614 7.08188C77.4519 8.35394 76.1613 9.645 74.8897 10.955C74.0357 11.8474 73.9977 12.9866 74.7379 13.746C75.497 14.5434 76.6358 14.5054 77.5657 13.5941Z" fill="#00E398"/>
<path d="M67.0897 76.552C66.0648 76.59 65.2677 77.4444 65.2867 78.4696C65.3057 79.4949 66.1787 80.3303 67.1846 80.3113C68.1904 80.2733 69.0065 79.4189 68.9876 78.3937C68.9686 77.3494 68.0956 76.5141 67.0897 76.552Z" fill="#00E398"/>
<path d="M40.937 68.2171C39.9501 68.1981 39.0581 69.0905 39.0391 70.0777C39.0201 71.065 39.9121 71.9574 40.899 71.9763C41.8859 71.9953 42.7779 71.103 42.7969 70.1157C42.7969 69.1284 41.9239 68.2171 40.937 68.2171Z" fill="#00E398"/>
</svg>
