<svg width="131" height="131" viewBox="0 0 131 131" fill="none" xmlns="http://www.w3.org/2000/svg">
<path d="M78.5846 32.1988C78.6103 36.5826 81.3015 39.3 85.6844 39.3256C98.0385 39.3513 110.393 39.2487 122.772 39.3769C126.848 39.4025 129.693 38.0438 131 34.0446C131 27.4049 131 20.7395 131 14.0998C129.231 9.79296 127.617 8.71624 122.952 8.71624C117.826 8.71624 112.725 8.71624 107.599 8.71624C105.625 8.71624 105.01 8.17789 104.779 6.22955C104.293 2.25597 101.781 0 97.731 0C93.7325 0 89.7085 0 85.71 0C81.3271 0 78.6103 2.71742 78.5846 7.07554C78.5846 11.5106 78.5846 15.9456 78.5846 20.3806C78.5846 20.8421 78.5846 21.2779 78.5846 21.7906C76.4829 21.7906 74.5606 21.7906 72.6382 21.7906C68.1784 21.8162 65.5128 24.508 65.5128 28.9943C65.5128 39.9153 65.5128 50.8362 65.5128 61.7315C65.5128 62.2186 65.5128 62.7057 65.5128 63.1928C62.514 63.1928 59.7202 63.1928 56.7983 63.1928C56.7983 62.7057 56.7983 62.2955 56.7983 61.8597C56.7727 54.1433 56.7214 46.4268 56.7726 38.7104C56.7983 36.2237 55.7987 34.3523 54.0301 32.7885C51.954 30.9427 49.4934 29.7634 46.8791 28.9431C35.0376 25.2771 23.1448 25.2258 11.2264 28.5329C8.09939 29.4045 5.10057 30.6607 2.63999 32.891C1.10213 34.2753 0.025631 35.9417 0.025631 38.0951C0 55.707 0.025631 73.319 0 90.9309C0 93.3663 0.845823 95.3659 2.81941 96.6221C4.92115 97.9552 7.15105 99.237 9.5091 99.9548C20.5048 103.287 31.6799 103.339 42.8807 101.16C46.7766 100.391 50.5699 99.237 53.8251 96.8016C55.8243 95.289 56.8239 93.3663 56.7983 90.7771C56.7214 83.5734 56.7726 76.3697 56.7726 69.1659C56.7726 68.7045 56.7726 68.2431 56.7726 67.7816C59.7715 67.7816 62.5909 67.7816 65.4872 67.7816C65.4872 68.3969 65.4872 68.884 65.4872 69.3967C65.4872 80.3176 65.4872 91.2386 65.4872 102.134C65.4872 106.364 68.2041 109.107 72.4076 109.158C73.5097 109.184 74.6118 109.158 75.7396 109.158C76.6623 109.158 77.5594 109.158 78.559 109.158C78.559 112.44 78.559 115.49 78.559 118.567C78.559 120.028 78.559 121.463 78.559 122.925C78.559 127.59 79.6355 129.205 83.8902 130.974C97.7822 130.974 111.7 130.974 125.592 130.974C128.386 130.18 130.18 128.385 130.974 125.591C130.974 118.951 130.974 112.286 130.974 105.646C130.897 105.543 130.795 105.467 130.769 105.338C129.616 101.98 127.514 100.442 124.003 100.416C118.671 100.391 113.34 100.416 108.035 100.416C105.497 100.416 105.061 100.032 104.754 97.5706C104.293 94.1098 101.832 91.7769 98.2949 91.7C93.912 91.5975 89.5034 91.5975 85.1205 91.7C81.2502 91.8025 78.6359 94.5969 78.5846 98.4679C78.559 100.519 78.5846 102.544 78.5846 104.697C76.1753 104.697 73.8685 104.8 71.5617 104.646C70.3314 104.569 69.8701 103.493 69.8701 102.288C69.8701 99.9804 69.8701 97.6732 69.8701 95.3916C69.8701 86.701 69.8701 78.0104 69.8701 69.2941C69.8701 68.807 69.8701 68.2943 69.8701 67.7303C72.8177 67.7303 75.6114 67.7303 78.5846 67.7303C78.5846 68.2174 78.5846 68.6532 78.5846 69.1147C78.5846 72.191 78.559 75.2417 78.5846 78.318C78.6103 82.2916 81.404 85.1115 85.3512 85.1372C98.2949 85.1628 111.264 85.1628 124.208 85.1372C127.796 85.1372 129.898 83.0863 130.974 79.8049C130.974 73.1652 130.974 66.4998 130.974 59.8601C130.897 59.7575 130.795 59.655 130.769 59.5524C129.642 56.1685 127.463 54.5791 123.926 54.5534C118.569 54.5278 113.186 54.5534 107.83 54.5534C105.548 54.5534 105.061 54.1176 104.779 51.9129C104.318 48.1957 101.729 45.8628 97.9617 45.8372C93.7838 45.8115 89.6059 45.8115 85.4281 45.8372C81.404 45.8628 78.6359 48.6571 78.6103 52.7076C78.5846 55.7327 78.6103 58.7577 78.6103 61.7828C78.6103 62.2442 78.6103 62.7057 78.6103 63.2184C75.6883 63.2184 72.8689 63.2184 69.8957 63.2184C69.8957 62.757 69.8957 62.2955 69.8957 61.8597C69.8957 50.99 69.8957 40.1204 69.8957 29.2507C69.8957 26.8409 70.5621 26.1744 73.0227 26.1744C74.7656 26.1744 76.5085 26.2 78.2514 26.2256C78.3283 26.2256 78.4052 26.3025 78.5846 26.4051C78.5846 28.3022 78.5846 30.2505 78.5846 32.1988ZM82.9419 7.43444C82.9419 5.05029 83.6339 4.35812 85.9663 4.35812C89.8366 4.35812 93.7069 4.35812 97.6028 4.35812C99.602 4.35812 100.268 4.97339 100.473 6.94736C100.884 10.6902 103.447 13.0487 107.214 13.0744C112.699 13.1 118.21 13.0744 123.695 13.0744C125.899 13.0744 126.643 13.7922 126.643 15.9712C126.643 21.3292 126.643 26.7127 126.643 32.0706C126.643 34.1728 125.899 34.9162 123.798 34.9162C117.441 34.9162 111.11 34.9162 104.754 34.9162C98.5255 34.9162 92.3228 34.9162 86.0945 34.9162C83.6339 34.9162 82.9675 34.2497 82.9675 31.8399C82.9419 23.7133 82.9419 15.5867 82.9419 7.43444ZM52.3385 91.6231C52.3129 92.3665 51.3389 93.4176 50.5699 93.7509C47.9812 94.9045 45.3412 96.135 42.5987 96.7247C32.0131 99.0063 21.4531 98.9294 10.9957 95.9043C9.1759 95.3916 7.48425 94.3918 5.7926 93.5202C4.74173 92.9818 4.30601 92.0333 4.33164 90.7515C4.40853 87.3419 4.35727 83.9579 4.35727 80.7278C20.4792 86.7523 36.3704 86.7523 52.3897 80.7278C52.4154 84.2656 52.5179 87.9571 52.3385 91.6231ZM4.3829 63.244C20.4535 69.2941 36.3704 69.2685 52.4154 63.2697C52.4154 66.7562 52.4923 70.4478 52.3385 74.1393C52.3129 74.8571 51.4927 75.8313 50.8006 76.1389C48.3401 77.2669 45.8538 78.5231 43.2651 79.1127C32.5514 81.5481 21.812 81.4969 11.1751 78.4718C9.25279 77.9335 7.45862 76.8568 5.66445 75.9082C4.69047 75.3955 4.33164 74.4982 4.35727 73.3446C4.43416 69.935 4.3829 66.4998 4.3829 63.244ZM52.3385 56.6812C52.3129 57.4247 51.3645 58.4501 50.5699 58.809C48.1094 59.937 45.5975 61.1419 42.9832 61.7059C32.4232 64.0387 21.8376 63.9875 11.3802 61.065C9.48347 60.5266 7.6893 59.5524 5.92076 58.6296C4.793 58.0399 4.30601 57.0658 4.33164 55.6814C4.43416 52.1436 4.35727 48.6059 4.35727 45.1963C20.351 51.9386 36.2679 51.9386 52.3897 45.1963C52.4154 48.9391 52.5179 52.8102 52.3385 56.6812ZM51.0057 40.4024C49.3653 41.5816 47.5199 42.5558 45.6232 43.2479C39.7537 45.3757 33.6022 45.9141 27.3995 45.8115C21.3506 45.7346 15.4042 45.0168 9.79104 42.684C8.27881 42.0687 6.81784 41.1714 5.56193 40.146C3.94717 38.8386 4.02407 37.5824 5.56193 36.1724C7.74056 34.1984 10.4574 33.2755 13.2 32.4808C18.198 31.0452 23.2986 30.5838 29.0143 30.5581C34.73 30.635 40.9071 31.199 46.7509 33.5575C48.2632 34.1728 49.7498 35.0188 51.0313 36.0186C52.928 37.5055 52.9536 38.9924 51.0057 40.4024ZM85.71 96.0581C89.7085 96.0325 93.7069 96.0325 97.731 96.0581C99.5764 96.0581 100.268 96.699 100.473 98.5192C100.935 102.518 103.447 104.774 107.471 104.8C112.879 104.826 118.287 104.8 123.695 104.8C125.976 104.8 126.643 105.492 126.643 107.799C126.643 113.132 126.643 118.438 126.643 123.771C126.643 125.873 125.899 126.616 123.798 126.616C117.441 126.616 111.11 126.616 104.754 126.616C98.4486 126.616 92.1434 126.616 85.8382 126.616C83.7365 126.616 82.9675 125.873 82.9675 123.796C82.9675 115.49 82.9675 107.184 82.9675 98.8781C82.9675 96.8528 83.7108 96.0838 85.71 96.0581ZM82.9419 53.1434C82.9419 50.9644 83.6852 50.1953 85.8382 50.1953C89.7597 50.1953 93.6813 50.1953 97.6028 50.1953C99.5764 50.1953 100.243 50.8362 100.473 52.8102C100.884 56.553 103.421 58.8859 107.214 58.9115C112.674 58.9372 118.108 58.9115 123.567 58.9372C125.925 58.9372 126.617 59.6294 126.617 61.9879C126.617 67.3202 126.617 72.6524 126.617 77.9591C126.617 80.0356 125.848 80.8047 123.746 80.8047C117.39 80.8047 111.059 80.8047 104.703 80.8047C98.4486 80.8047 92.1691 80.8047 85.9151 80.8047C83.6596 80.8047 82.9163 80.0613 82.9163 77.8053C82.9419 69.6018 82.9419 61.3726 82.9419 53.1434Z" fill="#00E398"/>
<path d="M89.5802 21.7906C90.8105 21.765 91.7076 20.8164 91.682 19.5603C91.6307 18.4067 90.6824 17.4581 89.5546 17.4581C88.3756 17.4581 87.3503 18.4836 87.376 19.6628C87.3503 20.8677 88.3499 21.8163 89.5802 21.7906Z" fill="#00E398"/>
<path d="M89.4521 26.2256C88.2987 26.2769 87.3503 27.2254 87.3503 28.3534C87.3247 29.5327 88.3243 30.5325 89.529 30.5325C90.7593 30.5325 91.682 29.5839 91.682 28.3534C91.6563 27.1229 90.6567 26.1743 89.4521 26.2256Z" fill="#00E398"/>
<path d="M89.529 67.6534C90.7593 67.6534 91.682 66.7049 91.6563 65.4487C91.6307 64.2182 90.6567 63.2953 89.4521 63.321C88.2987 63.3466 87.3503 64.2951 87.3503 65.4487C87.3247 66.6536 88.3243 67.6534 89.529 67.6534Z" fill="#00E398"/>
<path d="M89.529 72.0885C88.2987 72.0885 87.3247 73.037 87.3247 74.2419C87.3247 75.3699 88.273 76.3697 89.4264 76.421C90.6055 76.4723 91.6307 75.4981 91.6563 74.2932C91.682 73.037 90.7849 72.1141 89.529 72.0885Z" fill="#00E398"/>
<path d="M89.5546 122.258C90.7592 122.232 91.7076 121.233 91.682 120.028C91.6563 118.797 90.6824 117.9 89.4521 117.926C88.2987 117.977 87.376 118.925 87.376 120.079C87.3503 121.258 88.3756 122.284 89.5546 122.258Z" fill="#00E398"/>
<path d="M89.5291 113.542C90.7337 113.542 91.6821 112.542 91.6821 111.337C91.6565 110.081 90.7337 109.184 89.4778 109.209C88.2732 109.235 87.2992 110.26 87.3761 111.44C87.4017 112.568 88.4013 113.542 89.5291 113.542Z" fill="#00E398"/>
<path d="M11.0214 52.4256C9.81672 52.3744 8.79148 53.3485 8.76585 54.5278C8.74022 55.7071 9.76546 56.7581 10.9445 56.7581C12.1235 56.7581 13.1231 55.7583 13.1231 54.5534C13.0719 53.3742 12.2004 52.4769 11.0214 52.4256Z" fill="#00E398"/>
<path d="M10.8931 74.2163C12.1234 74.2419 13.0974 73.2934 13.0974 72.0629C13.0974 70.858 12.1234 69.8582 10.9188 69.8582C9.73974 69.8582 8.7145 70.9092 8.76576 72.0885C8.79139 73.2421 9.73974 74.1906 10.8931 74.2163Z" fill="#00E398"/>
<path d="M10.9189 87.3419C9.79109 87.3419 8.79148 88.3161 8.76585 89.4441C8.71459 90.6233 9.68857 91.6488 10.8932 91.6744C12.1491 91.7 13.0975 90.7771 13.0975 89.5466C13.0975 88.3161 12.0979 87.3163 10.9189 87.3419Z" fill="#00E398"/>
</svg>
