<svg width="99" height="99" viewBox="0 0 99 99" fill="none" xmlns="http://www.w3.org/2000/svg">
<g clip-path="url(#clip0_50_2466)">
<path d="M94.6224 49.4709C91.7363 49.5678 88.8308 49.4903 85.809 49.4903C85.809 49.0835 85.809 48.7349 85.809 48.4056C85.809 44.6091 85.809 40.7932 85.809 36.9967C85.809 34.2268 84.5887 33.0065 81.7801 33.0065C80.9472 33.0065 80.1336 33.0065 79.2039 33.0065C79.2039 32.5416 79.2039 32.1929 79.2039 31.8443C79.2039 28.0477 79.2039 24.2319 79.2039 20.4353C79.2039 17.7429 77.9255 16.4839 75.2137 16.4839C73.8384 16.4839 72.4437 16.4839 70.9523 16.4839C70.9523 15.0117 70.9523 13.5977 70.9523 12.2031C70.9523 9.49129 69.7319 8.27098 66.9814 8.27098C65.6061 8.27098 64.2115 8.27098 62.7781 8.27098C62.7394 7.96106 62.6813 7.72862 62.6813 7.47681C62.6813 6.25651 62.6813 5.0362 62.6813 3.79652C62.6813 1.25905 61.4222 0 58.8848 0C46.0618 0 33.2389 0 20.416 0C17.7816 0 16.5032 1.25905 16.5032 3.89337C16.5032 13.1716 16.5032 22.4498 16.5032 31.728C16.5032 32.1154 16.5032 32.4835 16.5032 33.0065C16.0771 33.0065 15.7284 33.0065 15.3798 33.0065C11.0603 33.0065 6.74076 33.0065 2.44062 33.0065C0.52299 33.0065 0.01937 33.4907 0.01937 35.389C0.01937 55.8049 0.01937 76.2403 0 96.6562C0 97.6828 0.25181 98.477 1.18157 98.9806C27.7959 98.9806 54.4103 98.9806 81.0247 98.9806C82.5355 98.477 83.2909 97.3729 83.8139 95.9202C88.792 81.8576 93.8282 67.8143 98.845 53.7517C98.8838 53.6742 98.9613 53.5968 99.0194 53.5386C99.0194 53.0157 99.0194 52.512 99.0194 51.989C98.1865 50.052 96.695 49.4128 94.6224 49.4709ZM79.262 36.3575C79.6106 36.3381 79.9012 36.3187 80.1724 36.3187C80.9084 36.3187 81.6445 36.3187 82.4387 36.3187C82.4387 40.7351 82.4387 45.0546 82.4387 49.4516C81.3733 49.4516 80.3273 49.4516 79.2426 49.4516C79.262 45.0933 79.262 40.7932 79.262 36.3575ZM75.8335 19.8736C75.8335 29.7136 75.8335 39.5341 75.8335 49.4709C72.405 49.4709 69.0734 49.4709 65.4706 49.4709C69.1896 46.178 71.0879 42.1878 70.9135 37.4034C70.7392 32.5803 68.6085 28.6482 64.6764 25.8396C58.4586 21.4232 49.7228 22.3142 44.551 28.6288C40.2702 33.8587 39.4954 43.0401 46.6236 49.3935C43.1563 49.3935 39.786 49.3935 36.3768 49.3935C36.3768 39.5729 36.3768 29.7523 36.3768 19.8542C49.5097 19.8736 62.6232 19.8736 75.8335 19.8736ZM58.1874 43.2919C60.2407 44.1248 61.1704 45.5001 61.0542 47.6889C61.0348 47.9988 60.7249 48.5024 60.4731 48.5799C59.0397 49.0061 57.587 49.3547 56.1342 49.7034C54.6427 49.3354 53.2481 48.9867 51.8535 48.6574C51.3498 48.5218 51.1755 48.2119 51.1561 47.6695C51.0593 44.0474 54.5846 41.8392 58.1874 43.2919ZM52.8026 36.3187C52.7832 34.4979 54.2941 33.0258 56.1342 33.0258C57.955 33.0452 59.369 34.4786 59.369 36.28C59.369 38.0814 57.9356 39.5535 56.1536 39.5923C54.3716 39.6504 52.822 38.1201 52.8026 36.3187ZM60.8218 40.9482C62.352 39.1467 63.0299 37.1516 62.5263 34.8466C62.1583 33.2002 61.2673 31.9024 59.9114 30.9145C57.4126 29.0744 53.7517 29.3843 51.4854 31.5731C48.9673 34.0331 48.9092 37.3841 51.3498 40.9288C49.5484 42.1297 48.3862 43.7955 47.9795 45.9843C43.873 42.2266 43.1563 34.6529 47.9407 29.791C52.5314 25.1422 60.2019 25.2972 64.7345 30.2947C69.1315 35.1565 68.2211 42.3622 64.2502 45.965C63.8435 43.8149 62.72 42.1685 60.8218 40.9482ZM67.6206 11.622C67.6206 13.2297 67.6206 14.7987 67.6206 16.4839C67.2139 16.4839 66.8458 16.4839 66.4584 16.4839C56.6378 16.4839 46.7979 16.4839 36.9773 16.4839C35.8151 16.4839 34.7304 16.6776 33.8975 17.5686C33.142 18.3821 33.0258 19.3894 33.0258 20.4353C33.0258 29.6748 33.0258 38.9337 33.0258 48.1732C33.0258 48.5606 33.0258 48.948 33.0258 49.4128C31.3794 49.4128 29.791 49.4128 28.1252 49.4128C28.1252 36.8611 28.1252 24.29 28.1252 11.6026C41.2968 11.622 54.4297 11.622 67.6206 11.622ZM19.8736 3.33164C33.0646 3.33164 46.1587 3.33164 59.3303 3.33164C59.3303 4.95872 59.3303 6.54706 59.3303 8.25161C58.9235 8.25161 58.5361 8.25161 58.1681 8.25161C48.4056 8.25161 38.6431 8.25161 28.8807 8.25161C25.8977 8.25161 24.7548 9.39444 24.7548 12.4162C24.7548 24.3287 24.7548 36.2606 24.7548 48.1732C24.7548 48.5606 24.7548 48.948 24.7548 49.4128C23.1278 49.4128 21.5394 49.4128 19.8736 49.4128C19.8736 34.1105 19.8736 18.7501 19.8736 3.33164ZM16.4257 36.3575C16.4451 36.6674 16.4839 36.9579 16.4839 37.2291C16.4839 41.0837 16.4645 44.9577 16.5032 48.8124C16.5032 49.5097 16.3483 49.8196 15.5928 49.9165C13.7721 50.1489 11.9707 50.4976 10.1692 50.8075C9.72373 50.885 9.33633 50.9624 9.10389 50.3426C7.47681 45.7713 5.811 41.2193 4.16455 36.6674C4.12581 36.5899 4.14518 36.4737 4.12581 36.3381C8.23224 36.3575 12.2999 36.3575 16.4257 36.3575ZM3.37038 87.3005C3.37038 73.0636 3.37038 58.8266 3.37038 44.4541C3.50597 44.7447 3.62219 44.9384 3.69967 45.1514C4.49384 47.3015 5.26864 49.4516 6.04344 51.5823C6.85698 53.7905 8.09665 54.5071 10.4598 54.1391C12.1062 53.8873 13.7527 53.5968 15.6509 53.2675C11.5445 64.7539 7.51555 76.0466 3.4866 87.3393C3.44786 87.3005 3.40912 87.3005 3.37038 87.3005ZM80.3854 95.6684C54.9527 95.6684 29.5586 95.6684 4.02896 95.6684C5.17179 92.4336 6.27588 89.315 7.39934 86.2158C11.254 75.4074 15.128 64.5989 18.9632 53.7711C19.2344 52.9963 19.6024 52.7832 20.3966 52.7832C45.1321 52.8026 69.8869 52.8026 94.6224 52.8026C94.9323 52.8026 95.2616 52.8026 95.7071 52.8026C90.5741 67.1557 85.4798 81.4121 80.3854 95.6684Z" fill="#00E398"/>
<path d="M67.8531 56.1148C65.0251 55.9792 62.2552 57.9356 61.3641 60.6861C60.4731 63.4754 61.4997 66.9039 64.1147 68.1435C65.8773 68.9765 66.2066 70.0612 65.9936 71.6883C65.9742 71.8238 65.9936 71.9401 65.9936 72.0757C65.9742 73.7221 65.4318 74.2645 63.766 74.2645C59.001 74.2645 54.236 74.2645 49.471 74.2645C46.856 74.2645 44.2604 74.2645 41.6455 74.2645C40.2315 74.2645 39.6504 73.664 39.631 72.2694C39.6116 71.4946 39.6698 70.7198 39.6116 69.945C39.5535 69.2864 39.786 69.0152 40.4252 68.7828C43.8924 67.4462 45.4807 63.4366 43.9505 59.9694C42.4397 56.5603 38.3913 55.1463 35.0016 56.8315C31.7087 58.4779 30.4303 62.5844 32.1929 65.8191C33.1033 67.485 34.5367 68.5116 36.3381 69.112C36.3381 70.1193 36.3381 71.0878 36.3381 72.0369C36.3575 75.5816 38.3139 77.5574 41.8198 77.5574C47.3015 77.5574 52.7639 77.5574 58.2456 77.5574C60.2019 77.5574 62.1777 77.5767 64.134 77.5574C67.1364 77.5186 69.1509 75.5623 69.2671 72.5599C69.3058 71.6689 69.3058 70.7585 69.2671 69.8481C69.2477 69.267 69.4414 69.0152 69.9838 68.8021C73.083 67.6012 74.7294 64.5214 74.0515 61.2672C73.451 58.3423 70.9329 56.2698 67.8531 56.1148ZM37.8296 62.7393C36.803 62.7587 36.435 63.4173 36.28 65.3736C34.9435 64.5795 34.4205 63.2236 34.8079 61.7902C35.1953 60.3956 36.4737 59.3883 37.9265 59.3689C39.3598 59.3496 40.677 60.3181 41.1031 61.7321C41.5293 63.1074 41.0257 64.502 39.7085 65.3736C39.5729 64.134 39.5923 62.72 37.8296 62.7393ZM69.4221 65.2768C69.0153 63.2429 68.6085 62.6812 67.6206 62.7006C66.594 62.72 66.1873 63.3398 65.9161 65.2768C64.7539 64.6957 64.1534 63.3398 64.4633 61.9645C64.7733 60.5311 66.2066 59.3883 67.6788 59.3883C69.1315 59.3883 70.4874 60.4343 70.8361 61.887C71.1847 63.3011 70.623 64.657 69.4221 65.2768Z" fill="#00E398"/>
</g>
<defs>
<clipPath id="clip0_50_2466">
<rect width="99" height="99" fill="white"/>
</clipPath>
</defs>
</svg>
