<svg width="56" height="57" viewBox="0 0 56 57" fill="none" xmlns="http://www.w3.org/2000/svg">
<path d="M33.5 17.3335H36.2917C37.0321 17.3335 37.7421 17.0394 38.2657 16.5158C38.7892 15.9923 39.0833 15.2822 39.0833 14.5418C39.0833 13.8014 38.7892 13.0914 38.2657 12.5678C37.7421 12.0443 37.0321 11.7502 36.2917 11.7502H33.5C32.7596 11.7502 32.0495 12.0443 31.526 12.5678C31.0025 13.0914 30.7083 13.8014 30.7083 14.5418C30.7083 15.2822 31.0025 15.9923 31.526 16.5158C32.0495 17.0394 32.7596 17.3335 33.5 17.3335ZM33.5 28.5002H36.2917C37.0321 28.5002 37.7421 28.206 38.2657 27.6825C38.7892 27.159 39.0833 26.4489 39.0833 25.7085C39.0833 24.9681 38.7892 24.258 38.2657 23.7345C37.7421 23.211 37.0321 22.9168 36.2917 22.9168H33.5C32.7596 22.9168 32.0495 23.211 31.526 23.7345C31.0025 24.258 30.7083 24.9681 30.7083 25.7085C30.7083 26.4489 31.0025 27.159 31.526 27.6825C32.0495 28.206 32.7596 28.5002 33.5 28.5002ZM19.5417 17.3335H22.3333C23.0737 17.3335 23.7838 17.0394 24.3073 16.5158C24.8309 15.9923 25.125 15.2822 25.125 14.5418C25.125 13.8014 24.8309 13.0914 24.3073 12.5678C23.7838 12.0443 23.0737 11.7502 22.3333 11.7502H19.5417C18.8013 11.7502 18.0912 12.0443 17.5677 12.5678C17.0441 13.0914 16.75 13.8014 16.75 14.5418C16.75 15.2822 17.0441 15.9923 17.5677 16.5158C18.0912 17.0394 18.8013 17.3335 19.5417 17.3335ZM19.5417 28.5002H22.3333C23.0737 28.5002 23.7838 28.206 24.3073 27.6825C24.8309 27.159 25.125 26.4489 25.125 25.7085C25.125 24.9681 24.8309 24.258 24.3073 23.7345C23.7838 23.211 23.0737 22.9168 22.3333 22.9168H19.5417C18.8013 22.9168 18.0912 23.211 17.5677 23.7345C17.0441 24.258 16.75 24.9681 16.75 25.7085C16.75 26.4489 17.0441 27.159 17.5677 27.6825C18.0912 28.206 18.8013 28.5002 19.5417 28.5002ZM53.0417 50.8335H50.25V3.37516C50.25 2.63477 49.9559 1.9247 49.4323 1.40116C48.9088 0.877617 48.1987 0.583496 47.4583 0.583496H8.375C7.6346 0.583496 6.92453 0.877617 6.40099 1.40116C5.87746 1.9247 5.58333 2.63477 5.58333 3.37516V50.8335H2.79167C2.05127 50.8335 1.3412 51.1276 0.81766 51.6512C0.294121 52.1747 0 52.8848 0 53.6252C0 54.3656 0.294121 55.0756 0.81766 55.5992C1.3412 56.1227 2.05127 56.4168 2.79167 56.4168H53.0417C53.7821 56.4168 54.4921 56.1227 55.0157 55.5992C55.5392 55.0756 55.8333 54.3656 55.8333 53.6252C55.8333 52.8848 55.5392 52.1747 55.0157 51.6512C54.4921 51.1276 53.7821 50.8335 53.0417 50.8335ZM30.7083 50.8335H25.125V39.6668H30.7083V50.8335ZM44.6667 50.8335H36.2917V36.8752C36.2917 36.1348 35.9975 35.4247 35.474 34.9012C34.9505 34.3776 34.2404 34.0835 33.5 34.0835H22.3333C21.5929 34.0835 20.8829 34.3776 20.3593 34.9012C19.8358 35.4247 19.5417 36.1348 19.5417 36.8752V50.8335H11.1667V6.16683H44.6667V50.8335Z" fill="#FFFDFD"/>
</svg>
