<svg width="27" height="27" viewBox="0 0 27 27" fill="none" xmlns="http://www.w3.org/2000/svg">
<path d="M24 5.96154C23.175 6.35385 22.35 6.48462 21.3875 6.61538C22.35 6.09231 23.0375 5.30769 23.3125 4.26154C22.4875 4.78462 21.525 5.04615 20.425 5.30769C19.6 4.52308 18.3625 4 17.125 4C14.2375 4 12.0375 6.61538 12.725 9.23077C9.0125 9.1 5.7125 7.4 3.375 4.78462C2.1375 6.74615 2.825 9.23077 4.75 10.5385C4.0625 10.5385 3.375 10.2769 2.6875 10.0154C2.6875 11.9769 4.2 13.8077 6.2625 14.3308C5.575 14.4615 4.8875 14.5923 4.2 14.4615C4.75 16.1615 6.4 17.4692 8.4625 17.4692C6.8125 18.6462 4.3375 19.3 2 19.0385C4.0625 20.2154 6.4 21 8.875 21C17.2625 21 21.9375 14.3308 21.6625 8.18462C22.625 7.66154 23.45 6.87692 24 5.96154Z" fill="white"/>
</svg>
