<svg width="120" height="119" viewBox="0 0 120 119" fill="none" xmlns="http://www.w3.org/2000/svg">
<g clip-path="url(#clip0_50_2251)">
<path d="M74.7945 45.163C76.1565 46.426 77.7299 46.5663 79.1154 45.3735C80.5714 44.0871 81.9569 42.7072 83.2485 41.2571C84.3992 39.9474 84.2583 38.3102 83.0841 37.0472C82.2856 36.1818 81.4637 35.3633 80.5949 34.5681C80.0313 34.0769 80.1017 33.6793 80.2896 32.9776C80.6888 31.551 81.4637 31.0364 82.8727 31.2937C83.4363 31.3872 84.0469 31.3171 84.634 31.3171C87.4285 31.3171 88.2739 30.5686 88.6731 27.7854C88.6966 27.5983 88.7671 27.4112 88.814 27.2007C90.1761 26.8967 92.3365 27.762 92.36 25.4232C92.3835 23.0142 90.1995 23.8094 88.7671 23.5521C88.7201 23.3416 88.6496 23.1545 88.6262 22.9674C88.3209 20.6286 87.2641 19.7164 84.9158 19.6697C84.4461 19.6697 83.9765 19.6697 83.5068 19.6697C80.9941 19.6697 80.9941 19.6697 80.0312 17.401C79.9843 17.3074 79.9843 17.1905 79.9608 16.9566C80.9706 15.9977 82.0273 15.0154 83.0371 13.9863C84.2113 12.7467 84.3992 11.0861 83.3189 9.86994C81.9569 8.32631 80.4774 6.87623 78.9275 5.5197C77.7299 4.46723 76.086 4.65433 74.8649 5.7302C74.2309 6.31491 73.5264 6.85284 73.0567 7.55449C72.1408 8.86424 71.131 8.91102 69.816 8.18598C69.3228 7.90532 69.0175 7.69482 69.041 7.08672C69.088 5.89392 69.088 4.67772 69.041 3.46153C68.9706 1.59046 67.8434 0.444428 65.9882 0.233933C65.6125 0.187156 65.2367 0.0936026 64.861 0.0234375C63.7573 0.0234375 62.677 0.0234375 61.5733 0.0234375C61.1976 0.0936026 60.8219 0.210544 60.4461 0.233933C58.5205 0.42104 57.4168 1.61385 57.3698 3.53169C57.3463 4.70111 57.3228 5.87053 57.3698 7.03995C57.3933 7.62466 57.2289 7.97548 56.6183 8.1392C56.2896 8.23275 55.9373 8.32631 55.6555 8.5368C54.998 8.98118 54.5518 8.77069 54.0586 8.23275C53.2837 7.36738 52.4383 6.54879 51.5694 5.75359C50.2778 4.56078 48.6575 4.44384 47.3424 5.61326C45.8864 6.89962 44.5009 8.27953 43.2093 9.72961C42.0117 11.1095 42.1526 12.6765 43.4207 14.0331C44.2191 14.875 45.041 15.717 45.9099 16.5122C46.3796 16.9332 46.497 17.2841 46.1917 17.8921C45.3698 19.6697 45.3933 19.6697 43.4442 19.6697C42.7397 19.6697 42.0352 19.6697 41.3307 19.6697C39.1937 19.7164 38.1134 20.6754 37.8082 22.7569C37.7612 23.0142 37.6907 23.2715 37.6203 23.5989C37.0332 23.5989 36.4931 23.5989 35.953 23.5989C28.5322 23.5989 21.1115 23.6223 13.7142 23.5755C12.1174 23.5755 10.8493 24.0667 9.74554 25.1893C7.02147 27.9725 4.22695 30.6856 1.50287 33.4688C0.868824 34.1237 0.446123 34.9657 -0.0939941 35.7141C-0.0939941 53.232 -0.0939941 70.7265 -0.0939941 88.2443C0.962757 90.6066 2.81794 91.3316 5.35415 91.3082C13.0097 91.2147 20.6653 91.2615 28.3209 91.2615C28.7671 91.2615 29.2367 91.2615 29.7534 91.2615C29.9177 92.7349 29.4011 94.6761 31.5146 94.6995C33.7455 94.7229 33.1819 92.7115 33.4168 91.2615C34.5675 91.2615 35.6947 91.3316 36.8219 91.2381C37.7847 91.1679 38.2074 91.4953 38.5596 92.4309C41.1663 99.4474 48.2113 103.447 55.7729 102.254C62.7005 101.155 68.2426 94.9334 68.5714 87.8467C68.9236 80.456 64.086 73.9307 56.8766 72.083C56.2191 71.9193 55.5381 71.7556 54.8336 71.5918C54.8336 71.0539 54.8336 70.6329 54.8336 70.2119C54.8336 68.0368 54.8571 65.8617 54.8101 63.6866C54.7866 62.6809 54.1995 62.0962 53.1898 62.026C52.2269 61.9558 51.499 62.5639 51.3581 63.593C51.2876 64.0842 51.3111 64.5987 51.3111 65.1133C51.3111 67.2884 51.3111 69.4401 51.3111 71.5451C42.4579 73.4629 37.8551 78.7954 37.4089 87.7064C37.1741 87.7298 36.9862 87.7532 36.7984 87.7532C26.0665 87.7532 15.3111 87.7532 4.5792 87.7766C3.61638 87.7766 3.40503 87.379 3.40503 86.5136C3.42851 70.1418 3.40503 53.7465 3.45199 37.3747C3.45199 36.8835 3.66334 36.2988 4.01559 35.948C6.81012 33.1647 9.58115 30.4049 12.3757 27.6919C12.7279 27.3644 13.315 27.1072 13.8082 27.1072C21.5342 27.0604 29.2837 27.0838 37.0097 27.0838C37.2446 27.0838 37.4794 27.1306 37.7377 27.1306C37.8082 27.4814 37.8786 27.8322 37.9021 28.183C38.1604 30.288 39.2641 31.2469 41.4246 31.2703C42.1291 31.2703 42.8336 31.2703 43.5381 31.2703C45.4872 31.2703 45.4403 31.2937 46.2857 33.0712C46.5675 33.6793 46.497 34.0301 46.0273 34.4745C45.135 35.2931 44.2896 36.1351 43.4676 37.0238C42.2465 38.3336 42.1761 39.8772 43.3033 41.2571C44.1487 42.2862 45.0645 43.2451 46.0039 44.1573C47.4833 45.6074 49.0097 47.0107 51.4285 45.5138C51.4285 46.1921 51.4285 46.6364 51.4285 47.0574C51.4285 49.8173 51.3581 52.5771 51.4755 55.3369C51.499 55.945 52.0156 56.7168 52.5322 57.0677C52.908 57.3249 53.8708 57.1846 54.223 56.8572C54.6457 56.4362 54.904 55.641 54.904 55.0095C54.9745 51.1504 54.9275 47.3147 54.9275 43.4556C54.9275 43.058 54.9745 42.6604 54.998 42.1693C55.4676 42.3564 55.726 42.5201 56.0313 42.5669C57.1819 42.8008 57.6046 43.4322 57.4637 44.625C57.3463 45.584 57.4168 46.5663 57.4403 47.5486C57.4872 49.3027 58.5205 50.5657 60.2817 50.6826C62.2543 50.7996 64.2504 50.7996 66.223 50.6826C67.9843 50.5657 69.0176 49.3495 69.088 47.572C69.135 46.7534 69.088 45.9348 69.088 45.1162C69.088 43.175 69.1115 43.1984 70.8962 42.3798C71.5303 42.0991 71.859 42.216 72.3052 42.6604C73.1037 43.5258 73.9491 44.3444 74.7945 45.163ZM53.1898 75.1001C59.8356 75.1235 65.1663 80.4794 65.1428 87.0749C65.1193 93.6471 59.6947 99.003 53.0958 98.9796C46.497 98.9562 41.0958 93.5769 41.1428 86.9814C41.1898 80.3625 46.544 75.0767 53.1898 75.1001ZM70.0039 38.9651C69.2994 39.2925 68.5714 39.5732 67.8434 39.8538C66.27 40.4853 65.6359 41.3741 65.6125 43.0346C65.589 44.3912 65.6125 45.7477 65.6125 47.2445C64.0626 47.2445 62.5831 47.2445 60.9628 47.2445C60.9628 45.8179 60.9628 44.4847 60.9628 43.1282C60.9393 41.3975 60.3052 40.4853 58.6849 39.8538C57.8864 39.5498 57.088 39.2223 56.313 38.8715C54.8806 38.2166 53.589 38.4037 52.4618 39.5264C51.499 40.4853 50.5127 41.4442 49.5264 42.3798C49.5029 42.4032 49.4559 42.4032 49.1741 42.4733C48.2348 41.5144 47.225 40.4619 46.0508 39.2691C47.1076 38.2634 48.1174 37.3513 49.0567 36.3923C50.3248 35.1294 50.5127 33.9833 49.8082 32.3695C49.4559 31.551 49.1037 30.7324 48.7749 29.8904C48.2113 28.5105 47.2015 27.8088 45.7221 27.7854C44.3835 27.762 43.0684 27.7854 41.7299 27.762C41.6594 27.762 41.589 27.7153 41.3776 27.6685C41.3776 26.2184 41.3776 24.7216 41.3776 23.1545C42.8806 23.1545 44.2426 23.1779 45.5812 23.1545C47.2954 23.1311 48.1643 22.523 48.7984 20.956C49.1271 20.1608 49.4324 19.3656 49.7847 18.5938C50.4657 17.0034 50.3013 15.8807 49.1037 14.6646C48.1408 13.7056 47.1311 12.7701 46.0508 11.741C47.2015 10.6184 48.2583 9.61267 49.5029 8.41986C50.3952 9.3554 51.2876 10.3143 52.2035 11.2265C53.6125 12.6298 54.6927 12.7935 56.5244 11.9749C57.2289 11.6475 57.9569 11.3902 58.6849 11.0861C60.2348 10.478 60.8923 9.5425 60.9158 7.88193C60.9393 6.5254 60.9158 5.16888 60.9158 3.67202C62.4892 3.67202 63.9686 3.67202 65.5655 3.67202C65.5655 5.14549 65.542 6.50201 65.5655 7.85854C65.589 9.58928 66.2465 10.5014 67.8669 11.1329C68.6183 11.437 69.3933 11.741 70.1448 12.0684C71.7416 12.7701 72.9393 12.583 74.1839 11.32C75.1232 10.3845 75.9921 9.40217 77.0019 8.32631C78.1761 9.51911 79.1858 10.5716 80.5009 11.9047C79.632 12.6532 78.7162 13.3548 77.8943 14.15C76.0391 15.9509 75.8982 16.7929 76.9549 19.1083C77.1898 19.6463 77.4011 20.1842 77.6125 20.7221C78.2935 22.4763 79.1624 23.1078 81.041 23.1311C82.2857 23.1311 83.5303 23.1545 84.7984 23.1545C84.8688 23.1545 84.9393 23.2013 85.1506 23.2715C85.1506 24.6748 85.1506 26.1249 85.1506 27.7386C83.7416 27.7386 82.3796 27.7386 81.041 27.7386C79.2563 27.762 78.2935 28.4169 77.6594 30.0541C77.3541 30.8025 77.0489 31.5743 76.7201 32.3228C76.0391 33.8898 76.2035 35.0592 77.4011 36.252C78.3639 37.2109 79.3737 38.1231 80.5949 39.2691C79.3972 40.4619 78.3639 41.4676 77.1663 42.637C76.133 41.5846 75.2406 40.6256 74.3013 39.6901C72.8923 38.3102 71.8356 38.1465 70.0039 38.9651Z" fill="#00E398"/>
<path d="M111.898 96.8747C113.472 96.8981 115.021 96.8747 116.595 96.8747C118.896 96.8747 120.023 95.7521 120.023 93.4132C120.023 89.5541 120.023 85.7184 120.023 81.8594C120.023 79.3334 118.943 78.2576 116.383 78.2576C110.982 78.2576 105.605 78.2576 100.203 78.2576C99.7808 78.2576 99.3581 78.2576 98.8649 78.2576C98.8649 77.0414 98.8649 75.9421 98.8649 74.7493C99.3815 74.7493 99.8042 74.7493 100.227 74.7493C105.652 74.7493 111.076 74.7493 116.524 74.7493C118.967 74.7493 120.047 73.6968 120.047 71.2878C120.047 67.5223 120.047 63.7334 120.047 59.9679C120.047 57.1612 119.084 56.1789 116.243 56.1789C110.841 56.1789 105.464 56.1789 100.063 56.1789C99.6164 56.1789 99.1702 56.1789 98.7945 56.1789C98.7945 55.4539 98.7945 54.8926 98.7945 54.3546C98.7945 53.7699 98.8179 53.1852 98.7945 52.6005C98.7475 51.2908 98.1134 50.5891 97.0097 50.6125C95.9765 50.6359 95.3189 51.3142 95.2954 52.5537C95.2485 53.6998 95.2954 54.8692 95.2954 56.1789C94.9432 56.1789 94.544 56.1789 94.1213 56.1789C88.6496 56.1789 83.178 56.1789 77.7064 56.1789C75.0763 56.1789 74.09 57.1846 74.09 59.7807C74.09 63.5931 74.09 67.4054 74.09 71.2177C74.09 73.7436 75.0997 74.7727 77.6359 74.7727C83.0606 74.7727 88.4853 74.7727 93.9334 74.7727C94.3561 74.7727 94.7788 74.7727 95.2015 74.7727C95.2015 76.0123 95.2015 77.1115 95.2015 78.2809C94.6379 78.2809 94.1682 78.2809 93.6986 78.2809C88.2974 78.2809 82.9197 78.2809 77.5185 78.2809C75.1702 78.2809 74.09 79.3802 74.09 81.719C74.09 85.6015 74.09 89.5074 74.09 93.3898C74.09 95.8222 75.1702 96.8981 77.5655 96.8981C83.0371 96.8981 88.5087 96.8981 93.9804 96.8981C94.4031 96.8981 94.8023 96.8981 95.225 96.8981C95.225 98.1377 95.225 99.2135 95.225 100.406C94.7318 100.406 94.3326 100.406 93.9099 100.406C88.3913 100.406 82.8962 100.406 77.3776 100.406C75.2641 100.406 74.1134 101.552 74.09 103.634C74.0665 104.733 74.0665 105.809 74.09 106.908C74.1134 107.516 73.996 107.937 73.3855 108.312C72.3992 108.896 72.2582 110.417 73.2211 110.978C74.1369 111.516 74.1134 112.171 74.09 112.989C74.0665 113.855 74.09 114.697 74.09 115.562C74.1134 117.948 75.1937 119.047 77.6125 119.047C90.5753 119.047 103.538 119.047 116.524 119.047C118.943 119.047 120.07 117.948 120.07 115.562C120.07 111.68 120.07 107.774 120.07 103.891C120.07 101.506 118.967 100.43 116.548 100.406C111.076 100.406 105.605 100.406 100.133 100.406C99.7338 100.406 99.3111 100.383 98.8884 100.36C98.8884 99.1668 98.8884 98.0909 98.8884 96.8981C100.438 96.8981 101.918 96.9215 103.374 96.8981C104.454 96.8747 105.158 96.1263 105.135 95.1206C105.111 94.185 104.43 93.5068 103.397 93.4132C103.092 93.3898 102.763 93.4132 102.458 93.4132C95.3424 93.4132 88.2504 93.4132 81.135 93.4132C80.0078 93.4132 78.8806 93.4132 77.6829 93.4132C77.6829 89.4606 77.6829 85.6717 77.6829 81.9061C90.6692 81.9061 103.562 81.9061 116.43 81.9061C116.43 85.7886 116.43 89.5775 116.43 93.4132C114.857 93.4132 113.378 93.3898 111.898 93.4132C110.63 93.4366 109.855 94.1149 109.879 95.1673C109.855 96.1964 110.607 96.8513 111.898 96.8747ZM116.407 103.938C116.407 107.774 116.407 111.563 116.407 115.422C103.491 115.422 90.5753 115.422 77.6125 115.422C77.6125 111.586 77.6125 107.797 77.6125 103.938C90.6222 103.938 103.491 103.938 116.407 103.938ZM77.6359 71.1475C77.6359 67.382 77.6359 63.6164 77.6359 59.7106C90.5988 59.7106 103.468 59.7106 116.407 59.7106C116.407 63.5229 116.407 67.2884 116.407 71.1475C103.538 71.1475 90.6222 71.1475 77.6359 71.1475Z" fill="#00E398"/>
<path d="M111.616 87.3322C111.499 86.3499 110.841 85.8588 109.597 85.8588C105.417 85.8354 101.26 85.8588 97.0802 85.8588C92.8297 85.8588 88.5793 85.8588 84.3288 85.8588C83.1781 85.8588 82.4736 86.4903 82.4031 87.4726C82.3327 88.4783 83.0607 89.2267 84.2114 89.3436C84.5636 89.367 84.9159 89.367 85.2681 89.367C92.5714 89.367 99.8513 89.367 107.155 89.367C108.047 89.367 108.963 89.4138 109.855 89.3436C111.053 89.2501 111.734 88.4315 111.616 87.3322Z" fill="#00E398"/>
<path d="M15.8042 43.4556C19.679 43.4556 23.5302 43.4556 27.405 43.4556C31.3502 43.4556 35.2954 43.4556 39.2406 43.4556C40.1095 43.4556 40.8844 43.2919 41.2602 42.4032C41.8473 41.0934 40.861 39.9474 39.1467 39.9474C31.3737 39.9474 23.6242 39.9474 15.8512 39.9474C14.3482 39.9474 13.5733 40.5555 13.5733 41.7015C13.5498 42.8709 14.3013 43.4556 15.8042 43.4556Z" fill="#00E398"/>
<path d="M14.6535 60.2017C14.9118 60.459 15.5458 60.3888 15.992 60.3888C19.8198 60.4122 23.6476 60.3888 27.4754 60.3888C31.2562 60.3888 35.037 60.3888 38.8413 60.3888C39.1466 60.3888 39.4754 60.4122 39.7807 60.3654C40.767 60.2251 41.4715 59.4533 41.4245 58.5645C41.3775 57.629 40.6965 56.9741 39.6632 56.9039C39.358 56.8805 39.0292 56.8805 38.7239 56.8805C31.2327 56.8805 23.7415 56.8805 16.2503 56.8805C15.8276 56.8805 15.2875 56.7402 14.9822 56.9507C14.4421 57.3483 13.7141 57.9096 13.6672 58.4476C13.5967 59.0323 14.1838 59.7573 14.6535 60.2017Z" fill="#00E398"/>
<path d="M39.2171 68.9022C40.086 68.9022 40.861 68.7385 41.2367 67.8497C41.8238 66.54 40.8375 65.3939 39.1232 65.3939C31.3502 65.3939 23.6007 65.3939 15.8277 65.3939C14.3248 65.3939 13.5498 66.002 13.5498 67.148C13.5498 68.2941 14.2778 68.9022 15.8042 68.9022C19.679 68.9022 23.5302 68.9022 27.405 68.9022C31.3502 68.9022 35.2719 68.9022 39.2171 68.9022Z" fill="#00E398"/>
<path d="M39.3345 48.4841C35.3893 48.4608 31.4441 48.4841 27.5224 48.4841C24.7983 48.4841 22.0508 48.4841 19.3267 48.4841C17.9177 48.4841 16.5087 48.4608 15.1232 48.5309C14.1838 48.5777 13.6437 49.1624 13.5733 50.1213C13.5263 51.0569 13.996 51.6884 14.9118 51.8988C15.358 51.9924 15.8512 51.9924 16.2973 51.9924C23.0136 51.9924 29.7298 51.9924 36.4226 51.9924C37.4324 51.9924 38.4656 52.1093 39.4519 51.9456C40.086 51.8287 40.8844 51.3843 41.1897 50.8698C41.8942 49.677 40.9079 48.4841 39.3345 48.4841Z" fill="#00E398"/>
<path d="M20.7122 73.9307C18.998 73.9307 17.2837 73.9073 15.5694 73.9307C14.2778 73.9541 13.5968 74.5154 13.5498 75.5679C13.5028 76.6671 14.2073 77.3922 15.4755 77.4155C18.998 77.4389 22.497 77.4389 26.0195 77.4155C27.2406 77.3922 27.9216 76.6905 27.9216 75.638C27.9216 74.5856 27.2406 73.9541 25.996 73.9307C24.2347 73.9073 22.4735 73.9307 20.7122 73.9307Z" fill="#00E398"/>
<path d="M31.8668 105.715C30.6692 105.715 29.8707 106.791 30.2465 107.961C30.7161 109.458 31.7729 110.487 33.2289 111.025C34.3561 111.446 35.5067 110.604 35.5537 109.434C35.5772 108.452 32.8766 105.715 31.8668 105.715Z" fill="#00E398"/>
<path d="M95.225 29.0717C95.4364 30.3347 96.1174 31.013 97.1742 30.9194C98.1839 30.8259 98.7475 30.054 98.9824 28.7443C98.5362 27.6918 98.1839 26.5926 97.5969 25.6336C97.0567 24.7215 95.9061 24.6046 95.1546 25.1893C94.3327 25.8441 94.2387 26.6393 94.7084 27.5749C94.9667 28.0426 95.1546 28.5572 95.225 29.0717Z" fill="#00E398"/>
<path d="M98.7006 34.7551C98.5832 33.8664 98.0196 33.3752 97.1272 33.3285C96.1879 33.2817 95.4599 33.7027 95.3425 34.6382C95.225 35.831 95.225 37.0238 95.3425 38.2166C95.4364 39.1522 96.1879 39.5965 97.1037 39.5498C98.0196 39.503 98.6066 38.965 98.7006 38.0061C98.7475 37.515 98.7006 37.0004 98.7006 36.5093C98.7006 36.5093 98.7006 36.5093 98.6771 36.5093C98.7241 35.9246 98.771 35.3399 98.7006 34.7551Z" fill="#00E398"/>
<path d="M95.3424 46.8001C95.4363 47.7357 96.1408 48.2268 97.0567 48.2034C98.043 48.18 98.6536 47.6187 98.724 46.613C98.771 46.1219 98.724 45.6073 98.724 45.1162C98.724 44.5782 98.771 44.0169 98.724 43.5024C98.6066 42.5668 98.043 42.0523 97.1037 42.0055C96.1643 41.9587 95.4598 42.4499 95.3659 43.362C95.225 44.4613 95.225 45.6541 95.3424 46.8001Z" fill="#00E398"/>
<path d="M31.6085 103.377C32.5948 103.4 33.2523 102.839 33.3463 101.856C33.4402 100.781 33.4402 99.6813 33.3463 98.6054C33.2523 97.6231 32.5713 97.0852 31.585 97.132C30.6457 97.1787 30.0586 97.7167 29.9647 98.6522C29.8942 99.1901 29.9647 99.7281 29.9647 100.266C29.9647 100.781 29.9177 101.272 29.9647 101.786C30.0351 102.769 30.6457 103.353 31.6085 103.377Z" fill="#00E398"/>
<path d="M42.8807 108.054C41.6595 107.914 40.3914 107.914 39.1703 108.054C38.231 108.148 37.8317 108.92 37.9022 109.855C37.9726 110.744 38.4893 111.282 39.3816 111.375C39.9218 111.446 40.4619 111.375 41.002 111.375C41.5421 111.375 42.0822 111.422 42.6223 111.375C43.5147 111.282 44.0313 110.744 44.1018 109.855C44.2192 108.943 43.7965 108.171 42.8807 108.054Z" fill="#00E398"/>
<path d="M51.4285 108.031C50.2778 107.914 49.1036 107.914 47.9529 108.031C47.0371 108.124 46.5204 108.803 46.5674 109.738C46.5909 110.721 47.1545 111.305 48.1643 111.399C48.6574 111.446 49.1741 111.399 49.6672 111.399C50.2073 111.399 50.7709 111.446 51.2876 111.399C52.2269 111.282 52.7435 110.697 52.7905 109.762C52.8375 108.826 52.3678 108.124 51.4285 108.031Z" fill="#00E398"/>
<path d="M60.1643 108.031C58.9901 107.914 57.769 107.914 56.5713 108.031C55.632 108.124 55.1858 108.873 55.2562 109.785C55.3267 110.721 55.8668 111.282 56.8061 111.375C57.3463 111.422 57.8864 111.375 58.4265 111.375C58.9196 111.375 59.4363 111.422 59.9294 111.375C60.8688 111.282 61.4089 110.721 61.4793 109.785C61.5263 108.873 61.0801 108.124 60.1643 108.031Z" fill="#00E398"/>
<path d="M68.9002 108.054C67.679 107.914 66.4109 107.914 65.1898 108.054C64.2505 108.148 63.8513 108.92 63.9217 109.855C63.9922 110.744 64.5088 111.282 65.4012 111.375C65.9413 111.446 66.4814 111.375 67.0215 111.399C67.5616 111.399 68.1017 111.446 68.6419 111.399C69.5342 111.305 70.0509 110.767 70.1213 109.879C70.2387 108.943 69.816 108.171 68.9002 108.054Z" fill="#00E398"/>
<path d="M75.0294 21.5875C74.4188 19.7632 73.6439 19.1551 72.4932 19.5294C71.319 19.927 71.0842 20.7923 71.6948 22.64C73.8318 29.0016 68.2897 35.4568 61.7613 34.2172C56.595 33.2349 53.4012 28.3702 54.6224 23.3417C55.82 18.4067 60.9629 15.5767 66.0588 17.0736C67.3973 17.4712 68.3366 17.1437 68.6889 16.138C69.0646 15.0622 68.5245 14.1734 67.1155 13.7524C62.0666 12.2556 57.6282 13.3548 54.1057 17.2139C50.6067 21.0496 49.8318 25.5869 51.8983 30.3348C53.9883 35.1762 57.9335 37.5618 62.3719 37.8191C71.6948 37.8424 77.73 29.5864 75.0294 21.5875Z" fill="#00E398"/>
<path d="M63.2877 20.0673C60.2583 20.0673 57.863 22.4295 57.8395 25.4466C57.816 28.5105 60.2348 30.9195 63.3111 30.8961C66.3405 30.8727 68.7123 28.4871 68.6888 25.47C68.6888 22.4529 66.2935 20.0673 63.2877 20.0673ZM63.2877 27.3644C62.2074 27.3878 61.362 26.5692 61.362 25.4934C61.362 24.3941 62.1605 23.5755 63.2407 23.5521C64.3209 23.5287 65.1663 24.3473 65.1663 25.4232C65.1898 26.5224 64.3914 27.3644 63.2877 27.3644Z" fill="#00E398"/>
<path d="M50.9589 92.0566C51.6869 92.7816 52.6027 92.9454 53.3777 92.2203C55.8434 89.8347 58.2857 87.4257 60.6575 84.9699C61.5264 84.0578 61.1037 82.5609 59.953 82.2101C59.1076 81.9528 58.4501 82.2569 57.8395 82.865C56.0313 84.6893 54.1996 86.4902 52.2035 88.5016C51.4755 87.7297 50.8415 87.0281 50.1839 86.3732C49.5264 85.695 48.8923 85.0167 48.1878 84.4086C47.3424 83.6368 46.4031 83.6602 45.6751 84.3852C44.9941 85.0635 44.9706 86.116 45.7221 86.8878C47.4598 88.6185 49.1976 90.3492 50.9589 92.0566Z" fill="#00E398"/>
<path d="M83.7651 111.329C84.0469 111.539 84.5871 111.422 85.0332 111.422C89.0019 111.422 92.9941 111.422 96.9628 111.422C100.978 111.422 104.994 111.422 109.01 111.422C109.432 111.422 109.879 111.446 110.301 111.352C111.123 111.188 111.569 110.627 111.64 109.808C111.687 108.99 111.335 108.335 110.536 108.101C110.067 107.961 109.55 107.937 109.033 107.937C101.025 107.937 93.0411 107.937 85.0332 107.937C84.5401 107.937 83.8826 107.844 83.5538 108.124C83.0606 108.545 82.4501 109.247 82.4736 109.808C82.5205 110.346 83.225 110.931 83.7651 111.329Z" fill="#00E398"/>
<path d="M109.409 63.71C105.276 63.71 101.143 63.71 97.0097 63.71C92.8767 63.71 88.7436 63.71 84.6105 63.71C83.225 63.71 82.4266 64.3181 82.4031 65.4173C82.3796 66.54 83.2015 67.2182 84.634 67.2182C92.9001 67.2182 101.166 67.2182 109.456 67.2182C110.841 67.2182 111.616 66.5867 111.64 65.4875C111.64 64.3648 110.865 63.71 109.409 63.71Z" fill="#00E398"/>
</g>
<defs>
<clipPath id="clip0_50_2251">
<rect width="120" height="119" fill="white"/>
</clipPath>
</defs>
</svg>
