<svg width="105" height="97" viewBox="0 0 105 97" fill="none" xmlns="http://www.w3.org/2000/svg">
<g clip-path="url(#clip0_50_2412)">
<path d="M105 9.41446C105 4.82103 102.534 1.51045 98.2808 0.351749C97.726 0.206911 97.1507 0.124147 96.5959 0.0206911C67.1918 0 37.8082 0 8.40411 0C7.27397 0.310367 6.08219 0.475896 5.03425 0.972483C2.30137 2.25533 0.678082 4.46928 0.143836 7.4695C0.123288 7.59364 0.0410959 7.71779 0 7.84194C0 34.968 0 62.0734 0 89.1994C0.452055 91.2065 1.17123 93.0687 2.71233 94.5171C4.5411 96.2551 6.76027 97 9.24658 97C38.0753 97 66.9247 97.0207 95.7534 97C101.301 97 105 93.2135 105 87.6476C105 61.5561 105 35.4853 105 9.41446ZM100.644 87.2338C100.644 87.8545 100.603 88.4753 100.5 89.0753C100.171 90.8961 98.589 92.3238 96.7603 92.4893C96.2466 92.5307 95.7329 92.5307 95.2192 92.5307C80.9589 92.5307 66.7192 92.5307 52.4589 92.5307C38.1986 92.5307 23.9589 92.5307 9.69863 92.5307C9.06164 92.5307 8.38356 92.5514 7.76712 92.4066C6.0411 92.0341 4.74658 90.6271 4.5 88.8477C4.41781 88.2683 4.39726 87.689 4.39726 87.1096C4.39726 61.3699 4.39726 35.6301 4.39726 9.89036C4.39726 9.24893 4.41781 8.58682 4.5411 7.94539C4.86986 6.12457 6.45205 4.69689 8.28082 4.51067C8.71233 4.46928 9.16438 4.46928 9.61644 4.46928C38.2192 4.46928 66.8425 4.46928 95.4452 4.46928C96.1849 4.46928 96.9658 4.51067 97.6644 4.71758C99.3082 5.23485 100.274 6.41425 100.562 8.13161C100.644 8.66958 100.664 9.22824 100.664 9.76621C100.644 35.6094 100.644 61.432 100.644 87.2338Z" fill="#00E398"/>
<path d="M94.4177 17.7736C94.0068 17.7115 93.5958 17.7115 93.1848 17.7115C66.0616 17.7115 38.9177 17.7115 11.7944 17.7115C11.3835 17.7115 10.9725 17.7115 10.5616 17.7736C9.5958 17.9185 8.89717 18.684 8.79443 19.6358C8.69169 20.6704 9.20539 21.6015 10.1711 21.8912C10.6848 22.0567 11.2396 22.0774 11.7944 22.0774C25.3561 22.0774 38.9177 22.0774 52.4999 22.0774C66.0821 22.0774 79.6232 22.0774 93.2054 22.0774C93.7191 22.0774 94.2328 22.0567 94.7259 21.9118C95.7122 21.6222 96.267 20.7531 96.2054 19.7186C96.1438 18.7254 95.4246 17.9185 94.4177 17.7736Z" fill="#00E398"/>
<path d="M12.8631 13.2216C13.2946 13.2837 13.7466 13.263 14.1987 13.2837C14.1987 13.263 14.1987 13.2423 14.1987 13.2216C14.6507 13.2216 15.0822 13.263 15.5343 13.2216C16.6233 13.0975 17.3836 12.3319 17.4658 11.2974C17.5685 10.1801 16.9521 9.18688 15.8425 9.02135C14.774 8.87651 13.6644 8.87651 12.5959 9.02135C11.548 9.16619 10.911 10.1801 10.9932 11.2146C11.0548 12.2905 11.7946 13.0768 12.8631 13.2216Z" fill="#00E398"/>
<path d="M23.7535 13.2009C24.185 13.263 24.637 13.263 25.0891 13.2837C25.0891 13.263 25.0891 13.2423 25.0891 13.2216C25.5617 13.2216 26.0548 13.263 26.5274 13.2216C27.5959 13.0975 28.3357 12.3112 28.4178 11.2353C28.5 10.2421 27.9247 9.20755 26.9384 9.06271C25.7672 8.89719 24.5548 8.89719 23.4041 9.08341C22.4178 9.22824 21.8836 10.2421 21.9658 11.2974C22.0069 12.2905 22.7261 13.0561 23.7535 13.2009Z" fill="#00E398"/>
<path d="M89.3631 13.201C89.7946 13.263 90.2466 13.263 90.6987 13.2837C91.2124 13.263 91.7261 13.263 92.2398 13.201C93.2466 13.0561 93.9453 12.2699 94.0275 11.2353C94.1097 10.2421 93.5343 9.20758 92.548 9.06275C91.3973 8.89722 90.1644 8.89722 89.0138 9.06275C88.0275 9.20758 87.4932 10.2214 87.5754 11.256C87.6371 12.2906 88.3357 13.0561 89.3631 13.201Z" fill="#00E398"/>
<path d="M72.5503 58.9559C72.0793 58.374 71.6083 57.7922 71.1095 57.1827C71.636 56.5177 72.1624 55.8527 72.6611 55.1601C74.0187 53.3037 75.1547 51.3643 75.6811 49.1201C76.734 44.7701 74.6006 41.4176 70.1952 40.3648C67.3969 39.6998 64.6262 39.9215 61.8278 40.4202C61.3845 40.5033 61.2183 40.4202 61.052 40.0046C60.1654 37.511 59.0295 35.1005 57.2563 33.078C56.0372 31.6926 54.6241 30.5844 52.7678 30.1965C50.5236 29.7255 48.6118 30.4735 46.9217 31.942C45.0377 33.5767 43.8186 35.6547 42.8211 37.8989C42.4332 38.7301 42.1285 39.6167 41.7683 40.4756C40.854 40.3371 39.9674 40.1985 39.053 40.1154C36.5872 39.8384 34.149 39.8661 31.7939 40.6973C29.2726 41.5839 27.5548 43.274 27.1669 46.0169C26.8899 48.0118 27.444 49.8681 28.2752 51.6691C29.2172 53.6639 30.5194 55.4371 31.9602 57.155C31.4614 57.7368 30.9904 58.3186 30.5194 58.9282C28.9678 60.9231 27.6379 63.0287 26.973 65.4946C26.8067 66.0488 26.7236 66.6306 26.6128 67.2124C26.6128 67.6835 26.6128 68.1545 26.6128 68.5978C26.6959 68.9857 26.779 69.3736 26.8899 69.7337C27.6379 72.2827 29.4943 73.6681 31.9325 74.3884C34.2321 75.0534 36.5594 75.0534 38.9145 74.7486C39.8565 74.6378 40.7708 74.4716 41.6852 74.333C42.2116 75.6075 42.7103 76.8543 43.2921 78.0734C44.0679 79.7358 45.0654 81.2597 46.3676 82.5619C47.6144 83.8087 49.0551 84.6399 50.8006 85.0001C51.2993 85.0001 51.7981 85.0001 52.2968 85.0001C56.0926 84.2243 58.0874 81.4259 59.6944 78.2674C60.2486 77.1868 60.6365 76.0231 61.1075 74.9149C61.1906 74.7209 61.2737 74.527 61.3291 74.3607C62.6867 74.527 63.9889 74.7486 65.2912 74.8595C67.3414 75.0257 69.3917 74.9426 71.3866 74.3053C75.3209 73.0308 77.1219 69.8723 76.1521 65.8548C75.5703 63.2781 74.185 61.0616 72.5503 58.9559ZM38.7206 71.5624C36.8365 71.784 34.9802 71.8671 33.1238 71.3961C32.9299 71.3407 32.7359 71.2853 32.5697 71.2299C30.3532 70.4818 29.4666 68.958 30.0484 66.686C30.3255 65.6055 30.8242 64.5803 31.3229 63.5829C31.6831 62.8348 32.2095 62.1421 32.7082 61.4772C33.1792 60.8399 33.7057 60.2027 34.2044 59.5654C35.5066 60.6737 36.6703 61.8651 38.0279 62.8071C39.2747 63.666 39.8565 64.6911 39.9674 66.215C40.0782 67.8774 40.5215 69.5121 40.8263 71.2576C40.1059 71.3407 39.4132 71.4793 38.7206 71.5624ZM36.4486 57.2381C37.4184 56.3792 38.305 55.6034 39.3024 54.7445C39.3024 56.4623 39.3024 58.0693 39.3024 59.8148C38.305 58.9005 37.3906 58.097 36.4486 57.2381ZM40.0228 48.0949C39.9119 48.7322 39.8565 49.3694 39.7457 50.0067C39.718 50.1729 39.6349 50.3946 39.524 50.5054C37.7785 51.9184 36.033 53.3315 34.2321 54.7722C32.6251 52.805 31.0458 50.727 30.4917 48.0672C30.0207 45.8784 30.8796 44.4099 32.9853 43.6896C34.5092 43.1631 36.1161 43.08 37.6954 43.1908C38.7483 43.274 39.8288 43.4125 40.8817 43.551C40.5769 45.1303 40.2721 46.6265 40.0228 48.0949ZM59.833 47.901C59.6944 47.8733 59.639 47.8733 59.6113 47.8456C58.2814 47.0698 56.9515 46.294 55.5107 45.4628C56.7298 45.0749 57.8381 44.687 59.0572 44.2991C59.3342 45.5182 59.5559 46.6819 59.833 47.901ZM46.3676 38.0097C47.0879 36.569 47.9468 35.2391 49.2213 34.2139C50.7729 32.9671 52.2691 32.9394 53.8483 34.1862C55.3722 35.4053 56.3142 37.04 57.1177 38.7855C57.4779 39.5613 57.7827 40.3925 58.1429 41.196C56.8407 41.6393 55.5939 42.0549 54.3471 42.4982C53.5713 42.7752 52.8232 43.08 52.0474 43.4125C51.7149 43.551 51.4379 43.551 51.0777 43.4402C49.0828 42.6644 47.0602 41.9441 44.9545 41.1406C45.4255 40.1431 45.8689 39.0626 46.3676 38.0097ZM44.0402 44.2991C45.2316 44.687 46.3676 45.0472 47.6144 45.4628C46.1182 46.3217 44.7606 47.0975 43.2644 47.9564C43.5415 46.6819 43.7632 45.5182 44.0402 44.2991ZM43.1813 66.6029C44.7329 67.5172 46.1736 68.3484 47.6975 69.235C46.423 69.6783 45.2316 70.0662 43.9571 70.5095C43.68 69.1796 43.4307 67.9605 43.1813 66.6029ZM54.4302 80.3731C54.2362 80.567 54.0423 80.7332 53.8206 80.8995C52.2691 82.1186 50.7729 82.1186 49.2213 80.8995C48.2516 80.1237 47.4758 79.154 46.894 78.0457C46.1459 76.605 45.481 75.1365 44.7606 73.6404C46.3676 73.0585 47.7806 72.5598 49.2213 72.0334C49.8863 71.784 50.5236 71.4793 51.2162 71.2299C51.3825 71.1745 51.6318 71.1468 51.8258 71.2022C53.9038 71.9503 55.954 72.726 58.0043 73.4741C58.0597 73.5018 58.1152 73.5295 58.226 73.5849C57.3117 76.0785 56.3142 78.4613 54.4302 80.3731ZM59.1403 70.5095C57.8658 70.0939 56.6744 69.6783 55.3999 69.235C56.9238 68.3484 58.3368 67.5172 59.8884 66.6029C59.6667 67.9605 59.4174 69.1796 59.1403 70.5095ZM60.4425 61.8374C60.4425 62.2253 60.2763 62.4469 59.9715 62.6686C57.3948 64.4141 54.735 65.9934 51.9089 67.351C51.7149 67.4341 51.3825 67.4618 51.1885 67.351C48.3347 65.9934 45.6195 64.4141 43.0428 62.5854C42.8488 62.4469 42.6826 62.1421 42.6549 61.8928C42.4332 58.7619 42.4332 55.6311 42.7103 52.5003C42.738 52.3063 42.8765 52.0569 43.0428 51.9461C45.6472 50.1729 48.3624 48.5936 51.2162 47.2914C51.3825 47.2083 51.6595 47.236 51.8535 47.3191C54.7072 48.649 57.3948 50.2006 59.9992 51.9738C60.1654 52.0847 60.3317 52.3617 60.3317 52.5557C60.4425 54.2181 60.5256 55.8805 60.6087 57.3212C60.5533 58.9836 60.4979 60.4243 60.4425 61.8374ZM69.7519 43.5787C72.3286 44.2991 73.2429 45.9615 72.5503 48.5105C71.9961 50.5885 70.8048 52.334 69.5303 54.0241C69.3363 54.3012 69.1147 54.5505 68.8653 54.8553C68.5605 54.5782 68.2558 54.2735 67.951 54.0241C66.6211 52.9436 65.2912 51.8353 63.9612 50.7824C63.6288 50.5054 63.4348 50.2283 63.3794 49.785C63.0746 47.7347 62.6867 45.7121 62.3266 43.6064C64.737 43.1908 67.2583 42.8861 69.7519 43.5787ZM66.6765 57.2381C65.7345 58.097 64.8201 58.9005 63.8227 59.8148C63.8227 58.0693 63.8227 56.4623 63.8227 54.7445C64.7924 55.5757 65.679 56.3792 66.6765 57.2381ZM71.3035 70.9251C70.1952 71.4792 69.0038 71.7563 67.7847 71.7009C66.0115 71.6455 64.2383 71.4238 62.4651 71.2576C62.4097 71.2576 62.382 71.2022 62.2988 71.1745C62.5205 70.0662 62.7422 68.9857 62.9361 67.8774C63.13 66.7414 63.2686 65.6055 63.4348 64.4972C63.4625 64.3033 63.5733 64.0816 63.7119 63.9708C65.3743 62.53 67.0644 61.117 68.7268 59.704C68.7545 59.6763 68.8099 59.6485 68.9207 59.5931C70.8325 61.9205 72.7165 64.2478 73.1875 67.3787C73.4369 68.9302 72.7442 70.2047 71.3035 70.9251Z" fill="#00E398"/>
<path d="M51.5209 52.5833C48.7502 52.5833 46.5614 54.8275 46.5891 57.5704C46.6168 60.3134 48.8057 62.5022 51.5486 62.5022C54.3193 62.5022 56.5358 60.2857 56.5081 57.515C56.5081 54.7721 54.2916 52.5833 51.5209 52.5833Z" fill="#00E398"/>
<path d="M72.5503 58.9559C72.0793 58.374 71.6083 57.7922 71.1095 57.1827C71.636 56.5177 72.1624 55.8527 72.6611 55.1601C74.0187 53.3037 75.1547 51.3643 75.6811 49.1201C76.734 44.7701 74.6006 41.4176 70.1952 40.3648C67.3969 39.6998 64.6262 39.9215 61.8278 40.4202C61.3845 40.5033 61.2183 40.4202 61.0521 40.0046C60.1654 37.511 59.0295 35.1005 57.2563 33.078C56.0372 31.6926 54.6241 30.5844 52.7678 30.1965C50.5236 29.7255 48.6118 30.4735 46.9217 31.942C45.0377 33.5767 43.8186 35.6547 42.8211 37.8989C42.4332 38.7301 42.1285 39.6167 41.7683 40.4756C40.854 40.3371 39.9674 40.1985 39.053 40.1154C36.5872 39.8384 34.149 39.8661 31.7939 40.6973C29.2726 41.5839 27.5548 43.274 27.1669 46.0169C26.8899 48.0118 27.444 49.8681 28.2752 51.6691C29.2172 53.6639 30.5194 55.4371 31.9602 57.155C31.4614 57.7368 30.9904 58.3186 30.5194 58.9282C28.9678 60.923 27.6379 63.0287 26.973 65.4946C26.8067 66.0488 26.7236 66.6306 26.6128 67.2124C26.6128 67.6835 26.6128 68.1545 26.6128 68.5978C26.6959 68.9857 26.779 69.3736 26.8899 69.7337C27.6379 72.2827 29.4943 73.6681 31.9325 74.3884C34.2321 75.0534 36.5594 75.0534 38.9145 74.7486C39.8565 74.6378 40.7708 74.4716 41.6852 74.333C42.2116 75.6075 42.7103 76.8543 43.2921 78.0734C44.0679 79.7358 45.0654 81.2597 46.3676 82.5619C47.6144 83.8087 49.0551 84.6399 50.8006 85.0001C51.2993 85.0001 51.7981 85.0001 52.2968 85.0001C56.0926 84.2243 58.0875 81.4259 59.6944 78.2674C60.2486 77.1868 60.6365 76.0231 61.1075 74.9149C61.1906 74.7209 61.2737 74.527 61.3291 74.3607C62.6867 74.527 63.989 74.7486 65.2912 74.8595C67.3414 75.0257 69.3917 74.9426 71.3866 74.3053C75.3209 73.0308 77.1219 69.8723 76.1521 65.8548C75.5703 63.2781 74.185 61.0616 72.5503 58.9559ZM38.7206 71.5624C36.8365 71.784 34.9802 71.8671 33.1238 71.3961C32.9299 71.3407 32.7359 71.2853 32.5697 71.2299C30.3532 70.4818 29.4666 68.958 30.0484 66.686C30.3255 65.6055 30.8242 64.5803 31.3229 63.5829C31.6831 62.8348 32.2095 62.1421 32.7082 61.4772C33.1792 60.8399 33.7057 60.2027 34.2044 59.5654C35.5066 60.6737 36.6703 61.8651 38.0279 62.8071C39.2747 63.666 39.8565 64.6911 39.9674 66.215C40.0782 67.8774 40.5215 69.5121 40.8263 71.2576C40.1059 71.3407 39.4132 71.4793 38.7206 71.5624ZM36.4486 57.2381C37.4184 56.3792 38.305 55.6034 39.3024 54.7445C39.3024 56.4623 39.3024 58.0693 39.3024 59.8148C38.305 58.9005 37.3906 58.097 36.4486 57.2381ZM40.0228 48.0949C39.9119 48.7322 39.8565 49.3694 39.7457 50.0067C39.718 50.1729 39.6349 50.3946 39.5241 50.5054C37.7785 51.9184 36.033 53.3315 34.2321 54.7722C32.6251 52.805 31.0458 50.727 30.4917 48.0672C30.0207 45.8784 30.8796 44.4099 32.9853 43.6896C34.5092 43.1631 36.1161 43.08 37.6954 43.1908C38.7483 43.274 39.8288 43.4125 40.8817 43.551C40.5769 45.1303 40.2721 46.6265 40.0228 48.0949ZM59.833 47.901C59.6944 47.8733 59.639 47.8733 59.6113 47.8456C58.2814 47.0698 56.9515 46.294 55.5107 45.4628C56.7298 45.0749 57.8381 44.687 59.0572 44.2991C59.3342 45.5182 59.5559 46.6819 59.833 47.901ZM46.3676 38.0097C47.0879 36.569 47.9468 35.2391 49.2213 34.2139C50.7729 32.9671 52.2691 32.9394 53.8483 34.1862C55.3722 35.4053 56.3142 37.04 57.1177 38.7855C57.4779 39.5613 57.7827 40.3925 58.1429 41.196C56.8407 41.6393 55.5939 42.0549 54.3471 42.4982C53.5713 42.7752 52.8232 43.08 52.0474 43.4125C51.7149 43.551 51.4379 43.551 51.0777 43.4402C49.0828 42.6644 47.0602 41.9441 44.9545 41.1406C45.4256 40.1431 45.8689 39.0626 46.3676 38.0097ZM44.0402 44.2991C45.2316 44.687 46.3676 45.0472 47.6144 45.4628C46.1182 46.3217 44.7606 47.0975 43.2644 47.9564C43.5415 46.6819 43.7632 45.5182 44.0402 44.2991ZM43.1813 66.6029C44.7329 67.5172 46.1736 68.3484 47.6975 69.235C46.423 69.6783 45.2316 70.0662 43.9571 70.5095C43.68 69.1796 43.4307 67.9605 43.1813 66.6029ZM54.4302 80.3731C54.2362 80.567 54.0423 80.7332 53.8206 80.8995C52.2691 82.1186 50.7729 82.1186 49.2213 80.8995C48.2516 80.1237 47.4758 79.154 46.894 78.0457C46.1459 76.605 45.481 75.1365 44.7606 73.6404C46.3676 73.0585 47.7806 72.5598 49.2213 72.0334C49.8863 71.784 50.5236 71.4792 51.2162 71.2299C51.3825 71.1745 51.6318 71.1468 51.8258 71.2022C53.9038 71.9503 55.954 72.726 58.0043 73.4741C58.0597 73.5018 58.1152 73.5295 58.226 73.5849C57.3117 76.0785 56.3142 78.4613 54.4302 80.3731ZM59.1403 70.5095C57.8658 70.0939 56.6744 69.6783 55.3999 69.235C56.9238 68.3484 58.3368 67.5172 59.8884 66.6029C59.6667 67.9605 59.4174 69.1796 59.1403 70.5095ZM60.4425 61.8374C60.4425 62.2253 60.2763 62.4469 59.9715 62.6686C57.3948 64.4141 54.735 65.9933 51.9089 67.351C51.7149 67.4341 51.3825 67.4618 51.1885 67.351C48.3347 65.9933 45.6195 64.4141 43.0428 62.5854C42.8488 62.4469 42.6826 62.1421 42.6549 61.8928C42.4332 58.7619 42.4332 55.6311 42.7103 52.5003C42.738 52.3063 42.8765 52.0569 43.0428 51.9461C45.6472 50.1729 48.3624 48.5936 51.2162 47.2914C51.3825 47.2083 51.6595 47.236 51.8535 47.3191C54.7072 48.649 57.3948 50.2006 59.9992 51.9738C60.1654 52.0847 60.3317 52.3617 60.3317 52.5557C60.4425 54.2181 60.5256 55.8805 60.6087 57.3212C60.5533 58.9836 60.4979 60.4243 60.4425 61.8374ZM69.7519 43.5787C72.3286 44.2991 73.2429 45.9615 72.5503 48.5105C71.9961 50.5885 70.8048 52.334 69.5303 54.0241C69.3363 54.3012 69.1147 54.5505 68.8653 54.8553C68.5605 54.5782 68.2558 54.2735 67.951 54.0241C66.6211 52.9436 65.2912 51.8353 63.9612 50.7824C63.6288 50.5054 63.4348 50.2283 63.3794 49.785C63.0746 47.7347 62.6867 45.7121 62.3266 43.6064C64.737 43.1908 67.2583 42.8861 69.7519 43.5787ZM66.6765 57.2381C65.7345 58.097 64.8201 58.9005 63.8227 59.8148C63.8227 58.0693 63.8227 56.4623 63.8227 54.7445C64.7924 55.5757 65.6791 56.3792 66.6765 57.2381ZM71.3035 70.9251C70.1952 71.4792 69.0038 71.7563 67.7848 71.7009C66.0115 71.6455 64.2383 71.4238 62.4651 71.2576C62.4097 71.2576 62.382 71.2022 62.2988 71.1745C62.5205 70.0662 62.7422 68.9857 62.9361 67.8774C63.13 66.7414 63.2686 65.6055 63.4348 64.4972C63.4625 64.3033 63.5733 64.0816 63.7119 63.9708C65.3743 62.53 67.0644 61.117 68.7268 59.704C68.7545 59.6763 68.8099 59.6485 68.9207 59.5931C70.8325 61.9205 72.7165 64.2478 73.1875 67.3787C73.4369 68.9302 72.7442 70.2047 71.3035 70.9251Z" fill="#00E398"/>
</g>
<defs>
<clipPath id="clip0_50_2412">
<rect width="105" height="97" fill="white"/>
</clipPath>
</defs>
</svg>
