<svg width="50" height="50" viewBox="0 0 50 50" fill="none" xmlns="http://www.w3.org/2000/svg">
<path d="M19.1045 23.5209L27.9378 14.6875C28.1315 14.4923 28.3619 14.3373 28.6158 14.2315C28.8696 14.1257 29.1419 14.0713 29.417 14.0713C29.692 14.0713 29.9643 14.1257 30.2182 14.2315C30.472 14.3373 30.7025 14.4923 30.8961 14.6875C31.2842 15.0779 31.502 15.6059 31.502 16.1563C31.502 16.7067 31.2842 17.2347 30.8961 17.625L23.5211 25L30.8961 32.375C31.2842 32.7654 31.502 33.2934 31.502 33.8438C31.502 34.3942 31.2842 34.9222 30.8961 35.3125C30.7015 35.5056 30.4706 35.6584 30.2168 35.7621C29.9629 35.8657 29.6911 35.9183 29.417 35.9167C29.1428 35.9183 28.871 35.8657 28.6172 35.7621C28.3633 35.6584 28.1325 35.5056 27.9378 35.3125L19.1045 26.4792C18.9092 26.2855 18.7542 26.0551 18.6484 25.8012C18.5427 25.5474 18.4882 25.2751 18.4882 25C18.4882 24.725 18.5427 24.4527 18.6484 24.1988C18.7542 23.945 18.9092 23.7145 19.1045 23.5209Z" fill="#00E398"/>
</svg>
