<svg width="27" height="27" viewBox="0 0 27 27" fill="none" xmlns="http://www.w3.org/2000/svg">
<path d="M24.7497 10.8787C24.6786 10.673 24.5494 10.4922 24.3777 10.3584C24.2059 10.2246 23.9991 10.1435 23.7822 10.125L17.3809 9.19123L14.5122 3.37498C14.42 3.18478 14.2762 3.02437 14.0971 2.91213C13.9181 2.79989 13.711 2.74036 13.4997 2.74036C13.2883 2.74036 13.0813 2.79989 12.9022 2.91213C12.7231 3.02437 12.5793 3.18478 12.4872 3.37498L9.61842 9.17998L3.21717 10.125C3.00896 10.1546 2.81321 10.2419 2.65214 10.3772C2.49107 10.5124 2.37112 10.69 2.30592 10.89C2.24623 11.0854 2.24088 11.2933 2.29043 11.4915C2.33997 11.6897 2.44256 11.8707 2.58717 12.015L7.23342 16.515L6.10842 22.905C6.063 23.117 6.07979 23.3375 6.15678 23.5402C6.23376 23.7429 6.36766 23.9189 6.54237 24.0473C6.71707 24.1757 6.92514 24.2508 7.14154 24.2637C7.35794 24.2766 7.57346 24.2267 7.76217 24.12L13.4997 21.1162L19.2372 24.12C19.3951 24.2091 19.5734 24.2556 19.7547 24.255C19.993 24.2558 20.2254 24.181 20.4184 24.0412C20.593 23.9162 20.7281 23.7438 20.8078 23.5445C20.8876 23.3451 20.9086 23.1271 20.8684 22.9162L19.7434 16.5262L24.3897 12.0262C24.5521 11.8886 24.6721 11.7077 24.7359 11.5046C24.7996 11.3015 24.8044 11.0845 24.7497 10.8787ZM17.8309 15.3787C17.7007 15.5052 17.603 15.6613 17.5462 15.8337C17.4894 16.0061 17.4752 16.1896 17.5047 16.3687L18.3147 21.0937L14.0847 18.8437C13.9203 18.7624 13.7393 18.7201 13.5559 18.7201C13.3725 18.7201 13.1916 18.7624 13.0272 18.8437L8.79717 21.0937L9.60717 16.3687C9.63669 16.1896 9.62243 16.0061 9.56562 15.8337C9.50881 15.6613 9.41113 15.5052 9.28092 15.3787L5.90592 12.0037L10.6422 11.3175C10.8244 11.2921 10.9977 11.2225 11.1467 11.1146C11.2958 11.0067 11.4161 10.8639 11.4972 10.6987L13.4997 6.41248L15.6147 10.71C15.6957 10.8752 15.816 11.018 15.9651 11.1258C16.1142 11.2337 16.2874 11.3034 16.4697 11.3287L21.2059 12.015L17.8309 15.3787Z" fill="#00E398"/>
</svg>
