<?xml version="1.0" encoding="utf-8"?>
<!-- Generator: Adobe Illustrator 25.0.0, SVG Export Plug-In . SVG Version: 6.00 Build 0)  -->
<svg version="1.1" xmlns="http://www.w3.org/2000/svg" xmlns:xlink="http://www.w3.org/1999/xlink" x="0px" y="0px"
	 viewBox="0 0 510.3 524.1" style="enable-background:new 0 0 510.3 524.1;" xml:space="preserve">
<style type="text/css">
	.st0{display:none;}
	.st1{display:inline;opacity:0.7;fill:#FFFFFF;}
	.st2{fill:#00E398;}
	.st3{fill:none;stroke:#263238;stroke-linecap:round;stroke-linejoin:round;}
	.st4{fill:none;stroke:#263238;stroke-linecap:round;stroke-linejoin:round;stroke-dasharray:6.4717,6.4717;}
	.st5{fill:none;stroke:#263238;stroke-linecap:round;stroke-linejoin:round;stroke-dasharray:6.4716,6.4716;}
	.st6{fill:#FFFFFF;}
	.st7{fill:none;stroke:#263238;stroke-linecap:round;stroke-linejoin:round;stroke-miterlimit:10;}
	.st8{fill:#263238;}
	.st9{fill:#FFFFFF;stroke:#263238;stroke-linecap:round;stroke-linejoin:round;stroke-miterlimit:10;}
	.st10{fill:#263238;stroke:#263238;stroke-linecap:round;stroke-linejoin:round;stroke-miterlimit:10;}
	.st11{opacity:0.39;}
	.st12{fill:none;stroke:#00E398;stroke-miterlimit:10;}
	.st13{opacity:0.4;fill:#92E3A9;}
	.st14{display:none;fill:#00E398;}
</style>
<g id="Background_Simple">
	<g class="st0">
		<path class="st1" d="M675.8,243.9c0,0-27.9,72,11.3,144.5C726.3,460.9,807,499.2,871.6,532c64.6,32.7,131.7,16.8,163.5-36.8
			c31.9-53.6-11.8-91.9-11.9-168.4c-0.1-76.5,11.4-96.7-30-161.4c-41.4-64.6-143.1-78.9-219.9-31
			C696.5,182.3,675.8,243.9,675.8,243.9z"/>
	</g>
</g>
<g id="Hand">
	<path class="st2" d="M17.5,298.3c-5-23.6-3.6-48.6,6.6-74c13.2-32.8,41.6-56,73.4-69.6c46.2-19.7,91.6-20.1,129.2-58.8
		C238.4,84,248.2,70.3,260,58.6c34.9-34.5,86.1-30.3,124.2-3c79.6,57,108.3,169.9,103.9,263.3c-2,41.9-21.9,80.9-53.5,108.4
		c-71.4,62.2-192.7,51.7-274.7,19.3C98.7,422.3,31.9,365.9,17.5,298.3z"/>
	<g>
		<g>
			<line class="st3" x1="266.6" y1="153.9" x2="266.6" y2="159.9"/>
			<line class="st4" x1="266.6" y1="166.3" x2="266.6" y2="176"/>
			<line class="st3" x1="266.6" y1="179.3" x2="266.6" y2="185.3"/>
		</g>
	</g>
	<g>
		<g>
			<g>
				<line class="st3" x1="362.3" y1="255.4" x2="356.3" y2="255.4"/>
				<line class="st5" x1="349.8" y1="255.4" x2="340.1" y2="255.4"/>
				<line class="st3" x1="336.9" y1="255.4" x2="330.9" y2="255.4"/>
			</g>
		</g>
		<g>
			<g>
				<line class="st3" x1="202.3" y1="255.4" x2="196.3" y2="255.4"/>
				<line class="st5" x1="189.8" y1="255.4" x2="180.1" y2="255.4"/>
				<line class="st3" x1="176.9" y1="255.4" x2="170.9" y2="255.4"/>
			</g>
		</g>
	</g>
	<g>
		<g>
			<path class="st6" d="M446.3,314.5c0-1.1,0.6-1.7,1.6-1.7c1,0,1.6,0.6,1.6,1.7v3.4c0,1.1-0.6,1.7-1.6,1.7c-1,0-1.6-0.6-1.6-1.7
				V314.5z M447.4,318c0,0.5,0.2,0.7,0.5,0.7c0.3,0,0.5-0.2,0.5-0.7v-3.6c0-0.5-0.2-0.7-0.5-0.7c-0.3,0-0.5,0.2-0.5,0.7V318z"/>
			<path class="st6" d="M447,323.2c0.8,0,1-0.4,1.1-0.8h0.7v6.6h-1v-5H447V323.2z"/>
			<path class="st6" d="M446.3,333.4c0-1.1,0.6-1.7,1.6-1.7c1,0,1.6,0.6,1.6,1.7v3.4c0,1.1-0.6,1.7-1.6,1.7c-1,0-1.6-0.6-1.6-1.7
				V333.4z M447.4,337c0,0.5,0.2,0.7,0.5,0.7c0.3,0,0.5-0.2,0.5-0.7v-3.6c0-0.5-0.2-0.7-0.5-0.7c-0.3,0-0.5,0.2-0.5,0.7V337z"/>
			<path class="st6" d="M447,342.1c0.8,0,1-0.4,1.1-0.8h0.7v6.6h-1v-5H447V342.1z"/>
			<path class="st6" d="M446.3,352.4c0-1.1,0.6-1.7,1.6-1.7c1,0,1.6,0.6,1.6,1.7v3.4c0,1.1-0.6,1.7-1.6,1.7c-1,0-1.6-0.6-1.6-1.7
				V352.4z M447.4,355.9c0,0.5,0.2,0.7,0.5,0.7c0.3,0,0.5-0.2,0.5-0.7v-3.6c0-0.5-0.2-0.7-0.5-0.7c-0.3,0-0.5,0.2-0.5,0.7V355.9z"/>
			<path class="st6" d="M447,361.1c0.8,0,1-0.4,1.1-0.8h0.7v6.6h-1v-5H447V361.1z"/>
			<path class="st6" d="M446.3,371.3c0-1.1,0.6-1.7,1.6-1.7c1,0,1.6,0.6,1.6,1.7v3.4c0,1.1-0.6,1.7-1.6,1.7c-1,0-1.6-0.6-1.6-1.7
				V371.3z M447.4,374.8c0,0.5,0.2,0.7,0.5,0.7c0.3,0,0.5-0.2,0.5-0.7v-3.6c0-0.5-0.2-0.7-0.5-0.7c-0.3,0-0.5,0.2-0.5,0.7V374.8z"/>
			<path class="st6" d="M446.3,380.7c0-1.1,0.6-1.7,1.6-1.7c1,0,1.6,0.6,1.6,1.7v3.4c0,1.1-0.6,1.7-1.6,1.7c-1,0-1.6-0.6-1.6-1.7
				V380.7z M447.4,384.2c0,0.5,0.2,0.7,0.5,0.7c0.3,0,0.5-0.2,0.5-0.7v-3.6c0-0.5-0.2-0.7-0.5-0.7c-0.3,0-0.5,0.2-0.5,0.7V384.2z"/>
			<path class="st6" d="M446.3,390.2c0-1.1,0.6-1.7,1.6-1.7c1,0,1.6,0.6,1.6,1.7v3.4c0,1.1-0.6,1.7-1.6,1.7c-1,0-1.6-0.6-1.6-1.7
				V390.2z M447.4,393.7c0,0.5,0.2,0.7,0.5,0.7c0.3,0,0.5-0.2,0.5-0.7v-3.6c0-0.5-0.2-0.7-0.5-0.7c-0.3,0-0.5,0.2-0.5,0.7V393.7z"/>
			<path class="st6" d="M447,408.4c0.8,0,1-0.4,1.1-0.8h0.7v6.6h-1v-5H447V408.4z"/>
			<path class="st6" d="M447,417.8c0.8,0,1-0.4,1.1-0.8h0.7v6.6h-1v-5H447V417.8z"/>
			<path class="st6" d="M447,427.3c0.8,0,1-0.4,1.1-0.8h0.7v6.6h-1v-5H447V427.3z"/>
			<path class="st6" d="M446.3,437.5c0-1.1,0.6-1.7,1.6-1.7c1,0,1.6,0.6,1.6,1.7v3.4c0,1.1-0.6,1.7-1.6,1.7c-1,0-1.6-0.6-1.6-1.7
				V437.5z M447.4,441c0,0.5,0.2,0.7,0.5,0.7c0.3,0,0.5-0.2,0.5-0.7v-3.6c0-0.5-0.2-0.7-0.5-0.7c-0.3,0-0.5,0.2-0.5,0.7V441z"/>
			<path class="st6" d="M446.3,447c0-1.1,0.6-1.7,1.6-1.7c1,0,1.6,0.6,1.6,1.7v3.4c0,1.1-0.6,1.7-1.6,1.7c-1,0-1.6-0.6-1.6-1.7V447z
				 M447.4,450.5c0,0.5,0.2,0.7,0.5,0.7c0.3,0,0.5-0.2,0.5-0.7v-3.6c0-0.5-0.2-0.7-0.5-0.7c-0.3,0-0.5,0.2-0.5,0.7V450.5z"/>
			<path class="st6" d="M447,455.7c0.8,0,1-0.4,1.1-0.8h0.7v6.6h-1v-5H447V455.7z"/>
		</g>
		<g>
			<path class="st6" d="M452.7,304.3c0.8,0,1-0.4,1.1-0.8h0.7v6.6h-1v-5h-0.8V304.3z"/>
			<path class="st6" d="M452.7,313.8c0.8,0,1-0.4,1.1-0.8h0.7v6.6h-1v-5h-0.8V313.8z"/>
			<path class="st6" d="M451.9,333.4c0-1.1,0.6-1.7,1.6-1.7c1,0,1.6,0.6,1.6,1.7v3.4c0,1.1-0.6,1.7-1.6,1.7c-1,0-1.6-0.6-1.6-1.7
				V333.4z M453,337c0,0.5,0.2,0.7,0.5,0.7c0.3,0,0.5-0.2,0.5-0.7v-3.6c0-0.5-0.2-0.7-0.5-0.7c-0.3,0-0.5,0.2-0.5,0.7V337z"/>
			<path class="st6" d="M452.7,361.1c0.8,0,1-0.4,1.1-0.8h0.7v6.6h-1v-5h-0.8V361.1z"/>
			<path class="st6" d="M451.9,371.3c0-1.1,0.6-1.7,1.6-1.7c1,0,1.6,0.6,1.6,1.7v3.4c0,1.1-0.6,1.7-1.6,1.7c-1,0-1.6-0.6-1.6-1.7
				V371.3z M453,374.8c0,0.5,0.2,0.7,0.5,0.7c0.3,0,0.5-0.2,0.5-0.7v-3.6c0-0.5-0.2-0.7-0.5-0.7c-0.3,0-0.5,0.2-0.5,0.7V374.8z"/>
			<path class="st6" d="M452.7,380c0.8,0,1-0.4,1.1-0.8h0.7v6.6h-1v-5h-0.8V380z"/>
			<path class="st6" d="M452.7,389.4c0.8,0,1-0.4,1.1-0.8h0.7v6.6h-1v-5h-0.8V389.4z"/>
			<path class="st6" d="M452.7,398.9c0.8,0,1-0.4,1.1-0.8h0.7v6.6h-1v-5h-0.8V398.9z"/>
			<path class="st6" d="M451.9,409.1c0-1.1,0.6-1.7,1.6-1.7c1,0,1.6,0.6,1.6,1.7v3.4c0,1.1-0.6,1.7-1.6,1.7c-1,0-1.6-0.6-1.6-1.7
				V409.1z M453,412.6c0,0.5,0.2,0.7,0.5,0.7c0.3,0,0.5-0.2,0.5-0.7v-3.6c0-0.5-0.2-0.7-0.5-0.7c-0.3,0-0.5,0.2-0.5,0.7V412.6z"/>
			<path class="st6" d="M451.9,418.6c0-1.1,0.6-1.7,1.6-1.7c1,0,1.6,0.6,1.6,1.7v3.4c0,1.1-0.6,1.7-1.6,1.7c-1,0-1.6-0.6-1.6-1.7
				V418.6z M453,422.1c0,0.5,0.2,0.7,0.5,0.7c0.3,0,0.5-0.2,0.5-0.7v-3.6c0-0.5-0.2-0.7-0.5-0.7c-0.3,0-0.5,0.2-0.5,0.7V422.1z"/>
		</g>
		<g>
			<path class="st6" d="M441.4,361.1c0.8,0,1-0.4,1.1-0.8h0.7v6.6h-1v-5h-0.8V361.1z"/>
			<path class="st6" d="M440.7,371.3c0-1.1,0.6-1.7,1.6-1.7c1,0,1.6,0.6,1.6,1.7v3.4c0,1.1-0.6,1.7-1.6,1.7c-1,0-1.6-0.6-1.6-1.7
				V371.3z M441.7,374.8c0,0.5,0.2,0.7,0.5,0.7c0.3,0,0.5-0.2,0.5-0.7v-3.6c0-0.5-0.2-0.7-0.5-0.7c-0.3,0-0.5,0.2-0.5,0.7V374.8z"/>
			<path class="st6" d="M440.7,380.7c0-1.1,0.6-1.7,1.6-1.7c1,0,1.6,0.6,1.6,1.7v3.4c0,1.1-0.6,1.7-1.6,1.7c-1,0-1.6-0.6-1.6-1.7
				V380.7z M441.7,384.2c0,0.5,0.2,0.7,0.5,0.7c0.3,0,0.5-0.2,0.5-0.7v-3.6c0-0.5-0.2-0.7-0.5-0.7c-0.3,0-0.5,0.2-0.5,0.7V384.2z"/>
			<path class="st6" d="M441.4,389.4c0.8,0,1-0.4,1.1-0.8h0.7v6.6h-1v-5h-0.8V389.4z"/>
			<path class="st6" d="M441.4,408.4c0.8,0,1-0.4,1.1-0.8h0.7v6.6h-1v-5h-0.8V408.4z"/>
			<path class="st6" d="M441.4,417.8c0.8,0,1-0.4,1.1-0.8h0.7v6.6h-1v-5h-0.8V417.8z"/>
			<path class="st6" d="M441.4,427.3c0.8,0,1-0.4,1.1-0.8h0.7v6.6h-1v-5h-0.8V427.3z"/>
		</g>
		<g>
			<path class="st6" d="M435.1,333.4c0-1.1,0.6-1.7,1.6-1.7c1,0,1.6,0.6,1.6,1.7v3.4c0,1.1-0.6,1.7-1.6,1.7c-1,0-1.6-0.6-1.6-1.7
				V333.4z M436.1,337c0,0.5,0.2,0.7,0.5,0.7c0.3,0,0.5-0.2,0.5-0.7v-3.6c0-0.5-0.2-0.7-0.5-0.7c-0.3,0-0.5,0.2-0.5,0.7V337z"/>
			<path class="st6" d="M435.1,352.4c0-1.1,0.6-1.7,1.6-1.7c1,0,1.6,0.6,1.6,1.7v3.4c0,1.1-0.6,1.7-1.6,1.7c-1,0-1.6-0.6-1.6-1.7
				V352.4z M436.1,355.9c0,0.5,0.2,0.7,0.5,0.7c0.3,0,0.5-0.2,0.5-0.7v-3.6c0-0.5-0.2-0.7-0.5-0.7c-0.3,0-0.5,0.2-0.5,0.7V355.9z"/>
			<path class="st6" d="M435.8,380c0.8,0,1-0.4,1.1-0.8h0.7v6.6h-1v-5h-0.8V380z"/>
			<path class="st6" d="M435.8,389.4c0.8,0,1-0.4,1.1-0.8h0.7v6.6h-1v-5h-0.8V389.4z"/>
			<path class="st6" d="M435.8,417.8c0.8,0,1-0.4,1.1-0.8h0.7v6.6h-1v-5h-0.8V417.8z"/>
			<path class="st6" d="M435.1,428c0-1.1,0.6-1.7,1.6-1.7c1,0,1.6,0.6,1.6,1.7v3.4c0,1.1-0.6,1.7-1.6,1.7c-1,0-1.6-0.6-1.6-1.7V428z
				 M436.1,431.5c0,0.5,0.2,0.7,0.5,0.7c0.3,0,0.5-0.2,0.5-0.7V428c0-0.5-0.2-0.7-0.5-0.7c-0.3,0-0.5,0.2-0.5,0.7V431.5z"/>
			<path class="st6" d="M435.8,436.7c0.8,0,1-0.4,1.1-0.8h0.7v6.6h-1v-5h-0.8V436.7z"/>
		</g>
	</g>
	<g>
		<g>
			<path class="st6" d="M186.6,348.7c0-1.1,0.6-1.7,1.6-1.7c1,0,1.6,0.6,1.6,1.7v3.4c0,1.1-0.6,1.7-1.6,1.7c-1,0-1.6-0.6-1.6-1.7
				V348.7z M187.6,352.2c0,0.5,0.2,0.7,0.5,0.7c0.3,0,0.5-0.2,0.5-0.7v-3.6c0-0.5-0.2-0.7-0.5-0.7c-0.3,0-0.5,0.2-0.5,0.7V352.2z"/>
			<path class="st6" d="M186.6,358.2c0-1.1,0.6-1.7,1.6-1.7c1,0,1.6,0.6,1.6,1.7v3.4c0,1.1-0.6,1.7-1.6,1.7c-1,0-1.6-0.6-1.6-1.7
				V358.2z M187.6,361.7c0,0.5,0.2,0.7,0.5,0.7c0.3,0,0.5-0.2,0.5-0.7v-3.6c0-0.5-0.2-0.7-0.5-0.7c-0.3,0-0.5,0.2-0.5,0.7V361.7z"/>
			<path class="st6" d="M187.3,366.9c0.8,0,1-0.4,1.1-0.8h0.7v6.6h-1v-5h-0.8V366.9z"/>
			<path class="st6" d="M186.6,377.1c0-1.1,0.6-1.7,1.6-1.7c1,0,1.6,0.6,1.6,1.7v3.4c0,1.1-0.6,1.7-1.6,1.7c-1,0-1.6-0.6-1.6-1.7
				V377.1z M187.6,380.6c0,0.5,0.2,0.7,0.5,0.7c0.3,0,0.5-0.2,0.5-0.7V377c0-0.5-0.2-0.7-0.5-0.7c-0.3,0-0.5,0.2-0.5,0.7V380.6z"/>
			<path class="st6" d="M187.3,385.8c0.8,0,1-0.4,1.1-0.8h0.7v6.6h-1v-5h-0.8V385.8z"/>
			<path class="st6" d="M186.6,396c0-1.1,0.6-1.7,1.6-1.7c1,0,1.6,0.6,1.6,1.7v3.4c0,1.1-0.6,1.7-1.6,1.7c-1,0-1.6-0.6-1.6-1.7V396z
				 M187.6,399.5c0,0.5,0.2,0.7,0.5,0.7c0.3,0,0.5-0.2,0.5-0.7V396c0-0.5-0.2-0.7-0.5-0.7c-0.3,0-0.5,0.2-0.5,0.7V399.5z"/>
			<path class="st6" d="M187.3,404.7c0.8,0,1-0.4,1.1-0.8h0.7v6.6h-1v-5h-0.8V404.7z"/>
			<path class="st6" d="M186.6,414.9c0-1.1,0.6-1.7,1.6-1.7c1,0,1.6,0.6,1.6,1.7v3.4c0,1.1-0.6,1.7-1.6,1.7c-1,0-1.6-0.6-1.6-1.7
				V414.9z M187.6,418.4c0,0.5,0.2,0.7,0.5,0.7c0.3,0,0.5-0.2,0.5-0.7v-3.6c0-0.5-0.2-0.7-0.5-0.7c-0.3,0-0.5,0.2-0.5,0.7V418.4z"/>
			<path class="st6" d="M186.6,424.4c0-1.1,0.6-1.7,1.6-1.7c1,0,1.6,0.6,1.6,1.7v3.4c0,1.1-0.6,1.7-1.6,1.7c-1,0-1.6-0.6-1.6-1.7
				V424.4z M187.6,427.9c0,0.5,0.2,0.7,0.5,0.7c0.3,0,0.5-0.2,0.5-0.7v-3.6c0-0.5-0.2-0.7-0.5-0.7c-0.3,0-0.5,0.2-0.5,0.7V427.9z"/>
			<path class="st6" d="M186.6,433.9c0-1.1,0.6-1.7,1.6-1.7c1,0,1.6,0.6,1.6,1.7v3.4c0,1.1-0.6,1.7-1.6,1.7c-1,0-1.6-0.6-1.6-1.7
				V433.9z M187.6,437.4c0,0.5,0.2,0.7,0.5,0.7c0.3,0,0.5-0.2,0.5-0.7v-3.6c0-0.5-0.2-0.7-0.5-0.7c-0.3,0-0.5,0.2-0.5,0.7V437.4z"/>
			<path class="st6" d="M187.3,442.6c0.8,0,1-0.4,1.1-0.8h0.7v6.6h-1v-5h-0.8V442.6z"/>
			<path class="st6" d="M187.3,452c0.8,0,1-0.4,1.1-0.8h0.7v6.6h-1v-5h-0.8V452z"/>
			<path class="st6" d="M187.3,461.5c0.8,0,1-0.4,1.1-0.8h0.7v6.6h-1v-5h-0.8V461.5z"/>
			<path class="st6" d="M187.3,470.9c0.8,0,1-0.4,1.1-0.8h0.7v6.6h-1v-5h-0.8V470.9z"/>
			<path class="st6" d="M187.6,484.7c0,0.5,0.2,0.7,0.5,0.7c0.3,0,0.5-0.2,0.5-0.7v-3.6c0-0.5-0.2-0.7-0.5-0.7
				c-0.3,0-0.5,0.2-0.5,0.7V484.7z"/>
		</g>
		<g>
			<path class="st6" d="M192.9,385.8c0.8,0,1-0.4,1.1-0.8h0.7v6.6h-1v-5h-0.8V385.8z"/>
			<path class="st6" d="M192.9,395.3c0.8,0,1-0.4,1.1-0.8h0.7v6.6h-1v-5h-0.8V395.3z"/>
			<path class="st6" d="M192.2,414.9c0-1.1,0.6-1.7,1.6-1.7c1,0,1.6,0.6,1.6,1.7v3.4c0,1.1-0.6,1.7-1.6,1.7c-1,0-1.6-0.6-1.6-1.7
				V414.9z M193.2,418.4c0,0.5,0.2,0.7,0.5,0.7c0.3,0,0.5-0.2,0.5-0.7v-3.6c0-0.5-0.2-0.7-0.5-0.7c-0.3,0-0.5,0.2-0.5,0.7V418.4z"/>
			<path class="st6" d="M192.9,423.6c0.8,0,1-0.4,1.1-0.8h0.7v6.6h-1v-5h-0.8V423.6z"/>
			<path class="st6" d="M192.2,433.9c0-1.1,0.6-1.7,1.6-1.7c1,0,1.6,0.6,1.6,1.7v3.4c0,1.1-0.6,1.7-1.6,1.7c-1,0-1.6-0.6-1.6-1.7
				V433.9z M193.2,437.4c0,0.5,0.2,0.7,0.5,0.7c0.3,0,0.5-0.2,0.5-0.7v-3.6c0-0.5-0.2-0.7-0.5-0.7c-0.3,0-0.5,0.2-0.5,0.7V437.4z"/>
			<path class="st6" d="M193.2,456.3c0,0.5,0.2,0.7,0.5,0.7c0.3,0,0.5-0.2,0.5-0.7v-3.6c0-0.5-0.2-0.7-0.5-0.7
				c-0.3,0-0.5,0.2-0.5,0.7V456.3z"/>
			<path class="st6" d="M192.9,461.5c0.8,0,1-0.4,1.1-0.8h0.7v6.6h-1v-5h-0.8V461.5z"/>
			<path class="st6" d="M192.9,470.9c0.8,0,1-0.4,1.1-0.8h0.7v6.6h-1v-5h-0.8V470.9z"/>
			<path class="st6" d="M192.2,500.1c0-1.1,0.6-1.7,1.6-1.7c1,0,1.6,0.6,1.6,1.7v3.4c0,1.1-0.6,1.7-1.6,1.7c-1,0-1.6-0.6-1.6-1.7
				V500.1z M193.2,503.6c0,0.5,0.2,0.7,0.5,0.7c0.3,0,0.5-0.2,0.5-0.7V500c0-0.5-0.2-0.7-0.5-0.7c-0.3,0-0.5,0.2-0.5,0.7V503.6z"/>
		</g>
		<g>
			<path class="st6" d="M180.9,377.1c0-1.1,0.6-1.7,1.6-1.7c1,0,1.6,0.6,1.6,1.7v3.4c0,1.1-0.6,1.7-1.6,1.7c-1,0-1.6-0.6-1.6-1.7
				V377.1z M182,380.6c0,0.5,0.2,0.7,0.5,0.7c0.3,0,0.5-0.2,0.5-0.7V377c0-0.5-0.2-0.7-0.5-0.7c-0.3,0-0.5,0.2-0.5,0.7V380.6z"/>
			<path class="st6" d="M181.7,385.8c0.8,0,1-0.4,1.1-0.8h0.7v6.6h-1v-5h-0.8V385.8z"/>
			<path class="st6" d="M181.7,395.3c0.8,0,1-0.4,1.1-0.8h0.7v6.6h-1v-5h-0.8V395.3z"/>
			<path class="st6" d="M180.9,405.5c0-1.1,0.6-1.7,1.6-1.7c1,0,1.6,0.6,1.6,1.7v3.4c0,1.1-0.6,1.7-1.6,1.7c-1,0-1.6-0.6-1.6-1.7
				V405.5z M182,409c0,0.5,0.2,0.7,0.5,0.7c0.3,0,0.5-0.2,0.5-0.7v-3.6c0-0.5-0.2-0.7-0.5-0.7c-0.3,0-0.5,0.2-0.5,0.7V409z"/>
			<path class="st6" d="M180.9,424.4c0-1.1,0.6-1.7,1.6-1.7c1,0,1.6,0.6,1.6,1.7v3.4c0,1.1-0.6,1.7-1.6,1.7c-1,0-1.6-0.6-1.6-1.7
				V424.4z M182,427.9c0,0.5,0.2,0.7,0.5,0.7c0.3,0,0.5-0.2,0.5-0.7v-3.6c0-0.5-0.2-0.7-0.5-0.7c-0.3,0-0.5,0.2-0.5,0.7V427.9z"/>
			<path class="st6" d="M180.9,433.9c0-1.1,0.6-1.7,1.6-1.7c1,0,1.6,0.6,1.6,1.7v3.4c0,1.1-0.6,1.7-1.6,1.7c-1,0-1.6-0.6-1.6-1.7
				V433.9z M182,437.4c0,0.5,0.2,0.7,0.5,0.7c0.3,0,0.5-0.2,0.5-0.7v-3.6c0-0.5-0.2-0.7-0.5-0.7c-0.3,0-0.5,0.2-0.5,0.7V437.4z"/>
			<path class="st6" d="M181.7,442.6c0.8,0,1-0.4,1.1-0.8h0.7v6.6h-1v-5h-0.8V442.6z"/>
			<path class="st6" d="M180.9,452.8c0-1.1,0.6-1.7,1.6-1.7c1,0,1.6,0.6,1.6,1.7v3.4c0,1.1-0.6,1.7-1.6,1.7c-1,0-1.6-0.6-1.6-1.7
				V452.8z M182,456.3c0,0.5,0.2,0.7,0.5,0.7c0.3,0,0.5-0.2,0.5-0.7v-3.6c0-0.5-0.2-0.7-0.5-0.7c-0.3,0-0.5,0.2-0.5,0.7V456.3z"/>
			<path class="st6" d="M181.7,461.5c0.8,0,1-0.4,1.1-0.8h0.7v6.6h-1v-5h-0.8V461.5z"/>
		</g>
		<g>
			<path class="st6" d="M175.3,358.2c0-1.1,0.6-1.7,1.6-1.7c1,0,1.6,0.6,1.6,1.7v3.4c0,1.1-0.6,1.7-1.6,1.7c-1,0-1.6-0.6-1.6-1.7
				V358.2z M176.4,361.7c0,0.5,0.2,0.7,0.5,0.7c0.3,0,0.5-0.2,0.5-0.7v-3.6c0-0.5-0.2-0.7-0.5-0.7c-0.3,0-0.5,0.2-0.5,0.7V361.7z"/>
			<path class="st6" d="M176.1,376.3c0.8,0,1-0.4,1.1-0.8h0.7v6.6h-1v-5h-0.8V376.3z"/>
			<path class="st6" d="M176.1,395.3c0.8,0,1-0.4,1.1-0.8h0.7v6.6h-1v-5h-0.8V395.3z"/>
			<path class="st6" d="M175.3,405.5c0-1.1,0.6-1.7,1.6-1.7c1,0,1.6,0.6,1.6,1.7v3.4c0,1.1-0.6,1.7-1.6,1.7c-1,0-1.6-0.6-1.6-1.7
				V405.5z M176.4,409c0,0.5,0.2,0.7,0.5,0.7c0.3,0,0.5-0.2,0.5-0.7v-3.6c0-0.5-0.2-0.7-0.5-0.7c-0.3,0-0.5,0.2-0.5,0.7V409z"/>
			<path class="st6" d="M176.1,433.1c0.8,0,1-0.4,1.1-0.8h0.7v6.6h-1v-5h-0.8V433.1z"/>
			<path class="st6" d="M176.1,442.6c0.8,0,1-0.4,1.1-0.8h0.7v6.6h-1v-5h-0.8V442.6z"/>
			<path class="st6" d="M176.1,452c0.8,0,1-0.4,1.1-0.8h0.7v6.6h-1v-5h-0.8V452z"/>
		</g>
	</g>
	<g>
		<g>
			<path class="st6" d="M386.5,16.4c0-1.1,0.6-1.7,1.6-1.7c1,0,1.6,0.6,1.6,1.7v3.4c0,1.1-0.6,1.7-1.6,1.7c-1,0-1.6-0.6-1.6-1.7
				V16.4z M387.5,19.9c0,0.5,0.2,0.7,0.5,0.7s0.5-0.2,0.5-0.7v-3.6c0-0.5-0.2-0.7-0.5-0.7s-0.5,0.2-0.5,0.7V19.9z"/>
			<path class="st6" d="M386.5,25.9c0-1.1,0.6-1.7,1.6-1.7c1,0,1.6,0.6,1.6,1.7v3.4c0,1.1-0.6,1.7-1.6,1.7c-1,0-1.6-0.6-1.6-1.7
				V25.9z M387.5,29.4c0,0.5,0.2,0.7,0.5,0.7s0.5-0.2,0.5-0.7v-3.6c0-0.5-0.2-0.7-0.5-0.7s-0.5,0.2-0.5,0.7V29.4z"/>
			<path class="st6" d="M387.2,53.5c0.8,0,1-0.4,1.1-0.8h0.7v6.6h-1v-5h-0.8V53.5z"/>
			<path class="st6" d="M387.2,63c0.8,0,1-0.4,1.1-0.8h0.7v6.6h-1v-5h-0.8V63z"/>
			<path class="st6" d="M386.5,92.1c0-1.1,0.6-1.7,1.6-1.7c1,0,1.6,0.6,1.6,1.7v3.4c0,1.1-0.6,1.7-1.6,1.7c-1,0-1.6-0.6-1.6-1.7
				V92.1z M387.5,95.6c0,0.5,0.2,0.7,0.5,0.7s0.5-0.2,0.5-0.7V92c0-0.5-0.2-0.7-0.5-0.7s-0.5,0.2-0.5,0.7V95.6z"/>
			<path class="st6" d="M386.5,111c0-1.1,0.6-1.7,1.6-1.7c1,0,1.6,0.6,1.6,1.7v3.4c0,1.1-0.6,1.7-1.6,1.7c-1,0-1.6-0.6-1.6-1.7V111z
				 M387.5,114.5c0,0.5,0.2,0.7,0.5,0.7s0.5-0.2,0.5-0.7V111c0-0.5-0.2-0.7-0.5-0.7s-0.5,0.2-0.5,0.7V114.5z"/>
		</g>
		<g>
			<path class="st6" d="M369.6,35.4c0-1.1,0.6-1.7,1.6-1.7c1,0,1.6,0.6,1.6,1.7v3.4c0,1.1-0.6,1.7-1.6,1.7c-1,0-1.6-0.6-1.6-1.7
				V35.4z M370.7,38.9c0,0.5,0.2,0.7,0.5,0.7c0.3,0,0.5-0.2,0.5-0.7v-3.6c0-0.5-0.2-0.7-0.5-0.7c-0.3,0-0.5,0.2-0.5,0.7V38.9z"/>
			<path class="st6" d="M369.6,44.8c0-1.1,0.6-1.7,1.6-1.7c1,0,1.6,0.6,1.6,1.7v3.4c0,1.1-0.6,1.7-1.6,1.7c-1,0-1.6-0.6-1.6-1.7
				V44.8z M370.7,48.3c0,0.5,0.2,0.7,0.5,0.7c0.3,0,0.5-0.2,0.5-0.7v-3.6c0-0.5-0.2-0.7-0.5-0.7c-0.3,0-0.5,0.2-0.5,0.7V48.3z"/>
			<path class="st6" d="M369.6,54.3c0-1.1,0.6-1.7,1.6-1.7c1,0,1.6,0.6,1.6,1.7v3.4c0,1.1-0.6,1.7-1.6,1.7c-1,0-1.6-0.6-1.6-1.7
				V54.3z M370.7,57.8c0,0.5,0.2,0.7,0.5,0.7c0.3,0,0.5-0.2,0.5-0.7v-3.6c0-0.5-0.2-0.7-0.5-0.7c-0.3,0-0.5,0.2-0.5,0.7V57.8z"/>
			<path class="st6" d="M370.3,63c0.8,0,1-0.4,1.1-0.8h0.7v6.6h-1v-5h-0.8V63z"/>
			<path class="st6" d="M370.3,81.9c0.8,0,1-0.4,1.1-0.8h0.7v6.6h-1v-5h-0.8V81.9z"/>
			<path class="st6" d="M370.3,91.4c0.8,0,1-0.4,1.1-0.8h0.7v6.6h-1v-5h-0.8V91.4z"/>
			<path class="st6" d="M369.6,111c0-1.1,0.6-1.7,1.6-1.7c1,0,1.6,0.6,1.6,1.7v3.4c0,1.1-0.6,1.7-1.6,1.7c-1,0-1.6-0.6-1.6-1.7V111z
				 M370.7,114.5c0,0.5,0.2,0.7,0.5,0.7c0.3,0,0.5-0.2,0.5-0.7V111c0-0.5-0.2-0.7-0.5-0.7c-0.3,0-0.5,0.2-0.5,0.7V114.5z"/>
			<path class="st6" d="M370.3,119.7c0.8,0,1-0.4,1.1-0.8h0.7v6.6h-1v-5h-0.8V119.7z"/>
		</g>
		<g>
			<path class="st6" d="M380.9,16.4c0-1.1,0.6-1.7,1.6-1.7c1,0,1.6,0.6,1.6,1.7v3.4c0,1.1-0.6,1.7-1.6,1.7c-1,0-1.6-0.6-1.6-1.7
				V16.4z M381.9,19.9c0,0.5,0.2,0.7,0.5,0.7c0.3,0,0.5-0.2,0.5-0.7v-3.6c0-0.5-0.2-0.7-0.5-0.7c-0.3,0-0.5,0.2-0.5,0.7V19.9z"/>
			<path class="st6" d="M381.6,25.1c0.8,0,1-0.4,1.1-0.8h0.7v6.6h-1v-5h-0.8V25.1z"/>
			<path class="st6" d="M380.9,35.4c0-1.1,0.6-1.7,1.6-1.7c1,0,1.6,0.6,1.6,1.7v3.4c0,1.1-0.6,1.7-1.6,1.7c-1,0-1.6-0.6-1.6-1.7
				V35.4z M381.9,38.9c0,0.5,0.2,0.7,0.5,0.7c0.3,0,0.5-0.2,0.5-0.7v-3.6c0-0.5-0.2-0.7-0.5-0.7c-0.3,0-0.5,0.2-0.5,0.7V38.9z"/>
			<path class="st6" d="M381.6,44.1c0.8,0,1-0.4,1.1-0.8h0.7v6.6h-1v-5h-0.8V44.1z"/>
			<path class="st6" d="M381.6,53.5c0.8,0,1-0.4,1.1-0.8h0.7v6.6h-1v-5h-0.8V53.5z"/>
			<path class="st6" d="M381.6,63c0.8,0,1-0.4,1.1-0.8h0.7v6.6h-1v-5h-0.8V63z"/>
			<path class="st6" d="M380.9,73.2c0-1.1,0.6-1.7,1.6-1.7c1,0,1.6,0.6,1.6,1.7v3.4c0,1.1-0.6,1.7-1.6,1.7c-1,0-1.6-0.6-1.6-1.7
				V73.2z M381.9,76.7c0,0.5,0.2,0.7,0.5,0.7c0.3,0,0.5-0.2,0.5-0.7v-3.6c0-0.5-0.2-0.7-0.5-0.7c-0.3,0-0.5,0.2-0.5,0.7V76.7z"/>
			<path class="st6" d="M380.9,82.7c0-1.1,0.6-1.7,1.6-1.7c1,0,1.6,0.6,1.6,1.7v3.4c0,1.1-0.6,1.7-1.6,1.7c-1,0-1.6-0.6-1.6-1.7
				V82.7z M381.9,86.2c0,0.5,0.2,0.7,0.5,0.7c0.3,0,0.5-0.2,0.5-0.7v-3.6c0-0.5-0.2-0.7-0.5-0.7c-0.3,0-0.5,0.2-0.5,0.7V86.2z"/>
		</g>
		<g>
			<path class="st6" d="M376,25.1c0.8,0,1-0.4,1.1-0.8h0.7v6.6h-1v-5H376V25.1z"/>
			<path class="st6" d="M375.2,35.4c0-1.1,0.6-1.7,1.6-1.7c1,0,1.6,0.6,1.6,1.7v3.4c0,1.1-0.6,1.7-1.6,1.7c-1,0-1.6-0.6-1.6-1.7
				V35.4z M376.3,38.9c0,0.5,0.2,0.7,0.5,0.7c0.3,0,0.5-0.2,0.5-0.7v-3.6c0-0.5-0.2-0.7-0.5-0.7c-0.3,0-0.5,0.2-0.5,0.7V38.9z"/>
			<path class="st6" d="M375.2,44.8c0-1.1,0.6-1.7,1.6-1.7c1,0,1.6,0.6,1.6,1.7v3.4c0,1.1-0.6,1.7-1.6,1.7c-1,0-1.6-0.6-1.6-1.7
				V44.8z M376.3,48.3c0,0.5,0.2,0.7,0.5,0.7c0.3,0,0.5-0.2,0.5-0.7v-3.6c0-0.5-0.2-0.7-0.5-0.7c-0.3,0-0.5,0.2-0.5,0.7V48.3z"/>
			<path class="st6" d="M376,53.5c0.8,0,1-0.4,1.1-0.8h0.7v6.6h-1v-5H376V53.5z"/>
			<path class="st6" d="M376,72.4c0.8,0,1-0.4,1.1-0.8h0.7v6.6h-1v-5H376V72.4z"/>
			<path class="st6" d="M376,81.9c0.8,0,1-0.4,1.1-0.8h0.7v6.6h-1v-5H376V81.9z"/>
			<path class="st6" d="M376,91.4c0.8,0,1-0.4,1.1-0.8h0.7v6.6h-1v-5H376V91.4z"/>
		</g>
	</g>
	<g>
		<g>
			<path class="st6" d="M86.2,126.9c0-1.1,0.6-1.7,1.6-1.7c1,0,1.6,0.6,1.6,1.7v3.4c0,1.1-0.6,1.7-1.6,1.7c-1,0-1.6-0.6-1.6-1.7
				V126.9z M87.3,130.4c0,0.5,0.2,0.7,0.5,0.7c0.3,0,0.5-0.2,0.5-0.7v-3.6c0-0.5-0.2-0.7-0.5-0.7c-0.3,0-0.5,0.2-0.5,0.7V130.4z"/>
			<path class="st6" d="M86.2,136.3c0-1.1,0.6-1.7,1.6-1.7c1,0,1.6,0.6,1.6,1.7v3.4c0,1.1-0.6,1.7-1.6,1.7c-1,0-1.6-0.6-1.6-1.7
				V136.3z M87.3,139.8c0,0.5,0.2,0.7,0.5,0.7c0.3,0,0.5-0.2,0.5-0.7v-3.6c0-0.5-0.2-0.7-0.5-0.7c-0.3,0-0.5,0.2-0.5,0.7V139.8z"/>
			<path class="st6" d="M87,145c0.8,0,1-0.4,1.1-0.8h0.7v6.6h-1v-5H87V145z"/>
			<path class="st6" d="M86.2,155.2c0-1.1,0.6-1.7,1.6-1.7c1,0,1.6,0.6,1.6,1.7v3.4c0,1.1-0.6,1.7-1.6,1.7c-1,0-1.6-0.6-1.6-1.7
				V155.2z M87.3,158.7c0,0.5,0.2,0.7,0.5,0.7c0.3,0,0.5-0.2,0.5-0.7v-3.6c0-0.5-0.2-0.7-0.5-0.7c-0.3,0-0.5,0.2-0.5,0.7V158.7z"/>
			<path class="st6" d="M87,163.9c0.8,0,1-0.4,1.1-0.8h0.7v6.6h-1v-5H87V163.9z"/>
			<path class="st6" d="M86.2,174.1c0-1.1,0.6-1.7,1.6-1.7c1,0,1.6,0.6,1.6,1.7v3.4c0,1.1-0.6,1.7-1.6,1.7c-1,0-1.6-0.6-1.6-1.7
				V174.1z M87.3,177.7c0,0.5,0.2,0.7,0.5,0.7c0.3,0,0.5-0.2,0.5-0.7v-3.6c0-0.5-0.2-0.7-0.5-0.7c-0.3,0-0.5,0.2-0.5,0.7V177.7z"/>
			<path class="st6" d="M87,182.9c0.8,0,1-0.4,1.1-0.8h0.7v6.6h-1v-5H87V182.9z"/>
			<path class="st6" d="M86.2,193.1c0-1.1,0.6-1.7,1.6-1.7c1,0,1.6,0.6,1.6,1.7v3.4c0,1.1-0.6,1.7-1.6,1.7c-1,0-1.6-0.6-1.6-1.7
				V193.1z M87.3,196.6c0,0.5,0.2,0.7,0.5,0.7c0.3,0,0.5-0.2,0.5-0.7V193c0-0.5-0.2-0.7-0.5-0.7c-0.3,0-0.5,0.2-0.5,0.7V196.6z"/>
			<path class="st6" d="M86.2,202.5c0-1.1,0.6-1.7,1.6-1.7c1,0,1.6,0.6,1.6,1.7v3.4c0,1.1-0.6,1.7-1.6,1.7c-1,0-1.6-0.6-1.6-1.7
				V202.5z M87.3,206c0,0.5,0.2,0.7,0.5,0.7c0.3,0,0.5-0.2,0.5-0.7v-3.6c0-0.5-0.2-0.7-0.5-0.7c-0.3,0-0.5,0.2-0.5,0.7V206z"/>
			<path class="st6" d="M86.2,212c0-1.1,0.6-1.7,1.6-1.7c1,0,1.6,0.6,1.6,1.7v3.4c0,1.1-0.6,1.7-1.6,1.7c-1,0-1.6-0.6-1.6-1.7V212z
				 M87.3,215.5c0,0.5,0.2,0.7,0.5,0.7c0.3,0,0.5-0.2,0.5-0.7v-3.6c0-0.5-0.2-0.7-0.5-0.7c-0.3,0-0.5,0.2-0.5,0.7V215.5z"/>
			<path class="st6" d="M87,230.1c0.8,0,1-0.4,1.1-0.8h0.7v6.6h-1v-5H87V230.1z"/>
		</g>
		<g>
			<path class="st6" d="M92.6,163.9c0.8,0,1-0.4,1.1-0.8h0.7v6.6h-1v-5h-0.8V163.9z"/>
			<path class="st6" d="M92.6,173.4c0.8,0,1-0.4,1.1-0.8h0.7v6.6h-1v-5h-0.8V173.4z"/>
			<path class="st6" d="M91.9,183.6c0-1.1,0.6-1.7,1.6-1.7c1,0,1.6,0.6,1.6,1.7v3.4c0,1.1-0.6,1.7-1.6,1.7c-1,0-1.6-0.6-1.6-1.7
				V183.6z M92.9,187.1c0,0.5,0.2,0.7,0.5,0.7c0.3,0,0.5-0.2,0.5-0.7v-3.6c0-0.5-0.2-0.7-0.5-0.7c-0.3,0-0.5,0.2-0.5,0.7V187.1z"/>
			<path class="st6" d="M91.9,193.1c0-1.1,0.6-1.7,1.6-1.7c1,0,1.6,0.6,1.6,1.7v3.4c0,1.1-0.6,1.7-1.6,1.7c-1,0-1.6-0.6-1.6-1.7
				V193.1z M92.9,196.6c0,0.5,0.2,0.7,0.5,0.7c0.3,0,0.5-0.2,0.5-0.7V193c0-0.5-0.2-0.7-0.5-0.7c-0.3,0-0.5,0.2-0.5,0.7V196.6z"/>
			<path class="st6" d="M92.6,201.8c0.8,0,1-0.4,1.1-0.8h0.7v6.6h-1v-5h-0.8V201.8z"/>
			<path class="st6" d="M92.6,220.7c0.8,0,1-0.4,1.1-0.8h0.7v6.6h-1v-5h-0.8V220.7z"/>
		</g>
		<g>
			<path class="st6" d="M80.6,155.2c0-1.1,0.6-1.7,1.6-1.7c1,0,1.6,0.6,1.6,1.7v3.4c0,1.1-0.6,1.7-1.6,1.7c-1,0-1.6-0.6-1.6-1.7
				V155.2z M81.6,158.7c0,0.5,0.2,0.7,0.5,0.7c0.3,0,0.5-0.2,0.5-0.7v-3.6c0-0.5-0.2-0.7-0.5-0.7c-0.3,0-0.5,0.2-0.5,0.7V158.7z"/>
			<path class="st6" d="M81.3,163.9c0.8,0,1-0.4,1.1-0.8h0.7v6.6h-1v-5h-0.8V163.9z"/>
			<path class="st6" d="M81.3,173.4c0.8,0,1-0.4,1.1-0.8h0.7v6.6h-1v-5h-0.8V173.4z"/>
			<path class="st6" d="M80.6,183.6c0-1.1,0.6-1.7,1.6-1.7c1,0,1.6,0.6,1.6,1.7v3.4c0,1.1-0.6,1.7-1.6,1.7c-1,0-1.6-0.6-1.6-1.7
				V183.6z M81.6,187.1c0,0.5,0.2,0.7,0.5,0.7c0.3,0,0.5-0.2,0.5-0.7v-3.6c0-0.5-0.2-0.7-0.5-0.7c-0.3,0-0.5,0.2-0.5,0.7V187.1z"/>
			<path class="st6" d="M81.3,192.3c0.8,0,1-0.4,1.1-0.8h0.7v6.6h-1v-5h-0.8V192.3z"/>
			<path class="st6" d="M80.6,202.5c0-1.1,0.6-1.7,1.6-1.7c1,0,1.6,0.6,1.6,1.7v3.4c0,1.1-0.6,1.7-1.6,1.7c-1,0-1.6-0.6-1.6-1.7
				V202.5z M81.6,206c0,0.5,0.2,0.7,0.5,0.7c0.3,0,0.5-0.2,0.5-0.7v-3.6c0-0.5-0.2-0.7-0.5-0.7c-0.3,0-0.5,0.2-0.5,0.7V206z"/>
		</g>
		<g>
			<path class="st6" d="M75,136.3c0-1.1,0.6-1.7,1.6-1.7c1,0,1.6,0.6,1.6,1.7v3.4c0,1.1-0.6,1.7-1.6,1.7c-1,0-1.6-0.6-1.6-1.7V136.3
				z M76,139.8c0,0.5,0.2,0.7,0.5,0.7c0.3,0,0.5-0.2,0.5-0.7v-3.6c0-0.5-0.2-0.7-0.5-0.7c-0.3,0-0.5,0.2-0.5,0.7V139.8z"/>
			<path class="st6" d="M75.7,154.5c0.8,0,1-0.4,1.1-0.8h0.7v6.6h-1v-5h-0.8V154.5z"/>
			<path class="st6" d="M75,164.7c0-1.1,0.6-1.7,1.6-1.7c1,0,1.6,0.6,1.6,1.7v3.4c0,1.1-0.6,1.7-1.6,1.7c-1,0-1.6-0.6-1.6-1.7V164.7
				z M76,168.2c0,0.5,0.2,0.7,0.5,0.7c0.3,0,0.5-0.2,0.5-0.7v-3.6c0-0.5-0.2-0.7-0.5-0.7c-0.3,0-0.5,0.2-0.5,0.7V168.2z"/>
			<path class="st6" d="M75,183.6c0-1.1,0.6-1.7,1.6-1.7c1,0,1.6,0.6,1.6,1.7v3.4c0,1.1-0.6,1.7-1.6,1.7c-1,0-1.6-0.6-1.6-1.7V183.6
				z M76,187.1c0,0.5,0.2,0.7,0.5,0.7c0.3,0,0.5-0.2,0.5-0.7v-3.6c0-0.5-0.2-0.7-0.5-0.7c-0.3,0-0.5,0.2-0.5,0.7V187.1z"/>
			<path class="st6" d="M75,193.1c0-1.1,0.6-1.7,1.6-1.7c1,0,1.6,0.6,1.6,1.7v3.4c0,1.1-0.6,1.7-1.6,1.7c-1,0-1.6-0.6-1.6-1.7V193.1
				z M76,196.6c0,0.5,0.2,0.7,0.5,0.7c0.3,0,0.5-0.2,0.5-0.7V193c0-0.5-0.2-0.7-0.5-0.7c-0.3,0-0.5,0.2-0.5,0.7V196.6z"/>
			<path class="st6" d="M75,202.5c0-1.1,0.6-1.7,1.6-1.7c1,0,1.6,0.6,1.6,1.7v3.4c0,1.1-0.6,1.7-1.6,1.7c-1,0-1.6-0.6-1.6-1.7V202.5
				z M76,206c0,0.5,0.2,0.7,0.5,0.7c0.3,0,0.5-0.2,0.5-0.7v-3.6c0-0.5-0.2-0.7-0.5-0.7c-0.3,0-0.5,0.2-0.5,0.7V206z"/>
			<path class="st6" d="M75.7,230.1c0.8,0,1-0.4,1.1-0.8h0.7v6.6h-1v-5h-0.8V230.1z"/>
		</g>
	</g>
	<g>
		<path class="st7" d="M395,289c-29.5-11.9-31.7-53-31.7-53h6.3V231c15,0,25.3-9.3,25.3-9.3l0,0c0,0,10.4,9.3,25.3,9.3v4.9h6.3
			C426.6,236,424.5,277.1,395,289L395,289z"/>
		<path class="st7" d="M395,283.6c-19.3-9.1-24.9-33-26.5-43.4h5.8V235c9.5-1.1,16.8-5.2,20.7-7.9c3.9,2.7,11.2,6.8,20.7,7.9v5.2
			h5.8C419.9,250.6,414.3,274.5,395,283.6z"/>
		<g>
			<path class="st8" d="M405.3,264.6h-20.6c-0.7,0-1.4-0.6-1.4-1.4v-12.3c0-0.7,0.6-1.4,1.4-1.4h20.6c0.7,0,1.4,0.6,1.4,1.4v12.3
				C406.6,263.9,406,264.6,405.3,264.6z"/>
			<path class="st8" d="M395.4,237c-4.8-0.2-8.8,3.6-8.8,8.4v0.9c0,0.3,0.3,0.6,0.6,0.6h2.1c0.3,0,0.6-0.3,0.6-0.6v-0.7
				c0-2.7,2-5.1,4.7-5.2c3-0.2,5.4,2.2,5.4,5.1v0.9c0,0.3,0.3,0.6,0.6,0.6h2.1c0.3,0,0.6-0.3,0.6-0.6v-0.6
				C403.4,241.1,399.9,237.2,395.4,237z"/>
			<path class="st9" d="M397.2,255.4c0-1.2-1-2.2-2.2-2.2c-1.2,0-2.2,1-2.2,2.2c0,0.9,0.5,1.6,1.2,2l-0.8,3.5h3.5l-0.8-3.5
				C396.7,257,397.2,256.3,397.2,255.4z"/>
		</g>
	</g>
	<g>
		<path class="st7" d="M301.4,146.9h-70.7c-1.8,0-3.3-1.5-3.3-3.3V104c0-1.8,1.5-3.3,3.3-3.3h70.7c1.8,0,3.3,1.5,3.3,3.3v39.5
			C304.7,145.4,303.3,146.9,301.4,146.9z"/>
		<g>
			<path class="st7" d="M234.7,140.4h22.2c0.6,0,1.2-0.5,1.2-1.2v-30.9c0-0.6-0.5-1.2-1.2-1.2h-22.2c-0.6,0-1.1,0.5-1.1,1.2v30.9
				C233.6,139.9,234.1,140.4,234.7,140.4z"/>
			<path class="st8" d="M245.8,140.4h-11.1c-0.6,0-1.1-0.5-1.1-1.1v-7.7c0,0,6.2-0.3,7.3-1.6c1-1.3-0.1-3.4-0.1-3.4
				c-0.4-0.5-0.5-3.8-0.5-3.8s0,0-0.4-0.1c-0.4-0.1-0.9-2.9-0.9-3.9s0.9-1.4,0.9-1.4s-0.9-6.7,5.9-6.7c6.8,0,5.9,6.7,5.9,6.7
				s0.9,0.4,0.9,1.4s-0.5,3.8-0.9,3.9c-0.4,0.1-0.4,0.1-0.4,0.1s-0.1,3.3-0.5,3.8c0,0-1.2,2.1-0.1,3.4c1,1.3,7.3,1.6,7.3,1.6v7.7
				c0,0.6-0.5,1.1-1.1,1.1H245.8z"/>
		</g>
		<g>
			<path class="st8" d="M297,140.6h-15.2c-0.6,0-1.2-0.5-1.2-1.2l0,0c0-0.6,0.5-1.2,1.2-1.2H297c0.6,0,1.2,0.5,1.2,1.2l0,0
				C298.1,140,297.6,140.6,297,140.6z"/>
			<path class="st8" d="M297,109.3h-31.5c-0.6,0-1.2-0.5-1.2-1.2l0,0c0-0.6,0.5-1.2,1.2-1.2H297c0.6,0,1.2,0.5,1.2,1.2l0,0
				C298.1,108.8,297.6,109.3,297,109.3z"/>
			<path class="st8" d="M283.6,117.1h-18.1c-0.6,0-1.2-0.5-1.2-1.2l0,0c0-0.6,0.5-1.2,1.2-1.2h18.1c0.6,0,1.2,0.5,1.2,1.2l0,0
				C284.7,116.6,284.2,117.1,283.6,117.1z"/>
			<path class="st8" d="M277.8,124.9h-12.3c-0.6,0-1.2-0.5-1.2-1.2l0,0c0-0.6,0.5-1.2,1.2-1.2h12.3c0.6,0,1.2,0.5,1.2,1.2l0,0
				C279,124.4,278.4,124.9,277.8,124.9z"/>
			<path class="st8" d="M283.6,132.7h-18.1c-0.6,0-1.2-0.5-1.2-1.2l0,0c0-0.6,0.5-1.2,1.2-1.2h18.1c0.6,0,1.2,0.5,1.2,1.2l0,0
				C284.7,132.2,284.2,132.7,283.6,132.7z"/>
		</g>
	</g>
	<g>
		<g>
			<polygon class="st7" points="154.8,223.6 154.8,268 142.8,280 111.1,280 111.1,223.6 			"/>
			<polygon class="st10" points="154.8,268 142.8,280 142.8,268 			"/>
		</g>
		<g>
			<line class="st7" x1="121.7" y1="230.8" x2="148.1" y2="230.8"/>
			<line class="st7" x1="117.7" y1="235.7" x2="148.1" y2="235.7"/>
			<line class="st7" x1="117.7" y1="240.7" x2="148.1" y2="240.7"/>
			<line class="st7" x1="117.7" y1="245.7" x2="148.1" y2="245.7"/>
			<line class="st7" x1="117.7" y1="250.6" x2="148.1" y2="250.6"/>
			<line class="st7" x1="117.7" y1="255.6" x2="148.1" y2="255.6"/>
			<line class="st7" x1="117.7" y1="260.6" x2="148.1" y2="260.6"/>
			<line class="st7" x1="117.7" y1="265.5" x2="144.1" y2="265.5"/>
		</g>
		<g>
			<polyline class="st7" points="156.9,230.8 162,230.8 162,275.2 150,287.2 118.3,287.2 118.3,281.9 			"/>
			<polygon class="st10" points="162,275.2 150,287.2 150,275.2 			"/>
		</g>
	</g>
	<g>
		<path class="st9" d="M318.6,318.1h-105c-2.3,0-4.2-1.9-4.2-4.2V196.9c0-2.3,1.9-4.2,4.2-4.2h105c2.3,0,4.2,1.9,4.2,4.2v116.9
			C322.8,316.2,320.9,318.1,318.6,318.1z"/>
		<g class="st11">
			<g>
				<line class="st12" x1="320.5" y1="234.5" x2="211.6" y2="234.5"/>
				<line class="st12" x1="320.5" y1="248.4" x2="211.6" y2="248.4"/>
				<line class="st12" x1="320.5" y1="262.3" x2="211.6" y2="262.3"/>
				<line class="st12" x1="320.5" y1="276.3" x2="211.6" y2="276.3"/>
				<line class="st12" x1="320.5" y1="290.2" x2="211.6" y2="290.2"/>
				<line class="st12" x1="320.5" y1="304.1" x2="211.6" y2="304.1"/>
				<line class="st12" x1="320.5" y1="220.6" x2="211.6" y2="220.6"/>
				<line class="st12" x1="320.5" y1="206.6" x2="211.6" y2="206.6"/>
			</g>
			<g>
				<line class="st12" x1="294.5" y1="315.8" x2="294.5" y2="194.9"/>
				<line class="st12" x1="280.3" y1="315.8" x2="280.3" y2="194.9"/>
				<line class="st12" x1="266.1" y1="315.8" x2="266.1" y2="194.9"/>
				<line class="st12" x1="251.9" y1="315.8" x2="251.9" y2="194.9"/>
				<line class="st12" x1="237.7" y1="315.8" x2="237.7" y2="194.9"/>
				<line class="st12" x1="223.4" y1="315.8" x2="223.4" y2="194.9"/>
				<line class="st12" x1="308.7" y1="315.8" x2="308.7" y2="194.9"/>
			</g>
		</g>
		<g>
			<g>
				<path class="st7" d="M262.1,293.6c1.4-6.9,3-12.8,5-18.5c0.4-1.2,0.9-2.4,1.4-3.8c1.2-3.2,3.8-9.6,2.8-11.5
					c-0.2-0.4-0.7-0.7-1.1-0.7c-0.1,0-0.1,0-0.3,0.1c-2.8,2.3-4.6,8.7-6,13.4l-0.4,1.6c-1.8,6.1-2.9,12.6-3.7,19.1"/>
				<path class="st7" d="M266.3,293.8c1.3-6.5,2.8-12.1,4.7-17.4c0.4-1.2,0.9-2.4,1.4-3.7c2-5,4.4-11.3,2.7-14.8
					c-0.9-1.8-2.8-3-4.8-3c-1.1,0-2,0.3-2.9,1c-3.8,3.1-5.8,9.9-7.3,15.4l-0.4,1.6c-1.8,6.1-3,12.5-3.7,19"/>
				<path class="st7" d="M270.6,293.5c1.1-5.3,2.5-10.5,4.3-15.7c2.1-6.1,7-15.4,3.8-21.7c-2.6-5.2-9.3-7.1-13.9-3.3
					c-5.3,4.3-7.3,12.9-9.1,19c-1.7,5.9-2.9,12-3.7,18.1"/>
				<path class="st7" d="M275.1,292.2c1.1-4.8,2.3-9,3.7-13.1c0.4-1,0.8-2.2,1.3-3.4c2.6-6.5,5.8-14.7,2.4-21.5
					c-2.3-4.6-7.1-7.6-12.1-7.6c-3,0-5.8,1-8.1,2.9c-5.8,4.8-8.2,13-10,19.6l-0.4,1.5c-1.5,5.3-2.7,10.8-3.5,16.3"/>
				<path class="st7" d="M279.9,289.8c0.8-3.3,1.8-6.4,2.8-9.3c0.3-1,0.8-2.1,1.2-3.2c2.7-6.9,6.4-16.4,2.2-24.9
					c-3-6-9.2-9.9-15.8-9.9c-3.9,0-7.6,1.3-10.7,3.8c-6.8,5.6-9.4,14.5-11.4,21.6l-0.4,1.5c-1.3,4.5-2.3,9-3.1,13.6"/>
				<path class="st7" d="M284.8,285.8c0.9-6.6,6.2-14.5,6.8-23.6c0.5-8.4-2.3-13.8-4.2-16.5c-1-1.3-1.1-3.1-0.6-4.6
					c0.9-2.5,1.6-6.6-0.1-11.9"/>
				<path class="st7" d="M272.3,216.9c7,4.4,11.5,11.2,11.8,20c0.1,3.2-2.5,4.3-5.7,3.3c-6.8-2.1-22.9-7.3-32.7,20.3
					c-2,5.6-3.1,11.6-4.2,17.6"/>
				<path class="st7" d="M258.5,217.4c1.7,0,7,0,12.5,2.9c6.6,3.5,10.8,11.9,8.6,14c-2.4,2.4-6.7-3.3-20.1,2.2
					c-6.4,2.6-11,8-14.1,14.1c-1.4,2.8-2.6,5.7-3.5,8.7c-1.3,3.8-2.2,7.7-3.1,11.6"/>
				<path class="st7" d="M250.9,222.5c2.8-0.8,5.2-0.9,7.3-1c11.8-0.3,16.3,6,14.9,7.6c-1.1,1.3-3.5,0.6-6.9,1
					c-9.6,1.2-17.2,6.7-22.3,14.7c-2.6,4.1-4.5,8.5-6,13.1c-0.3,0.8-0.5,1.7-0.8,2.5"/>
				<path class="st7" d="M245.3,229.2c5.3-4.1,10.3-4.7,14-4.6c1.5,0,5.2,0.5,5.7,1.9c0.7,1.9-5.4-0.7-14.1,5.1
					c-11.2,7.4-12.5,14.5-12.5,14.5"/>
				<path class="st7" d="M289.6,280.8c0,0,6.1-13.1,5.4-23.2c-0.4-6.5-3.6-10.6-4.1-13.5c-0.5-2.9,0.9-3.7,0.5-6.3"/>
			</g>
			<g>
				<polyline class="st7" points="217,219.2 217,200.7 235.5,200.7 				"/>
				<polyline class="st7" points="235.5,310 217,310 217,291.5 				"/>
				<polyline class="st7" points="315.2,219.2 315.2,200.7 296.7,200.7 				"/>
				<polyline class="st7" points="296.7,310 315.2,310 315.2,291.5 				"/>
			</g>
		</g>
	</g>
	<g>
		<path class="st6" d="M235.8,406.1c0.5,1.3,1.3,2.6,2.2,3.8c3.9,4.8,11.1,9,17.6,16.7c8.1,9.7,13.9,16.8,19.4,20
			c3.9,2.3,5.6,4.2,6.3,6.7c0,0,0,0,0,0c0.3,1,0.4,2.1,0.4,3.3c0.1,2.2,1.2,3.8,3.2,6.6c1.5,2.1,3.6,5,6,9.2
			c30.6,0.3,61.1-3.7,88.6-13.6c0,0,0,0,0,0c0,0,0,0,0,0c-5.3-8.1-9.1-13.9-9.1-13.9c-2-9.5-4.9-13.2-7.8-21.1
			c-2.9-7.8-0.5-14.8,0.7-24.4c1.2-9.7-0.7-18.7-1.7-24.8c-1-6.1,0.2-11.9,0-13.2s-5.9-8.5-8.2-13.8c-1-2.4-2.4-4.5-4.1-6.4
			c-2.1-2.3-4.5-4-6.9-5c-1.3-0.5-2.4-0.8-3.5-0.9c-2.7-0.4-4.9,0.1-7.1,0.1c-3.1,0-9.5-5.3-13.8-6.1c-0.8-0.2-1.6-0.3-2.4-0.3h0
			c-3.5-0.3-7.2,0-11.3,0.3c-4.1,0.3-8.9-3.6-12.7-4.8c0,0,0,0-0.1,0c-1-0.3-1.8-0.4-2.7-0.3c-4.1,0.7-11.7,1.4-11.7,1.4
			s-0.7-5.3-1-12.4c-0.1-1.2-0.1-2.4-0.3-3.6v0c-0.4-4.4-1-8.3-1.1-11.9c0-0.9,0-1.9,0-2.8c0.3-5.1,0.2-9.1,0-16.8
			c0-0.3,0-0.5,0-0.8c-0.1-2.4,0-4.7-0.1-6.9c0,0,0,0,0,0c-0.3-5.1-1.4-8.8-6.5-9.6c-4.4-0.7-7.5,1.5-9.3,8.8
			c-1.9,7.3-3.2,6.8-3.7,17.5c-0.5,10.7-2.9,17.5-2.5,22.9c0.3,5.4-0.8,16-0.8,16c-2-1-3.9-0.2-4.3,0.7c-0.4,0.8-1.9,9.2-3,15.1
			c-1.1,5.3-5.9,10.2-7.6,13.8c0,0,0,0.1,0,0.1c-0.2,0.4-0.4,0.8-0.5,1.2c-1,3.7-0.5,11.7-0.5,21.9
			C235.8,388.8,233.3,399.3,235.8,406.1z"/>
		<g>
			<path class="st13" d="M274.9,294.7c-0.1,0.9-0.1,1.8,0,2.8c-6.5-1.2-19,2-19.2,5.8c-0.2,4.7-0.8,15.7,1.6,18.3
				c2.4,2.6,7.5,4.2,7.5,4.2c-0.4,0-0.8,0.1-1.1,0.1c0,0,0,0,0,0c0,0-0.1,0-0.1,0c-1.7,0.4-3.1,1.2-4.2,2.4l0,0
				c-5,5.1-5.2,16.4-3.5,21.8c6.8,22.6-4.2,40.4-8.1,38.3c-3.9-2.2-4.2-21.6-3-26.1c1.2-4.5,1-8.2,1-8.2c-1.7-0.6-5.4,0.3-8.7,1.3
				c0,0,0-0.1,0-0.1c1.8-3.6,6.6-8.5,7.6-13.8c1.2-5.9,2.7-14.3,3-15.1c0.4-0.8,2.2-1.7,4.3-0.7c0,0,1.2-10.5,0.8-16
				c-0.3-5.4,2-12.2,2.5-22.9c0.5-10.7,1.9-10.2,3.7-17.5c1.9-7.3,4.9-9.5,9.3-8.8c5.1,0.8,6.2,4.5,6.5,9.6c-0.6-0.5-1.2-1-1.8-1.5
				c-1.7-1.2-3.6-1.9-5.6-1.7c-2.3,0.3-4.4,2.7-5.7,5.2v0c-1.9,3.6-2.2,7.5,0.5,6.2c3-1.5,9.1-1,12.9-0.5
				C275.1,285.6,275.2,289.6,274.9,294.7z"/>
			<path class="st13" d="M281.8,456.7c0-1.2-0.2-2.3-0.4-3.3c0,0,0,0,0,0c-0.7-2.5-2.4-4.4-6.3-6.7c-5.4-3.2-11.2-10.4-19.4-20
				c-6.5-7.7-13.7-11.9-17.6-16.7c4.9,2.7,11.6,1.3,13.7,5.5c3.1,6.1,17.4,15.3,17.4,15.3C283.3,444.7,281.8,456.7,281.8,456.7z"/>
			<path class="st13" d="M291.6,324.4c-1.6-0.3-6.1,10.7-6.6,14.6c-1.1,10.2,4.1,41.5-2.6,40.8c-2.8-0.3-6-14.9-6.2-21.7
				c-0.6-20.7,0.2-29.3,0.2-29.3s-1.5-11.5-0.5-19.3c0.1,1.2,0.2,2.4,0.3,3.6c0.3,7.1,1,12.4,1,12.4s7.6-0.7,11.7-1.4
				C289.8,324,290.7,324.1,291.6,324.4z"/>
			<path class="st13" d="M315.8,328.9c-3.6,0.3-7.2,3.9-10.2,4.5c-3.6,0.8-10.3-7.4-13.9-9c3.8,1.2,8.7,5,12.7,4.8
				C308.6,328.9,312.3,328.5,315.8,328.9z"/>
			<path class="st13" d="M339,335.2c-1.3,1.4-3.7,5.5-4.3,7.4c-2.9,9.4-0.2,45-4.9,39.2c-6.1-7.6,0.3-33.8-4.2-43.9
				c-1.4-3.2-6.4-8.3-7.5-8.8c4.2,0.8,10.7,6.1,13.8,6.1C334.1,335.3,336.3,334.9,339,335.2z"/>
			<path class="st13" d="M379.6,458.8c-4.8-5.4-9.7-10.5-13-12.4c-7.9-4.7-10.2-9.5-10.9-17.6c-0.7-8.1,1.4-7.9,3.7-15.9
				c2.4-8-2-17.8-1.7-15.7c0.3,2.1-3.4,16.9-6.2,17.6c-2.8,0.7-3.7-9.2-4-17.3c-0.3-8.1,4.1-45.9,2.8-53.3c-0.2-1.2-0.5-2.2-1-3.1
				c1.7,1.8,3.1,4,4.1,6.4c2.2,5.3,8,12.4,8.2,13.8c0.2,1.4-1,7.1,0,13.2c1,6.1,2.9,15.1,1.7,24.8c-1.2,9.7-3.6,16.6-0.7,24.4
				c2.9,7.8,5.8,11.5,7.8,21.1C370.5,444.8,374.3,450.7,379.6,458.8z"/>
			<path class="st13" d="M307.9,349c1.8,1.9,2.9,26.8,4,32.9c1,6.1-2.2,20.7-4,16.3C306.1,393.7,300.6,341.2,307.9,349z"/>
		</g>
		<g>
			<path class="st7" d="M291,472.4c-2.4-4.2-4.4-7-6-9.2c-2-2.7-3.2-4.4-3.2-6.6c0-1.2-0.2-2.3-0.4-3.3c0,0,0,0,0,0
				c-0.7-2.5-2.4-4.4-6.3-6.7c-5.4-3.2-11.2-10.4-19.4-20c-6.5-7.7-13.7-11.9-17.6-16.7c-1-1.2-1.7-2.5-2.2-3.8
				c-2.5-6.8,0-17.3,0-27.5c0-10.2-0.5-18.2,0.5-21.9c0.1-0.4,0.3-0.8,0.5-1.2c0,0,0-0.1,0-0.1c1.8-3.6,6.6-8.5,7.6-13.8
				c1.2-5.9,2.7-14.3,3-15.1c0.4-0.8,2.2-1.7,4.3-0.7c0,0,1.2-10.5,0.8-16c-0.3-5.4,2-12.2,2.5-22.9c0.5-10.7,1.9-10.2,3.7-17.5
				c1.9-7.3,4.9-9.5,9.3-8.8c5.1,0.8,6.2,4.5,6.5,9.6c0,0,0,0,0,0c0.1,2.1,0.1,4.4,0.1,6.9c0,0.3,0,0.6,0,0.8
				c0.2,7.8,0.3,11.8,0,16.8c-0.1,0.9-0.1,1.8,0,2.8c0.1,3.6,0.7,7.5,1.1,11.9v0c0.1,1.2,0.2,2.4,0.3,3.6c0.3,7.1,1,12.4,1,12.4
				s7.6-0.7,11.7-1.4c0.8-0.1,1.7,0,2.7,0.3c0,0,0.1,0,0.1,0c3.8,1.2,8.7,5,12.7,4.8c4.1-0.3,7.8-0.7,11.3-0.3h0
				c0.8,0.1,1.6,0.2,2.4,0.3c4.2,0.8,10.7,6.1,13.8,6.1c2.2,0,4.4-0.4,7.1-0.1c1.1,0.1,2.2,0.4,3.5,0.9c2.4,0.9,4.9,2.7,6.9,5
				c1.7,1.8,3.1,4,4.1,6.4c2.2,5.3,8,12.4,8.2,13.8c0.2,1.4-1,7.1,0,13.2c1,6.1,2.9,15.1,1.7,24.8c-1.2,9.7-3.6,16.6-0.7,24.4
				c2.9,7.8,5.8,11.5,7.8,21.1c0,0,3.8,5.9,9.1,13.9c0,0,0,0,0,0"/>
			<path class="st7" d="M291,472.4"/>
			<path class="st7" d="M251.8,325.8c0,7.5-0.7,16.8-1.8,20.6c-1.1,3.8-0.4,16.8-2.4,22.2"/>
			<path class="st7" d="M255.6,331.7c0,0,5.2-5.9,9.1-5.9c3.8,0,7.7,2.5,11.8,2.9c4.1,0.5,8.3-2.6,12.2-3.3"/>
			<path class="st7" d="M258.6,304.4c0,0,7-2.6,10.6,0"/>
			<path class="st7" d="M263.9,301.1c0,0,2.2-0.6,5.3,1"/>
			<path class="st7" d="M262,283c0,0,3.6-0.9,7.2,0"/>
			<path class="st7" d="M236.9,355.4c0,0,4.5-2.2,6.3-2.4"/>
			<path class="st7" d="M248.8,362.3c0,0-2.7,4.2-3.2,6.2"/>
			<path class="st7" d="M262,264.7c0,0-1.1,8.6,0,9.4c1.1,0.8,9.5,1.5,10.1,0c0.7-1.5,0.8-7.8,0.8-7.8S268,257.6,262,264.7z"/>
			<path class="st7" d="M244.5,341.6c0,0,6.9-3.5,7.1-8.5c0.2-5-1.9-5-4.5-5"/>
			<path class="st7" d="M352.8,353c0.2,7.9-2,31-2.3,34.4c-0.2,3.4,0,12.1,0,12.1"/>
			<path class="st7" d="M303.2,334.8c7.5,10.9,0,6.8,4.8,58.7"/>
			<path class="st7" d="M370.5,444.8c0,0-6.6-5.2-7.8-8.1"/>
			<path class="st7" d="M278.1,442.4c2,3.3,3.2,10.5,3.3,11c0,0,0,0,0,0"/>
		</g>
	</g>
	<path class="st14" d="M434.6,427.3c-56.1,48.9-143.1,52.8-217.6,36.6v88.4h236.1V412.9H449C444.5,418,439.7,422.8,434.6,427.3z"/>
</g>
<g id="Graphics">
</g>
<g id="Icon_3">
</g>
<g id="Icon_2">
</g>
<g id="Icon_1">
</g>
<g id="Fingerprint">
</g>
</svg>
